<svg width="45" height="51" viewBox="0 0 45 51" fill="none" xmlns="http://www.w3.org/2000/svg">
<path d="M38.47 14.254L33.0035 15.9688C30.8227 9.01197 23.3825 5.12789 16.4256 7.30873C9.46881 9.48957 5.58473 16.9298 7.76557 23.8866L2.29908 25.6013C-0.825449 15.6351 4.73886 4.97253 14.7109 1.84224C24.6829 -1.28804 35.3397 4.28202 38.47 14.254Z" fill="#EC85B2"/>
<path d="M0.446289 23.9847C0.446289 23.9847 3.62836 52.3299 21.4779 50.9201C39.3274 49.5104 44.2185 39.5901 44.253 31.1947C44.2875 22.7994 40.3056 13.2646 40.3056 13.2646L0.446289 23.9847Z" fill="#EC85B2"/>
<path d="M2.08629 21.5392C0.682265 21.9305 -0.0312555 23.4956 0.613215 24.8018C3.10478 29.8771 10.1019 40.4475 23.8774 36.7073C37.3595 33.0534 40.1849 20.2157 40.7603 14.0933C40.9099 12.4706 39.385 11.2047 37.8199 11.642L2.08629 21.5392Z" fill="#358ACA"/>
<path d="M31.1623 33.8473C31.0357 33.6919 30.8976 33.5481 30.748 33.4272L30.7077 33.3984C29.672 32.495 28.4233 32.2764 28.2852 32.2534C28.2507 32.2534 28.2219 32.2246 28.2162 32.1958C28.1701 31.9369 28.0608 31.5053 27.8824 31.0853C27.6465 30.5213 27.3531 30.1243 27.0136 29.8999C26.7316 29.7158 26.4209 29.6525 26.0814 29.71C25.6153 29.7963 25.2758 30.0092 25.0629 30.3487C24.8557 30.6825 24.7637 31.137 24.8039 31.701C24.8327 32.121 24.9305 32.5181 25.0053 32.7482C25.0111 32.7655 25.0053 32.7827 24.9996 32.8058C24.9881 32.8288 24.9651 32.846 24.9363 32.8576L23.8257 33.197C23.7739 33.2143 23.7222 33.197 23.7049 33.151C23.3021 32.0922 22.6001 31.3269 21.8693 31.1543C21.432 31.0507 21.0004 31.1601 20.6034 31.4881C20.1085 31.8908 19.9359 32.5756 20.097 33.4733C20.2121 34.1177 20.4653 34.6586 20.471 34.6586C20.4825 34.6874 20.471 34.7219 20.448 34.7507C19.7115 35.3952 19.2339 36.1317 19.0325 36.943L19.021 36.9833C19.0037 37.0409 18.5894 38.3988 19.5791 40.0043L19.7115 40.2057H19.723C20.3157 40.9882 21.3629 41.3853 22.4044 41.2011L30.2704 38.8247H30.2877C31.4213 38.3183 32.106 37.1732 31.9507 36.0224C31.8989 35.4124 31.7262 34.5378 31.1738 33.8473H31.1623Z" fill="#FDD509"/>
</svg>
