<svg width="27" height="31" viewBox="0 0 27 31" fill="none" xmlns="http://www.w3.org/2000/svg">
<path d="M18.5938 26.1722V16.5882C18.5938 16.3643 18.4121 16.1826 18.1882 16.1826H0.40557C0.181695 16.1826 0 16.3643 0 16.5882V26.1722C0 26.3961 0.181695 26.5778 0.40557 26.5778H18.1882C18.4121 26.5778 18.5938 26.3961 18.5938 26.1722ZM1.9658 24.612V18.1484H16.628V24.612H1.9658Z" fill="#FF8A00"/>
<path d="M6.44665 19.2012C6.2678 19.043 6.04149 18.9193 5.77341 18.8337C5.51344 18.7506 5.20561 18.708 4.85803 18.708H3.03662V24.0392H4.42448V22.3338H4.85803C5.1979 22.3338 5.50086 22.29 5.75921 22.204C6.02445 22.1156 6.25036 21.9883 6.43124 21.8256C6.61456 21.6606 6.75448 21.4602 6.84614 21.2311C6.93536 21.0076 6.98079 20.7602 6.98079 20.4958C6.98079 20.2313 6.9382 20.0018 6.85384 19.7844C6.76624 19.5589 6.62916 19.3626 6.44625 19.2012H6.44665ZM5.59333 20.4958C5.59333 20.6028 5.57792 20.6994 5.5475 20.7829C5.51992 20.8587 5.48058 20.9204 5.42705 20.9719C5.37311 21.0238 5.30132 21.0648 5.21291 21.0944C5.11557 21.1272 4.99633 21.1439 4.85844 21.1439H4.42489V19.8919H4.85844C4.99796 19.8919 5.11841 19.9077 5.21656 19.9389C5.30497 19.9673 5.37716 20.0062 5.4307 20.0557C5.48342 20.104 5.52195 20.1616 5.54872 20.2313C5.57792 20.308 5.59293 20.3972 5.59293 20.4962L5.59333 20.4958Z" fill="#FF8A00"/>
<path d="M11.2342 19.4571C10.9974 19.2215 10.7094 19.0353 10.3785 18.9043C10.0495 18.7741 9.68251 18.708 9.28708 18.708H7.19434V24.0392H9.28708C9.6821 24.0392 10.0491 23.9739 10.3777 23.845C10.709 23.7148 10.9974 23.5286 11.2346 23.2914C11.4715 23.0545 11.6576 22.7686 11.7878 22.4421C11.9172 22.1176 11.9825 21.7583 11.9825 21.3738C11.9825 20.9893 11.9168 20.63 11.7878 20.3055C11.6576 19.9787 11.4715 19.6935 11.2342 19.4575V19.4571ZM10.5748 21.3734C10.5748 21.6111 10.5431 21.8256 10.4803 22.0106C10.4198 22.189 10.3339 22.3411 10.2252 22.462C10.1169 22.582 9.98831 22.672 9.83216 22.7365C9.67399 22.8022 9.49067 22.8351 9.28708 22.8351H8.58909V19.9113H9.28708C9.49067 19.9113 9.67399 19.9446 9.83216 20.0099C9.98831 20.0748 10.1169 20.1644 10.2252 20.2845C10.3339 20.4053 10.4198 20.557 10.4803 20.7359C10.5427 20.9208 10.5748 21.1353 10.5748 21.373V21.3734Z" fill="#FF8A00"/>
<path d="M12.2029 24.0388H13.5976V22.0657H15.4101V20.8587H13.5976V19.9117H15.7451V18.708H12.2029V24.0388Z" fill="#FF8A00"/>
<path d="M15.1701 9.66504H6.47222C6.24823 9.66504 6.06665 9.84662 6.06665 10.0706V11.2253C6.06665 11.4493 6.24823 11.6308 6.47222 11.6308H15.1701C15.3941 11.6308 15.5756 11.4493 15.5756 11.2253V10.0706C15.5756 9.84662 15.3941 9.66504 15.1701 9.66504Z" fill="#FF8A00"/>
<path d="M15.1701 12.6045H6.47222C6.24823 12.6045 6.06665 12.7861 6.06665 13.0101V14.1647C6.06665 14.3887 6.24823 14.5703 6.47222 14.5703H15.1701C15.3941 14.5703 15.5756 14.3887 15.5756 14.1647V13.0101C15.5756 12.7861 15.3941 12.6045 15.1701 12.6045Z" fill="#FF8A00"/>
<path d="M25.9073 9.05655L17.9403 1.08954C17.8641 1.01329 17.7611 0.970703 17.6536 0.970703H5.05011C3.65211 0.970703 2.5153 2.10792 2.5153 3.50592V14.301C2.5153 14.5248 2.69699 14.7065 2.92087 14.7065H4.07553C4.2994 14.7065 4.4811 14.5248 4.4811 14.301V3.50592C4.4811 3.1916 4.7366 2.93609 5.05052 2.93609H16.432V8.02965C16.432 9.42765 17.5692 10.5645 18.9672 10.5645H24.0604V28.4355C24.0604 28.7494 23.8049 29.0049 23.491 29.0049H5.05011C4.7362 29.0049 4.48069 28.7494 4.48069 28.4355V28.3775C4.48069 28.1536 4.29899 27.9719 4.07512 27.9719H2.92046C2.69659 27.9719 2.51489 28.1536 2.51489 28.3775V28.4355C2.51489 29.8335 3.65211 30.9707 5.0497 30.9707H23.4906C24.8886 30.9707 26.0254 29.8335 26.0254 28.4355V9.34329C26.0254 9.23581 25.9828 9.13239 25.9065 9.05655H25.9073ZM18.9672 8.59947C18.6529 8.59947 18.3974 8.34396 18.3974 8.03005V4.32639L22.6701 8.59947H18.9668H18.9672Z" fill="#FF8A00"/>
</svg>
