<svg width="54" height="51" viewBox="0 0 54 51" fill="none" xmlns="http://www.w3.org/2000/svg">
<path d="M45.6387 32.0816C46.5459 32.2644 47.4126 32.5285 48.2386 32.8602L53.2422 9.4063L16.6801 1.0918L11.69 25.8864C11.69 25.8864 3.2401 23.5572 1.14117 33.9706C-0.951002 44.3841 11.4192 46.2325 11.4192 46.2325C11.4192 46.2325 20.255 48.1351 27.9534 49.645C27.5878 47.7762 27.5742 45.8127 27.9737 43.8289C29.6055 35.7107 37.5137 30.4499 45.6319 32.0884L45.6387 32.0816Z" fill="#FDD509"/>
<path d="M47.7646 35.0604L48.2386 32.8599C47.4125 32.5281 46.5459 32.2641 45.6386 32.0813C37.5204 30.4495 29.6122 35.7036 27.9804 43.8218C27.5809 45.8056 27.5945 47.7691 27.9601 49.6379C30.1742 50.0712 32.2934 50.4707 34.0877 50.7889C46.3969 52.9488 47.7646 35.0604 47.7646 35.0604Z" fill="#69CA98"/>
<path d="M53.7242 8.54579L16.0542 0.970703L14.7915 7.25015L52.4615 14.8252L53.7242 8.54579Z" fill="#69CA98"/>
<path d="M39.1184 22.3732C39.071 22.1159 38.9966 21.8721 38.895 21.6419L38.8679 21.581C38.245 19.9086 36.945 18.8998 36.8028 18.7914C36.7622 18.7644 36.7487 18.717 36.7622 18.6831C36.8705 18.3581 37.006 17.8029 37.0601 17.2071C37.1346 16.4217 37.0466 15.7852 36.7961 15.3248C36.5929 14.9389 36.2679 14.6748 35.8414 14.5394C35.2591 14.3498 34.7377 14.3904 34.2841 14.6477C33.8372 14.905 33.4581 15.3722 33.1602 16.0357C32.9367 16.5368 32.8013 17.0446 32.7539 17.356C32.7539 17.3764 32.7336 17.4034 32.7133 17.417C32.6862 17.4373 32.6456 17.4441 32.605 17.4373L31.1289 17.1394C31.0612 17.1258 31.0138 17.0717 31.0206 17.0175C31.2102 15.5618 30.8784 14.255 30.1472 13.6118C29.7071 13.2259 29.1519 13.0905 28.4951 13.2123C27.6826 13.3681 27.0665 14.0451 26.7008 15.1759C26.4368 15.9883 26.3962 16.7602 26.3962 16.7602C26.3962 16.8008 26.3623 16.8347 26.3081 16.8482C25.0691 17.1326 24.0738 17.6878 23.3425 18.48L23.3019 18.5138C23.2478 18.568 21.941 19.8612 22.0899 22.3055L22.1103 22.6169H22.1238C22.3202 23.8831 23.2748 24.9799 24.5816 25.4065L35.0289 27.5122H35.056C36.6539 27.6408 38.1367 26.7471 38.6648 25.3388C38.983 24.6075 39.3148 23.5039 39.1049 22.38L39.1184 22.3732Z" fill="#EC85B2"/>
</svg>
