<svg width="28" height="20" viewBox="0 0 28 20" fill="none" xmlns="http://www.w3.org/2000/svg">
<path fill-rule="evenodd" clip-rule="evenodd" d="M28 1.99999C28 2.31825 27.8736 2.62347 27.6485 2.84852C27.4235 3.07356 27.1183 3.19999 26.8 3.19999H1.2C0.88174 3.19999 0.576515 3.07356 0.351472 2.84852C0.126428 2.62347 0 2.31825 0 1.99999C0 1.68173 0.126428 1.3765 0.351472 1.15146C0.576515 0.926416 0.88174 0.799988 1.2 0.799988H26.8C27.1183 0.799988 27.4235 0.926416 27.6485 1.15146C27.8736 1.3765 28 1.68173 28 1.99999ZM28 9.99999C28 10.3182 27.8736 10.6235 27.6485 10.8485C27.4235 11.0736 27.1183 11.2 26.8 11.2H1.2C0.88174 11.2 0.576515 11.0736 0.351472 10.8485C0.126428 10.6235 0 10.3182 0 9.99999C0 9.68173 0.126428 9.3765 0.351472 9.15146C0.576515 8.92642 0.88174 8.79999 1.2 8.79999H26.8C27.1183 8.79999 27.4235 8.92642 27.6485 9.15146C27.8736 9.3765 28 9.68173 28 9.99999ZM28 18C28 18.3182 27.8736 18.6235 27.6485 18.8485C27.4235 19.0736 27.1183 19.2 26.8 19.2H1.2C0.88174 19.2 0.576515 19.0736 0.351472 18.8485C0.126428 18.6235 0 18.3182 0 18C0 17.6817 0.126428 17.3765 0.351472 17.1515C0.576515 16.9264 0.88174 16.8 1.2 16.8H26.8C27.1183 16.8 27.4235 16.9264 27.6485 17.1515C27.8736 17.3765 28 17.6817 28 18Z" fill="black"/>
</svg>
