<svg width="1396" height="36" viewBox="0 0 1396 36" fill="none" xmlns="http://www.w3.org/2000/svg">
<path d="M32.113 24.7701C31.8553 24.1442 31.3491 23.7116 30.9165 23.4447C30.9441 23.4171 30.9625 23.3894 30.9901 23.3618C31.2938 22.9845 31.6068 22.3218 31.4319 21.3553C31.2386 20.3153 30.3182 19.7446 29.5819 19.4593C29.812 19.2292 30.0237 18.9255 30.1249 18.5665C30.263 18.0879 30.1894 17.5909 29.904 17.1123C29.3978 16.2563 28.6247 15.9249 27.9804 15.7961C28.1092 15.5844 28.1921 15.3635 28.2289 15.1242C28.2933 14.7376 28.2289 14.3879 28.1184 14.1117C28.3762 13.9829 28.6707 13.762 28.9468 13.357C29.4899 12.5931 29.269 11.7923 28.9192 11.2309C29.4438 10.9547 30.1433 10.4301 30.3366 9.5189C30.4655 8.90223 30.3826 8.35919 30.0881 7.91739C29.9685 7.73331 29.8212 7.58604 29.6739 7.47559C30.1341 7.12584 30.6404 6.54598 30.8889 5.60717C31.0637 4.97209 30.9901 4.43825 30.6772 4.03327C30.4195 3.69272 30.0421 3.52705 29.7384 3.44421C29.7568 3.2049 29.7384 2.91037 29.6003 2.60664C29.361 2.0636 28.864 1.66782 28.1184 1.41011C27.4005 1.1708 26.7654 1.18001 26.2408 1.45613C25.9095 1.63101 25.6886 1.87031 25.5321 2.09121C25.3756 2.02678 25.1915 1.97156 24.9707 1.95315C24.4092 1.91633 23.8385 2.16484 23.2771 2.68027C22.3659 3.51784 22.3015 4.42905 22.4763 5.07333C22.0161 5.24821 21.4455 5.6808 21.1141 6.73927C20.8196 7.65968 20.9393 8.36839 21.151 8.847C20.6816 8.94825 20.3042 9.17835 20.0373 9.53731C19.4298 10.3381 19.5679 11.5162 19.7243 12.1789C19.4114 12.3169 19.2273 12.5286 19.1169 12.7127C18.9144 13.0349 18.8591 13.4214 18.8683 13.7804C18.5278 13.6791 18.1412 13.6423 17.6994 13.6515C17.7915 13.449 17.8375 13.2373 17.8375 13.0164C17.8467 12.5102 17.635 12.0684 17.3773 11.7279C17.8007 11.5898 18.2609 11.3321 18.5462 10.8167C19.0892 9.84104 18.7395 8.97586 18.2885 8.42362C18.8407 8.05545 19.6047 7.36515 19.7888 6.31588C19.9912 5.17458 19.3286 4.37382 18.8315 3.95043C19.2917 3.39819 19.4758 2.73549 19.3286 2.0636C19.1261 1.14319 18.3529 0.388454 17.3497 0.13074C16.4569 -0.0993621 15.7021 -0.0257297 15.1039 0.351637C14.6161 0.646168 14.3491 1.07876 14.2203 1.3825C13.668 1.43772 12.6464 1.74145 11.8733 3.11286C11.229 4.25417 11.4591 5.36786 11.8364 6.10419C11.4499 6.26986 10.9713 6.61041 10.5295 7.30992C9.88518 8.30396 10.1613 9.2888 10.465 9.88706C10.1245 10.0435 9.70109 10.3473 9.22248 10.8903C8.87273 11.2861 8.71626 11.7371 8.76228 12.2065C8.76228 12.2985 8.78989 12.3906 8.8083 12.4826C7.71301 12.1881 6.18514 12.0132 4.98861 12.7956C3.608 13.6976 3.49755 15.0045 3.70004 15.8881C3.04655 16.063 1.96047 16.4956 1.26096 17.5449C0.35896 18.8979 0.828366 20.1404 1.41743 20.8951C0.800753 21.3277 0.00920407 22.3126 0 24.5123C0 25.6997 0.322142 26.6017 0.975631 27.2091C1.48186 27.6785 2.07092 27.8626 2.4851 27.9271C2.30102 30.2465 3.3871 31.7191 5.56847 32.1057C6.93987 32.345 7.88789 31.8664 8.44014 31.4338C8.83591 32.1977 9.69189 33.0445 11.2934 33.1918C12.766 33.3206 13.8153 32.5659 14.4136 31.9769C14.4412 32.0229 14.4688 32.0689 14.4964 32.1149C14.8001 32.5843 15.3984 33.1734 16.5305 33.3483C16.7054 33.3759 16.8803 33.3851 17.0459 33.3851C18.1228 33.3851 18.9144 32.8328 19.4114 32.2346C19.4298 32.253 19.439 32.2714 19.4574 32.2898C19.7796 32.6579 20.2582 32.8604 20.8748 32.8881C21.7768 32.9249 22.3659 32.4831 22.7157 31.9861C23.0746 32.3634 23.6269 32.6672 24.446 32.6672H24.4828C25.3296 32.6672 25.9463 32.4094 26.3329 31.9124C26.4801 31.7191 26.5814 31.5166 26.6366 31.3142C27.2072 31.6363 28.008 31.7836 28.9192 31.1669C29.9409 30.4858 29.8948 29.3353 29.6095 28.4517C30.4011 28.4241 31.3675 28.0651 31.9565 26.9146C32.3431 26.1599 32.3983 25.442 32.1314 24.7885" fill="#FEA7CA"/>
<path d="M84.6316 24.7701C84.3739 24.1442 83.8676 23.7116 83.435 23.4447C83.4626 23.4171 83.4811 23.3894 83.5087 23.3618C83.8124 22.9845 84.1253 22.3218 83.9505 21.3553C83.7572 20.3153 82.8368 19.7446 82.1004 19.4593C82.3306 19.2292 82.5422 18.9255 82.6435 18.5665C82.7816 18.0879 82.7079 17.5909 82.4226 17.1123C81.9164 16.2563 81.1432 15.9249 80.4989 15.7961C80.6278 15.5844 80.7106 15.3635 80.7474 15.1242C80.8119 14.7376 80.7475 14.3879 80.637 14.1117C80.8947 13.9829 81.1892 13.762 81.4654 13.357C82.0084 12.5931 81.7875 11.7923 81.4378 11.2309C81.9624 10.9547 82.6619 10.4301 82.8552 9.5189C82.984 8.90223 82.9012 8.35919 82.6067 7.91739C82.487 7.73331 82.3398 7.58604 82.1925 7.47559C82.6527 7.12584 83.1589 6.54598 83.4074 5.60717C83.5823 4.97209 83.5087 4.43825 83.1957 4.03327C82.938 3.69272 82.5607 3.52705 82.2569 3.44421C82.2753 3.2049 82.2569 2.91037 82.1189 2.60664C81.8796 2.0636 81.3825 1.66782 80.637 1.41011C79.9191 1.1708 79.284 1.18001 78.7594 1.45613C78.428 1.63101 78.2071 1.87031 78.0507 2.09121C77.8942 2.02678 77.7101 1.97156 77.4892 1.95315C76.9278 1.91633 76.3571 2.16484 75.7957 2.68027C74.8845 3.51784 74.82 4.42905 74.9949 5.07333C74.5347 5.24821 73.964 5.6808 73.6327 6.73927C73.3382 7.65968 73.4578 8.36839 73.6695 8.847C73.2001 8.94825 72.8227 9.17835 72.5558 9.53731C71.9484 10.3381 72.0864 11.5162 72.2429 12.1789C71.9299 12.3169 71.7459 12.5286 71.6354 12.7127C71.4329 13.0349 71.3777 13.4214 71.3869 13.7804C71.0464 13.6791 70.6598 13.6423 70.218 13.6515C70.31 13.449 70.356 13.2373 70.356 13.0164C70.3653 12.5102 70.1536 12.0684 69.8958 11.7279C70.3192 11.5898 70.7794 11.3321 71.0648 10.8167C71.6078 9.84104 71.2581 8.97586 70.8071 8.42362C71.3593 8.05545 72.1232 7.36515 72.3073 6.31588C72.5098 5.17458 71.8471 4.37382 71.3501 3.95043C71.8103 3.39819 71.9944 2.73549 71.8471 2.0636C71.6446 1.14319 70.8715 0.388454 69.8682 0.13074C68.9754 -0.0993621 68.2207 -0.0257297 67.6224 0.351637C67.1346 0.646168 66.8677 1.07876 66.7388 1.3825C66.1866 1.43772 65.165 1.74145 64.3918 3.11286C63.7475 4.25417 63.9776 5.36786 64.355 6.10419C63.9684 6.26986 63.4898 6.61041 63.048 7.30992C62.4037 8.30396 62.6799 9.2888 62.9836 9.88706C62.643 10.0435 62.2196 10.3473 61.741 10.8903C61.3913 11.2861 61.2348 11.7371 61.2808 12.2065C61.2808 12.2985 61.3084 12.3906 61.3269 12.4826C60.2316 12.1881 58.7037 12.0132 57.5072 12.7956C56.1266 13.6976 56.0161 15.0045 56.2186 15.8881C55.5651 16.063 54.479 16.4956 53.7795 17.5449C52.8775 18.8979 53.3469 20.1404 53.936 20.8951C53.3193 21.3277 52.5278 22.3126 52.5186 24.5123C52.5186 25.6997 52.8407 26.6017 53.4942 27.2091C54.0004 27.6785 54.5895 27.8626 55.0037 27.9271C54.8196 30.2465 55.9057 31.7191 58.087 32.1057C59.4584 32.345 60.4064 31.8664 60.9587 31.4338C61.3545 32.1977 62.2104 33.0445 63.812 33.1918C65.2846 33.3206 66.3339 32.5659 66.9321 31.9769C66.9598 32.0229 66.9874 32.0689 67.015 32.1149C67.3187 32.5843 67.917 33.1734 69.0491 33.3483C69.2239 33.3759 69.3988 33.3851 69.5645 33.3851C70.6414 33.3851 71.4329 32.8328 71.9299 32.2346C71.9484 32.253 71.9576 32.2714 71.976 32.2898C72.2981 32.6579 72.7767 32.8604 73.3934 32.8881C74.2954 32.9249 74.8845 32.4831 75.2342 31.9861C75.5932 32.3634 76.1454 32.6672 76.9646 32.6672H77.0014C77.8482 32.6672 78.4648 32.4094 78.8514 31.9124C78.9987 31.7191 79.0999 31.5166 79.1551 31.3142C79.7258 31.6363 80.5266 31.7836 81.4378 31.1669C82.4594 30.4858 82.4134 29.3353 82.1281 28.4517C82.9196 28.4241 83.886 28.0651 84.4751 26.9146C84.8617 26.1599 84.9169 25.442 84.65 24.7885" fill="#FEA7CA"/>
<path d="M137.15 24.7701C136.892 24.1442 136.386 23.7116 135.953 23.4447C135.981 23.4171 135.999 23.3894 136.027 23.3618C136.331 22.9845 136.644 22.3218 136.469 21.3553C136.276 20.3153 135.355 19.7446 134.619 19.4593C134.849 19.2292 135.061 18.9255 135.162 18.5665C135.3 18.0879 135.226 17.5909 134.941 17.1123C134.435 16.2563 133.662 15.9249 133.017 15.7961C133.146 15.5844 133.229 15.3635 133.266 15.1242C133.33 14.7376 133.266 14.3879 133.155 14.1117C133.413 13.9829 133.708 13.762 133.984 13.357C134.527 12.5931 134.306 11.7923 133.956 11.2309C134.481 10.9547 135.18 10.4301 135.373 9.5189C135.502 8.90223 135.42 8.35919 135.125 7.91739C135.005 7.73331 134.858 7.58604 134.711 7.47559C135.171 7.12584 135.677 6.54598 135.926 5.60717C136.101 4.97209 136.027 4.43825 135.714 4.03327C135.456 3.69272 135.079 3.52705 134.775 3.44421C134.794 3.2049 134.775 2.91037 134.637 2.60664C134.398 2.0636 133.901 1.66782 133.155 1.41011C132.437 1.1708 131.802 1.18001 131.278 1.45613C130.946 1.63101 130.725 1.87031 130.569 2.09121C130.413 2.02678 130.228 1.97156 130.008 1.95315C129.446 1.91633 128.875 2.16484 128.314 2.68027C127.403 3.51784 127.338 4.42905 127.513 5.07333C127.053 5.24821 126.482 5.6808 126.151 6.73927C125.856 7.65968 125.976 8.36839 126.188 8.847C125.718 8.94825 125.341 9.17835 125.074 9.53731C124.467 10.3381 124.605 11.5162 124.761 12.1789C124.448 12.3169 124.264 12.5286 124.154 12.7127C123.951 13.0349 123.896 13.4214 123.905 13.7804C123.565 13.6791 123.178 13.6423 122.736 13.6515C122.828 13.449 122.874 13.2373 122.874 13.0164C122.884 12.5102 122.672 12.0684 122.414 11.7279C122.838 11.5898 123.298 11.3321 123.583 10.8167C124.126 9.84104 123.776 8.97586 123.325 8.42362C123.878 8.05545 124.642 7.36515 124.826 6.31588C125.028 5.17458 124.365 4.37382 123.868 3.95043C124.329 3.39819 124.513 2.73549 124.365 2.0636C124.163 1.14319 123.39 0.388454 122.387 0.13074C121.494 -0.0993621 120.739 -0.0257297 120.141 0.351637C119.653 0.646168 119.386 1.07876 119.257 1.3825C118.705 1.43772 117.683 1.74145 116.91 3.11286C116.266 4.25417 116.496 5.36786 116.873 6.10419C116.487 6.26986 116.008 6.61041 115.566 7.30992C114.922 8.30396 115.198 9.2888 115.502 9.88706C115.161 10.0435 114.738 10.3473 114.259 10.8903C113.91 11.2861 113.753 11.7371 113.799 12.2065C113.799 12.2985 113.827 12.3906 113.845 12.4826C112.75 12.1881 111.222 12.0132 110.025 12.7956C108.645 13.6976 108.534 15.0045 108.737 15.8881C108.083 16.063 106.997 16.4956 106.298 17.5449C105.396 18.8979 105.865 20.1404 106.454 20.8951C105.838 21.3277 105.046 22.3126 105.037 24.5123C105.037 25.6997 105.359 26.6017 106.012 27.2091C106.519 27.6785 107.108 27.8626 107.522 27.9271C107.338 30.2465 108.424 31.7191 110.605 32.1057C111.977 32.345 112.925 31.8664 113.477 31.4338C113.873 32.1977 114.729 33.0445 116.33 33.1918C117.803 33.3206 118.852 32.5659 119.45 31.9769C119.478 32.0229 119.506 32.0689 119.533 32.1149C119.837 32.5843 120.435 33.1734 121.567 33.3483C121.742 33.3759 121.917 33.3851 122.083 33.3851C123.16 33.3851 123.951 32.8328 124.448 32.2346C124.467 32.253 124.476 32.2714 124.494 32.2898C124.816 32.6579 125.295 32.8604 125.912 32.8881C126.814 32.9249 127.403 32.4831 127.753 31.9861C128.111 32.3634 128.664 32.6672 129.483 32.6672H129.52C130.366 32.6672 130.983 32.4094 131.37 31.9124C131.517 31.7191 131.618 31.5166 131.673 31.3142C132.244 31.6363 133.045 31.7836 133.956 31.1669C134.978 30.4858 134.932 29.3353 134.646 28.4517C135.438 28.4241 136.404 28.0651 136.993 26.9146C137.38 26.1599 137.435 25.442 137.168 24.7885" fill="#FEA7CA"/>
<path d="M1290.77 24.7701C1290.51 24.1442 1290.01 23.7116 1289.57 23.4447C1289.6 23.4171 1289.62 23.3894 1289.65 23.3618C1289.95 22.9845 1290.26 22.3218 1290.09 21.3553C1289.9 20.3153 1288.98 19.7446 1288.24 19.4593C1288.47 19.2292 1288.68 18.9255 1288.78 18.5665C1288.92 18.0879 1288.85 17.5909 1288.56 17.1123C1288.06 16.2563 1287.28 15.9249 1286.64 15.7961C1286.77 15.5844 1286.85 15.3635 1286.89 15.1242C1286.95 14.7376 1286.89 14.3879 1286.78 14.1117C1287.03 13.9829 1287.33 13.762 1287.6 13.357C1288.15 12.5931 1287.93 11.7923 1287.58 11.2309C1288.1 10.9547 1288.8 10.4301 1288.99 9.5189C1289.12 8.90223 1289.04 8.35919 1288.75 7.91739C1288.63 7.73331 1288.48 7.58604 1288.33 7.47559C1288.79 7.12584 1289.3 6.54598 1289.55 5.60717C1289.72 4.97209 1289.65 4.43825 1289.33 4.03327C1289.08 3.69272 1288.7 3.52705 1288.4 3.44421C1288.41 3.2049 1288.4 2.91037 1288.26 2.60664C1288.02 2.0636 1287.52 1.66782 1286.78 1.41011C1286.06 1.1708 1285.42 1.18001 1284.9 1.45613C1284.57 1.63101 1284.35 1.87031 1284.19 2.09121C1284.03 2.02678 1283.85 1.97156 1283.63 1.95315C1283.07 1.91633 1282.5 2.16484 1281.93 2.68027C1281.02 3.51784 1280.96 4.42905 1281.13 5.07333C1280.67 5.24821 1280.1 5.6808 1279.77 6.73927C1279.48 7.65968 1279.6 8.36839 1279.81 8.847C1279.34 8.94825 1278.96 9.17835 1278.69 9.53731C1278.09 10.3381 1278.23 11.5162 1278.38 12.1789C1278.07 12.3169 1277.88 12.5286 1277.77 12.7127C1277.57 13.0349 1277.52 13.4214 1277.53 13.7804C1277.19 13.6791 1276.8 13.6423 1276.36 13.6515C1276.45 13.449 1276.49 13.2373 1276.49 13.0164C1276.5 12.5102 1276.29 12.0684 1276.03 11.7279C1276.46 11.5898 1276.92 11.3321 1277.2 10.8167C1277.75 9.84104 1277.4 8.97586 1276.95 8.42362C1277.5 8.05545 1278.26 7.36515 1278.45 6.31588C1278.65 5.17458 1277.99 4.37382 1277.49 3.95043C1277.95 3.39819 1278.13 2.73549 1277.99 2.0636C1277.78 1.14319 1277.01 0.388454 1276.01 0.13074C1275.11 -0.0993621 1274.36 -0.0257297 1273.76 0.351637C1273.27 0.646168 1273.01 1.07876 1272.88 1.3825C1272.33 1.43772 1271.3 1.74145 1270.53 3.11286C1269.89 4.25417 1270.12 5.36786 1270.49 6.10419C1270.11 6.26986 1269.63 6.61041 1269.19 7.30992C1268.54 8.30396 1268.82 9.2888 1269.12 9.88706C1268.78 10.0435 1268.36 10.3473 1267.88 10.8903C1267.53 11.2861 1267.37 11.7371 1267.42 12.2065C1267.42 12.2985 1267.45 12.3906 1267.47 12.4826C1266.37 12.1881 1264.84 12.0132 1263.65 12.7956C1262.27 13.6976 1262.15 15.0045 1262.36 15.8881C1261.7 16.063 1260.62 16.4956 1259.92 17.5449C1259.02 18.8979 1259.49 20.1404 1260.07 20.8951C1259.46 21.3277 1258.67 22.3126 1258.66 24.5123C1258.66 25.6997 1258.98 26.6017 1259.63 27.2091C1260.14 27.6785 1260.73 27.8626 1261.14 27.9271C1260.96 30.2465 1262.04 31.7191 1264.23 32.1057C1265.6 32.345 1266.55 31.8664 1267.1 31.4338C1267.49 32.1977 1268.35 33.0445 1269.95 33.1918C1271.42 33.3206 1272.47 32.5659 1273.07 31.9769C1273.1 32.0229 1273.13 32.0689 1273.15 32.1149C1273.46 32.5843 1274.06 33.1734 1275.19 33.3483C1275.36 33.3759 1275.54 33.3851 1275.7 33.3851C1276.78 33.3851 1277.57 32.8328 1278.07 32.2346C1278.09 32.253 1278.1 32.2714 1278.11 32.2898C1278.44 32.6579 1278.92 32.8604 1279.53 32.8881C1280.43 32.9249 1281.02 32.4831 1281.37 31.9861C1281.73 32.3634 1282.28 32.6672 1283.1 32.6672H1283.14C1283.99 32.6672 1284.6 32.4094 1284.99 31.9124C1285.14 31.7191 1285.24 31.5166 1285.29 31.3142C1285.86 31.6363 1286.67 31.7836 1287.58 31.1669C1288.6 30.4858 1288.55 29.3353 1288.27 28.4517C1289.06 28.4241 1290.02 28.0651 1290.61 26.9146C1291 26.1599 1291.06 25.442 1290.79 24.7885" fill="#FEA7CA"/>
<path d="M1343.29 24.7701C1343.03 24.1442 1342.52 23.7116 1342.09 23.4447C1342.12 23.4171 1342.14 23.3894 1342.17 23.3618C1342.47 22.9845 1342.78 22.3218 1342.61 21.3553C1342.41 20.3153 1341.49 19.7446 1340.76 19.4593C1340.99 19.2292 1341.2 18.9255 1341.3 18.5665C1341.44 18.0879 1341.37 17.5909 1341.08 17.1123C1340.57 16.2563 1339.8 15.9249 1339.16 15.7961C1339.28 15.5844 1339.37 15.3635 1339.4 15.1242C1339.47 14.7376 1339.4 14.3879 1339.29 14.1117C1339.55 13.9829 1339.85 13.762 1340.12 13.357C1340.67 12.5931 1340.44 11.7923 1340.09 11.2309C1340.62 10.9547 1341.32 10.4301 1341.51 9.5189C1341.64 8.90223 1341.56 8.35919 1341.26 7.91739C1341.14 7.73331 1341 7.58604 1340.85 7.47559C1341.31 7.12584 1341.82 6.54598 1342.06 5.60717C1342.24 4.97209 1342.17 4.43825 1341.85 4.03327C1341.6 3.69272 1341.22 3.52705 1340.91 3.44421C1340.93 3.2049 1340.91 2.91037 1340.78 2.60664C1340.54 2.0636 1340.04 1.66782 1339.29 1.41011C1338.58 1.1708 1337.94 1.18001 1337.42 1.45613C1337.09 1.63101 1336.86 1.87031 1336.71 2.09121C1336.55 2.02678 1336.37 1.97156 1336.15 1.95315C1335.58 1.91633 1335.01 2.16484 1334.45 2.68027C1333.54 3.51784 1333.48 4.42905 1333.65 5.07333C1333.19 5.24821 1332.62 5.6808 1332.29 6.73927C1332 7.65968 1332.11 8.36839 1332.33 8.847C1331.86 8.94825 1331.48 9.17835 1331.21 9.53731C1330.61 10.3381 1330.74 11.5162 1330.9 12.1789C1330.59 12.3169 1330.4 12.5286 1330.29 12.7127C1330.09 13.0349 1330.03 13.4214 1330.04 13.7804C1329.7 13.6791 1329.32 13.6423 1328.88 13.6515C1328.97 13.449 1329.01 13.2373 1329.01 13.0164C1329.02 12.5102 1328.81 12.0684 1328.55 11.7279C1328.98 11.5898 1329.44 11.3321 1329.72 10.8167C1330.26 9.84104 1329.92 8.97586 1329.46 8.42362C1330.02 8.05545 1330.78 7.36515 1330.96 6.31588C1331.17 5.17458 1330.5 4.37382 1330.01 3.95043C1330.47 3.39819 1330.65 2.73549 1330.5 2.0636C1330.3 1.14319 1329.53 0.388454 1328.53 0.13074C1327.63 -0.0993621 1326.88 -0.0257297 1326.28 0.351637C1325.79 0.646168 1325.52 1.07876 1325.4 1.3825C1324.84 1.43772 1323.82 1.74145 1323.05 3.11286C1322.4 4.25417 1322.63 5.36786 1323.01 6.10419C1322.63 6.26986 1322.15 6.61041 1321.71 7.30992C1321.06 8.30396 1321.34 9.2888 1321.64 9.88706C1321.3 10.0435 1320.88 10.3473 1320.4 10.8903C1320.05 11.2861 1319.89 11.7371 1319.94 12.2065C1319.94 12.2985 1319.97 12.3906 1319.98 12.4826C1318.89 12.1881 1317.36 12.0132 1316.16 12.7956C1314.78 13.6976 1314.67 15.0045 1314.88 15.8881C1314.22 16.063 1313.14 16.4956 1312.44 17.5449C1311.53 18.8979 1312 20.1404 1312.59 20.8951C1311.98 21.3277 1311.18 22.3126 1311.18 24.5123C1311.18 25.6997 1311.5 26.6017 1312.15 27.2091C1312.66 27.6785 1313.25 27.8626 1313.66 27.9271C1313.48 30.2465 1314.56 31.7191 1316.74 32.1057C1318.12 32.345 1319.06 31.8664 1319.62 31.4338C1320.01 32.1977 1320.87 33.0445 1322.47 33.1918C1323.94 33.3206 1324.99 32.5659 1325.59 31.9769C1325.62 32.0229 1325.64 32.0689 1325.67 32.1149C1325.98 32.5843 1326.57 33.1734 1327.71 33.3483C1327.88 33.3759 1328.06 33.3851 1328.22 33.3851C1329.3 33.3851 1330.09 32.8328 1330.59 32.2346C1330.61 32.253 1330.61 32.2714 1330.63 32.2898C1330.96 32.6579 1331.43 32.8604 1332.05 32.8881C1332.95 32.9249 1333.54 32.4831 1333.89 31.9861C1334.25 32.3634 1334.8 32.6672 1335.62 32.6672H1335.66C1336.51 32.6672 1337.12 32.4094 1337.51 31.9124C1337.66 31.7191 1337.76 31.5166 1337.81 31.3142C1338.38 31.6363 1339.18 31.7836 1340.09 31.1669C1341.12 30.4858 1341.07 29.3353 1340.79 28.4517C1341.58 28.4241 1342.54 28.0651 1343.13 26.9146C1343.52 26.1599 1343.57 25.442 1343.31 24.7885" fill="#FEA7CA"/>
<path d="M1395.82 24.7701C1395.56 24.1442 1395.05 23.7116 1394.62 23.4447C1394.65 23.4171 1394.67 23.3894 1394.69 23.3618C1395 22.9845 1395.31 22.3218 1395.14 21.3553C1394.94 20.3153 1394.02 19.7446 1393.29 19.4593C1393.52 19.2292 1393.73 18.9255 1393.83 18.5665C1393.97 18.0879 1393.89 17.5909 1393.61 17.1123C1393.1 16.2563 1392.33 15.9249 1391.68 15.7961C1391.81 15.5844 1391.9 15.3635 1391.93 15.1242C1392 14.7376 1391.93 14.3879 1391.82 14.1117C1392.08 13.9829 1392.37 13.762 1392.65 13.357C1393.19 12.5931 1392.97 11.7923 1392.62 11.2309C1393.15 10.9547 1393.85 10.4301 1394.04 9.5189C1394.17 8.90223 1394.09 8.35919 1393.79 7.91739C1393.67 7.73331 1393.52 7.58604 1393.38 7.47559C1393.84 7.12584 1394.34 6.54598 1394.59 5.60717C1394.77 4.97209 1394.69 4.43825 1394.38 4.03327C1394.12 3.69272 1393.75 3.52705 1393.44 3.44421C1393.46 3.2049 1393.44 2.91037 1393.3 2.60664C1393.06 2.0636 1392.57 1.66782 1391.82 1.41011C1391.1 1.1708 1390.47 1.18001 1389.94 1.45613C1389.61 1.63101 1389.39 1.87031 1389.24 2.09121C1389.08 2.02678 1388.89 1.97156 1388.67 1.95315C1388.11 1.91633 1387.54 2.16484 1386.98 2.68027C1386.07 3.51784 1386 4.42905 1386.18 5.07333C1385.72 5.24821 1385.15 5.6808 1384.82 6.73927C1384.52 7.65968 1384.64 8.36839 1384.85 8.847C1384.38 8.94825 1384.01 9.17835 1383.74 9.53731C1383.13 10.3381 1383.27 11.5162 1383.43 12.1789C1383.11 12.3169 1382.93 12.5286 1382.82 12.7127C1382.62 13.0349 1382.56 13.4214 1382.57 13.7804C1382.23 13.6791 1381.84 13.6423 1381.4 13.6515C1381.49 13.449 1381.54 13.2373 1381.54 13.0164C1381.55 12.5102 1381.34 12.0684 1381.08 11.7279C1381.5 11.5898 1381.96 11.3321 1382.25 10.8167C1382.79 9.84104 1382.44 8.97586 1381.99 8.42362C1382.54 8.05545 1383.31 7.36515 1383.49 6.31588C1383.69 5.17458 1383.03 4.37382 1382.53 3.95043C1383 3.39819 1383.18 2.73549 1383.03 2.0636C1382.83 1.14319 1382.06 0.388454 1381.05 0.13074C1380.16 -0.0993621 1379.41 -0.0257297 1378.81 0.351637C1378.32 0.646168 1378.05 1.07876 1377.92 1.3825C1377.37 1.43772 1376.35 1.74145 1375.58 3.11286C1374.93 4.25417 1375.16 5.36786 1375.54 6.10419C1375.15 6.26986 1374.67 6.61041 1374.23 7.30992C1373.59 8.30396 1373.86 9.2888 1374.17 9.88706C1373.83 10.0435 1373.4 10.3473 1372.93 10.8903C1372.58 11.2861 1372.42 11.7371 1372.47 12.2065C1372.47 12.2985 1372.49 12.3906 1372.51 12.4826C1371.42 12.1881 1369.89 12.0132 1368.69 12.7956C1367.31 13.6976 1367.2 15.0045 1367.4 15.8881C1366.75 16.063 1365.66 16.4956 1364.96 17.5449C1364.06 18.8979 1364.53 20.1404 1365.12 20.8951C1364.5 21.3277 1363.71 22.3126 1363.7 24.5123C1363.7 25.6997 1364.03 26.6017 1364.68 27.2091C1365.19 27.6785 1365.77 27.8626 1366.19 27.9271C1366 30.2465 1367.09 31.7191 1369.27 32.1057C1370.64 32.345 1371.59 31.8664 1372.14 31.4338C1372.54 32.1977 1373.4 33.0445 1375 33.1918C1376.47 33.3206 1377.52 32.5659 1378.12 31.9769C1378.14 32.0229 1378.17 32.0689 1378.2 32.1149C1378.5 32.5843 1379.1 33.1734 1380.23 33.3483C1380.41 33.3759 1380.58 33.3851 1380.75 33.3851C1381.83 33.3851 1382.62 32.8328 1383.11 32.2346C1383.13 32.253 1383.14 32.2714 1383.16 32.2898C1383.48 32.6579 1383.96 32.8604 1384.58 32.8881C1385.48 32.9249 1386.07 32.4831 1386.42 31.9861C1386.78 32.3634 1387.33 32.6672 1388.15 32.6672H1388.19C1389.03 32.6672 1389.65 32.4094 1390.04 31.9124C1390.18 31.7191 1390.28 31.5166 1390.34 31.3142C1390.91 31.6363 1391.71 31.7836 1392.62 31.1669C1393.64 30.4858 1393.6 29.3353 1393.31 28.4517C1394.1 28.4241 1395.07 28.0651 1395.66 26.9146C1396.05 26.1599 1396.1 25.442 1395.83 24.7885" fill="#FEA7CA"/>
<path d="M173.35 10.2736C173.515 8.44202 173.828 6.95096 174.298 5.81886C175.098 3.81237 176.276 2.39494 177.823 1.56657C179.378 0.729003 181.569 0.314819 184.404 0.314819C188.205 0.314819 191.61 1.02353 194.62 2.44096C197.63 3.85839 199.968 5.84647 201.652 8.396C203.336 10.9455 204.183 13.8448 204.183 17.0847C204.183 20.9228 203.29 24.2178 201.505 26.9698C199.719 29.7218 197.234 31.8112 194.068 33.2286C190.892 34.646 187.238 35.3547 183.106 35.3547C178.504 35.3547 175.558 33.5231 174.298 29.8507C173.497 27.4853 173.092 23.2882 173.092 17.2779C173.092 14.4431 173.175 12.1052 173.34 10.2736H173.35ZM189.871 13.7988C189.337 13.1177 188.647 12.7679 187.818 12.7679C187.248 12.7679 186.861 13.0809 186.64 13.6975C186.419 14.3142 186.318 15.5476 186.318 17.3792C186.318 18.9807 186.401 20.0944 186.567 20.7111C186.732 21.3277 187.1 21.6315 187.671 21.6315C188.407 21.6315 189.088 21.1713 189.724 20.2601C190.359 19.3396 190.672 18.2352 190.672 16.9282C190.672 15.5292 190.405 14.4799 189.871 13.7988Z" fill="#FEA7CA"/>
<path d="M209.65 12.2709C210.055 9.9975 210.635 8.16589 211.399 6.75766C212.605 4.55789 214.345 2.93797 216.627 1.89791C218.919 0.867052 221.864 0.351624 225.463 0.351624C230.304 0.351624 234.06 1.31805 236.729 3.25091C239.398 5.18377 240.733 7.92658 240.733 11.4609C240.733 13.5319 240.208 15.3819 239.159 17.0202C238.109 18.6585 236.775 19.7262 235.173 20.2232C239.177 22.966 241.184 25.6628 241.184 28.332C241.184 30.2649 240.595 31.8572 239.435 33.0905C238.266 34.3239 236.747 34.9406 234.879 34.9406C232.605 34.9406 230.58 34.1582 228.795 32.5843C227.009 31.0196 225.251 28.4609 223.512 24.9173C223.641 28.1571 223.107 30.6238 221.91 32.3266C220.705 34.0293 218.919 34.8761 216.553 34.8761C215.016 34.8761 213.673 34.4067 212.522 33.4771C211.372 32.5475 210.543 31.2221 210.046 29.5193C209.742 28.4885 209.503 27.1355 209.319 25.4603C209.135 23.7852 209.043 21.972 209.043 20.0023C209.043 17.103 209.245 14.5075 209.641 12.2433L209.65 12.2709ZM226.577 15.5844C227.009 15.1794 227.23 14.6824 227.23 14.0841C227.23 13.3846 227.019 12.8416 226.577 12.455C226.135 12.0684 225.546 11.8751 224.773 11.8751C224.073 11.8751 223.503 12.0868 223.07 12.501C222.637 12.9152 222.416 13.4582 222.416 14.1301C222.416 14.7652 222.647 15.2622 223.088 15.6304C223.539 15.9986 224.128 16.1826 224.865 16.1826C225.601 16.1826 226.135 15.9801 226.568 15.5844H226.577Z" fill="#FEA7CA"/>
<path d="M245.85 17.2779C245.85 14.9125 246.016 12.7587 246.347 10.8167C246.678 8.88382 247.111 7.36514 247.645 6.26065C248.611 4.25416 250.176 2.79072 252.348 1.8519C254.52 0.913085 257.355 0.452881 260.862 0.452881C264.7 0.452881 267.572 0.949901 269.477 1.92553C271.382 2.90117 272.33 4.50267 272.33 6.71165C272.33 7.74251 272.091 8.63531 271.603 9.39004C271.115 10.1356 270.379 10.6878 269.376 11.0192C268.474 11.3229 267.424 11.4702 266.219 11.4702C265.547 11.4702 264.415 11.4057 262.813 11.2677C261.377 11.1664 260.659 11.4333 260.659 12.0684C260.659 12.3998 260.797 12.6391 261.083 12.7679C261.368 12.906 261.893 12.9704 262.657 12.9704C263.356 12.9704 263.945 12.952 264.405 12.9152C264.672 12.8784 265.059 12.8692 265.556 12.8692C267.562 12.8692 269.081 13.2558 270.14 14.0197C271.189 14.7836 271.723 15.9433 271.723 17.4712C271.723 19.1095 271.097 20.3429 269.845 21.1713C268.593 22.0088 266.596 22.423 263.862 22.423C262.795 22.423 262.077 22.4966 261.709 22.6439C261.34 22.7912 261.156 23.0397 261.156 23.371C261.156 24.135 261.856 24.4571 263.255 24.3191C264.755 24.1534 265.961 24.0705 266.863 24.0705C268.161 24.0705 269.219 24.2362 270.02 24.5676C271.686 25.2671 272.523 26.7029 272.523 28.8751C272.523 31.0472 271.465 32.7684 269.339 33.8545C267.213 34.9406 263.991 35.4836 259.647 35.4836C255.974 35.4836 253.167 34.9406 251.234 33.8545C249.301 32.7684 247.93 30.992 247.129 28.5253C246.264 25.893 245.832 22.1377 245.832 17.2595L245.85 17.2779Z" fill="#FEA7CA"/>
<path d="M302.032 12.1972C301.001 13.2465 299.694 13.7711 298.129 13.7711C297.328 13.7711 296.61 13.7435 295.975 13.6975C295.34 13.6423 294.641 13.5042 293.877 13.2741C297.347 15.5107 299.749 17.5816 301.084 19.4869C302.418 21.3921 303.09 23.5091 303.09 25.8469C303.09 27.5865 302.538 29.188 301.433 30.679C300.329 32.1701 298.783 33.3574 296.804 34.2594C294.816 35.1614 292.542 35.6124 289.974 35.6124C285.998 35.6124 282.813 34.9129 280.411 33.5139C278.009 32.1149 276.803 30.1452 276.803 27.6049C276.803 25.9389 277.328 24.5307 278.377 23.3986C279.426 22.2665 280.927 21.6959 282.86 21.6959C283.964 21.6959 285.096 21.8983 286.265 22.2941C283.927 20.7294 282.086 18.953 280.733 16.9834C279.38 15.0137 278.708 12.998 278.708 10.9271C278.708 8.85617 279.187 7.14421 280.135 5.59792C281.083 4.05164 282.519 2.81829 284.443 1.91629C286.366 1.01429 288.704 0.563293 291.475 0.563293C293.776 0.563293 295.846 0.867028 297.678 1.46529C299.51 2.06356 300.955 2.93795 302.013 4.07005C303.072 5.20215 303.587 6.52754 303.587 8.0278C303.587 9.76737 303.072 11.1572 302.041 12.2065L302.032 12.1972Z" fill="#FEA7CA"/>
<path d="M332.976 12.1972C331.945 13.2465 330.638 13.7711 329.073 13.7711C328.272 13.7711 327.554 13.7435 326.919 13.6975C326.284 13.6423 325.585 13.5042 324.821 13.2741C328.291 15.5107 330.693 17.5816 332.028 19.4869C333.362 21.3921 334.034 23.5091 334.034 25.8469C334.034 27.5865 333.482 29.188 332.377 30.679C331.273 32.1701 329.727 33.3574 327.748 34.2594C325.76 35.1614 323.486 35.6124 320.918 35.6124C316.942 35.6124 313.758 34.9129 311.355 33.5139C308.953 32.1149 307.747 30.1452 307.747 27.6049C307.747 25.9389 308.272 24.5307 309.321 23.3986C310.37 22.2665 311.871 21.6959 313.804 21.6959C314.908 21.6959 316.04 21.8983 317.209 22.2941C314.871 20.7294 313.03 18.953 311.677 16.9834C310.324 15.0137 309.653 12.998 309.653 10.9271C309.653 8.85617 310.131 7.14421 311.079 5.59792C312.027 4.05164 313.463 2.81829 315.387 1.91629C317.31 1.01429 319.648 0.563293 322.419 0.563293C324.72 0.563293 326.791 0.867028 328.622 1.46529C330.454 2.06356 331.899 2.93795 332.957 4.07005C334.016 5.20215 334.531 6.52754 334.531 8.0278C334.531 9.76737 334.016 11.1572 332.985 12.2065L332.976 12.1972Z" fill="#FEA7CA"/>
<path d="M376.907 13.8264C375.821 15.0598 374.459 15.6764 372.829 15.6764C372.158 15.6764 371.44 15.5752 370.676 15.3727C369.875 15.1426 369.102 15.0229 368.375 15.0229C367.51 15.0229 366.81 15.2438 366.276 15.6764C365.742 16.109 365.475 16.6797 365.475 17.3792C365.475 18.0787 365.687 18.5849 366.101 19.0083C366.515 19.4317 367.077 19.6342 367.776 19.6342C368.476 19.6342 369.212 19.4501 369.985 19.0819C370.915 18.6125 371.817 18.3824 372.691 18.3824C374.394 18.3824 375.793 18.9991 376.898 20.2324C378.002 21.4658 378.554 22.9753 378.554 24.7424C378.554 26.7489 378.057 28.4977 377.054 29.998C376.051 31.4982 374.615 32.658 372.747 33.4771C370.878 34.2963 368.706 34.7013 366.239 34.7013C363.036 34.7013 360.201 34.0202 357.726 32.6487C355.25 31.2773 353.344 29.3537 351.991 26.8686C350.638 24.3835 349.967 21.5026 349.967 18.226C349.967 14.7928 350.684 11.7279 352.12 9.04029C353.556 6.3527 355.553 4.25417 358.131 2.7539C360.708 1.25364 363.625 0.498901 366.893 0.498901C369.129 0.498901 371.127 0.867065 372.903 1.60339C374.67 2.33972 376.06 3.36137 377.063 4.67755C378.067 5.99374 378.564 7.494 378.564 9.15994C378.564 11.0284 378.021 12.5839 376.934 13.8172L376.907 13.8264Z" fill="#FEA7CA"/>
<path d="M404.62 33.8545C403.415 32.9525 402.651 31.6547 402.319 29.952C402.154 29.05 401.914 28.4057 401.62 28.0283C401.325 27.6509 400.902 27.4484 400.368 27.4484C399.77 27.4484 399.319 27.6325 399.015 28.0007C398.711 28.3688 398.444 29.0868 398.214 30.1544C397.846 31.7283 397.091 32.9341 395.941 33.7808C394.79 34.6368 393.29 35.0602 391.459 35.0602C388.983 35.0602 387.05 34.149 385.651 32.3266C384.252 30.5134 383.552 28.0099 383.552 24.8437C383.552 20.2048 384.316 16.0262 385.853 12.2985C387.39 8.58008 389.489 5.65319 392.158 3.53625C394.827 1.41931 397.8 0.36084 401.068 0.36084C404.142 0.36084 406.912 1.46533 409.379 3.6651C411.855 5.86488 413.788 8.81939 415.187 12.5286C416.586 16.2287 417.285 20.2601 417.285 24.5952C417.285 28.0007 416.576 30.6238 415.159 32.4555C413.742 34.2871 411.744 35.2075 409.176 35.2075C407.345 35.2075 405.817 34.7565 404.62 33.8545ZM398.509 18.8887C398.914 19.3581 399.475 19.5882 400.212 19.5882C400.948 19.5882 401.601 19.3396 402.089 18.8334C402.577 18.3364 402.816 17.6829 402.816 16.8822C402.816 16.0814 402.586 15.4831 402.144 14.9769C401.703 14.4707 401.114 14.2222 400.414 14.2222C399.715 14.2222 399.08 14.4799 398.61 14.9953C398.141 15.5108 397.911 16.1734 397.911 16.9742C397.911 17.775 398.113 18.41 398.509 18.8794V18.8887Z" fill="#FEA7CA"/>
<path d="M447.281 12.1972C446.25 13.2465 444.943 13.7711 443.379 13.7711C442.578 13.7711 441.86 13.7435 441.225 13.6975C440.59 13.6423 439.89 13.5042 439.126 13.2741C442.596 15.5107 444.998 17.5816 446.333 19.4869C447.668 21.3921 448.34 23.5091 448.34 25.8469C448.34 27.5865 447.787 29.188 446.683 30.679C445.578 32.1701 444.032 33.3574 442.053 34.2594C440.065 35.1614 437.792 35.6124 435.224 35.6124C431.248 35.6124 428.063 34.9129 425.661 33.5139C423.258 32.1149 422.053 30.1452 422.053 27.6049C422.053 25.9389 422.577 24.5307 423.627 23.3986C424.676 22.2665 426.176 21.6959 428.109 21.6959C429.214 21.6959 430.346 21.8983 431.515 22.2941C429.177 20.7294 427.336 18.953 425.983 16.9834C424.63 15.0137 423.958 12.998 423.958 10.9271C423.958 8.85617 424.437 7.14421 425.385 5.59792C426.333 4.05164 427.768 2.81829 429.692 1.91629C431.616 1.01429 433.954 0.563293 436.724 0.563293C439.025 0.563293 441.096 0.867028 442.928 1.46529C444.759 2.06356 446.204 2.93795 447.263 4.07005C448.321 5.20215 448.837 6.52754 448.837 8.0278C448.837 9.76737 448.321 11.1572 447.29 12.2065L447.281 12.1972Z" fill="#FEA7CA"/>
<path d="M470.66 19.5329C471.69 19.5329 472.215 18.5481 472.215 16.5784C472.215 16.0446 472.178 15.0413 472.114 13.5779C472.013 12.2801 471.967 10.8903 471.967 9.41766C471.967 6.68404 472.602 4.64994 473.872 3.33376C475.142 2.01758 476.946 1.35488 479.275 1.35488C481.981 1.35488 484.079 2.45017 485.561 4.63154C487.043 6.8129 487.788 9.91468 487.788 13.9184C487.788 18.3548 487.107 22.1745 485.736 25.3591C484.364 28.5437 482.376 30.9828 479.753 32.6672C477.13 34.3515 473.973 35.1983 470.264 35.1983C466.96 35.1983 464.014 34.5172 461.428 33.1458C458.842 31.7744 456.817 29.7863 455.344 27.1631C453.871 24.54 453.144 21.429 453.144 17.8302C453.144 12.2893 453.945 8.09227 455.547 5.239C457.148 2.38574 459.504 0.959106 462.606 0.959106C464.778 0.959106 466.499 1.57578 467.788 2.80913C469.077 4.04247 469.712 5.66239 469.712 7.66888C469.712 8.50645 469.592 9.59253 469.362 10.9271C469.031 12.9336 468.865 14.6456 468.865 16.0814C468.865 18.3824 469.463 19.5329 470.669 19.5329H470.66Z" fill="#FEA7CA"/>
<path d="M513.523 33.8545C512.317 32.9525 511.553 31.6547 511.222 29.952C511.056 29.05 510.817 28.4057 510.522 28.0283C510.228 27.6509 509.805 27.4484 509.271 27.4484C508.672 27.4484 508.221 27.6325 507.918 28.0007C507.614 28.3688 507.347 29.0868 507.117 30.1544C506.749 31.7283 505.994 32.9341 504.844 33.7808C503.693 34.6368 502.193 35.0602 500.361 35.0602C497.885 35.0602 495.952 34.149 494.553 32.3266C493.154 30.5134 492.455 28.0099 492.455 24.8437C492.455 20.2048 493.219 16.0262 494.756 12.2985C496.293 8.58008 498.391 5.65319 501.061 3.53625C503.73 1.41931 506.703 0.36084 509.97 0.36084C513.044 0.36084 515.815 1.46533 518.281 3.6651C520.757 5.86488 522.69 8.81939 524.089 12.5286C525.488 16.2287 526.188 20.2601 526.188 24.5952C526.188 28.0007 525.479 30.6238 524.062 32.4555C522.644 34.2871 520.647 35.2075 518.079 35.2075C516.247 35.2075 514.72 34.7565 513.523 33.8545ZM507.411 18.8887C507.816 19.3581 508.378 19.5882 509.114 19.5882C509.851 19.5882 510.504 19.3396 510.992 18.8334C511.48 18.3364 511.719 17.6829 511.719 16.8822C511.719 16.0814 511.489 15.4831 511.047 14.9769C510.605 14.4707 510.016 14.2222 509.317 14.2222C508.617 14.2222 507.982 14.4799 507.513 14.9953C507.043 15.5108 506.813 16.1734 506.813 16.9742C506.813 17.775 507.016 18.41 507.411 18.8794V18.8887Z" fill="#FEA7CA"/>
<path d="M532.897 27.1907C532.032 24.5584 531.6 20.8307 531.6 16.0262C531.6 12.3537 532.032 8.98505 532.897 5.91089C533.431 4.10689 534.306 2.71707 535.53 1.73223C536.745 0.747397 538.208 0.259583 539.911 0.259583C542.35 0.259583 544.246 1.03272 545.599 2.58821C546.952 4.1437 547.624 6.30666 547.624 9.07709C547.624 10.6786 547.513 12.5286 547.302 14.6087C547.09 16.6981 546.777 18.7598 546.381 20.7939C547.882 20.122 549.354 19.7906 550.79 19.7906C552.723 19.7906 554.306 20.4165 555.521 21.6683C556.736 22.92 557.353 24.5307 557.353 26.5004C557.353 29.1052 556.285 31.1577 554.15 32.6579C552.014 34.1582 549.106 34.9129 545.433 34.9129C538.788 34.9129 534.619 32.345 532.916 27.1999L532.897 27.1907Z" fill="#FEA7CA"/>
<path d="M573.055 10.2736C573.22 8.44202 573.533 6.95096 574.003 5.81886C574.804 3.81237 575.982 2.39494 577.528 1.56657C579.083 0.729003 581.274 0.314819 584.109 0.314819C587.91 0.314819 591.316 1.02353 594.325 2.44096C597.335 3.85839 599.673 5.84647 601.357 8.396C603.042 10.9455 603.888 13.8448 603.888 17.0847C603.888 20.9228 602.996 24.2178 601.21 26.9698C599.425 29.7218 596.939 31.8112 593.773 33.2286C590.598 34.646 586.944 35.3547 582.811 35.3547C578.209 35.3547 575.264 33.5231 574.003 29.8507C573.202 27.4853 572.797 23.2882 572.797 17.2779C572.797 14.4431 572.88 12.1052 573.046 10.2736H573.055ZM589.576 13.7988C589.042 13.1177 588.352 12.7679 587.524 12.7679C586.953 12.7679 586.566 13.0809 586.345 13.6975C586.125 14.3142 586.023 15.5476 586.023 17.3792C586.023 18.9807 586.106 20.0944 586.272 20.7111C586.438 21.3277 586.806 21.6315 587.376 21.6315C588.113 21.6315 588.794 21.1713 589.429 20.2601C590.064 19.3396 590.377 18.2352 590.377 16.9282C590.377 15.5292 590.11 14.4799 589.576 13.7988Z" fill="#FEA7CA"/>
<path d="M629.734 33.8545C628.528 32.9525 627.764 31.6547 627.433 29.952C627.267 29.05 627.028 28.4057 626.733 28.0283C626.439 27.6509 626.015 27.4484 625.481 27.4484C624.883 27.4484 624.432 27.6325 624.128 28.0007C623.825 28.3688 623.558 29.0868 623.328 30.1544C622.959 31.7283 622.205 32.9341 621.054 33.7808C619.904 34.6368 618.403 35.0602 616.572 35.0602C614.096 35.0602 612.163 34.149 610.764 32.3266C609.365 30.5134 608.666 28.0099 608.666 24.8437C608.666 20.2048 609.429 16.0262 610.967 12.2985C612.504 8.58008 614.602 5.65319 617.271 3.53625C619.941 1.41931 622.913 0.36084 626.181 0.36084C629.255 0.36084 632.025 1.46533 634.492 3.6651C636.968 5.86488 638.901 8.81939 640.3 12.5286C641.699 16.2287 642.398 20.2601 642.398 24.5952C642.398 28.0007 641.69 30.6238 640.272 32.4555C638.855 34.2871 636.858 35.2075 634.29 35.2075C632.458 35.2075 630.93 34.7565 629.734 33.8545ZM623.631 18.8887C624.036 19.3581 624.598 19.5882 625.334 19.5882C626.07 19.5882 626.724 19.3396 627.212 18.8334C627.7 18.3364 627.939 17.6829 627.939 16.8822C627.939 16.0814 627.709 15.4831 627.267 14.9769C626.825 14.4707 626.236 14.2222 625.537 14.2222C624.837 14.2222 624.202 14.4799 623.733 14.9953C623.263 15.5108 623.033 16.1734 623.033 16.9742C623.033 17.775 623.236 18.41 623.631 18.8794V18.8887Z" fill="#FEA7CA"/>
<path d="M654.465 20.932C648.022 16.7257 644.801 12.2065 644.801 7.36514C644.801 5.4599 645.39 3.90441 646.577 2.68027C647.764 1.46533 649.274 0.848656 651.105 0.848656C653.443 0.848656 655.597 1.72304 657.567 3.45341C659.536 5.19298 661.156 7.64126 662.426 10.8167C663.697 7.18106 665.151 4.53029 666.78 2.88276C668.409 1.23523 670.388 0.40686 672.689 0.40686C674.622 0.40686 676.196 0.99592 677.392 2.18325C678.598 3.37057 679.196 4.90765 679.196 6.8129C679.196 8.88382 678.469 11.01 677.015 13.2005C675.561 15.3911 673.296 17.7842 670.231 20.3889C670.6 22.1561 670.784 23.8773 670.784 25.5432C670.784 28.5805 670.084 30.946 668.685 32.6303C667.286 34.3147 665.344 35.1615 662.877 35.1615C657.134 35.1615 654.262 31.3602 654.262 23.7484C654.262 22.9476 654.327 22.0088 654.465 20.9412V20.932Z" fill="#FEA7CA"/>
<path d="M693.38 9.72137C693.38 8.01862 694.006 6.44472 695.257 4.99048C696.509 3.53623 698.203 2.38572 700.338 1.53895C702.473 0.68297 704.793 0.259583 707.296 0.259583C709.8 0.259583 712.211 0.692174 714.227 1.55736C716.252 2.43174 717.816 3.64668 718.939 5.21138C720.053 6.78527 720.615 8.57086 720.615 10.5681C720.615 12.9704 719.814 15.1702 718.212 17.1491C716.611 19.1371 714.006 21.1344 710.398 23.1317C712.303 22.4966 714.006 22.1837 715.506 22.1837C717.513 22.1837 719.077 22.6899 720.21 23.7116C721.342 24.7332 721.912 26.0586 721.912 27.6969C721.912 30.136 720.78 31.986 718.507 33.2562C716.233 34.5264 712.948 35.1614 708.64 35.1614C703.964 35.1614 700.476 34.4803 698.175 33.1089C695.874 31.7375 694.723 29.6574 694.723 26.8502C694.723 25.2487 695.221 23.7024 696.196 22.2205C697.172 20.7387 698.921 18.907 701.424 16.7349L705.879 12.8784C704.71 13.6147 703.587 14.1485 702.519 14.4799C701.452 14.8112 700.347 14.9769 699.215 14.9769C697.512 14.9769 696.113 14.4799 695.009 13.5043C693.904 12.5194 693.352 11.2585 693.352 9.72137H693.38Z" fill="#FEA7CA"/>
<path d="M727.122 8.74576C728.392 6.09498 730.196 4.05168 732.525 2.60664C734.862 1.1708 737.596 0.452881 740.735 0.452881C743.873 0.452881 746.432 1.15239 748.724 2.55141C751.006 3.95043 752.783 5.9201 754.035 8.46043C755.286 11.0008 755.912 13.9553 755.912 17.324C755.912 21.024 755.295 24.2362 754.062 26.933C752.829 29.639 751.062 31.7099 748.779 33.1458C746.496 34.5816 743.781 35.2995 740.643 35.2995C737.504 35.2995 734.678 34.6184 732.359 33.247C730.039 31.8756 728.272 29.9059 727.048 27.3104C725.824 24.7148 725.217 21.6407 725.217 18.0695C725.217 14.4983 725.852 11.3873 727.122 8.73655V8.74576ZM739.437 20.7847C739.805 21.4198 740.339 21.7327 741.038 21.7327C742.437 21.7327 743.137 20.2324 743.137 17.2227C743.137 14.8204 742.456 13.6147 741.084 13.6147C740.385 13.6147 739.842 13.9921 739.455 14.7376C739.069 15.4923 738.875 16.5692 738.875 17.9682C738.875 19.2016 739.059 20.1404 739.428 20.7755L739.437 20.7847Z" fill="#FEA7CA"/>
<path d="M759.217 9.72137C759.217 8.01862 759.842 6.44472 761.094 4.99048C762.346 3.53623 764.039 2.38572 766.175 1.53895C768.31 0.68297 770.63 0.259583 773.133 0.259583C775.637 0.259583 778.048 0.692174 780.064 1.55736C782.089 2.43174 783.653 3.64668 784.776 5.21138C785.89 6.78527 786.451 8.57086 786.451 10.5681C786.451 12.9704 785.651 15.1702 784.049 17.1491C782.448 19.1371 779.843 21.1344 776.235 23.1317C778.14 22.4966 779.843 22.1837 781.343 22.1837C783.35 22.1837 784.914 22.6899 786.046 23.7116C787.179 24.7332 787.749 26.0586 787.749 27.6969C787.749 30.136 786.617 31.986 784.344 33.2562C782.07 34.5264 778.784 35.1614 774.477 35.1614C769.801 35.1614 766.313 34.4803 764.012 33.1089C761.711 31.7375 760.56 29.6574 760.56 26.8502C760.56 25.2487 761.057 23.7024 762.033 22.2205C763.018 20.7387 764.757 18.907 767.261 16.7349L771.716 12.8784C770.547 13.6147 769.424 14.1485 768.356 14.4799C767.289 14.8112 766.184 14.9769 765.052 14.9769C763.349 14.9769 761.95 14.4799 760.846 13.5043C759.741 12.5194 759.189 11.2585 759.189 9.72137H759.217Z" fill="#FEA7CA"/>
<path d="M792.664 8.69053C792.931 7.30992 793.299 6.21463 793.769 5.41388C794.8 3.64669 796.226 2.36733 798.049 1.58498C799.871 0.802635 802.411 0.40686 805.688 0.40686C809.627 0.40686 812.619 0.959104 814.68 2.06359C816.733 3.16808 817.755 4.71437 817.755 6.72086C817.755 8.09226 817.359 9.20596 816.576 10.0711C815.794 10.9455 814.699 11.507 813.3 11.7739C812.665 11.912 811.45 11.9764 809.646 11.9764C808.348 11.9764 807.161 11.9396 806.093 11.8751L806.038 13.2281C806.71 13.1269 807.391 13.0809 808.09 13.0809C810.06 13.0809 811.855 13.5043 813.475 14.3602C815.095 15.207 816.374 16.422 817.304 17.9867C818.233 19.5605 818.703 21.3738 818.703 23.4447C818.703 25.8193 818.067 27.8902 816.797 29.6758C815.527 31.4614 813.788 32.8512 811.569 33.8361C809.351 34.8209 806.857 35.3087 804.086 35.3087C800.377 35.3087 797.441 34.692 795.269 33.4587C793.097 32.2254 792.011 30.4674 792.011 28.2032C792.011 26.6661 792.535 25.4235 793.585 24.4755C794.634 23.5275 796.042 23.0489 797.819 23.0489C798.555 23.0489 799.42 23.1501 800.423 23.3526C800.626 23.3894 800.975 23.4355 801.473 23.4999C801.97 23.5643 802.457 23.6011 802.927 23.6011C803.856 23.6011 804.326 23.3158 804.326 22.7452C804.326 22.1469 803.921 21.8432 803.12 21.8432L801.463 21.8892C798.159 21.8892 795.794 21.1713 794.376 19.7354C792.959 18.2996 792.25 16.017 792.25 12.8784C792.25 11.4702 792.379 10.0803 792.655 8.69974L792.664 8.69053Z" fill="#FEA7CA"/>
<path d="M836.623 3.08525C837.828 1.42851 839.522 0.60935 841.731 0.60935C844.437 0.60935 846.535 2.06359 848.036 4.96288C849.6 8.03704 850.585 12.6115 850.99 18.677C851.22 15.1702 851.883 12.4458 852.969 10.4945C854.055 8.54327 855.463 7.56763 857.203 7.56763C858.943 7.56763 860.388 8.48804 861.556 10.3197C862.725 12.1513 863.563 14.8297 864.06 18.3272C864.29 15.4279 864.594 12.9612 864.962 10.9455C865.33 8.92984 865.818 7.18106 866.416 5.71761C867.852 2.14643 870.024 0.36084 872.924 0.36084C874.958 0.36084 876.513 1.10637 877.581 2.61584C878.648 4.1161 879.182 6.30667 879.182 9.17835C879.182 13.854 878.676 18.2996 877.654 22.5243C876.633 26.7489 875.344 29.8323 873.77 31.7652C872.868 32.8973 871.902 33.7072 870.871 34.195C869.84 34.6736 868.616 34.9222 867.217 34.9222C865.008 34.9222 863.094 34.0109 861.455 32.1977C859.817 30.3753 858.565 27.7522 857.7 24.3099C856.227 31.5903 852.96 35.2259 847.888 35.2259C845.818 35.2259 844.004 34.6 842.43 33.3483C840.857 32.0965 839.439 30.136 838.178 27.4668C837.212 25.3959 836.411 22.736 835.776 19.4777C835.141 16.2195 834.828 13.1085 834.828 10.1448C834.828 7.18106 835.426 4.76039 836.632 3.11286L836.623 3.08525Z" fill="#FEA7CA"/>
<path d="M884.594 17.2779C884.594 14.9125 884.76 12.7587 885.091 10.8167C885.423 8.88382 885.855 7.36514 886.389 6.26065C887.356 4.25416 888.92 2.79072 891.092 1.8519C893.265 0.913085 896.099 0.452881 899.606 0.452881C903.444 0.452881 906.316 0.949901 908.221 1.92553C910.126 2.90117 911.074 4.50267 911.074 6.71165C911.074 7.74251 910.835 8.63531 910.347 9.39004C909.86 10.1356 909.123 10.6878 908.12 11.0192C907.218 11.3229 906.169 11.4702 904.963 11.4702C904.291 11.4702 903.159 11.4057 901.557 11.2677C900.122 11.1664 899.404 11.4333 899.404 12.0684C899.404 12.3998 899.542 12.6391 899.827 12.7679C900.112 12.906 900.637 12.9704 901.401 12.9704C902.1 12.9704 902.69 12.952 903.15 12.9152C903.417 12.8784 903.803 12.8692 904.3 12.8692C906.307 12.8692 907.825 13.2558 908.884 14.0197C909.933 14.7836 910.467 15.9433 910.467 17.4712C910.467 19.1095 909.841 20.3429 908.589 21.1713C907.338 22.0088 905.34 22.423 902.607 22.423C901.539 22.423 900.821 22.4966 900.453 22.6439C900.085 22.7912 899.901 23.0397 899.901 23.371C899.901 24.135 900.6 24.4571 901.999 24.3191C903.499 24.1534 904.705 24.0705 905.607 24.0705C906.905 24.0705 907.963 24.2362 908.764 24.5676C910.43 25.2671 911.268 26.7029 911.268 28.8751C911.268 31.0472 910.209 32.7684 908.083 33.8545C905.957 34.9406 902.736 35.4836 898.391 35.4836C894.719 35.4836 891.912 34.9406 889.979 33.8545C888.046 32.7684 886.674 30.992 885.874 28.5253C885.008 25.893 884.576 22.1377 884.576 17.2595L884.594 17.2779Z" fill="#FEA7CA"/>
<path d="M937.122 33.8545C935.916 32.9525 935.152 31.6547 934.821 29.952C934.655 29.05 934.416 28.4057 934.122 28.0283C933.827 27.6509 933.404 27.4484 932.87 27.4484C932.272 27.4484 931.821 27.6325 931.517 28.0007C931.213 28.3688 930.946 29.0868 930.716 30.1544C930.348 31.7283 929.593 32.9341 928.443 33.7808C927.292 34.6368 925.792 35.0602 923.96 35.0602C921.484 35.0602 919.552 34.149 918.153 32.3266C916.753 30.5134 916.054 28.0099 916.054 24.8437C916.054 20.2048 916.818 16.0262 918.355 12.2985C919.892 8.58008 921.991 5.65319 924.66 3.53625C927.329 1.41931 930.302 0.36084 933.569 0.36084C936.643 0.36084 939.414 1.46533 941.881 3.6651C944.357 5.86488 946.289 8.81939 947.688 12.5286C949.087 16.2287 949.787 20.2601 949.787 24.5952C949.787 28.0007 949.078 30.6238 947.661 32.4555C946.243 34.2871 944.246 35.2075 941.678 35.2075C939.847 35.2075 938.319 34.7565 937.122 33.8545ZM931.011 18.8887C931.416 19.3581 931.977 19.5882 932.713 19.5882C933.45 19.5882 934.103 19.3396 934.591 18.8334C935.079 18.3364 935.318 17.6829 935.318 16.8822C935.318 16.0814 935.088 15.4831 934.646 14.9769C934.204 14.4707 933.615 14.2222 932.916 14.2222C932.216 14.2222 931.581 14.4799 931.112 14.9953C930.642 15.5108 930.412 16.1734 930.412 16.9742C930.412 17.775 930.615 18.41 931.011 18.8794V18.8887Z" fill="#FEA7CA"/>
<path d="M955.742 12.2709C956.147 9.9975 956.727 8.16589 957.491 6.75766C958.696 4.55789 960.436 2.93797 962.719 1.89791C965.01 0.867052 967.956 0.351624 971.555 0.351624C976.396 0.351624 980.151 1.31805 982.82 3.25091C985.49 5.18377 986.824 7.92658 986.824 11.4609C986.824 13.5319 986.299 15.3819 985.25 17.0202C984.201 18.6585 982.866 19.7262 981.265 20.2232C985.269 22.966 987.275 25.6628 987.275 28.332C987.275 30.2649 986.686 31.8572 985.526 33.0905C984.357 34.3239 982.839 34.9406 980.97 34.9406C978.697 34.9406 976.672 34.1582 974.886 32.5843C973.101 31.0196 971.343 28.4609 969.603 24.9173C969.732 28.1571 969.198 30.6238 968.002 32.3266C966.796 34.0293 965.01 34.8761 962.645 34.8761C961.108 34.8761 959.764 34.4067 958.614 33.4771C957.463 32.5383 956.635 31.2221 956.138 29.5193C955.834 28.4885 955.595 27.1355 955.411 25.4603C955.226 23.7852 955.135 21.972 955.135 20.0023C955.135 17.103 955.337 14.5075 955.733 12.2433L955.742 12.2709ZM972.668 15.5844C973.101 15.1794 973.322 14.6824 973.322 14.0841C973.322 13.3846 973.11 12.8416 972.668 12.455C972.226 12.0684 971.637 11.8751 970.864 11.8751C970.165 11.8751 969.594 12.0868 969.162 12.501C968.729 12.9152 968.508 13.4582 968.508 14.1301C968.508 14.7652 968.738 15.2622 969.18 15.6304C969.631 15.9986 970.22 16.1826 970.956 16.1826C971.693 16.1826 972.226 15.9801 972.659 15.5844H972.668Z" fill="#FEA7CA"/>
<path d="M1030.09 2.60662C1032.53 3.9044 1033.75 5.91089 1033.75 8.61689C1033.75 10.8535 1033.01 12.5838 1031.55 13.7988C1030.07 15.0137 1028.01 15.6304 1025.33 15.6304C1024.8 15.6304 1024.4 15.612 1024.14 15.5844C1024.98 17.6185 1025.39 20.6558 1025.39 24.6964C1025.39 27.9639 1024.7 30.541 1023.31 32.4094C1021.92 34.2779 1020.03 35.2167 1017.63 35.2167C1015.06 35.2167 1013.11 34.3239 1011.79 32.5383C1010.48 30.7527 1009.82 28.1203 1009.82 24.6504C1009.82 21.1805 1010.25 18.0419 1011.11 15.6396C1010.88 15.6764 1010.56 15.6948 1010.17 15.6948C1007.6 15.6948 1005.6 15.0966 1004.18 13.8908C1002.77 12.6851 1002.06 11.0007 1002.06 8.83779C1002.06 6.06736 1003.43 4.01485 1006.16 2.68026C1008.9 1.34567 1013.08 0.673767 1018.73 0.673767C1023.86 0.673767 1027.65 1.32726 1030.09 2.62503V2.60662Z" fill="#FEA7CA"/>
<path d="M1038.46 9.09554C1039.92 6.44476 1041.97 4.36464 1044.59 2.86438C1047.21 1.36411 1050.18 0.609375 1053.48 0.609375C1056.78 0.609375 1059.83 1.36411 1062.52 2.86438C1065.21 4.36464 1067.31 6.42635 1068.85 9.04952C1070.39 11.6727 1071.15 14.618 1071.15 17.8854C1071.15 21.1529 1070.4 24.1074 1068.9 26.7213C1067.4 29.3353 1065.32 31.4062 1062.67 32.9065C1060.01 34.4068 1057.05 35.1615 1053.77 35.1615C1050.33 35.1615 1047.29 34.4436 1044.63 33.0077C1041.98 31.5719 1039.92 29.5654 1038.45 26.9791C1036.98 24.3927 1036.24 21.429 1036.24 18.0879C1036.24 14.7468 1036.98 11.7555 1038.45 9.10474L1038.46 9.09554ZM1051.45 20.2601C1051.96 20.8399 1052.65 21.1345 1053.53 21.1345C1054.4 21.1345 1055.04 20.8215 1055.58 20.2049C1056.11 19.5882 1056.38 18.815 1056.38 17.8762C1056.38 16.9374 1056.1 16.2379 1055.55 15.6765C1055 15.1058 1054.29 14.8205 1053.42 14.8205C1052.66 14.8205 1052.01 15.1242 1051.47 15.7225C1050.94 16.3207 1050.67 17.0571 1050.67 17.9315C1050.67 18.8979 1050.93 19.671 1051.45 20.2601Z" fill="#FEA7CA"/>
<path d="M1113.64 13.8264C1112.55 15.0598 1111.19 15.6764 1109.56 15.6764C1108.89 15.6764 1108.17 15.5752 1107.41 15.3727C1106.61 15.1426 1105.83 15.0229 1105.11 15.0229C1104.24 15.0229 1103.54 15.2438 1103.01 15.6764C1102.47 16.109 1102.21 16.6797 1102.21 17.3792C1102.21 18.0787 1102.42 18.5849 1102.83 19.0083C1103.25 19.4317 1103.81 19.6342 1104.51 19.6342C1105.21 19.6342 1105.94 19.4501 1106.72 19.0819C1107.65 18.6125 1108.55 18.3824 1109.42 18.3824C1111.13 18.3824 1112.52 18.9991 1113.63 20.2324C1114.73 21.4658 1115.29 22.9753 1115.29 24.7424C1115.29 26.7489 1114.79 28.4977 1113.79 29.998C1112.78 31.4982 1111.35 32.658 1109.48 33.4771C1107.61 34.2963 1105.44 34.7013 1102.97 34.7013C1099.77 34.7013 1096.93 34.0202 1094.46 32.6487C1091.98 31.2773 1090.08 29.3537 1088.72 26.8686C1087.37 24.3835 1086.7 21.5026 1086.7 18.226C1086.7 14.7928 1087.42 11.7279 1088.85 9.04029C1090.29 6.3527 1092.28 4.25417 1094.86 2.7539C1097.43 1.25364 1100.36 0.498901 1103.62 0.498901C1105.86 0.498901 1107.86 0.867065 1109.63 1.60339C1111.4 2.33972 1112.79 3.36137 1113.79 4.67755C1114.8 5.99374 1115.29 7.494 1115.29 9.15994C1115.29 11.0284 1114.75 12.5839 1113.67 13.8172L1113.64 13.8264Z" fill="#FEA7CA"/>
<path d="M1141.35 33.8545C1140.15 32.9525 1139.38 31.6547 1139.05 29.952C1138.88 29.05 1138.65 28.4057 1138.35 28.0283C1138.06 27.6509 1137.63 27.4484 1137.1 27.4484C1136.5 27.4484 1136.05 27.6325 1135.75 28.0007C1135.44 28.3688 1135.18 29.0868 1134.95 30.1544C1134.58 31.7283 1133.82 32.9341 1132.67 33.7808C1131.52 34.6368 1130.02 35.0602 1128.19 35.0602C1125.71 35.0602 1123.78 34.149 1122.38 32.3266C1120.98 30.5134 1120.28 28.0099 1120.28 24.8437C1120.28 20.2048 1121.05 16.0262 1122.58 12.2985C1124.12 8.58008 1126.22 5.65319 1128.89 3.53625C1131.56 1.41931 1134.53 0.36084 1137.8 0.36084C1140.87 0.36084 1143.64 1.46533 1146.11 3.6651C1148.59 5.86488 1150.52 8.81939 1151.92 12.5286C1153.32 16.2287 1154.02 20.2601 1154.02 24.5952C1154.02 28.0007 1153.31 30.6238 1151.89 32.4555C1150.47 34.2871 1148.48 35.2075 1145.91 35.2075C1144.08 35.2075 1142.55 34.7565 1141.35 33.8545ZM1135.24 18.8887C1135.64 19.3581 1136.21 19.5882 1136.94 19.5882C1137.68 19.5882 1138.33 19.3396 1138.82 18.8334C1139.31 18.3364 1139.55 17.6829 1139.55 16.8822C1139.55 16.0814 1139.32 15.4831 1138.88 14.9769C1138.43 14.4707 1137.84 14.2222 1137.14 14.2222C1136.45 14.2222 1135.81 14.4799 1135.34 14.9953C1134.87 15.5108 1134.64 16.1734 1134.64 16.9742C1134.64 17.775 1134.84 18.41 1135.24 18.8794V18.8887Z" fill="#FEA7CA"/>
<path d="M1159.97 12.2709C1160.38 9.9975 1160.96 8.16589 1161.72 6.75766C1162.93 4.55789 1164.67 2.93797 1166.95 1.89791C1169.24 0.867052 1172.18 0.351624 1175.78 0.351624C1180.63 0.351624 1184.38 1.31805 1187.05 3.25091C1189.72 5.18377 1191.05 7.92658 1191.05 11.4609C1191.05 13.5319 1190.53 15.3819 1189.48 17.0202C1188.43 18.6585 1187.1 19.7262 1185.49 20.2232C1189.5 22.966 1191.5 25.6628 1191.5 28.332C1191.5 30.2649 1190.92 31.8572 1189.76 33.0905C1188.59 34.3239 1187.07 34.9406 1185.2 34.9406C1182.93 34.9406 1180.9 34.1582 1179.12 32.5843C1177.33 31.0196 1175.57 28.4609 1173.83 24.9173C1173.96 28.1571 1173.43 30.6238 1172.23 32.3266C1171.03 34.0293 1169.24 34.8761 1166.87 34.8761C1165.34 34.8761 1163.99 34.4067 1162.84 33.4771C1161.69 32.5475 1160.86 31.2221 1160.37 29.5193C1160.06 28.4885 1159.82 27.1355 1159.64 25.4603C1159.46 23.7944 1159.36 21.972 1159.36 20.0023C1159.36 17.103 1159.57 14.5075 1159.96 12.2433L1159.97 12.2709ZM1176.9 15.5844C1177.33 15.1794 1177.55 14.6824 1177.55 14.0841C1177.55 13.3846 1177.34 12.8416 1176.9 12.455C1176.46 12.0684 1175.87 11.8751 1175.09 11.8751C1174.39 11.8751 1173.82 12.0868 1173.39 12.501C1172.96 12.9152 1172.74 13.4582 1172.74 14.1301C1172.74 14.7652 1172.97 15.2622 1173.41 15.6304C1173.86 15.9986 1174.45 16.1826 1175.19 16.1826C1175.92 16.1826 1176.46 15.9801 1176.89 15.5844H1176.9Z" fill="#FEA7CA"/>
<path d="M1196.18 17.2779C1196.18 14.9125 1196.35 12.7587 1196.68 10.8167C1197.01 8.88382 1197.44 7.36514 1197.97 6.26065C1198.94 4.25416 1200.51 2.79072 1202.68 1.8519C1204.85 0.913085 1207.69 0.452881 1211.19 0.452881C1215.03 0.452881 1217.9 0.949901 1219.81 1.92553C1221.71 2.90117 1222.66 4.50267 1222.66 6.71165C1222.66 7.74251 1222.42 8.63531 1221.93 9.39004C1221.45 10.1356 1220.71 10.6878 1219.71 11.0192C1218.8 11.3229 1217.75 11.4702 1216.55 11.4702C1215.88 11.4702 1214.74 11.4057 1213.14 11.2677C1211.71 11.1664 1210.99 11.4333 1210.99 12.0684C1210.99 12.3998 1211.13 12.6391 1211.41 12.7679C1211.7 12.906 1212.22 12.9704 1212.99 12.9704C1213.69 12.9704 1214.28 12.952 1214.74 12.9152C1215 12.8784 1215.39 12.8692 1215.89 12.8692C1217.89 12.8692 1219.41 13.2558 1220.47 14.0197C1221.52 14.7836 1222.05 15.9433 1222.05 17.4712C1222.05 19.1095 1221.43 20.3429 1220.18 21.1713C1218.92 22.0088 1216.93 22.423 1214.19 22.423C1213.12 22.423 1212.41 22.4966 1212.04 22.6439C1211.67 22.7912 1211.49 23.0397 1211.49 23.371C1211.49 24.135 1212.19 24.4571 1213.58 24.3191C1215.09 24.1534 1216.29 24.0705 1217.19 24.0705C1218.49 24.0705 1219.55 24.2362 1220.35 24.5676C1222.02 25.2671 1222.85 26.7029 1222.85 28.8751C1222.85 31.0472 1221.79 32.7684 1219.67 33.8545C1217.54 34.9406 1214.32 35.4836 1209.98 35.4836C1206.3 35.4836 1203.5 34.9406 1201.56 33.8545C1199.63 32.7684 1198.26 30.992 1197.46 28.5253C1196.59 25.893 1196.16 22.1377 1196.16 17.2595L1196.18 17.2779Z" fill="#FEA7CA"/>
</svg>
