<svg width="187" height="28" viewBox="0 0 187 28" fill="none" xmlns="http://www.w3.org/2000/svg">
<g clip-path="url(#clip0_26_211)">
<path d="M0 27.9702V25.0091H1.30986C1.63209 25.0091 1.85389 25.073 1.97106 25.2008C2.08824 25.3287 2.14683 25.5715 2.14683 25.9251C2.14683 26.2617 2.08406 26.4875 1.96269 26.6196C1.84133 26.7389 1.61117 26.8028 1.27219 26.8028H0.326418V27.9659H0V27.9702ZM0.326418 26.5216H1.08806C1.40611 26.5216 1.61117 26.4918 1.70323 26.4193C1.7953 26.3554 1.83715 26.1935 1.83715 25.955C1.83715 25.6652 1.80367 25.4906 1.74508 25.4139C1.68649 25.3372 1.54002 25.3031 1.30986 25.3031L1.1885 25.2946H0.326418V26.5216Z" fill="#754725"/>
<path d="M2.54028 25.8996H2.82904L2.79974 26.1382L2.80811 26.1467C2.9211 25.9422 3.10942 25.8442 3.37725 25.8442C3.74133 25.8442 3.92547 26.0359 3.92547 26.4406V26.5812H3.63671V26.5344C3.63671 26.4747 3.64508 26.4406 3.64508 26.4193C3.64508 26.1978 3.53628 26.0955 3.31448 26.0955C2.98806 26.0955 2.82904 26.3043 2.82904 26.7261V27.9702H2.54028V25.8996Z" fill="#754725"/>
<path d="M5.03437 25.8612C5.40264 25.8612 5.64117 25.9337 5.75416 26.0615C5.86297 26.1936 5.91737 26.4875 5.91737 26.9349C5.91737 27.3822 5.86297 27.6634 5.75416 27.7955C5.64117 27.9276 5.40264 27.9957 5.03437 27.9957C4.6661 27.9957 4.42757 27.9276 4.31458 27.7955C4.20577 27.6634 4.15137 27.3737 4.15137 26.9349C4.15137 26.4961 4.20577 26.1936 4.31458 26.0615C4.42757 25.9337 4.6661 25.8612 5.03437 25.8612ZM5.03437 26.1126C4.77072 26.1126 4.61589 26.1552 4.55311 26.2404C4.49034 26.3342 4.45686 26.56 4.45686 26.9306C4.45686 27.3013 4.49034 27.5228 4.55311 27.6123C4.61589 27.7018 4.77072 27.7444 5.03437 27.7444C5.29802 27.7444 5.45286 27.7018 5.51563 27.6123C5.5784 27.5228 5.60769 27.297 5.60769 26.9306C5.60769 26.5642 5.5784 26.3299 5.51563 26.2404C5.45286 26.1552 5.29383 26.1126 5.03437 26.1126Z" fill="#754725"/>
<path d="M6.36523 25.8996H6.65817L6.6498 26.2106H6.65817C6.77116 25.9763 6.98878 25.8612 7.31101 25.8612C7.65417 25.8612 7.85504 25.9763 7.93037 26.2149H7.93874C8.06428 25.9763 8.29027 25.8612 8.62505 25.8612C9.09376 25.8612 9.33229 26.1169 9.33229 26.6153V27.9702H9.03935V26.5898C9.03935 26.4066 9.01006 26.283 8.94729 26.2149C8.88033 26.1509 8.76734 26.1169 8.59157 26.1169C8.36141 26.1169 8.20657 26.1637 8.12287 26.2532C8.03917 26.3427 8.00151 26.5216 8.00151 26.773V27.9744H7.71276V26.6196L7.70439 26.5259C7.70439 26.2532 7.55792 26.1169 7.26498 26.1169C6.86323 26.1169 6.66236 26.3427 6.66236 26.7943V27.9702H6.36942V25.8996H6.36523Z" fill="#754725"/>
<path d="M10.7258 25.8612C11.094 25.8612 11.3326 25.9337 11.4456 26.0615C11.5544 26.1936 11.6088 26.4875 11.6088 26.9349C11.6088 27.3822 11.5502 27.6634 11.4456 27.7955C11.3326 27.9276 11.094 27.9957 10.7258 27.9957C10.3575 27.9957 10.1148 27.9276 10.006 27.7955C9.89718 27.6634 9.84277 27.3737 9.84277 26.9349C9.84277 26.4961 9.89718 26.1936 10.006 26.0615C10.1148 25.9337 10.3533 25.8612 10.7258 25.8612ZM10.7258 26.1126C10.4663 26.1126 10.3073 26.1552 10.2403 26.2404C10.1776 26.3342 10.1483 26.56 10.1483 26.9306C10.1483 27.3013 10.1776 27.5228 10.2403 27.6123C10.3031 27.7018 10.4621 27.7444 10.7258 27.7444C10.9894 27.7444 11.1443 27.7018 11.207 27.6123C11.2698 27.5228 11.2991 27.297 11.2991 26.9306C11.2991 26.5642 11.2698 26.3299 11.207 26.2404C11.1484 26.1552 10.9852 26.1126 10.7258 26.1126Z" fill="#754725"/>
<path d="M13.1154 25.8996V26.1467H12.3496V27.4163C12.3496 27.6379 12.4417 27.7486 12.6342 27.7486C12.8267 27.7486 12.9145 27.6506 12.9145 27.4461V27.3439L12.9229 27.2331H13.1949L13.2033 27.3865C13.2033 27.7955 13.015 27.9957 12.6425 27.9957C12.2701 27.9957 12.0608 27.8253 12.0608 27.4845V26.1467H11.7888V25.8996H12.0608V25.3926H12.3496V25.8996H13.1154Z" fill="#754725"/>
<path d="M13.739 25.35H13.4502V25.0091H13.739V25.35ZM13.739 27.9702H13.4502V25.8996H13.739V27.9702Z" fill="#754725"/>
<path d="M15.078 25.8612C15.4463 25.8612 15.689 25.9337 15.7978 26.0615C15.9066 26.1936 15.9652 26.4875 15.9652 26.9349C15.9652 27.3822 15.9066 27.6634 15.7978 27.7955C15.689 27.9276 15.4463 27.9957 15.078 27.9957C14.7098 27.9957 14.4712 27.9276 14.3624 27.7955C14.2536 27.6634 14.1992 27.3737 14.1992 26.9349C14.1992 26.4961 14.2536 26.1936 14.3624 26.0615C14.4712 25.9337 14.714 25.8612 15.078 25.8612ZM15.078 26.1126C14.8186 26.1126 14.6596 26.1552 14.601 26.2404C14.534 26.3342 14.5047 26.56 14.5047 26.9306C14.5047 27.3013 14.534 27.5228 14.601 27.6123C14.6637 27.7018 14.8186 27.7444 15.078 27.7444C15.3375 27.7444 15.5007 27.7018 15.5635 27.6123C15.6263 27.5228 15.6597 27.297 15.6597 26.9306C15.6597 26.5642 15.6263 26.3299 15.5635 26.2404C15.5007 26.1552 15.3417 26.1126 15.078 26.1126Z" fill="#754725"/>
<path d="M16.4131 25.8996H16.6935L16.6851 26.1808L16.6935 26.1893C16.7814 25.972 17.0031 25.8612 17.3589 25.8612C17.6434 25.8612 17.8359 25.9209 17.9364 26.0189C18.0368 26.1211 18.087 26.3214 18.087 26.6196V27.9659H17.7983V26.5685C17.7983 26.3895 17.7648 26.266 17.702 26.2021C17.6351 26.1424 17.5095 26.1083 17.3212 26.1083C16.9069 26.1083 16.706 26.3128 16.706 26.7219V27.9659H16.4131V25.8953V25.8996Z" fill="#754725"/>
<path d="M18.9239 26.479H18.6352C18.6352 26.2361 18.6854 26.0742 18.79 25.9933C18.8946 25.9038 19.0997 25.8655 19.4052 25.8655C19.7358 25.8655 19.9618 25.9209 20.0789 26.0189C20.1961 26.1254 20.2547 26.3171 20.2547 26.6068V27.9744H19.966L19.9911 27.7486H19.9827C19.8697 27.919 19.6479 28 19.3048 28C18.8026 28 18.5557 27.7912 18.5557 27.3737C18.5557 27.1223 18.6101 26.9519 18.7231 26.8582C18.836 26.7602 19.0369 26.7176 19.334 26.7176C19.6856 26.7176 19.8906 26.79 19.9618 26.9306H19.9701V26.6707C19.9701 26.4321 19.9367 26.283 19.8781 26.2148C19.8111 26.1382 19.6772 26.1083 19.468 26.1083C19.1081 26.1083 18.9281 26.2148 18.9281 26.4193V26.479H18.9239ZM19.401 26.9476C19.175 26.9476 19.0327 26.9732 18.9616 27.0243C18.8946 27.0712 18.8612 27.182 18.8612 27.3354C18.8612 27.51 18.8946 27.6165 18.9616 27.6677C19.0286 27.7273 19.1667 27.7529 19.3675 27.7529C19.7818 27.7529 19.9827 27.6251 19.9827 27.3609C19.9827 27.2033 19.945 27.0925 19.8613 27.0371C19.786 26.9775 19.6312 26.9519 19.401 26.9519" fill="#754725"/>
<path d="M21.0832 25.0091H20.7944V27.9702H21.0832V25.0091Z" fill="#754725"/>
<path d="M22.686 27.9702V25.0091H23.9959C24.3181 25.0091 24.5399 25.073 24.6613 25.2008C24.7785 25.3287 24.837 25.5715 24.837 25.9251C24.837 26.2617 24.7785 26.4875 24.6529 26.6196C24.5316 26.7389 24.3014 26.8028 23.9666 26.8028H23.0208V27.9659H22.6902L22.686 27.9702ZM23.0166 26.5216H23.7741C24.0921 26.5216 24.3014 26.4918 24.3935 26.4193C24.4813 26.3554 24.5274 26.1935 24.5274 25.955C24.5274 25.6652 24.4981 25.4906 24.4353 25.4139C24.3725 25.3372 24.2261 25.3031 24.0001 25.3031L23.8787 25.2946H23.0166V26.5216Z" fill="#754725"/>
<path d="M25.4984 26.479H25.2096C25.2096 26.2361 25.264 26.0742 25.3687 25.9933C25.4733 25.9038 25.6742 25.8655 25.9838 25.8655C26.3144 25.8655 26.5404 25.9209 26.6576 26.0189C26.779 26.1254 26.8334 26.3171 26.8334 26.6068V27.9744H26.5446L26.5697 27.7486H26.5613C26.4484 27.919 26.2266 28 25.8834 28C25.3812 28 25.1301 27.7912 25.1301 27.3737C25.1301 27.1223 25.1887 26.9519 25.2975 26.8582C25.4105 26.7602 25.6156 26.7176 25.9127 26.7176C26.26 26.7176 26.4693 26.79 26.5404 26.9306H26.5446V26.6707C26.5446 26.4321 26.5111 26.283 26.4525 26.2148C26.3898 26.1382 26.2517 26.1083 26.0382 26.1083C25.6825 26.1083 25.5026 26.2148 25.5026 26.4193V26.479H25.4984ZM25.9713 26.9476C25.7495 26.9476 25.603 26.9732 25.5361 27.0243C25.4691 27.0712 25.4356 27.182 25.4356 27.3354C25.4356 27.51 25.4691 27.6165 25.5361 27.6677C25.603 27.7273 25.7411 27.7529 25.942 27.7529C26.3521 27.7529 26.5613 27.6251 26.5613 27.3609C26.5613 27.2033 26.5195 27.0925 26.44 27.0371C26.3563 26.9775 26.2056 26.9519 25.9713 26.9519" fill="#754725"/>
<path d="M27.4065 25.8996H27.6953L27.666 26.1382V26.1467C27.7873 25.9422 27.9757 25.8442 28.2435 25.8442C28.6076 25.8442 28.7917 26.0359 28.7917 26.4406V26.5812H28.503V26.5344C28.5071 26.4747 28.5071 26.4406 28.5071 26.4193C28.5071 26.1978 28.3983 26.0955 28.1765 26.0955C27.8543 26.0955 27.6911 26.3043 27.6911 26.7261V27.9702H27.4023V25.8996H27.4065Z" fill="#754725"/>
<path d="M30.1308 25.8996V26.1467H29.3608V27.4163C29.3608 27.6379 29.4529 27.7486 29.6454 27.7486C29.8379 27.7486 29.93 27.6506 29.93 27.4461V27.3439L29.9383 27.2331H30.2103V27.3865C30.2145 27.7955 30.0262 27.9957 29.6538 27.9957C29.2813 27.9957 29.0721 27.8253 29.0721 27.4845V26.1467H28.8V25.8996H29.0721V25.3926H29.3608V25.8996H30.1308Z" fill="#754725"/>
<path d="M30.4658 25.8996H30.742L30.7337 26.1808L30.742 26.1893C30.8299 25.972 31.0559 25.8612 31.4074 25.8612C31.6962 25.8612 31.8887 25.9209 31.9891 26.0189C32.0895 26.1211 32.1439 26.3214 32.1439 26.6196V27.9659H31.8552V26.5685C31.8552 26.3895 31.8175 26.266 31.7548 26.2021C31.6878 26.1424 31.5623 26.1083 31.3739 26.1083C30.9638 26.1083 30.7588 26.3128 30.7588 26.7219V27.9659H30.47V25.8953L30.4658 25.8996Z" fill="#754725"/>
<path d="M34.0563 27.3396H34.3534L34.3618 27.4163C34.3618 27.6293 34.299 27.7784 34.1735 27.8679C34.0521 27.9574 33.8262 27.9957 33.5123 27.9957C33.144 27.9957 32.8971 27.9233 32.7841 27.787C32.6711 27.6506 32.6125 27.3567 32.6125 26.9093C32.6125 26.496 32.6711 26.2148 32.7841 26.0785C32.8971 25.9379 33.1231 25.8655 33.4621 25.8655C33.8303 25.8655 34.0689 25.9294 34.1819 26.0529C34.2949 26.1765 34.3534 26.4364 34.3534 26.8326V26.9988H32.918C32.918 27.3226 32.9515 27.5313 33.0185 27.6165C33.0896 27.706 33.2445 27.7529 33.4914 27.7529C33.7383 27.7529 33.8806 27.7273 33.9517 27.6932C34.0187 27.6464 34.0563 27.5526 34.0563 27.412V27.3439V27.3396ZM34.0563 26.7517V26.6579C34.0563 26.4321 34.0187 26.283 33.9475 26.2148C33.8722 26.1509 33.7215 26.1168 33.483 26.1168C33.2445 26.1168 33.098 26.1552 33.0268 26.2361C32.9515 26.3171 32.9222 26.4918 32.9222 26.7559H34.0563V26.7517Z" fill="#754725"/>
<path d="M34.8472 25.8996H35.1401L35.1108 26.1382L35.1192 26.1467C35.2322 25.9422 35.4247 25.8442 35.6884 25.8442C36.0524 25.8442 36.2366 26.0359 36.2366 26.4406V26.5812H35.952V26.5344C35.952 26.4747 35.952 26.4406 35.952 26.4193C35.952 26.1978 35.8432 26.0955 35.6172 26.0955C35.2992 26.0955 35.136 26.3043 35.136 26.7261V27.9702H34.843V25.8996H34.8472Z" fill="#754725"/>
<path d="M38.0653 26.4449H37.7765C37.7765 26.2958 37.7473 26.2021 37.6887 26.168C37.6343 26.1296 37.4878 26.1126 37.2534 26.1126C37.0358 26.1126 36.8977 26.1296 36.835 26.168C36.7764 26.2063 36.7471 26.2915 36.7471 26.4321C36.7471 26.6452 36.8475 26.7602 37.0442 26.7687L37.2827 26.7815L37.584 26.7943C37.9481 26.8156 38.1281 27.0116 38.1281 27.3865C38.1281 27.6251 38.0695 27.7785 37.9523 27.8679C37.831 27.9574 37.605 27.9957 37.2869 27.9957C36.9689 27.9957 36.7345 27.9531 36.609 27.8722C36.4876 27.7912 36.4207 27.6421 36.4207 27.4206L36.429 27.3141H36.7303V27.4078C36.7303 27.5441 36.768 27.6336 36.835 27.6762C36.9019 27.7231 37.0358 27.7486 37.2325 27.7486C37.4711 27.7486 37.6343 27.7231 37.7096 27.6719C37.7849 27.6251 37.8226 27.5271 37.8226 27.3737C37.8226 27.1564 37.7263 27.0499 37.5338 27.0499C37.0902 27.0499 36.7973 27.0073 36.6592 26.9349C36.5169 26.8582 36.4458 26.692 36.4458 26.4449C36.4458 26.2106 36.5002 26.053 36.6132 25.9763C36.722 25.8996 36.9438 25.8612 37.2744 25.8612C37.8017 25.8612 38.0695 26.0317 38.0695 26.364V26.4407L38.0653 26.4449Z" fill="#754725"/>
<path d="M43.6144 25.0091L42.723 27.9702H42.2334L41.635 25.8399L41.5596 25.5758C41.5596 25.5758 41.5429 25.5161 41.5262 25.4437L41.4843 25.3116H41.4759L41.4425 25.4437L41.4006 25.5758L41.3253 25.8484L40.7185 27.9744H40.233L39.3584 25.0134H39.689L40.3042 27.1394L40.3879 27.4291C40.3879 27.4291 40.4088 27.5015 40.4297 27.5697L40.4716 27.7145H40.4799L40.5176 27.5697L40.5594 27.4291L40.6431 27.1394L41.2458 25.0134H41.7187L42.3213 27.1394L42.405 27.4291L42.4426 27.5739L42.4845 27.7145H42.4928L42.5347 27.5697L42.5765 27.4248L42.6644 27.1351L43.288 25.0134H43.6228L43.6144 25.0091Z" fill="#754725"/>
<path d="M44.7025 25.8612C45.0708 25.8612 45.3135 25.9337 45.4223 26.0615C45.5311 26.1936 45.5897 26.4875 45.5897 26.9349C45.5897 27.3822 45.5311 27.6634 45.4223 27.7955C45.3135 27.9276 45.0708 27.9957 44.7025 27.9957C44.3343 27.9957 44.0957 27.9276 43.9869 27.7955C43.8781 27.6634 43.8237 27.3737 43.8237 26.9349C43.8237 26.4961 43.8781 26.1936 43.9869 26.0615C44.0957 25.9337 44.3385 25.8612 44.7025 25.8612ZM44.7025 26.1126C44.4473 26.1126 44.2841 26.1552 44.2213 26.2404C44.1585 26.3342 44.1292 26.56 44.1292 26.9306C44.1292 27.3013 44.1585 27.5228 44.2213 27.6123C44.2841 27.7018 44.4431 27.7444 44.7025 27.7444C44.962 27.7444 45.121 27.7018 45.188 27.6123C45.2466 27.5228 45.2801 27.297 45.2801 26.9306C45.2801 26.5642 45.2466 26.3299 45.188 26.2404C45.121 26.1552 44.962 26.1126 44.7025 26.1126Z" fill="#754725"/>
<path d="M46.0752 25.8996H46.364L46.3347 26.1382V26.1467C46.456 25.9422 46.6443 25.8442 46.908 25.8442C47.2762 25.8442 47.4604 26.0359 47.4604 26.4406V26.5812H47.1716V26.5344C47.18 26.4747 47.18 26.4406 47.18 26.4193C47.18 26.1978 47.0712 26.0955 46.8494 26.0955C46.5272 26.0955 46.364 26.3043 46.364 26.7261V27.9702H46.0752V25.8996Z" fill="#754725"/>
<path d="M48.0295 25.0091H47.7407V27.9702H48.0295V25.0091Z" fill="#754725"/>
<path d="M50.2225 25.0091V27.9702H49.9337L49.9462 27.7018H49.9379C49.8458 27.8977 49.6324 27.9957 49.2976 27.9957C48.9921 27.9957 48.7829 27.919 48.6699 27.7657C48.5569 27.6123 48.4983 27.3226 48.4983 26.9008C48.4983 26.5088 48.5569 26.2404 48.6699 26.0913C48.7787 25.9422 48.9837 25.8655 49.2809 25.8655C49.6408 25.8655 49.8584 25.9677 49.9295 26.168L49.9379 26.1595V25.0134H50.2266L50.2225 25.0091ZM49.3436 26.1126C49.126 26.1126 48.9879 26.1637 48.9126 26.2702C48.8414 26.3725 48.8038 26.577 48.8038 26.8965C48.8038 27.2416 48.8373 27.4717 48.9126 27.5867C48.9795 27.6975 49.126 27.7486 49.3478 27.7486C49.5864 27.7486 49.7454 27.6932 49.8165 27.5867C49.8918 27.476 49.9253 27.2374 49.9253 26.871C49.9253 26.5727 49.8835 26.3725 49.804 26.2702C49.7245 26.1637 49.5696 26.1126 49.3394 26.1126" fill="#754725"/>
<path d="M53.3276 25.8996L52.7668 27.9702H52.3316L52.0637 26.8241L51.9842 26.4705L51.9466 26.2958L51.9047 26.1169L51.8629 26.2958L51.821 26.4705L51.7373 26.8241L51.4695 27.9702H51.0301L50.4902 25.8996H50.7957L51.0761 27.0456L51.164 27.4078L51.2058 27.5867L51.2477 27.7657H51.2519L51.2979 27.5867L51.3356 27.4078L51.4193 27.0499L51.6913 25.8996H52.1181L52.3902 27.0499L52.4739 27.4078L52.5115 27.5867L52.5575 27.7657L52.6078 27.5867L52.6454 27.4078L52.7375 27.0456L53.0179 25.8996H53.3276Z" fill="#754725"/>
<path d="M53.8798 25.35H53.5911V25.0091H53.8798V25.35ZM53.8798 27.9702H53.5911V25.8996H53.8798V27.9702Z" fill="#754725"/>
<path d="M56.0686 25.0091V27.9702H55.7799L55.7924 27.7018H55.7841C55.692 27.8977 55.4786 27.9957 55.1396 27.9957C54.8383 27.9957 54.6249 27.919 54.5119 27.7657C54.3989 27.6123 54.3445 27.3226 54.3445 26.9008C54.3445 26.5088 54.3989 26.2404 54.5119 26.0913C54.629 25.9422 54.8299 25.8655 55.1187 25.8655C55.4828 25.8655 55.7004 25.9677 55.7673 26.168L55.7757 26.1595V25.0134H56.0645L56.0686 25.0091ZM55.194 26.1126C54.9764 26.1126 54.8383 26.1637 54.763 26.2702C54.6918 26.3725 54.6542 26.577 54.6542 26.8965C54.6542 27.2416 54.6918 27.4717 54.763 27.5867C54.8341 27.6975 54.9764 27.7486 55.1982 27.7486C55.4409 27.7486 55.5999 27.6932 55.6669 27.5867C55.738 27.476 55.7757 27.2374 55.7757 26.871C55.7757 26.5727 55.7339 26.3725 55.6543 26.2702C55.5748 26.1637 55.4158 26.1126 55.1856 26.1126" fill="#754725"/>
<path d="M57.9684 27.3396H58.2656L58.2739 27.4163C58.2739 27.6293 58.207 27.7784 58.0856 27.8679C57.9601 27.9574 57.7383 27.9957 57.4202 27.9957C57.0519 27.9957 56.8092 27.9233 56.6962 27.787C56.5791 27.6506 56.5247 27.3567 56.5247 26.9093C56.5247 26.496 56.5832 26.2148 56.6962 26.0785C56.8092 25.9379 57.0394 25.8655 57.3784 25.8655C57.7424 25.8655 57.9852 25.9294 58.0982 26.0529C58.2153 26.1765 58.2697 26.4364 58.2697 26.8326V26.9988H56.8343C56.8343 27.3226 56.8678 27.5313 56.9348 27.6165C57.0017 27.706 57.1566 27.7529 57.4077 27.7529C57.642 27.7529 57.7927 27.7273 57.8638 27.6932C57.935 27.6464 57.9684 27.5526 57.9684 27.412V27.3439V27.3396ZM57.9684 26.7517V26.6579C57.9684 26.4321 57.9308 26.283 57.8638 26.2148C57.7885 26.1509 57.6378 26.1168 57.3993 26.1168C57.1608 26.1168 57.0143 26.1552 56.939 26.2361C56.8678 26.3171 56.8343 26.4918 56.8343 26.7559H57.9684V26.7517Z" fill="#754725"/>
<path d="M31.3822 10.2593C30.6708 9.50517 29.633 9.24954 27.348 9.24954H16.9822V23.2964H20.8992V19.7985H26.984L27.7121 19.8156C31.4534 19.8156 32.4912 18.6312 32.4912 14.3749C32.4912 12.2447 32.1857 11.1455 31.3781 10.2593M26.8919 16.3774H20.9034V12.6665H26.8919C28.139 12.6665 28.5826 13.1522 28.5826 14.5794C28.5826 16.0067 28.1599 16.3731 26.8919 16.3731" fill="#754725"/>
<path d="M55.3279 9.24954L51.4737 19.9008L48.289 9.24954H43.5852L40.229 19.9008L36.4836 9.24954H32.4912L37.6888 23.2964H42.9157L45.8869 13.3183L48.7284 23.2964H54.0306L59.2868 9.24954H55.3279Z" fill="#754725"/>
<path d="M14.4001 10.2593C13.6928 9.50517 12.655 9.24954 10.3701 9.24954H0V23.2964H3.91702V19.7985H9.9976L10.7258 19.8156C14.4712 19.8156 15.5049 18.6312 15.5049 14.3749C15.5049 12.2447 15.1994 11.1455 14.3917 10.2593M9.90972 16.3774H3.9212V12.6665H9.90972C11.1568 12.6665 11.6004 13.1522 11.6004 14.5794C11.6004 16.0067 11.1777 16.3731 9.90972 16.3731" fill="#754725"/>
<path d="M121.457 27.5314C120.838 27.5314 120.252 27.4121 119.703 27.1735C119.155 26.9349 118.674 26.6026 118.26 26.1808C117.845 25.759 117.519 25.269 117.285 24.7109C117.05 24.1528 116.933 23.5563 116.933 22.9258C116.933 22.2952 117.05 21.6902 117.285 21.1364C117.519 20.5825 117.845 20.0925 118.26 19.6707C118.674 19.2489 119.155 18.9166 119.703 18.678C120.252 18.4395 120.838 18.3202 121.457 18.3202C122.076 18.3202 122.662 18.4395 123.206 18.678C123.754 18.9166 124.236 19.2489 124.65 19.6707C125.064 20.0925 125.391 20.5825 125.625 21.1364C125.859 21.6902 125.977 22.2867 125.977 22.9258C125.977 23.5648 125.859 24.1528 125.625 24.7109C125.391 25.269 125.064 25.759 124.65 26.1808C124.236 26.6026 123.754 26.9349 123.206 27.1735C122.658 27.4121 122.072 27.5314 121.457 27.5314ZM121.457 26.5813C121.951 26.5813 122.415 26.4875 122.85 26.3001C123.286 26.1126 123.667 25.8527 123.997 25.5161C124.328 25.1796 124.587 24.7876 124.771 24.3445C124.955 23.9014 125.048 23.4285 125.048 22.9258C125.048 22.423 124.955 21.9416 124.771 21.4985C124.587 21.0597 124.328 20.672 123.997 20.3354C123.667 19.9988 123.282 19.7389 122.85 19.5472C122.415 19.3597 121.951 19.266 121.457 19.266C120.963 19.266 120.499 19.3597 120.068 19.5472C119.637 19.7346 119.256 19.9988 118.925 20.3354C118.594 20.672 118.335 21.0597 118.147 21.4985C117.958 21.9373 117.866 22.4145 117.866 22.9258C117.866 23.437 117.958 23.9014 118.143 24.3445C118.327 24.7876 118.582 25.1796 118.913 25.5161C119.243 25.8527 119.628 26.1169 120.063 26.3001C120.499 26.4875 120.963 26.5813 121.457 26.5813ZM121.67 25.6653C121.218 25.6653 120.779 25.5545 120.352 25.3372C119.925 25.1199 119.574 24.8046 119.302 24.3999C119.03 23.9909 118.892 23.5009 118.892 22.93C118.892 22.4358 119.017 21.9842 119.268 21.5667C119.519 21.1534 119.858 20.8211 120.281 20.5697C120.704 20.3183 121.164 20.1905 121.666 20.1905C122.127 20.1905 122.545 20.2928 122.922 20.4973C123.089 20.574 123.185 20.7018 123.21 20.8892C123.235 21.0724 123.198 21.2301 123.097 21.3664C123.014 21.4772 122.905 21.5411 122.771 21.5581C122.637 21.5752 122.512 21.5581 122.394 21.4942C122.286 21.4431 122.168 21.4048 122.047 21.3792C121.926 21.3536 121.796 21.3409 121.662 21.3409C121.361 21.3409 121.089 21.4133 120.842 21.5581C120.595 21.703 120.394 21.8947 120.243 22.1333C120.093 22.3719 120.017 22.636 120.017 22.9258C120.017 23.2581 120.097 23.5435 120.256 23.7821C120.415 24.0207 120.62 24.2039 120.871 24.3232C121.122 24.4468 121.386 24.5107 121.662 24.5107C121.788 24.5107 121.913 24.4979 122.034 24.4723C122.156 24.4468 122.273 24.4084 122.394 24.3573C122.512 24.2976 122.637 24.2806 122.771 24.2976C122.905 24.3189 123.014 24.3871 123.097 24.4979C123.215 24.6513 123.252 24.8174 123.219 24.9878C123.181 25.1625 123.089 25.2903 122.938 25.367C122.737 25.4693 122.528 25.546 122.315 25.5886C122.101 25.6354 121.884 25.661 121.666 25.661L121.67 25.6653Z" fill="#754725"/>
<path d="M131.601 18.4395C131.718 18.4395 131.844 18.4735 131.973 18.5374C132.103 18.6014 132.204 18.6823 132.271 18.7846L135.321 23.5648L134.694 23.5393L137.82 18.7846C137.979 18.5545 138.184 18.4395 138.435 18.4395C138.636 18.4395 138.816 18.5119 138.975 18.6567C139.134 18.8016 139.213 18.9891 139.213 19.2191V26.6196C139.213 26.8412 139.142 27.0244 139 27.1735C138.857 27.3226 138.669 27.3993 138.435 27.3993C138.2 27.3993 138.008 27.3269 137.866 27.1735C137.719 27.0244 137.648 26.8412 137.648 26.6196V20.5995L138.138 20.7146L135.577 24.6896C135.501 24.7833 135.405 24.8643 135.296 24.9325C135.183 25.0006 135.066 25.0304 134.949 25.0219C134.84 25.0304 134.731 25.0006 134.614 24.9325C134.501 24.8643 134.409 24.7833 134.334 24.6896L131.936 20.8296L132.262 20.1522V26.6196C132.262 26.8412 132.195 27.0244 132.061 27.1735C131.927 27.3226 131.752 27.3993 131.534 27.3993C131.316 27.3993 131.153 27.3269 131.019 27.1735C130.885 27.0244 130.818 26.8412 130.818 26.6196V19.2191C130.818 19.0061 130.894 18.8229 131.053 18.6695C131.208 18.5161 131.392 18.4395 131.609 18.4395H131.601Z" fill="#754725"/>
<path d="M141.624 19.7304C141.339 19.7304 141.138 19.6835 141.021 19.5898C140.904 19.4961 140.845 19.3299 140.845 19.0913V18.8485C140.845 18.6014 140.908 18.4309 141.042 18.3415C141.172 18.252 141.368 18.2051 141.636 18.2051C141.929 18.2051 142.134 18.252 142.251 18.3457C142.369 18.4395 142.427 18.6056 142.427 18.8442V19.0871C142.427 19.3342 142.364 19.5003 142.239 19.5898C142.113 19.6793 141.908 19.7219 141.624 19.7219V19.7304ZM142.389 26.6239C142.389 26.8454 142.318 27.0286 142.176 27.1778C142.034 27.3269 141.854 27.4036 141.636 27.4036C141.419 27.4036 141.239 27.3311 141.096 27.1778C140.954 27.0286 140.883 26.8454 140.883 26.6239V21.3451C140.883 21.1236 140.954 20.9404 141.096 20.7913C141.239 20.6421 141.419 20.5697 141.636 20.5697C141.854 20.5697 142.034 20.6421 142.176 20.7913C142.318 20.9404 142.389 21.1278 142.389 21.3451V26.6239Z" fill="#754725"/>
<path d="M147.524 20.4334C148.144 20.4334 148.616 20.5654 148.939 20.8296C149.261 21.0937 149.483 21.4474 149.604 21.8819C149.725 22.3208 149.784 22.8107 149.784 23.3475V26.6196C149.784 26.8412 149.713 27.0244 149.571 27.1735C149.428 27.3226 149.248 27.3993 149.031 27.3993C148.813 27.3993 148.633 27.3269 148.491 27.1735C148.349 27.0244 148.278 26.8412 148.278 26.6196V23.3475C148.278 23.0664 148.24 22.8107 148.169 22.5892C148.098 22.3634 147.968 22.1844 147.784 22.0481C147.6 21.9118 147.336 21.8436 146.993 21.8436C146.65 21.8436 146.378 21.9118 146.143 22.0481C145.913 22.1844 145.737 22.3634 145.616 22.5892C145.495 22.815 145.436 23.0706 145.436 23.3475V26.6196C145.436 26.8412 145.365 27.0244 145.223 27.1735C145.08 27.3226 144.9 27.3993 144.683 27.3993C144.465 27.3993 144.285 27.3269 144.143 27.1735C144.001 27.0244 143.929 26.8412 143.929 26.6196V21.3409C143.929 21.1193 144.001 20.9361 144.143 20.787C144.285 20.6379 144.465 20.5654 144.683 20.5654C144.9 20.5654 145.08 20.6379 145.223 20.787C145.365 20.9361 145.436 21.1236 145.436 21.3409V21.8905L145.248 21.8521C145.323 21.7073 145.432 21.5496 145.574 21.3835C145.716 21.2173 145.884 21.0639 146.076 20.9148C146.269 20.7699 146.486 20.6507 146.729 20.5612C146.972 20.4717 147.235 20.4291 147.52 20.4291L147.524 20.4334Z" fill="#754725"/>
<path d="M152.069 19.7304C151.785 19.7304 151.584 19.6835 151.467 19.5898C151.349 19.4961 151.291 19.3299 151.291 19.0913V18.8485C151.291 18.6014 151.354 18.4309 151.487 18.3415C151.617 18.252 151.814 18.2051 152.082 18.2051C152.375 18.2051 152.58 18.252 152.697 18.3457C152.814 18.4395 152.873 18.6056 152.873 18.8442V19.0871C152.873 19.3342 152.81 19.5003 152.684 19.5898C152.559 19.6793 152.354 19.7219 152.069 19.7219V19.7304ZM152.835 26.6239C152.835 26.8454 152.764 27.0286 152.622 27.1778C152.479 27.3269 152.299 27.4036 152.082 27.4036C151.864 27.4036 151.684 27.3311 151.542 27.1778C151.4 27.0286 151.328 26.8454 151.328 26.6239V21.3451C151.328 21.1236 151.4 20.9404 151.542 20.7913C151.684 20.6421 151.864 20.5697 152.082 20.5697C152.299 20.5697 152.479 20.6421 152.622 20.7913C152.764 20.9404 152.835 21.1278 152.835 21.3451V26.6239Z" fill="#754725"/>
<path d="M155.296 18.4395C155.413 18.4395 155.538 18.4735 155.668 18.5374C155.798 18.6014 155.898 18.6823 155.965 18.7846L159.016 23.5648L158.388 23.5393L161.514 18.7846C161.673 18.5545 161.878 18.4395 162.129 18.4395C162.33 18.4395 162.51 18.5119 162.669 18.6567C162.828 18.8016 162.908 18.9891 162.908 19.2191V26.6196C162.908 26.8412 162.837 27.0244 162.694 27.1735C162.552 27.3226 162.364 27.3993 162.129 27.3993C161.895 27.3993 161.703 27.3269 161.56 27.1735C161.414 27.0244 161.343 26.8412 161.343 26.6196V20.5995L161.832 20.7146L159.271 24.6896C159.196 24.7833 159.1 24.8643 158.991 24.9325C158.878 25.0006 158.761 25.0304 158.643 25.0219C158.535 25.0304 158.426 25.0006 158.309 24.9325C158.196 24.8643 158.104 24.7833 158.028 24.6896L155.63 20.8296L155.957 20.1522V26.6196C155.957 26.8412 155.89 27.0244 155.756 27.1735C155.622 27.3226 155.446 27.3993 155.229 27.3993C155.011 27.3993 154.848 27.3269 154.714 27.1735C154.58 27.0244 154.513 26.8412 154.513 26.6196V19.2191C154.513 19.0061 154.588 18.8229 154.747 18.6695C154.902 18.5161 155.086 18.4395 155.304 18.4395H155.296Z" fill="#754725"/>
<path d="M171.177 23.9866C171.177 24.6853 171.026 25.3031 170.717 25.8357C170.411 26.3682 170.001 26.7858 169.486 27.084C168.972 27.3822 168.394 27.5314 167.758 27.5314C167.122 27.5314 166.544 27.3822 166.03 27.084C165.515 26.7858 165.105 26.3725 164.799 25.8357C164.494 25.3031 164.343 24.6896 164.343 23.9866C164.343 23.2836 164.494 22.6701 164.799 22.1376C165.105 21.605 165.515 21.1875 166.03 20.885C166.544 20.5825 167.118 20.4291 167.758 20.4291C168.398 20.4291 168.968 20.5825 169.486 20.885C170.001 21.1875 170.411 21.605 170.717 22.1376C171.022 22.6701 171.177 23.2879 171.177 23.9866ZM169.671 23.9866C169.671 23.5521 169.583 23.1771 169.411 22.8533C169.24 22.5338 169.009 22.2867 168.721 22.1077C168.432 21.9288 168.11 21.8393 167.758 21.8393C167.407 21.8393 167.084 21.9288 166.796 22.1077C166.507 22.2867 166.277 22.5338 166.105 22.8533C165.934 23.1729 165.846 23.5521 165.846 23.9866C165.846 24.4212 165.934 24.7876 166.105 25.1071C166.277 25.4267 166.507 25.6738 166.796 25.8527C167.084 26.0317 167.407 26.1211 167.758 26.1211C168.11 26.1211 168.432 26.0317 168.721 25.8527C169.009 25.6738 169.24 25.4267 169.411 25.1071C169.583 24.7876 169.671 24.4169 169.671 23.9866Z" fill="#754725"/>
<path d="M173.249 27.4036C173.031 27.4036 172.851 27.3311 172.709 27.1778C172.567 27.0286 172.495 26.8454 172.495 26.6239V21.3451C172.495 21.1236 172.567 20.9404 172.709 20.7913C172.851 20.6422 173.031 20.5697 173.249 20.5697C173.466 20.5697 173.646 20.6422 173.788 20.7913C173.931 20.9404 174.002 21.1279 174.002 21.3451V22.5466L173.914 21.6902C174.006 21.4857 174.123 21.3025 174.27 21.1449C174.416 20.9873 174.579 20.8552 174.768 20.7487C174.952 20.6422 175.149 20.5655 175.358 20.5143C175.567 20.4632 175.776 20.4377 175.986 20.4377C176.237 20.4377 176.446 20.5101 176.622 20.6549C176.793 20.7998 176.877 20.9702 176.877 21.1662C176.877 21.4474 176.806 21.6519 176.663 21.7712C176.521 21.8947 176.366 21.9587 176.199 21.9587C176.04 21.9587 175.893 21.9288 175.764 21.8692C175.634 21.8095 175.488 21.7797 175.32 21.7797C175.169 21.7797 175.015 21.8138 174.86 21.8862C174.705 21.9586 174.563 22.0737 174.433 22.2271C174.303 22.3804 174.199 22.5679 174.119 22.7937C174.04 23.0195 174.002 23.2879 174.002 23.5947V26.6239C174.002 26.8454 173.931 27.0286 173.788 27.1778C173.646 27.3269 173.466 27.4036 173.249 27.4036Z" fill="#754725"/>
<path d="M178.597 19.7304C178.312 19.7304 178.111 19.6835 177.994 19.5898C177.877 19.4961 177.818 19.3299 177.818 19.0913V18.8485C177.818 18.6014 177.881 18.4309 178.015 18.3415C178.145 18.252 178.341 18.2051 178.609 18.2051C178.902 18.2051 179.107 18.252 179.224 18.3457C179.342 18.4395 179.4 18.6056 179.4 18.8442V19.0871C179.4 19.3342 179.337 19.5003 179.212 19.5898C179.086 19.6793 178.881 19.7219 178.597 19.7219V19.7304ZM179.367 26.6239C179.367 26.8454 179.296 27.0286 179.153 27.1778C179.011 27.3269 178.831 27.4036 178.613 27.4036C178.396 27.4036 178.216 27.3311 178.074 27.1778C177.931 27.0286 177.86 26.8454 177.86 26.6239V21.3451C177.86 21.1236 177.931 20.9404 178.074 20.7913C178.216 20.6421 178.396 20.5697 178.613 20.5697C178.831 20.5697 179.011 20.6421 179.153 20.7913C179.296 20.9404 179.367 21.1278 179.367 21.3451V26.6239Z" fill="#754725"/>
<path d="M184.075 27.5314C183.363 27.5314 182.744 27.378 182.221 27.0755C181.698 26.773 181.296 26.364 181.016 25.8442C180.735 25.3244 180.597 24.7365 180.597 24.0804C180.597 23.3135 180.752 22.6574 181.058 22.1163C181.363 21.5752 181.761 21.1577 182.259 20.868C182.752 20.5782 183.275 20.4334 183.828 20.4334C184.255 20.4334 184.661 20.5229 185.041 20.7018C185.422 20.8807 185.757 21.1278 186.05 21.4389C186.343 21.7499 186.573 22.112 186.749 22.521C186.92 22.93 187.008 23.3646 187.008 23.8247C187 24.0292 186.92 24.1954 186.77 24.3232C186.619 24.451 186.443 24.5149 186.243 24.5149H181.447L181.07 23.2368H185.678L185.401 23.4924V23.1473C185.385 22.9002 185.297 22.6787 185.142 22.4827C184.987 22.2867 184.795 22.1291 184.564 22.014C184.334 21.899 184.087 21.8393 183.828 21.8393C183.568 21.8393 183.342 21.8734 183.125 21.9416C182.907 22.0098 182.719 22.1248 182.56 22.2867C182.401 22.4486 182.275 22.6659 182.183 22.9386C182.091 23.2112 182.045 23.5563 182.045 23.9739C182.045 24.434 182.141 24.8217 182.33 25.1412C182.518 25.4608 182.761 25.7036 183.058 25.8698C183.355 26.0359 183.673 26.1169 184.004 26.1169C184.313 26.1169 184.56 26.0913 184.744 26.0402C184.928 25.9891 185.075 25.9252 185.192 25.857C185.305 25.7846 185.406 25.7249 185.502 25.6695C185.652 25.5928 185.795 25.5545 185.929 25.5545C186.113 25.5545 186.268 25.6184 186.389 25.7462C186.51 25.874 186.573 26.0232 186.573 26.1936C186.573 26.4236 186.456 26.6324 186.222 26.8199C186.004 27.0073 185.699 27.1735 185.305 27.3098C184.912 27.4504 184.506 27.5229 184.087 27.5229L184.075 27.5314Z" fill="#754725"/>
<path d="M85.2707 3.28059C86.0407 3.26355 86.6517 2.61169 86.6349 1.8235C86.6182 1.03957 85.9779 0.413277 85.2037 0.434579C84.4337 0.451621 83.8227 1.10348 83.8394 1.89167C83.8562 2.67986 84.4965 3.3019 85.2707 3.28059Z" fill="#754725"/>
<path d="M103.759 2.84602C104.529 2.82898 105.14 2.17712 105.124 1.38893C105.107 0.605 104.467 -0.0212935 103.692 8.9567e-06C102.922 0.017051 102.307 0.668907 102.328 1.4571C102.345 2.24103 102.985 2.86732 103.759 2.84602Z" fill="#754725"/>
<path d="M110.396 8.30797C110.271 8.06512 110.058 7.88618 109.798 7.80949C109.267 7.64333 108.697 7.95009 108.534 8.49543C108.128 9.85453 107.429 11.4693 106.396 11.5119C106.387 11.5119 106.379 11.5119 106.371 11.5119C105.894 11.5204 105.546 11.3755 105.278 11.0603C104.328 9.944 104.517 7.05964 104.659 6.13512V6.12233L104.663 6.09677C104.747 5.53865 104.37 5.0146 103.822 4.92513C103.274 4.83566 102.755 5.21911 102.667 5.77297C102.667 5.79002 102.663 5.80706 102.659 5.82836V5.8454C102.516 6.73585 102.282 7.62203 101.964 8.47413C101.751 9.04504 101.428 9.90566 100.863 10.3999C100.562 10.664 100.047 10.7535 99.7544 10.4723C99.6749 10.3956 99.5577 10.1357 99.6372 9.21546C99.8214 7.15763 98.6538 5.41935 96.9213 5.1765C95.8792 5.03165 94.9335 5.34266 94.1886 6.08825C93.8747 5.64516 93.4981 5.36823 93.0628 5.26597C91.5312 4.90383 90.7612 6.59525 90.0079 8.23554C89.4178 9.52647 88.6102 11.2903 87.7271 11.3457C87.7188 11.3457 87.7104 11.3457 87.702 11.3457C87.43 11.3542 87.2375 11.2775 87.0534 11.0943C86.2206 10.238 86.07 7.7115 86.1704 6.32258C86.2122 5.77723 85.8272 5.2958 85.2958 5.22337C84.7643 5.15094 84.2705 5.51308 84.17 6.04991C83.3582 10.336 82.1278 10.9324 81.8893 11.0049C81.8056 11.0304 81.5629 11.1114 81.2197 10.7705C80.9226 10.4766 80.931 9.89288 80.977 9.04078C81.0398 7.88618 81.1318 6.14364 79.303 5.50456C78.5205 5.23189 77.7505 5.28302 77.0725 5.65368C76.767 5.81984 76.4825 6.05417 76.2272 6.34388C75.9803 6.05843 75.6915 5.83262 75.3567 5.66646C74.2226 5.09981 73.3606 5.3171 72.8333 5.59829C72.4441 5.80706 72.0967 6.13512 71.7996 6.56969C71.469 6.23737 71.0673 6.0073 70.6069 5.88375C69.4687 5.58125 68.7489 5.96044 68.3471 6.33536C67.1628 7.43457 67.4557 9.67559 67.5269 10.1102C67.5729 10.3828 67.7152 10.6214 67.937 10.7791C68.1546 10.9367 68.4224 11.0006 68.6861 10.9537C69.2343 10.8643 69.6109 10.3317 69.5231 9.77358C69.4017 9.01521 69.4687 8.20146 69.6653 7.96713C69.8034 7.80523 69.9959 7.74132 70.1968 7.79245C71.1928 8.0566 71.1384 11.0219 70.7869 12.9391C70.6864 13.4973 71.0463 14.0341 71.5946 14.1406C71.6699 14.1534 71.7452 14.1619 71.8205 14.1576C72.2934 14.1406 72.6868 13.7955 72.7747 13.3183C72.8416 12.9519 73.1681 11.0219 72.9128 9.20267C72.9714 8.84479 73.189 7.68594 73.6912 7.45161C74.0008 7.30249 74.2854 7.30675 74.5658 7.46013C74.9048 7.64759 75.0094 8.14181 75.1056 8.71698C75.1056 8.79793 75.1182 8.88314 75.1391 8.96409C75.2396 9.85879 75.1391 11.1199 74.8838 12.1722C74.7457 12.7218 75.0764 13.2842 75.6162 13.4206C75.7083 13.4461 75.8045 13.4547 75.9008 13.4504C76.3485 13.4334 76.7335 13.1138 76.8424 12.6707C76.9261 12.3256 77.3404 10.5192 77.152 8.77663C77.2399 8.52526 77.5454 7.72002 78.035 7.45587C78.1229 7.409 78.4242 7.27267 78.7172 7.47717C79.0143 7.68594 79.0268 7.88618 78.9599 8.91722C78.9013 9.83749 78.8092 11.2307 79.8052 12.2276C80.5711 12.9903 81.5503 13.2587 82.4919 12.9562C83.3372 12.6878 84.0738 12.0103 84.6806 10.9367C84.9191 11.5971 85.233 12.1339 85.6138 12.5259C86.2164 13.1479 86.9906 13.4419 87.8527 13.3865C89.9326 13.2544 90.9913 10.9452 91.8409 9.0919C92.0878 8.55082 92.4226 7.82227 92.682 7.44309C93.0628 8.2398 93.2386 10.6257 93.0754 12.8326C93.0335 13.3993 93.452 13.8935 94.0086 13.9361C94.5736 13.9787 95.0506 13.5484 95.0925 12.986C95.2222 11.2349 95.2055 9.74376 95.0297 8.55934C95.0297 8.55934 95.0297 8.55082 95.0339 8.55082C95.0339 8.5423 95.0423 8.53378 95.0423 8.52526C95.0841 8.37188 95.4817 7.0426 96.6409 7.20024C97.3732 7.30249 97.6955 8.20998 97.6201 9.01095C97.5406 9.9014 97.5364 11.0219 98.2395 11.8229C98.7124 12.364 99.3987 12.6494 100.282 12.6707C101.324 12.6963 102.228 12.1382 102.968 11.0006C103.165 11.5417 103.425 12.0061 103.738 12.381C104.4 13.1607 105.316 13.5612 106.392 13.5441C106.412 13.5441 106.438 13.5441 106.459 13.5441C108.241 13.476 109.589 11.972 110.455 9.0706C110.535 8.80645 110.509 8.52952 110.38 8.28667L110.396 8.30797Z" fill="#754725"/>
<path d="M75.7794 19.5046C74.6076 19.4279 73.6953 19.79 73.009 20.3183C72.8584 19.9178 72.6617 19.5685 72.4022 19.2958C71.561 18.4181 70.7073 18.2818 70.1382 18.3244C69.6904 18.3585 69.2929 18.5076 68.9497 18.6993C68.7907 18.3372 68.6149 18.1327 68.5438 18.0603C68.1378 17.6385 67.4725 17.6342 67.0623 18.0475C66.8531 18.2562 66.7359 18.5545 66.7485 18.8527C66.7568 19.0104 66.7945 19.1637 66.8656 19.3001C67.0079 19.577 67.1419 19.8028 67.1628 20.1309C67.1879 20.4973 67.1335 20.8637 67.0623 21.2216C66.7317 22.8661 66.7527 25.2562 66.7527 25.3585C66.7568 25.9294 67.2046 26.3895 67.757 26.4151C67.7738 26.4151 67.7947 26.4151 67.8114 26.4151C68.3889 26.4108 68.8535 25.9251 68.8493 25.3372C68.8493 25.3159 68.8325 23.0706 69.1171 21.6476C69.1422 21.5198 69.1631 21.4005 69.1799 21.2855C69.2343 20.9233 69.4017 20.4291 70.1968 20.4589C70.5023 20.4717 70.699 20.5825 70.9501 20.8765C71.4564 21.4687 71.4188 24.14 71.0672 26.2915C70.971 26.871 71.3602 27.4206 71.9293 27.5186C71.9754 27.5271 72.0172 27.5314 72.059 27.5314C72.578 27.5527 73.0467 27.1777 73.1346 26.6409C73.2392 26.0104 73.4275 24.664 73.4233 23.2581C73.4777 23.0706 73.9966 21.5155 75.6287 21.6348C76.0054 21.6604 76.269 21.7925 76.4824 22.0651C77.2148 22.9854 77.1143 25.0816 77.0181 25.7462C76.9344 26.3299 77.332 26.871 77.9053 26.9562C77.9429 26.9604 77.9806 26.9647 78.0141 26.9647C78.5414 26.986 79.0143 26.5983 79.0938 26.053C79.144 25.6993 79.5499 22.5423 78.1145 20.7273C77.5328 19.9945 76.7252 19.5727 75.771 19.5046H75.7794Z" fill="#754725"/>
<path d="M95.8374 19.1808C94.8916 18.4181 94.0254 18.3968 93.4688 18.5119C93.0545 18.5971 92.6946 18.7803 92.3891 19.0018C92.2008 18.7079 92.0208 18.546 91.9497 18.4906C91.4935 18.1284 90.8365 18.2094 90.4808 18.6738C90.2799 18.9337 90.213 19.2575 90.3008 19.577C90.3804 19.8625 90.5896 20.0329 90.7068 20.3865C90.8072 20.6975 90.9202 21.3451 90.8867 21.8223C90.7695 23.4967 91.0918 25.8655 91.1043 25.9635C91.1838 26.5301 91.6818 26.9264 92.2342 26.8752C92.251 26.8752 92.2677 26.8752 92.2886 26.871C92.862 26.79 93.2595 26.2489 93.18 25.6653C93.18 25.644 92.8745 23.42 92.975 21.9714C92.9917 21.7541 92.9582 21.5411 93.0628 21.3536C93.1842 21.1406 93.5399 20.672 93.8914 20.6038C93.9584 20.591 94.1593 20.5484 94.5359 20.8552C94.9879 21.2216 95.6491 21.1406 96.009 20.6805C96.3689 20.2203 96.2894 19.5472 95.8374 19.1808Z" fill="#754725"/>
<path d="M99.2773 15.5253C98.5073 15.5977 97.9423 16.2879 98.0093 17.0718C98.0763 17.8558 98.7584 18.4309 99.5284 18.3628C100.298 18.2903 100.863 17.6001 100.796 16.8162C100.725 16.0323 100.047 15.4571 99.2773 15.5253Z" fill="#754725"/>
<path d="M99.5534 19.6111C98.9801 19.5259 98.4486 19.9263 98.3649 20.51C98.3482 20.6251 97.9548 23.3773 98.4026 25.7504C98.503 26.2915 98.9927 26.6622 99.5241 26.6111C99.5576 26.6111 99.5953 26.6025 99.6288 26.5983C100.198 26.4875 100.57 25.9294 100.462 25.35C100.081 23.339 100.432 20.8466 100.436 20.8253C100.52 20.2416 100.127 19.7005 99.5534 19.6153V19.6111Z" fill="#754725"/>
<path d="M110.421 23.241C110.158 23.1771 109.873 23.2197 109.639 23.3603C109.463 23.4668 109.371 23.65 109.237 23.7991C109.04 24.0122 108.802 24.1442 108.547 24.2678C108.032 24.5192 107.433 24.6981 106.86 24.6129C106.212 24.5192 105.714 24.0803 105.341 23.2751C106.919 23.1516 109.455 22.7298 110.212 21.3195C110.409 20.9531 110.656 20.199 110.108 19.266C109.049 17.4467 107.048 16.8247 105.245 17.7535C103.408 18.6993 102.165 21.1278 103.337 23.944C104.383 26.4534 106.22 26.8113 107.333 26.7645C107.396 26.7645 107.459 26.7602 107.517 26.7517C109.137 26.6153 110.961 25.5161 111.196 24.532C111.334 23.961 110.986 23.3816 110.426 23.2453L110.421 23.241ZM106.099 19.6537C106.772 19.3512 108.166 19.3214 108.3 20.2928C108.4 21.0298 104.99 21.6817 105.052 20.9744C105.107 20.3609 105.554 19.8965 106.103 19.6494L106.099 19.6537Z" fill="#754725"/>
<path d="M84.7475 26.7176C82.5923 26.7176 80.843 24.9324 80.843 22.7425C80.843 20.5526 82.5965 18.7675 84.7475 18.7675C86.8985 18.7675 88.6519 20.5526 88.6519 22.7425C88.6519 24.9324 86.8985 26.7176 84.7475 26.7176ZM84.7475 20.9616C83.785 20.9616 83.0024 21.7584 83.0024 22.7383C83.0024 23.7182 83.785 24.5149 84.7475 24.5149C85.71 24.5149 86.4926 23.7182 86.4926 22.7383C86.4926 21.7584 85.71 20.9616 84.7475 20.9616Z" fill="#754725"/>
</g>
<defs>
<clipPath id="clip0_26_211">
<rect width="187" height="28" fill="white"/>
</clipPath>
</defs>
</svg>
