<svg width="448" height="30" viewBox="0 0 448 30" fill="none" xmlns="http://www.w3.org/2000/svg">
<path d="M1.53884 4.79883C2.83452 1.5718 5.1314 0.361664 9.69993 0.361664C18.8706 0.361664 25.0461 5.76526 25.0461 13.7152C25.0461 23.2366 18.4247 28.7999 8.64824 28.5982C4.85376 28.5142 2.50639 27.1023 1.49677 24.161C0.806866 22.1441 0.571289 18.4717 0.571289 14.0345C0.571289 9.59736 0.773214 6.73169 1.53884 4.79883ZM11.7612 10.3285C10.9115 10.3285 10.5497 10.9336 10.5497 14.0429C10.5497 16.4212 10.6675 17.4717 11.6434 17.4717C12.7372 17.4717 14.0665 15.9002 14.0665 13.6816C14.0665 11.3033 12.9728 10.3369 11.7612 10.3369V10.3285Z" fill="#FFF5D7"/>
<path d="M33.081 5.56358C35.0582 2.0172 38.6171 0.403687 44.4308 0.403687C52.2638 0.403687 56.7481 3.67274 56.7481 9.36206C56.7481 12.7488 54.8467 15.6144 52.2638 16.4212C55.4945 18.6398 57.1099 20.8163 57.1099 22.9593C57.1099 26.1023 55.0066 28.2873 52.0198 28.2873C48.3851 28.2873 45.676 25.951 42.849 20.2197C43.051 25.4216 41.0738 28.2452 37.2372 28.2452C33.9223 28.2452 31.7012 25.4216 31.3815 20.7827C30.8598 14.0429 31.4992 8.43765 33.081 5.57198V5.56358ZM45.8443 11.4546C45.8443 10.3285 45.1207 9.6814 43.8671 9.6814C42.7397 9.6814 41.9656 10.4461 41.9656 11.4966C41.9656 12.5471 42.8154 13.1942 44.069 13.1521C45.1207 13.1101 45.8443 12.3874 45.8443 11.4546Z" fill="#FFF5D7"/>
<path d="M62.9236 14.0429C62.9236 10.0932 63.5294 6.86613 64.3791 5.16858C65.9525 1.94155 69.4272 0.487701 75.039 0.487701C81.0547 0.487701 84.2854 1.89953 84.2854 5.52994C84.2854 7.10144 83.5619 8.43763 81.9044 9.00068C80.5751 9.4881 78.6736 9.36204 76.6123 9.20237C75.3587 9.11833 74.8792 9.36204 74.8792 9.84946C74.8792 10.5386 75.4429 10.6982 77.908 10.5386C81.7025 10.2949 83.8059 11.463 83.8059 14.211C83.8059 16.7909 81.9886 18.2028 77.4621 18.2028C75.6869 18.2028 75.283 18.4465 75.283 18.9675C75.283 19.5726 75.771 19.8583 76.9825 19.7322C79.0859 19.5306 81.0631 19.3709 82.4345 19.9339C83.8059 20.497 84.4537 21.7491 84.4537 23.4047C84.4537 27.0351 81.021 28.7326 74.0715 28.7326C68.1736 28.7326 65.2709 27.1191 63.9753 23.1273C63.2096 20.7911 62.9236 17.6817 62.9236 14.0513V14.0429Z" fill="#FFF5D7"/>
<path d="M108.399 11.8243C107.473 11.8243 106.379 11.8243 104.966 11.3789C109.854 14.9673 111.587 17.875 111.587 21.06C111.587 25.6149 107.835 29.2117 101.811 29.2117C95.1894 29.2117 90.3853 26.8754 90.3853 22.5139C90.3853 19.976 92.0007 17.7574 95.2735 17.7574C96.4009 17.7574 97.1749 18.0011 98.3024 18.4465C95.4334 16.0262 93.1365 12.7151 93.1365 9.32844C93.1365 4.60554 96.4093 0.975128 102.627 0.975128C107.759 0.975128 112.807 3.55507 112.807 7.47121C112.807 10.2108 110.872 11.8243 108.407 11.8243H108.399Z" fill="#FFF5D7"/>
<path d="M137.442 11.8243C136.517 11.8243 135.423 11.8243 134.009 11.3789C138.898 14.9673 140.631 17.875 140.631 21.06C140.631 25.6149 136.878 29.2117 130.854 29.2117C124.233 29.2117 119.429 26.8754 119.429 22.5139C119.429 19.976 121.044 17.7574 124.317 17.7574C125.444 17.7574 126.218 18.0011 127.346 18.4465C124.477 16.0262 122.18 12.7151 122.18 9.32844C122.18 4.60554 125.453 0.975128 131.67 0.975128C136.803 0.975128 141.851 3.55507 141.851 7.47121C141.851 10.2108 139.916 11.8243 137.45 11.8243H137.442Z" fill="#FFF5D7"/>
<path d="M178.147 12.6647C176.775 12.6647 175.967 12.1437 174.47 12.1437C173.258 12.1437 172.131 12.7487 172.131 14.0429C172.131 15.1354 172.854 15.8581 173.99 15.8581C175.488 15.8581 176.169 14.8497 178.071 14.8497C179.972 14.8497 182.715 16.2615 182.757 19.9339C182.875 24.4131 178.921 27.7578 172.821 27.8418C166.401 27.9259 160.1 23.8921 160.1 14.8077C160.1 6.69806 165.308 0.731415 173.351 0.731415C178.281 0.731415 182.766 3.15169 182.766 7.50482C182.766 10.0848 181.192 12.6647 178.163 12.6647H178.147Z" fill="#FFF5D7"/>
<path d="M203.421 23.7997C203.261 22.7492 202.975 21.7828 201.847 21.7828C200.72 21.7828 200.434 22.6316 200.114 23.9593C199.348 27.0687 197.287 28.3545 194.662 28.3545C190.136 28.3545 188.285 24.5224 188.285 20.1272C188.285 8.50488 194.628 0.403687 202.823 0.403687C211.548 0.403687 215.502 12.2613 215.502 19.9256C215.502 25.5729 213.037 28.4805 208.999 28.4805C206.054 28.4805 203.909 26.6653 203.429 23.7997H203.421ZM201.729 15.4548C202.857 15.4548 203.833 14.648 203.833 13.2782C203.833 12.026 203.067 11.1773 201.931 11.1437C200.762 11.1016 199.87 12.0344 199.87 13.3622C199.87 14.69 200.56 15.4632 201.729 15.4632V15.4548Z" fill="#FFF5D7"/>
<path d="M239.649 11.8243C238.724 11.8243 237.63 11.8243 236.217 11.3789C241.105 14.9673 242.838 17.875 242.838 21.06C242.838 25.6149 239.086 29.2117 233.062 29.2117C226.44 29.2117 221.636 26.8754 221.636 22.5139C221.636 19.976 223.251 17.7574 226.524 17.7574C227.652 17.7574 228.426 18.0011 229.553 18.4465C226.684 16.0262 224.387 12.7151 224.387 9.32844C224.387 4.60554 227.66 0.975128 233.878 0.975128C239.01 0.975128 244.058 3.55507 244.058 7.47121C244.058 10.2108 242.123 11.8243 239.658 11.8243H239.649Z" fill="#FFF5D7"/>
<path d="M264.73 15.7321C265.378 15.6901 265.941 15.043 265.941 13.3538C265.941 11.7823 265.739 9.6814 265.739 7.50483C265.739 2.95001 268.045 0.96673 271.713 0.96673C276.197 0.96673 278.822 4.68118 278.822 11.1773C278.822 22.0685 273.572 28.4805 264.36 28.4469C255.954 28.4889 250.427 23.4047 250.427 14.3707C250.427 5.33667 253.052 0.655792 258.1 0.655792C261.65 0.655792 263.956 2.83236 263.872 6.10141C263.829 7.95863 263.224 10.0175 263.224 12.9589C263.224 14.8161 263.745 15.7405 264.721 15.7405L264.73 15.7321Z" fill="#FFF5D7"/>
<path d="M299.865 23.7997C299.705 22.7492 299.419 21.7828 298.291 21.7828C297.164 21.7828 296.878 22.6316 296.558 23.9593C295.793 27.0687 293.731 28.3545 291.106 28.3545C286.58 28.3545 284.729 24.5224 284.729 20.1272C284.729 8.50488 291.073 0.403687 299.267 0.403687C307.992 0.403687 311.946 12.2613 311.946 19.9256C311.946 25.5729 309.481 28.4805 305.443 28.4805C302.498 28.4805 300.353 26.6653 299.873 23.7997H299.865ZM298.165 15.4548C299.293 15.4548 300.268 14.648 300.268 13.2782C300.268 12.026 299.503 11.1773 298.367 11.1437C297.198 11.1016 296.306 12.0344 296.306 13.3622C296.306 14.69 296.996 15.4632 298.165 15.4632V15.4548Z" fill="#FFF5D7"/>
<path d="M318.921 17.5893C318.921 17.5893 316.818 -0.0837385 324.861 0.000298758C332.938 0.0843361 331.449 9.9251 331.238 14.0009C331.037 18.0767 336.733 14.606 338.794 18.0767C340.897 21.5895 338.104 27.8839 329.059 28.2452C321.302 28.531 319.005 23.161 318.921 17.5977V17.5893Z" fill="#FFF5D7"/>
<path d="M358.338 4.79883C359.634 1.5718 361.931 0.361664 366.499 0.361664C375.67 0.361664 381.846 5.76526 381.846 13.7152C381.846 23.2366 375.224 28.7999 365.448 28.5982C361.653 28.5142 359.306 27.1023 358.296 24.161C357.606 22.1441 357.371 18.4717 357.371 14.0345C357.371 9.59736 357.573 6.73169 358.338 4.79883ZM368.552 10.3285C367.703 10.3285 367.341 10.9336 367.341 14.0429C367.341 16.4212 367.459 17.4717 368.435 17.4717C369.528 17.4717 370.858 15.9002 370.858 13.6816C370.858 11.3033 369.764 10.3369 368.552 10.3369V10.3285Z" fill="#FFF5D7"/>
<path d="M402.635 23.7997C402.476 22.7492 402.189 21.7828 401.062 21.7828C399.935 21.7828 399.649 22.6316 399.329 23.9593C398.563 27.0687 396.502 28.3545 393.877 28.3545C389.35 28.3545 387.5 24.5224 387.5 20.1272C387.5 8.50488 393.843 0.403687 402.038 0.403687C410.763 0.403687 414.717 12.2613 414.717 19.9256C414.717 25.5729 412.252 28.4805 408.214 28.4805C405.269 28.4805 403.123 26.6653 402.644 23.7997H402.635ZM400.944 15.4548C402.072 15.4548 403.048 14.648 403.048 13.2782C403.048 12.026 402.282 11.1773 401.146 11.1437C399.977 11.1016 399.085 12.0344 399.085 13.3622C399.085 14.69 399.775 15.4632 400.944 15.4632V15.4548Z" fill="#FFF5D7"/>
<path d="M427.514 16.9842C422.466 13.8413 419.681 9.84108 419.681 6.051C419.681 2.98364 421.818 0.80707 424.771 0.80707C428.288 0.80707 431.721 3.87443 433.9 9.11836C436.003 2.82397 438.544 0.445709 442.179 0.445709C445.41 0.445709 447.429 2.62228 447.429 5.6056C447.429 9.03432 445.006 12.5051 440.244 16.5389C440.488 17.791 440.69 19.3205 440.69 20.6903C440.69 25.9762 437.98 28.4385 434.312 28.4385C429.786 28.4385 427.363 25.5308 427.363 19.2364C427.363 18.3457 427.447 17.5389 427.522 16.9758L427.514 16.9842Z" fill="#FFF5D7"/>
</svg>
