<svg width="600" height="143" viewBox="0 0 600 143" fill="none" xmlns="http://www.w3.org/2000/svg">
<path d="M0.938161 34.4737C0.18936 33.9106 -0.00415039 33.3476 -0.00415039 32.6921C-0.00415039 32.129 0.281908 31.566 0.559554 31.1878L21.7111 6.02703C22.1822 5.46398 22.7459 5.2791 23.4022 5.2791C24.0584 5.2791 24.7147 5.46398 25.1859 5.84215L37.8734 14.6661C38.5297 15.1367 38.8157 15.6997 38.8157 16.3552C38.8157 16.9183 38.5297 17.4813 38.252 17.8595L18.4214 43.5833C17.7652 44.3312 16.8228 44.7094 15.788 44.7094C14.9382 44.7094 14.0969 44.4237 13.6257 44.0539L0.938161 34.4821V34.4737ZM13.2471 87.3331C11.2699 87.3331 10.1425 86.5852 9.86488 84.6103L8.35886 72.593V71.9375C8.35886 70.4332 9.30118 69.6853 10.6137 69.6853L22.0813 69.5928L31.2015 38.5159C31.3866 37.6671 32.1438 37.104 32.9852 37.104C33.1703 37.104 33.3638 37.104 33.5489 37.1965L50.7461 41.1378C51.8735 41.3227 52.4372 42.3564 52.4372 43.2976C52.4372 43.4825 52.4372 43.6757 52.3446 43.8606L44.3518 69.492L63.3411 69.3996L61.1788 58.6008V58.2226C61.1788 57.3738 61.7425 56.6259 62.6848 56.441L78.5695 54.3737H78.9481C80.168 54.3737 80.8243 55.2225 81.0178 56.2477L84.8712 76.6184C84.9637 77.2738 85.0563 77.9293 85.0563 78.4924C85.0563 83.0892 81.4805 85.9129 77.0635 86.0053L13.2471 87.3163V87.3331ZM77.9132 39.3562C77.3495 39.9193 76.4072 40.205 75.3723 40.205C74.2449 40.205 73.1175 39.8268 72.5538 39.2638L49.7112 16.5485C49.4251 16.1703 49.1475 15.6073 49.1475 14.9518C49.1475 14.2963 49.4335 13.54 49.8963 13.0778L60.5141 3.31263C60.9853 2.93446 61.549 2.5647 62.3903 2.5647C62.954 2.5647 63.6103 2.74958 64.3675 3.41347L89.1789 23.8766C89.65 24.2547 89.9277 24.9102 89.9277 25.6581C89.9277 26.3136 89.7426 26.9691 89.2714 27.4397L77.8964 39.3646L77.9132 39.3562Z" fill="#FFF5D7"/>
<path d="M111.929 88.5517C110.145 88.5517 109.674 88.081 109.582 86.5768L109.203 77.568V77.2822C109.203 76.0637 109.859 75.4082 111.18 75.4082L114.848 75.3158L114.47 58.6092L105.728 54.2896C104.979 54.0039 104.601 53.4409 104.601 52.8778C104.601 52.4072 104.786 52.029 105.257 51.5668L117.002 40.0201L108.261 39.7344C106.662 39.642 106.191 38.9865 106.191 37.5746L106.477 25.28C106.477 23.7757 107.226 23.2127 108.454 23.2127H108.74L122.278 23.6833L113.157 14.1114C112.779 13.6408 112.501 13.0778 112.501 12.5147C112.501 11.9517 112.686 11.4811 113.065 11.2037L125.752 0.875547C126.224 0.497379 126.88 0.220057 127.443 0.220057C127.915 0.220057 128.478 0.404937 128.857 0.783105L141.831 11.9517C142.579 12.6072 142.865 13.3635 142.865 14.2039C142.865 15.1451 142.487 15.9855 141.645 16.7418L133.089 24.0614L162.511 25.0951L153.954 16.3636C153.206 15.6157 152.734 14.7669 152.734 14.1114C152.734 13.5484 153.012 12.9853 153.584 12.6072L168.619 0.682261C168.998 0.396535 169.561 0.211655 170.033 0.211655C170.596 0.211655 171.16 0.396535 171.539 0.774703L183.755 12.229C184.134 12.6072 184.411 13.2626 184.411 13.9181C184.411 14.3887 184.226 14.9518 183.755 15.33L172.195 25.4649L189.299 26.0279C190.612 26.0279 191.369 26.591 191.369 28.0028L191.083 40.6756C191.083 41.8942 190.427 42.6505 189.106 42.6505H188.921L180.364 42.3648L191.924 53.819C192.396 54.2897 192.581 54.6678 192.581 55.13C192.581 55.7855 192.11 56.3486 191.167 56.8192L181.955 61.3236L181.769 74.467L185.438 74.3746C187.129 74.3746 187.979 74.9376 187.979 76.3494L188.265 85.8288C188.265 87.3331 187.516 87.9886 186.102 87.9886L111.946 88.5517H111.929ZM162.124 66.9541C162.124 64.7943 161.274 63.3825 159.019 63.3825H158.834L129.412 64.5086L129.791 75.1141H133.93L133.181 70.4164V69.9458C133.181 68.8197 134.124 68.7273 134.595 68.6348L138.827 67.786H139.206C140.148 67.786 140.619 68.2567 140.712 68.9121L141.654 74.9208H145.507L145.978 68.4415C146.071 66.8448 147.013 66.8448 147.577 66.8448L155.57 67.223C156.512 67.3154 157.076 67.786 157.076 68.4415V68.6264L156.512 74.7275L162.149 74.6351V66.9373L162.124 66.9541ZM158.456 41.516L139.752 40.8605L130.826 51.8442L164.85 50.2475L158.456 41.516Z" fill="#FFF5D7"/>
<path d="M214.936 87.6104C213.522 87.6104 212.958 87.1398 212.866 85.7364L212.395 75.9713V75.7864C212.395 74.8452 212.958 74.0972 214.271 74.0972L219.437 74.0048L217.746 69.971C217.653 69.7861 217.653 69.5928 217.653 69.408C217.653 68.7525 218.217 68.097 219.252 67.9037L228.271 65.7439C228.456 65.6515 228.742 65.6515 228.927 65.6515C229.777 65.6515 230.433 66.1221 230.711 67.2482L232.494 73.9124L238.224 73.8199L238.788 61.7101L219.142 61.895C217.83 61.895 217.266 61.332 217.266 60.1134L216.98 50.4407C216.98 49.1298 217.544 48.5667 218.764 48.5667L239.444 48.3818L239.73 41.995L230.332 41.5244C228.826 41.4319 228.456 40.8689 228.456 39.8352V39.3646L228.742 34.3896L223.29 38.6167C222.348 39.3646 220.85 39.8352 219.437 39.8352C218.023 39.8352 216.711 39.4571 215.861 38.5243L207.212 28.4818C206.741 27.9187 206.556 27.2633 206.556 26.7002C206.556 26.1372 206.741 25.5741 207.304 25.1959L238.224 3.60676C239.638 2.5731 241.421 1.53944 244.147 1.53944H244.526L258.719 1.82517C261.067 1.82517 263.136 3.23699 265.206 4.45554L296.976 22.8597C297.825 23.3303 298.103 24.0782 298.103 24.7337C298.103 25.3892 297.817 26.0447 297.539 26.5153L289.546 37.9696C288.697 39.1881 287.292 39.6588 285.971 39.6588C284.751 39.6588 283.531 39.2806 282.866 38.81L276.102 34.1123L275.816 41.6252C275.723 42.8438 275.344 43.6001 274.124 43.6001H273.939L261.723 43.0371L261.344 48.2978L282.959 48.1129C284.557 48.1129 285.028 49.0541 285.028 50.1802L285.121 59.6596C285.121 60.7857 284.742 61.4412 283.43 61.4412L260.587 61.6261L259.931 73.551H266.695L268.479 65.8532C268.765 64.6346 269.699 64.2565 270.641 64.2565C270.826 64.2565 271.112 64.3489 271.298 64.3489L283.893 66.786C284.835 66.9709 285.112 67.5339 285.112 68.2903C285.112 68.4751 285.112 68.7609 285.02 69.0382L283.707 73.3577L288.974 73.2653C290.48 73.2653 291.137 73.8283 291.137 75.0469L291.423 85.0893C291.423 86.3079 290.859 87.1566 289.445 87.1566L214.91 87.6272L214.936 87.6104ZM251.214 16.8258L235.894 28.7507L270.767 30.3474L251.214 16.8258Z" fill="#FFF5D7"/>
<path d="M322.923 82.9212C322.645 82.9212 322.359 83.0136 322.174 83.0136C320.861 83.0136 320.483 82.3581 320.39 81.0387L318.043 44.617L312.591 43.5833C311.177 43.2976 310.428 42.3648 310.428 41.2387C310.428 40.9529 310.521 40.5832 310.614 40.2974L324.336 5.09421C324.715 4.06055 325.463 3.58994 326.406 3.58994C326.784 3.58994 327.255 3.68238 327.626 3.87567L342.004 9.1364C343.039 9.51457 343.51 10.3549 343.51 11.2037C343.51 11.6743 343.418 12.0525 343.224 12.5147L333.078 38.2385L335.804 38.1461H336.09C337.402 38.1461 338.252 38.7091 338.344 40.121L340.692 77.1058V77.3915C340.692 79.3664 339.564 80.3916 338.058 80.6774L322.923 82.9296V82.9212ZM398.964 84.0472C398.585 86.5852 396.423 87.518 394.361 87.518C385.906 87.3331 377.442 86.4843 372.554 85.644L369.357 85.0809L368.322 87.0558C367.573 88.6525 365.596 89.0307 364.182 89.0307C363.711 89.0307 363.333 88.9382 363.055 88.9382L349.619 86.5936C348.584 86.4087 348.02 85.8456 348.02 85.1818C348.02 84.8036 348.205 84.4338 348.399 84.0557L349.812 81.8035L343.889 80.7698C343.039 80.5849 342.669 79.921 342.669 79.1731C342.669 78.8874 342.669 78.7025 342.762 78.4251L345.673 68.4751C345.858 67.5339 346.421 67.1642 347.271 67.1642C347.456 67.1642 347.65 67.2566 347.927 67.2566L357.418 68.4751L358.268 63.8783L348.306 63.9707C346.144 63.9707 345.395 63.122 345.302 61.0631L344.082 28.9524V28.7675C344.082 26.8935 345.774 25.2968 347.751 25.2043L359.218 24.8262L359.126 18.162L346.716 17.7838C345.302 17.7838 344.554 17.0359 344.554 15.809L344.646 3.41347C344.646 1.81676 345.588 1.25371 346.808 1.25371L396.995 2.56469C398.215 2.56469 398.871 3.31262 398.871 4.53957L398.493 17.1199C398.493 18.4309 397.744 19.1873 396.515 19.1873L378.754 18.7167V24.0698L386.84 23.7841H387.496C394.075 23.7841 398.114 27.8179 398.114 34.7678V35.0535L397.929 57.3066C397.929 61.3404 396.053 63.4077 392.477 63.4077L377.627 63.5926L376.407 70.8198C379.882 71.198 385.99 71.4753 392.763 71.4753C394.639 71.4753 396.524 71.3828 398.493 71.3828C399.805 71.3828 400.47 71.9459 400.47 73.072V73.4501L398.964 84.0557V84.0472ZM362.028 36.1628L356.484 36.2552L356.669 41.9782L362.028 42.2639V36.1628ZM362.028 49.3062L356.863 48.9281L357.048 55.7771L362.028 55.6847V49.2978V49.3062ZM382.608 50.4323L376.407 50.0542V55.4073L382.608 55.3149V50.4323ZM382.7 39.0789C382.7 37.5746 381.666 35.8855 379.789 35.8855L376.5 35.9779V43.0202L382.7 43.306V39.0789Z" fill="#FFF5D7"/>
<path d="M438.995 83.4842C438.339 83.3918 437.683 82.9212 437.683 82.0724C437.683 81.6942 437.775 81.3244 437.969 80.9463C439.66 77.7528 441.073 74.7527 441.073 72.6854L441.351 59.9201L434.301 61.2311C433.922 66.8616 433.081 74.8452 431.76 80.2908C431.196 82.6354 429.597 83.7615 427.721 83.7615C427.25 83.7615 426.871 83.6691 426.409 83.5766L415.69 81.1396C414.377 80.8538 413.906 80.1059 413.906 79.0722C413.906 78.7865 413.906 78.4167 413.999 78.131C416.069 69.6853 417.474 60.9538 417.667 55.4157L418.98 7.90946C418.98 6.49763 420.2 5.18665 422.177 5.09421L444.355 3.87567H445.103C451.119 3.87567 454.686 8.01031 454.686 15.4224V15.7081L454.308 73.5342C454.308 76.3494 453.088 80.1983 451.868 83.0136C451.018 84.7952 450.177 85.3582 448.864 85.3582C448.486 85.3582 448.116 85.3582 447.737 85.2658L438.995 83.4842ZM441.629 41.8941L435.234 40.768L434.671 53.1635L441.435 52.0374L441.62 41.9025L441.629 41.8941ZM442.007 23.6833C442.007 22.179 441.444 20.9605 440.131 20.9605H436.093L435.622 32.9778L441.822 34.0114L442.007 23.6833ZM495.77 82.9211C495.484 83.8624 495.113 84.7952 494.735 85.7364C494.171 87.3331 492.665 88.081 491.066 88.081C490.503 88.081 490.032 87.9886 489.56 87.8961L480.726 85.5515C479.876 85.3666 479.313 84.8036 479.313 83.9548C479.313 83.5766 479.405 83.2069 479.599 82.8287C480.541 80.7614 481.29 78.7949 482.039 77.0049L479.128 75.7864C478.471 75.5006 478.093 75.0384 478.093 74.2821C478.093 74.0972 478.185 73.8115 478.278 73.5342L481.004 67.3406C481.29 66.7776 481.753 66.3994 482.316 66.3994C482.502 66.3994 482.788 66.4919 483.065 66.5843L485.413 67.4331C485.884 65.9288 486.161 64.5254 486.447 63.1135C486.54 62.8278 486.54 62.4581 486.54 62.1723C486.54 61.1387 486.069 60.3907 484.849 60.2983L477.42 59.8277L476.477 84.333C476.385 86.0221 475.535 87.1482 473.474 87.2407L460.408 87.8037H460.223C458.91 87.8037 458.531 86.8625 458.531 85.9297L460.694 9.04396C460.786 5.37994 462.949 3.69079 465.767 3.69079L490.772 3.31262H490.957C498.756 3.31262 501.861 8.28763 501.861 14.8593V15.4224L501.297 32.5072C501.205 34.1963 500.077 38.4234 497.444 42.6505C496.594 43.9615 495.282 44.4321 493.969 44.4321C493.313 44.4321 492.556 44.3396 491.899 44.1463L481.282 40.8605C480.718 40.6756 480.339 40.205 480.339 39.6419C480.339 39.1713 480.524 38.6083 480.903 38.0452C483.444 34.2888 484.378 32.3223 484.479 30.9105L485.042 23.9606V23.3051C485.042 21.7084 484.479 20.5823 482.695 20.4898L478.934 20.305L477.899 46.6843L493.22 47.533C498.386 47.9112 501.112 51.4744 501.112 57.5755C501.112 58.4243 501.02 59.3571 500.927 60.2983C500.548 63.769 499.892 67.618 498.95 71.7526L502.526 73.0636C503.274 73.3493 503.939 74.0048 503.939 74.9376C503.939 75.1225 503.847 75.4082 503.754 75.6855L501.314 83.106C501.028 83.9548 500.372 84.3246 499.623 84.3246C499.244 84.3246 498.967 84.2321 498.681 84.1397L495.77 82.9211Z" fill="#FFF5D7"/>
<path d="M526.874 86.5768C524.056 86.5768 522.457 85.2658 522.457 82.543L521.33 10.1617C521.33 7.16154 523.307 5.37155 525.747 5.27911L584.776 3.30423H585.339C593.795 3.30423 600.004 9.22045 600.004 19.5486L599.912 78.7865C599.912 83.3834 597.842 86.207 592.483 86.207L526.874 86.5852V86.5768ZM575.841 27.6246C575.841 24.053 574.057 22.6496 571.802 22.6496L543.322 23.1202L543.6 41.8017L565.778 43.9615C567.284 44.1464 567.654 45.0876 567.654 45.9363V46.3145L566.619 54.9536C566.434 56.0797 565.677 56.8276 564.272 56.8276H563.801L543.785 54.6678L543.97 70.5341L576.303 69.7861L575.832 27.633L575.841 27.6246Z" fill="#FFF5D7"/>
<path d="M39.1017 141.142C38.7147 141.142 38.4286 140.756 38.4286 140.293V134.486C38.4286 133.881 38.538 133.318 39.068 133.175C45.0248 131.512 48.2472 127.192 48.2472 123.763C48.2472 121.074 46.2952 118.948 42.1895 118.948C41.4491 118.948 40.5909 119.015 39.7075 119.158C39.6402 119.158 39.4971 119.192 39.3205 119.192C38.9334 119.192 38.437 119.082 38.3613 118.452L37.7976 113.175V112.964C37.7976 112.469 38.0079 112.048 38.3613 111.939C40.5236 111.41 42.5092 111.158 44.3181 111.158C52.8914 111.158 57.1823 116.713 57.1823 122.486C57.1823 126.419 55.1967 130.419 51.1582 132.755C50.9479 132.898 50.8385 132.999 50.8385 133.108C50.8385 133.251 51.0489 133.352 51.2255 133.352H51.2592L58.7051 133.285C59.1342 133.285 59.4119 133.638 59.4119 134.133V140.293C59.4119 140.789 59.0585 141.142 58.6294 141.142H39.1017Z" fill="#FFF5D7"/>
<path d="M70.6019 136.755C68.5826 133.713 67.0261 130.133 67.0261 125.57C67.0261 114.561 73.9336 111.267 79.4276 111.267C84.6356 111.267 89.9192 114.208 91.7281 119.587C92.4685 121.814 92.864 124.116 92.864 126.385C92.864 132.293 89.5322 141.781 80.2437 141.781C76.4913 141.781 72.7641 140.008 70.6019 136.755ZM83.9288 126.343C83.9288 120.074 80.9505 119.335 79.68 119.335C78.1235 119.335 75.8182 120.469 75.8182 125.385C75.8182 125.419 75.9613 133.671 79.9661 133.671C82.5911 133.671 83.9372 130.133 83.9372 126.343H83.9288Z" fill="#FFF5D7"/>
<path d="M101.463 141.142C101.076 141.142 100.789 140.756 100.789 140.293V134.486C100.789 133.881 100.899 133.318 101.429 133.175C107.386 131.512 110.608 127.192 110.608 123.763C110.608 121.074 108.656 118.948 104.55 118.948C103.81 118.948 102.952 119.015 102.068 119.158C102.001 119.158 101.858 119.192 101.681 119.192C101.294 119.192 100.798 119.082 100.722 118.452L100.158 113.175V112.964C100.158 112.469 100.369 112.048 100.722 111.939C102.884 111.41 104.87 111.158 106.679 111.158C115.252 111.158 119.543 116.713 119.543 122.486C119.543 126.419 117.558 130.419 113.519 132.755C113.309 132.898 113.199 132.999 113.199 133.108C113.199 133.251 113.41 133.352 113.586 133.352H113.62L121.066 133.285C121.495 133.285 121.773 133.638 121.773 134.133V140.293C121.773 140.789 121.419 141.142 120.99 141.142H101.463Z" fill="#FFF5D7"/>
<path d="M135.731 134.873C140.552 135.226 143.421 133.243 143.421 131.369C143.421 129.881 141.645 128.537 137.641 128.537C136.614 128.537 135.445 128.604 134.099 128.822H133.922C133.493 128.822 132.963 128.612 132.929 128.007L132.189 114.166V113.99C132.189 112.931 132.794 112.326 134.099 112.259L150.539 111.41H150.715C151.565 111.41 151.599 111.696 151.632 112.292L151.918 117.671V117.813C151.918 118.343 151.708 118.662 151.136 118.696L142.024 119.082C141.528 119.116 141.242 119.368 141.242 119.864V119.973L141.309 121.746C141.343 122.066 141.452 122.175 141.772 122.175C149.638 122.671 153.113 126.604 153.113 130.814C153.113 136.05 147.653 141.756 138.331 141.756C135.108 141.756 134.679 141.579 134.578 140.159C134.578 140.159 134.401 135.806 134.401 135.772V135.739C134.401 134.999 135.007 134.89 135.504 134.89H135.714L135.731 134.873Z" fill="#FFF5D7"/>
<path d="M168.013 132.117C164.858 132.117 162.309 129.604 162.309 126.486C162.309 123.368 164.858 120.822 168.013 120.822C171.168 120.822 173.718 123.368 173.718 126.486C173.718 129.604 171.202 132.117 168.013 132.117Z" fill="#FFF5D7"/>
<path d="M192.143 141.251H192.076C191.647 141.251 191.26 140.865 191.26 140.436L190.2 120.469L187.507 120.612H187.474C187.087 120.612 186.733 120.225 186.733 119.729L186.38 113.007V112.939C186.38 112.511 186.733 112.158 187.162 112.124L197.898 111.561H197.965C198.394 111.561 198.748 111.948 198.781 112.376L200.237 139.991V140.058C200.237 140.487 199.884 140.873 199.421 140.873L192.152 141.26L192.143 141.251Z" fill="#FFF5D7"/>
<path d="M215.533 136.755C213.514 133.713 211.957 130.133 211.957 125.57C211.957 114.561 218.865 111.267 224.359 111.267C229.566 111.267 234.85 114.208 236.659 119.587C237.399 121.814 237.795 124.116 237.795 126.385C237.795 132.293 234.463 141.781 225.175 141.781C221.422 141.781 217.695 140.008 215.533 136.755ZM228.86 126.343C228.86 120.074 225.881 119.335 224.611 119.335C223.054 119.335 220.749 120.469 220.749 125.385C220.749 125.419 220.892 133.671 224.897 133.671C227.522 133.671 228.868 130.133 228.868 126.343H228.86Z" fill="#FFF5D7"/>
<path d="M250.583 132.117C247.428 132.117 244.879 129.604 244.879 126.486C244.879 123.368 247.428 120.822 250.583 120.822C253.738 120.822 256.288 123.368 256.288 126.486C256.288 129.604 253.772 132.117 250.583 132.117Z" fill="#FFF5D7"/>
<path d="M266.594 141.142C266.207 141.142 265.921 140.756 265.921 140.293V134.486C265.921 133.881 266.03 133.318 266.56 133.175C272.517 131.512 275.74 127.192 275.74 123.763C275.74 121.074 273.788 118.948 269.682 118.948C268.941 118.948 268.083 119.015 267.2 119.158C267.133 119.158 266.99 119.192 266.813 119.192C266.426 119.192 265.929 119.082 265.854 118.452L265.29 113.175V112.964C265.29 112.469 265.5 112.048 265.854 111.939C268.016 111.41 270.002 111.158 271.81 111.158C280.384 111.158 284.675 116.713 284.675 122.486C284.675 126.419 282.689 130.419 278.651 132.755C278.44 132.898 278.331 132.999 278.331 133.108C278.331 133.251 278.541 133.352 278.718 133.352H278.752L286.198 133.285C286.627 133.285 286.904 133.638 286.904 134.133V140.293C286.904 140.789 286.551 141.142 286.122 141.142H266.594Z" fill="#FFF5D7"/>
<path d="M319.01 133.461C319.01 137.671 315.359 141.924 307.559 141.924C298.7 141.924 295.158 137.285 295.158 133.108C295.158 130.52 296.504 127.974 298.91 126.486C296.681 124.679 295.612 122.343 295.612 120.082C295.612 115.62 299.726 111.267 307.021 111.267C314.997 111.267 319.852 115.906 319.852 120.679C319.852 123.192 318.505 125.637 315.67 127.301C317.866 128.822 319.002 131.125 319.002 133.461H319.01ZM306.777 129.89C304.758 129.89 303.731 131.201 303.731 132.545C303.731 134.176 305.254 135.234 307.206 135.234C309.158 135.234 310.285 133.957 310.285 132.654C310.285 131.596 309.503 129.89 306.777 129.89ZM307.526 118.166C305.187 118.166 304.051 119.62 304.051 121.108C304.051 122.099 304.791 124.293 307.77 124.293C310.109 124.293 311.245 122.839 311.245 121.351C311.245 119.721 309.932 118.166 307.526 118.166Z" fill="#FFF5D7"/>
<path d="M346.539 142.487C345.9 142.487 345.69 142.277 345.69 141.705L345.622 139.302C345.622 138.739 345.833 138.453 346.363 138.453L356.821 138.419L356.854 136.865L352.42 136.688C351.89 136.655 351.714 136.478 351.714 136.125V136.016L351.781 134.352C351.815 133.856 352.025 133.713 352.454 133.713L356.922 133.856L356.955 132.444L351.638 132.478L350.611 134.957C350.325 135.596 349.694 135.982 348.979 135.982C348.769 135.982 348.516 135.949 348.306 135.873L343.771 134.276C343.342 134.133 343.166 133.814 343.166 133.495C343.166 133.318 343.233 133.142 343.309 132.999L346.607 126.595C346.716 126.385 346.926 126.242 347.137 126.167C346.607 125.957 346.287 125.494 346.253 124.856L345.9 112.536V112.469C345.9 111.443 346.607 110.695 347.566 110.662L368.583 109.561H368.97C371.805 109.561 373.967 111.015 373.967 114.233V123.545C373.967 124.889 373.008 125.452 372.091 125.494L348.348 126.31L352.706 127.444C353.136 127.553 353.312 127.873 353.312 128.226C353.312 128.335 353.279 128.469 353.245 128.579L353.136 128.822L357.031 128.789L357.065 127.511C357.065 127.083 357.309 126.805 357.704 126.805H357.771L364.931 127.125C365.36 127.158 365.638 127.41 365.638 127.797L365.604 128.713L373.723 128.646C374.253 128.646 374.506 128.822 374.506 129.352L374.539 131.621C374.539 132.117 374.329 132.402 373.799 132.402L365.503 132.436L365.47 134.1L370.501 134.243C370.997 134.243 371.241 134.419 371.241 134.848V134.957L371.132 136.655C371.098 137.15 370.922 137.361 370.493 137.361H370.383L365.386 137.184L365.352 138.352L374.918 138.319C375.448 138.319 375.734 138.529 375.734 139.024V141.613C375.734 142.109 375.524 142.495 374.994 142.495H346.531L346.539 142.487ZM365.36 116.645C365.36 115.62 364.797 115.091 364.014 115.091H363.947L353.741 115.696L353.809 118.066L361.961 117.326H362.029C362.416 117.326 362.634 117.57 362.634 117.965L362.668 119.276C362.668 119.881 362.458 120.091 361.928 120.124L353.918 120.797L353.985 122.393L365.394 121.898L365.36 116.662V116.645Z" fill="#FFF5D7"/>
<path d="M396.86 141.075C396.65 141.394 396.364 141.537 396.044 141.537C395.868 141.537 395.657 141.47 395.514 141.361L392.039 138.882C391.829 138.739 391.72 138.495 391.72 138.277C391.72 138.1 391.787 137.89 391.93 137.747L394.092 135.167L387.715 135.31L389.911 137.856C390.054 137.999 390.121 138.209 390.121 138.386C390.121 138.629 390.012 138.848 389.835 138.991L386.116 141.89C385.94 142.033 385.729 142.067 385.511 142.067C385.157 142.067 384.838 141.957 384.661 141.747L382.069 138.671C381.926 138.495 381.859 138.319 381.859 138.142C381.859 137.856 382.002 137.613 382.213 137.47L385.578 135.377L382.953 135.444C382.347 135.444 382.103 135.201 382.103 134.663L382.036 130.915C382.036 130.276 382.322 130.133 382.818 130.133L383.92 130.1L383.954 118.738L382.961 118.704C382.398 118.704 382.179 118.385 382.179 117.889L382.213 113.712C382.213 113.107 382.566 112.973 383.062 112.973L383.988 113.007V110.813C383.988 110.208 384.274 110.074 384.77 110.074L389.482 110.107C389.944 110.107 390.298 110.393 390.298 110.889L390.264 113.158L393.209 113.225L393.243 110.536C393.243 109.897 393.562 109.796 394.025 109.796H397.887C398.35 109.796 398.669 110.116 398.669 110.578L398.636 113.343L399.452 113.376C399.948 113.376 400.192 113.696 400.192 114.158L400.083 118.368C400.083 118.864 399.763 119.074 399.267 119.074H398.526L398.383 129.587H398.846C399.275 129.587 399.452 129.831 399.485 130.293L399.662 134.26V134.327C399.662 134.789 399.376 135.033 398.88 135.033L395.481 135.142L398.526 136.915C398.812 137.092 398.955 137.411 398.955 137.697C398.955 137.873 398.922 138.05 398.812 138.192L396.86 141.092V141.075ZM393.175 118.914L390.197 118.847L390.163 121.217L391.686 121.503C392.006 121.536 392.115 121.713 392.115 121.889C392.115 121.923 392.115 121.998 392.082 122.066L391.728 123.444C391.661 123.654 391.551 123.797 391.299 123.797C391.232 123.797 391.156 123.763 391.089 123.763L390.172 123.587L390.138 125.461L391.56 125.352H391.627C391.947 125.352 392.056 125.528 392.056 125.738V125.847L391.88 127.301C391.846 127.587 391.703 127.688 391.316 127.73L390.113 127.839L390.079 129.89L393.091 129.78L393.201 118.914H393.175ZM407.529 141.394C407.285 141.327 406.889 141.151 406.889 140.789C406.889 140.68 406.923 140.579 406.999 140.436C407.638 139.235 408.134 138.066 408.134 137.318L408.244 132.822L405.165 133.352C405.021 135.579 404.778 138.697 404.348 140.966C404.172 141.814 403.852 142.025 403.389 142.025C403.246 142.025 403.103 142.025 402.96 141.991L400.377 141.638C399.915 141.604 399.771 141.319 399.771 140.966C399.771 140.856 399.771 140.722 399.805 140.579C400.655 136.369 400.832 131.94 400.865 130.453L401.294 111.906C401.328 110.737 401.967 110.099 403.07 110.065L410.759 109.922H410.827C413.485 109.922 415.294 111.553 415.294 114.275L415.151 137.638C415.151 138.697 414.722 140.756 414.234 141.814C413.99 142.344 413.494 142.554 412.955 142.554C412.779 142.554 412.602 142.52 412.425 142.487L407.537 141.386L407.529 141.394ZM408.378 125.637L405.434 125.209L405.257 129.948L408.269 129.486L408.378 125.629V125.637ZM408.521 117.956C408.521 117.494 407.991 116.931 407.495 116.931L405.686 116.897L405.543 121.889L408.446 122.351L408.513 117.965L408.521 117.956Z" fill="#FFF5D7"/>
<path d="M422.656 140.579C422.017 140.579 421.806 140.226 421.806 139.873L421.739 133.89C421.739 133.36 422.092 133.184 422.555 133.184L452.574 132.865C453.004 132.865 453.315 133.15 453.315 133.57V139.554C453.315 140.016 452.995 140.293 452.574 140.293L422.665 140.579H422.656ZM450.656 122.872L424.179 121.738C423.649 121.704 423.329 121.494 423.329 121.133V121.066L423.649 114.376C423.683 113.847 424.002 113.637 424.356 113.637H424.465L451.01 114.771C451.397 114.805 451.75 115.015 451.75 115.376V115.444L451.43 122.133C451.397 122.562 451.111 122.872 450.723 122.872H450.656Z" fill="#FFF5D7"/>
<path d="M485.379 141.495H485.311C484.849 141.495 484.495 141.109 484.495 140.68L483.435 120.469L477.621 120.788C477.125 120.788 476.696 120.435 476.696 119.973L476.376 113.427V113.359C476.376 112.931 476.73 112.578 477.192 112.544L483.822 112.191L497.856 111.452C498.319 111.452 498.781 111.805 498.781 112.301L499.101 118.78C499.101 119.242 498.748 119.662 498.251 119.696L492.648 119.982L493.708 140.226V140.26C493.708 140.722 493.321 141.075 492.892 141.109L485.379 141.495Z" fill="#FFF5D7"/>
<path d="M533.428 111.477C533.891 111.477 534.278 111.864 534.312 112.326C534.455 114.662 534.598 118.662 534.598 122.662C534.598 125.066 534.564 127.511 534.387 129.562C533.748 137.739 526.908 141.848 520.244 141.848C513.581 141.848 507.447 137.991 507.027 130.1L506.143 113.393V113.326C506.143 112.864 506.497 112.511 506.926 112.477L514.119 112.124H514.187C514.616 112.124 514.969 112.477 515.003 112.906C515.852 129.293 515.676 125.116 515.852 129.049C515.995 131.915 518.191 133.335 520.463 133.335C522.735 133.335 525.175 131.814 525.427 128.806C525.57 127.142 525.604 124.873 525.604 122.435C525.604 119.25 525.494 115.712 525.36 112.485V112.418C525.36 111.679 525.999 111.502 526.352 111.502H533.437L533.428 111.477Z" fill="#FFF5D7"/>
<path d="M552.14 141.176C552.14 141.176 552.03 141.209 551.997 141.209L545.089 141.562H545.022C544.593 141.562 544.239 141.176 544.206 140.747L542.75 113.133V113.065C542.75 112.637 543.137 112.25 543.566 112.25L550.02 111.897H550.163L559.586 111.401H559.653C560.082 111.401 560.469 111.788 560.503 112.217L560.789 118.376V118.444C560.789 118.872 560.402 119.259 559.973 119.292L551.719 119.721L551.896 122.763H558.24C558.669 122.763 559.089 123.116 559.089 123.578V123.646L559.022 129.066C558.988 129.562 558.635 129.948 558.139 129.948H552.258L552.434 133.243L561.05 132.78H561.117C561.58 132.78 561.967 133.167 561.967 133.596L562.211 139.756C562.211 140.218 561.857 140.638 561.361 140.68L552.148 141.176H552.14Z" fill="#FFF5D7"/>
</svg>
