<?xml version="1.0" encoding="UTF-8"?>
<svg id="_圖層_2" data-name="圖層 2" xmlns="http://www.w3.org/2000/svg" viewBox="0 0 680.23 165.06">
  <defs>
    <style>
      .cls-1 {
        fill: #221e1f;
      }

      .cls-2 {
        fill: #fff;
      }

      .cls-3 {
        fill: #ed1551;
      }
    </style>
  </defs>
  <g id="Layer_1" data-name="Layer 1">
    <g>
      <path class="cls-3" d="M103.51,0H12.17C5.48,0,0,5.45,0,12.14v140.78c0,6.68,5.48,12.15,12.17,12.15h91.34c6.68,0,12.15-5.46,12.15-12.15V12.14c0-6.68-5.47-12.14-12.15-12.14Z"/>
      <path class="cls-2" d="M112.4,151.32c0,5.77-4.73,10.5-10.51,10.5H13.76c-5.77,0-10.51-4.73-10.51-10.5V13.73C3.24,7.95,7.99,3.24,13.76,3.24h88.13c5.77,0,10.51,4.71,10.51,10.48v137.6Z"/>
      <path class="cls-3" d="M93.02,147.47v-3.69h-7.61v-3.21h-9.68v-14.77s4.29-1.59,6.98-4.92c.74-.9,2.49-4.73,1.87-5.29-.28-.27-3.63,1.83-5.54,1.94-1.9.11-3.57.35-4.38-.22v-13.9s4.27-1.61,6.41-3.8c1.28-1.31,3.33-4.64,2-6.09-.21-.25-3.1,1.39-4.93,1.64-1.62.26-2.61.42-3.94-.38v-13.02s3.06-.52,5.19-3.12c.79-.94,3.8-5.24,3.12-5.62-.71-.43-2.3.98-4.72,1.2-2.42.22-3.7.41-4.73-.86v-11.68s2.51-1.17,3.99-2.21c1.43-1.04,3.67-3.63,3.56-6.21-.02-.58-.57-.29-1.5.1-.92.41-3.81,1.91-6.57.46v-11.35s2.94-1.02,4.04-2.07c1.1-1.02,3.8-4.85,3.11-5.73-.24-.3-2.13,1.08-5.06.99-2.96-.1-11.58-.26-17.05-14.4-.26-.69.16-.99.58-1.28.4-.27,1.32-2.01-.2-2.94-.28-.18.93-.78.08-1.9-.31-.38-.78-1.92-.78-2.82h-.04c0,.9-.47,2.43-.78,2.82-.87,1.12.36,1.72.06,1.9-1.48.93-.58,2.66-.16,2.94.4.3.81.59.58,1.28-5.49,14.14-14.12,14.3-17.05,14.4-2.94.1-4.85-1.29-5.09-.99-.69.88,2.03,4.71,3.13,5.73,1.08,1.05,4.01,2.07,4.01,2.07v11.35c-2.77,1.46-5.64-.04-6.55-.46-.93-.39-1.48-.69-1.5-.1-.14,2.58,2.12,5.16,3.56,6.21,1.44,1.04,3.98,2.21,3.98,2.21v11.68c-1.04,1.27-2.32,1.08-4.73.86-2.41-.22-4.02-1.63-4.71-1.2-.72.38,2.32,4.68,3.09,5.62,2.15,2.6,5.18,3.12,5.18,3.12v13.02c-1.31.8-2.32.59-3.9.38-1.88-.19-4.72-1.89-4.94-1.64-1.34,1.45.73,4.78,2,6.09,2.13,2.19,6.39,3.8,6.39,3.8v13.9c-.8.57-2.47.33-4.38.22-1.89-.12-5.25-2.21-5.52-1.94-.63.56,1.11,4.38,1.85,5.29,2.7,3.33,6.99,4.92,6.99,4.92v14.77h-9.67v3.21h-7.6v3.69h-7.52v3.62h86.59v-3.62h-7.5ZM54.2,111.89c0-2,1.64-3.64,3.67-3.64s3.68,1.63,3.68,3.64c0,.06-.02.08-.02.14v5.28h-7.31v-5.28c0-.06-.03-.08-.03-.14ZM57.12,47.12c1.67,0,3.01,1.33,3.01,2.97,0,.05-.02.09-.02.14v4.08h-5.97v-4.08s-.04-.08-.04-.14c0-1.65,1.34-2.97,3.02-2.97ZM54.1,69.91c0-1.68,1.37-3.04,3.07-3.04s3.06,1.35,3.06,3.04c0,.03-.03.07-.03.12v4.17h-6.06v-4.17s-.04-.08-.04-.12ZM54.13,90.2c0-1.85,1.52-3.36,3.39-3.36s3.4,1.5,3.4,3.36c0,.06-.03.1-.03.13v4.66h-6.74v-4.66s-.02-.07-.02-.13ZM62.01,135.1v5.35h-7.81v-5.35c0-.08-.03-.12-.03-.17,0-2.14,1.76-3.89,3.92-3.89s3.95,1.75,3.95,3.89c0,.05,0,.09-.04.17Z"/>
      <rect class="cls-3" x="165.06" y="87.41" width="515.02" height="2.77"/>
      <path class="cls-1" d="M221.49,42c-.81-.86-2.11-3.01-2.71-3.96-.61-.96-1.03-1.09-1.46-1-.43.09-.65-.53-.83-.83-.17-.3-.73-.38-1.04-.3-.3.1-.68.1-.93-.08-.26-.17-.76-.21-1.3-.21s-.83-.47-1.04-.56c-.23-.1-1.26-.63-1.83-.7-.56-.08-2.24-.64-3.4-1-1.18-.35-6.59-1.86-7.24-2.13-.71-.23-.68-.73-.8-.94-.12-.2-1.08-.24-1.64-.34-.57-.07-.4-.78-.18-1.17.22-.39.28-1.16.57-1.77.3-.6,1.86-.6,2.3-.6.4,0,1.71-.26,2.58-.17.87.09,1.63-.13,2.19-.43.58-.31,2.68-.45,2.95-.34.25.06.98.38,1.37.34.39-.04.79-.04,1.34.23.57.24,1.38.6,2.3.73,1.37.17,1.97-1.23,1.91-1.8-.32-2.25-5.13-3.23-6.37-3.29-1.25-.03-4.7.59-5.86.81-1.17.22-3.47.63-4.42.66-.95.04-1.78.04-1.86-.12-.08-.19.57-1.23,1.04-1.75.69-.78.43-2.64.13-3.2-.3-.58.04-.52.74-.44.69.09,3.2-.03,3.88-.08.69-.05,1.73-1.94-.08-3.75-.8-.8-4.54-1.49-5.71-1.55-1.17-.1-1.24.02-1.62.39-.4.33-.28.37-1.09,1.43-.81,1.11-1.6,1.4-2.16,1.64-.57.19-.67.24-1.34.62-.69.4-1.1.58-2.08,1.16-1,.62-1.09.46-1.41.42-.37-.07-1.01.75-1.53,1.07-.51.3,0,.98.36,1.11.31.13.46.4.63.52.17.13.62.03,1.29.16,0,0,1.56.26,1.9.26s.64.91.91,1.52c.26.6.53,1.17.43,1.55-.1.37-.64.47-1.01.69-.33.21-.65.21-1.11.26-.47.05-1.22.25-1.88.52-.71.25-1.7.6-2.82.82-1.14.21-1.85.47-3.48.65-1.59.16-2.37-.45-4.01-.73-1.63-.3-2.79.04-3.28.73-.46.69-.66,3.18-.63,3.64.12,1.7,1.81,2.34,2.84,2.41,1.55.05,2.24-.75,2.72-1.14.49-.38,1.59-1.08,1.85-.98.26.07.57-.1,1.01-.29.42-.15,1.36.14,2.01.19.65.05.9-.29,1.04-.51.3-.47,1.21-.51,1.67-.47.79.03,1.22-.27,1.53-.52.29-.26.52-.39.99-.39s.61-.05.83-.27c.2-.22.46-.17.56.11.09.23-.73,1.11-2.21,2.44-1.49,1.35-6.73,5.84-8.25,7.18-1.51,1.33-4.99,4.26-9.11,5.18-1.63.35-2.98-.04-3.5-.19-.5-.13-.76-.2-.99-.2s-.13,1.25-.05,1.82c.1.56.69.64,1.16.64s1.01.91,1.3,1.17c.3.26,2.39.74,3.36.69,1-.05,2.11-1.06,2.53-1.36,1.16-.88,1.85-.69,2.45-.6.76.08,1.04-.36,1.12-.74.07-.4.76-1.04,1.12-1.47.34-.43,1.65-1.03,1.85-1.06,1.04-.03,1.38-.84,1.65-1.15.25-.3,1.55-.9,2.2-1.08.64-.17,1.25-.55,1.98-1.21.74-.65,2.54-3.14,3.11-4.01.56-.87,1.26-.36,1.75.05.86.74.62,1.43.71,2.02.09.56-.09.96-.39,1.56-.31.61-.46,1.3-.43,2.12.05,1.03,1.71,1.28,2.51,1.26,2.38-.06,1.45-2.5,1.34-2.86-.15-.35-.15-.9-.1-1.33.05-.44.7-1.09,1.64-1.18.95-.07,6.08,1.96,6.98,2.24.91.31,6.98,2.49,8.35,2.89,1.37.4,1.86,1.08,1.92,1.57.08.48.62.78,1.09.82.46.04.69.14,1.63.47.96.35,2.51,1.35,3.46,1.91.95.63,2.3,0,2.8-.56,1.19-1.4.06-3-.78-3.86Z"/>
      <path class="cls-1" d="M202.1,42.9c-.77-.37-1.25-.23-1.32-.07-.08.15-.53.42-1.38.6-.86.17-2.33.32-3.65.64-1.27.28-3.76.75-5.13.8-1.37.1-3.8,0-4.61-.12-.83-.13-1.18.12-1.44.18-.24.04-.82.47-1.24.69-.45.22-.45,1.07-.45,1.68s.52,1.34.87,1.84c0,0,.78,1.49.95,2.01.17.53-.74.66-.95,1.11-.21.48.31,1.11.37,1.51.24,1.12-.33,3.03-.58,3.85-.27.84.25,1.26.42,1.52.16.25-.17,1.77-.13,2.13.05.35,2.3,2.41,3.17,3.13.85.75,1.51.46,2.06.48,5.56.14,8.99-.24,9.94-.37.96-.15,2.69-.89,3.37-1.18,1.42-.58,1.2-1.37,1.16-1.75-.05-.42,0-3,.09-3.86.09-.86.33-3.75.3-4.74-.04-1.02.64-3.77,1.04-4.9.38-1.12.31-2.19-.3-2.96-.6-.78-1.78-1.82-2.56-2.22ZM198.56,56.87c-.2.68-.66,1.9-1.04,1.9s-1.24.04-1.64.09c-.37.03-.68.03-.8.29-.16.25,0,.3-.61.3s-2.64-.04-3.38-.04-2.03.04-1.98-.25c.03-.29.28-1.16.28-1.16.1-.4.22-1.27.74-1.43.53-.17,1.74-.37,2.32-.48.62-.14,1.28-.24,1.7-.39.43-.13,1.21-.61,1.82-.55.61.04.96.16,1.55.42.61.28,1.27.61,1.04,1.3ZM198.87,50.14c-.27.51-.39,1.68-1.12,1.68s-3.74-.13-4.16-.06c-.44.09-1.22.32-1.63.32-.44,0-1.01.02-1.3-.17-.29-.22-.74-.67-.48-1.15.28-.46.44-.8.23-1.24-.23-.41-.79-1.3-.48-1.54.31-.27.53-.48.99-.48s1.07-.12,1.07-.12c.66-.23,2.52-.97,3-1.1.46-.13,1.24-.47,2.02-.38.77.08,1.59.08,1.47.85-.12.78-.3,1.18.05,1.66.33.46.58,1.21.33,1.73Z"/>
      <path class="cls-1" d="M419.91,26.38c.46.38.74.79.79,1.21.05.4.36,1.65.54,2,.16.34.78,1.63,0,2.42-.57.54-.7,1.14-1.86,1.43-.34.08-.8.58-.97.92-.18.37-.79.7-1.15.81-.34.1-1.11.67-1.31.98-.23.29-.42.87-1.39.96-.35.05-1.39,1.16-1.57,1.37-.16.25-1.47,1.52-1.88,2.1-.42.56-.75,1.31-1.04,1.66-.29.36-.81.87-.86,1.2-.06.36-.3,1.18-.7,1.34-.4.17-1.56,1.33-1.8,1.67-.22.34-.62,1.5-1.18,1.61-.57.12-1.39.51-2.67-.41-.31-.24-1.54-1.03-1.5-.53.07.53-.39.71-.81.29-.4-.39-.8-.69-1.26-.5-.46.17-1.84-.3-2.3-.71-.44-.4-1.34-1.31-1.04-1.72.29-.4.53-.33,1.1-.4.58-.05,1.48-.34,1.84-.1.34.21,1.38.44,2.3-.18.92-.64,1.74-1.03,2.23-1.72.54-.7,1.46-2.42,1.98-2.72.52-.28,1.3-.52,1.61-.78.29-.31.68-1.35.97-1.77.29-.38,1.17-2.46,1-3.38-.19-.89-.08-1.37.28-1.67.34-.31.56-.56.56-1.67s.58-3.44,1.57-3.64c.98-.18,1.83-.28,2.82-.18.97.12,2.02,0,2.71-.16.7-.17,2-.46,2.24-.36.22.14.75.6.75.6Z"/>
      <path class="cls-1" d="M427.45,17.97c.7-.41,2.58-.47,3.73-.23,1.18.23,2.79.75,3.42,1.26.6.51.81.92,1.7,1.54.93.64,1.69,1.27,2.15,1.68.46.39,1.33,1.96,1.83,3.17.51,1.22,1.35,2.87,1.86,3.46.52.57,2.7,3.71,3.05,4.27.35.57,1.84,1.95,2.58,2.63.75.7,1.34,1.29,1.45,1.73.1.46.47.56.92.85.47.3.35.36,1.04.42.68.06.75.06.99.57.21.53.44.35,1.02.42.57.04.74-.07,1.21.15.46.24.3.35.75.76.48.4,1.28.33,1.89.33.66,0,1.45.13,2.15-.46.71-.57,1.26-.67,1.5-.47.23.26.05.47-.12.94-.18.46-.46,1.27-1.04,1.33-.57.04-2.28-.13-2.34.22-.08.36.04,1.17-.3,1.17s-3.7-.71-4.51-.71-2.23.03-2.88.38c-.67.35-1.9.53-2.58-.7-.72-1.2-2.74-4.85-5.42-6.85-.8-.62-1.38-.62-2.94-2.17-.7-.7-1.67-1.68-2.12-1.77-.44-.09-2.29-1-3.33-1.61-1.03-.6-1.8-1.33-1.65-1.72.17-.4-.08-1.12-.94-1.85-.86-.73-1.73-1.86-1.94-2.41-.21-.57-.35-1.39-1-1.51-.65-.12-1.27.07-1.17-.91.1-1,.28-1.53-.04-2-.31-.47-.31-.86.14-1.25.42-.4.92-.67.92-.67Z"/>
      <path class="cls-1" d="M414.69,60.84c-.61-.28-1.52-.95-1.31-2.17.21-1.2.61-2.98.61-3.65,0-.72,0-1.02.91-1.02s2.1-.41,3.24-1.44c.5-.48.82-.71.94-1.73.14-1.05.61-4.41.56-5.51-.02-.48-.6-1.04-.2-1.74.39-.74.82-1.35.91-1.79.08-.42.57-.42,1.08-.61.5-.17,1.84-.7,2.62-.78.77-.09,2.17-.22,2.99.52.83.73,1.34,1.3,1.58,1.5.26.24.57.44.18.87-.4.44-.47.81-.42,1.21.02.38.3,1.61-.25,1.61-.58,0-.97.09-1.3.63-.34.57-.1.82-.34.95-.26.13-.57.23-1,.91-.43.7-.7,1.43-1.04,1.53-.33.08-.56.51-.83.93-.24.42-.16,1.03-.42,1.26-.26.23-.43.74-.13.94.31.22.54.36,1.26.36.67,0,1.28-.04,1.41-.23.12-.17,1.04-.24,1.37.15.34.38.57.74,1.42.8.89.08,3.03.04,3.42-1.02.22-.56.48-.99-.17-2.38-.23-.48-.46-.68-.61-1.08-.14-.4-.87-1-1.37-1.6-.51-.6-.82-1.73-.19-2.06.67-.35,1.42-.06,2.27.07.81.13,1.32.31,2.06.44.74.14,1.16.1,1.29.58.13.46.88,1.74,1.36,2.28.53.49.97.82.89,1.46-.08.65-.28,1.6.08,1.98.36.38.65.57,1.12.82.48.27.91.96,1.04,1.73.13.77.18,1.22.31,1.55.12.36.34,1-.18,1s-1.92.47-2.24,1.2c-.34.74-.79,1.85-1.42,1.7-.66-.17-1.47-.57-2.44-2.38-.34-.69-1.91-2.61-2.9-2.43-.99.16-2.06.59-3.47.7-1.37.1-6.56-.3-7.13,1.59-.19.56,0,1.64-.23,1.64-.26,0-1.18-.84-1.69,0-.24.36-.65.79-1.09.79s-2.57-.09-2.57-.09Z"/>
      <path class="cls-1" d="M290.85,23.66c-1.08-.4-1.27-1.27-1.27-1.77,0-.53-.22-1.16-.9-1.68-.69-.51-2.09-.91-3.07-1.17-.98-.2-1.54.14-1.73.55-.16.39-.41,1.59-.75,2.34-.52,1.07-.8,2.21.08,3.29.86,1.09,2.51,2.06,4.03,2.14,1.49.05,2.39-1.31,4.01-1.61.81-.15,1.7.04,1.75-.42.05-.47-1.05-1.26-2.15-1.67Z"/>
      <path class="cls-1" d="M289.83,35.35c-.75-.16-.64-.59-.64-.98s-.46-.51-.81-.55c-.36-.07-1.55-.61-2.67-.81-1.07-.24-1.84-.13-2.23.2-.38.35-.87.54-.92,1.53-.07.99.42,2.06.75,2.69,0,0,1.05.91,1.79,1.17.75.2,1.68,0,2.14-.31.44-.3,1.66-.69,2.34-.57.71.12,1.22-.23,1.79-.59.57-.33.33-1.12.06-1.28-.29-.1-.87-.3-1.61-.51Z"/>
      <path class="cls-1" d="M291.32,48.02c-.34.23-2.31,1.55-3.57,2.42-1.27.87-3.29,1.38-4.04,1.38-.68,0-1.8-.1-2.37-.23-.57-.13-.57.87-.57,1.5s.06,1.72.32,2.41c.3.7.76,2.08.94,2.84.17.74,1.55,2.17,2.37,2.17,1.39,0,1.96-2.26,2.18-2.83.24-.58,1.46-1.57,1.95-1.88,1.16-.76,2.43-3.31,2.71-3.81.3-.53.36-1.73.19-2.13-.19-.41.12-1.15.17-1.45.05-.29.05-.62-.29-.4Z"/>
      <path class="cls-1" d="M344.13,50.49c-.36-.27-1.35-.34-2.25-.34s-1.79-.4-2.3-.98c-.51-.58-2.59-1.14-4.14-1.44-1.56-.3-2.06-.75-2.66-1.61-.58-.88-1.77-1.95-3.05-2.07-.53-.05-.74-.87-1.13-1.15-.42-.28-1.58-.91-2.34-1.39-.72-.46-2.18-1.84-2.68-2.45-.53-.66-1.97-1.54-2.61-1.82-.63-.28-1.27-.62-1.7-1.04-.47-.4-2.63-3.09-3.06-3.71-.44-.6-.35-1-.13-1.27.23-.23.64-.67,1.86-.76,1.21-.07,4.02.29,4.84.29s1.21-.81,1.51-1.36c.31-.56.57-1.62-.17-2.24-.74-.67-2.75-1.09-3.48-1.09s-1.48-.04-1.48-.04c0-.44-.09-1.46.26-2.05,1.21-2.02,3.96-2.21,4.37-2.32,1.19-.31,1.07-1.7,1.02-2.11-.03-.45-1.5-.87-2.29-1.13-.76-.26-1.54-.66-1.54-.66,0,0-.06-1.74-.06-2.8s-.88-1.53-1.88-1.53-2.69.92-3.22,1.19c-.52.25-.69.31-.69.72,0,.44.11,1.79.11,2.65s-.71,1.68-1.85,1.32c-.75-.21-1.48-.21-1.79-.17-.29.06-.27-.3-.29-.62-.05-.35.01-1.54-.17-1.99-.17-.46-2.02-1.22-3-1.39-.96-.17-1.78.58-2.01,1.2-.23.64-.39,1.28-.81,2.54-.4,1.28-1.04,1.44-1.49,1.51-.47.03-1.5.03-2.18.03s-2.3,1.63-2.95,2.09c-.61.45-.96,1.8-.96,2.35l.04.13c.41,1.26,2.54,1.78,3.81,1.96,1.26.17,1.78-.85,2.26-.75.45.1,1.09,2.55,1.26,3.33.34,1.63-3.23,2.65-3.91,2.84-.69.19-1.54-.41-2.41-.41s-3.34,1.37-4.32,1.95c-.97.58.12,2.3.68,3.17.57.86,1.9.86,2.98.35.76-.35,5.65-2.86,6.34-3.28.68-.4,1.96.88,1.81,1.2-2.08,4.15-4.57,5.53-6.23,6.98-1.69,1.44-3.75,3.63-4.43,4.31-.68.69-1.11.58-1.93.86-.79.3-.33,1.39-.09,1.78.23.41,1.14,1.29,1.49,1.37.36.13.71-.73,1.33-1.49.63-.75,3.16-2.81,4.09-3.5.9-.7,2.58-1.66,4.19-.51,1.3.89,1.05,2.41.82,3.69-.23,1.24-.69,3.79-.87,5.57-.18,1.78.29,4.61,1.97,5.64,1.43.91,4.71.63,5.75.63s1.51.55,2.3.75c1.66.47,2.66-.51,2.93-1.03.29-.51,1.11-.92,1.61-.99.51-.03.64-.92.64-1.32s.82-1.54,1.5-2.01c.69-.45.74-.63.62-.88-.12-.2-1.73-.26-2.54-.32-.81-.07-2.82-.07-3.68.17-.88.24-1.51.76-2.65.76-3.98-.06-5.02-2.61-5.02-3.17s1.29-1.17,1.91-1.22c.63-.04,1.54-.63,2.07-1.07.51-.47,1.95-1.06,2.65-1.4.68-.35,1.44-1.13,1.6-1.62.19-.46,1.16-1.83,1.86-2.93.69-1.09,3.17-1.49,4.08-.46.46.53,2.25,2.65,2.76,3.44.53.83,1.44,1.63,2.48,2.38,1.04.74,2.14,2.06,2.87,2.7.75.63,2.48,1.16,3.23,1.5.74.34,1.76.67,2.77.75.98.05.87-.36,1.19-.58.36-.23,1.16-.13,1.85-.17.69-.07,1.43-.69,1.67-.93.22-.23,1.04-.75,1.49-.7.46.07.97-.57,1.15-.81.18-.21.75-.74.42-1.03ZM310.26,23.9c.46-.24,1.26-.64,1.26-.64.65-.31,1.63-.92,1.9-.51.29.38.57,1.03.52,1.47-.06.48-.34,1.62-.34,1.97s-.07.92-.4.98c-.37.05-1.34-.29-1.8-.34-.46-.07-1.31,0-1.31-.74s-.27-1.96.17-2.19ZM306.25,40.4c.07-.35.22-1.18.22-1.18.23-.46.62-1.86,1.55-1.86s2.24-.12,3.22.39c1,.54,1.85,1.31,1.92,1.51.05.23-1.1.52-1.52.76-.39.23-1.89,1.04-3.09,1.04s-2.37-.29-2.29-.66ZM313.61,47.34c-.51.49-1.85,1.25-2.66,1.44-.79.16-1.38.68-1.71.45-.34-.22-.46-.39-.7-.51-.23-.13-.3-.52-.3-.91,0-.43.07-1.16.07-1.16,0-.75-.07-2.07.23-2.36.28-.28,1.16-1.45,1.48-1.33.35.11,1.51.31,2.27.08.74-.24,1.89-1.57,2.29-1.51.4.07,1.16.19.99,1.11-.18.93-.7,3.42-1.96,4.71Z"/>
      <path class="cls-1" d="M527.94,23.35c1.03.08,1.99-.41,2.54-.49,1.27-.17,1.74-.76,2.2-.97.42-.24.5-1.27.5-1.73s.88-1.39,1.27-1.78c.4-.41.29-1.39.35-2.15.05-.73-.74-1.19-1.22-1.39-.48-.15-.79-.46-.98-.84-.16-.41-.63-.6-1.01-.6-.41,0-1.17.08-1.97,0-.79-.05-1.63.24-1.85.64-.22.4-.4,1.5-.17,1.8.24.29.39,1.37.39,1.84,0,1.35-.54,1.42-.97,1.77-.36.35-1.09,1.54-1.54,2.32-.29.51-.57,1.15-.4,1.37.18.21,1.84.17,2.87.21Z"/>
      <path class="cls-1" d="M549.65,20.54c2.12-.66,3.36-1.7,3.93-2.05.57-.36.33-.93-.24-.87-.59.07-.99,0-1.97-.23-.96-.23-1.37-.86-1.55-1.25-.16-.41-.51-1.22-.85-1.63-.34-.39-.56-.45-.7-.22-.1.22-.46,0-.76-.36-.27-.34-.79-.57-1.32-.52-.53.08-1.2,1.39-1.3,2.27-.11.86,1.39,3.16,1.9,3.83,1.09,1.52,2.26,1.25,2.87,1.03Z"/>
      <path class="cls-1" d="M531.22,24.82c-.91-.17-1.03,0-1.74.33-.67.36-1.84,1.39-2.58,2.21-.74.79-.74,1.97-.74,2.54,0,0,.27,1.07.63,1.49.35.41,2.02.1,2.64-.15.65-.3,1.14-.95,1.85-.89,1.11.13.97,1.4-.06,2.6-1.03,1.22-1.84,2.42-2.95,3.4-1.08,1-1.31.87-1.63,1.33-.36.47-.14,1.91.66,2.2.81.28,1.62-.72,1.9-.8.28-.12,1.09,1.12,1.44,1.12s.64-.69.86-1.08c.24-.4,1.17-1.58,1.67-1.78.52-.24.58-.59.58-1s.29-.67.65-.67c.33,0,.44-.21.73-.64.29-.45,1.15-1.05,1.73-1.33.57-.29,2.59-.53,3.57.22.35.25,1.2.66,1.72.58.52-.07,1.49.93,2.18,1.27.7.35,3.01,1.44,4.67,1.9,1.68.47,1.73.06,1.73-.23s.46-.18.93-.23c.44-.07.8-.07.98-.4.17-.35-.18-.95-.76-.99-.57-.05-1.04-.26-1.76-.62-.77-.36-2.03-1.08-2.89-1.54-.89-.48-.93-1-1.16-1.52-.23-.5-.79-.16-1.26-.05-.47.1-1.28-.51-2.28-1.16-.96-.63-1.7-.99-1.82-1.78-.12-.83,2.93-1.12,4.09-1.21,3.63-.29,4.61-.99,5.16-1.26.58-.29,1.27-.93,1-1.05-.3-.12-1.34-.3-2.31-.41-.97-.11-1.21-.5-1.32-.87-.12-.31-.31-.56-.87-.68-.57-.1-2.3-.04-3-.04s-2.49.69-3.45.92c-.97.2-2.71.04-3.93.04s-2.12,0-3.01.16c-.85.19-.94.24-1.87.07Z"/>
      <path class="cls-1" d="M564.85,54.94c-1.11-.81-2.53-.64-3.11-.52-.59.13-1.78,0-3-.58-1.22-.56-3.74-.92-4.95-1.03-1.2-.11-4.49-.4-4.49-.4,0-.81.51-1.26,1.1-1.39.59-.11,2.17-.74,2.67-1.08,1.32-.99,1.42-3.89,1.47-4.85.12-1.82-2.83-2.71-3.91-2.93-1.11-.23-6.22.12-7.55.4-1.31.29-6.33,1.46-8.51,1.79-2.18.35-5.14-.05-5.14-.05-.05-.52-.27-1.74-1.96-1.85-1.66-.1-3.21,2.37-3.45,3.34-.46,1.86.87,3.86,1.5,4.85,0,0,1.11,1.33,1.78,1.84.67.53.05,1.26-.87,1.46-.9.18-2.41.38-3.11.27-.67-.09-1.6.45-2.18.36-.57-.13-1.48-.58-2.98-.63-1.51-.08-2.01-1.12-2.37-1.34-.36-.24-.87.7-1.1,1.34-.23.63-.41,1.58-.8,2.4-.4.8,0,2.71.28,3.63.29.93,1.08,1.56,1.79,2.02.69.46.92,0,1.49-.14.6-.08,1.75-.33,2.27-.79.52-.43,1.96-.36,2.48-.39.51-.04,1.2-.36,2.05-.31.89.06,1.98-.05,2.41-.4.36-.36,2.17-.39,3.55-.57,1.39-.17,2.98-.63,4.38-.63s2.65-.07,4.35-.47c1.74-.39,3.2-.16,5.03-.05,1.86.13,2.87-.41,3.76-.47.84-.05,4.12.13,5.23.36,1.09.25,4.14.7,5,.8.86.13,2.94,2.42,3.75,2.42s2.93-2.19,4.09-3.05c1.14-.85.17-2.52-.93-3.32ZM532.68,52.86c-.42,0-.82.46-1.45.46s-1.1-.29-1.45-.75c-.34-.47-.57-.75-.61-1.44-.08-.7-.2-1.68-.2-1.68,0-.8.3-1.78,1.04-1.83.75-.07,2.59-.19,2.67.79.04.98.26,2.89.34,3.23.04.35.04,1.21-.34,1.21ZM539.96,51.65c-.45.57-.74.92-1.49.92s-2.65.19-2.7-.12c-.08-.3-.14-1.5-.14-1.5-.04-.8-.43-3.15-.08-3.66.33-.55.51-1.11,2.3-1.25,1.78-.08,3.1-.21,3.14,1.18.14,2.54-.55,3.85-1.03,4.43ZM546.93,50.22c-.34.56-1.7,1.72-2.4,1.6-.68-.1-1.26-.58-.91-1.67.34-1.11.69-2.72.69-2.72.11-.85-.2-2.39.85-2.35,1.02.07,3.75-.33,3.56.93-.18,1.29-1.45,3.62-1.8,4.21Z"/>
      <path class="cls-1" d="M638.8,50.9c.62,0,2.03-.41,2.66-.63.62-.23.62-1.37.62-2.18s-.4-.58-1.05-.46c-.62.1-1.02-.41-2.13-1.04-1.1-.63-1.26-.76-1.85-.54-.56.24-.62,2.5-.56,3.29.03.82,1.48,1.57,2.3,1.57Z"/>
      <path class="cls-1" d="M678.93,40.32c-.52-.26-.34-.75-.52-1.37-.17-.67-1.37-.66-2.23-.66s-.92-.35-1.5-.41c-.59-.04-.98-.45-1.33-.8-.35-.35-.46-.87-1.09-1.42-.65-.59-1.62-1.51-2.2-1.69-.57-.15-.75-.28-1.04-.91-.28-.64-.57-.64-.97-.87-.41-.22-.99-1.02-1.26-1.09-.29-.06-1.06-.34-1.29-.68-.23-.35-.74-.69-1.19-.81-.46-.1-1.38-1.38-2.76-2.48-1.38-1.08-1.35-1.49-2.32-1.97-.99-.44-.79-.69-.92-1.11-.12-.48-.7-.48-1.55-1.24-.88-.75-2.93-2.38-3.81-3.1-.85-.75-1.96-1.27-2.66-1.57-.68-.26-1.39-.91-1.85-1.74-.44-.79-2.01-1.89-2.81-2.38-.78-.52-1.32-.42-1.56,0-.21.38-1.15,1.08-1.54,1.31-.4.23-.24,2.13-.24,2.49,0,.33-4.08,4.64-5.3,5.75-1.21,1.09-6.91,6.74-7.41,7.19-.51.47-3.41,3.66-4.57,4.7-1.13,1.04-2.62,1.6-3.33,1.63-.69.05-.69,1.56-.79,3.1-.12,1.57.52,2.36,2.31,2.54,1.15.12,1.39-.39,1.72-.8.32-.4.85-.28,1.37-.6.51-.25.31-1.07.37-1.46.05-.42.86-.91,1.25-1.46.4-.52,2.24-2.39,2.76-3.05.5-.61,1.49-2.29,2.08-2.93.57-.63,1.67.4,2.12.79.46.44,1.11.64,1.66.76.6.14,1.05-.41,1.69-.85.63-.47,2.51.09,3.04.21.52.12,1.56.17,2.5.23.92.08.72.59.79,1.01.05.37-.91,1.02-1.44,1.24-.51.24-.74.4-1.26.68-.5.31-1.96,1.46-2.35,1.8-.42.35-.94.81-1.51.97-.57.18-.8.59-.8,1.05s-.13.85-.41,1.39c-.28.5-.71,1.25-.41,2.17.3.92,2.43.23,2.94-.11.5-.34,1.53-1.62,3.41-1.67,2.4-.07,2.25,2.01,2.36,2.76.12.74-.29,3.98-.34,4.96-.05.97.05,2.25.24,2.98.15.76-.07,1.12-.42,1.33-.33.22-1.26-.03-2.41.06-1.15.12-2.02.12-2.6.45-.56.37-2.65.31-4.04.25-1.36-.07-1.19.13-1.36-.27-.18-.42-.81-.42-1.16.02-.36.48-.76.78-1.17,1.37-.39.57-.56,1.81-.33,2.22.22.41.47.81.58,1.48.12.71.63,1.85,2.17,2.1,1.57.23,2.67-.92,4.63-1.66,1.98-.75,6.76-1.24,8.35-1.33,1.6-.13,6.96-.07,7.66-.07s2.23,1.16,3.5,1.32c1.28.17,2.61-.77,3.3-.86.7-.12,1.17-1.67.7-2.08-.46-.39-.88-.87-1.06-1.37-.16-.54-.06-.93-.58-.93s-.79-.26-1.44-.51c-.62-.23-3.32-.3-4.2-.38-.86-.13-3.52-.2-5.4-.08-1.91.13-1.3-1.5-1.39-2.31-.05-.79.51-1.25.97-1.44.46-.16,2.66-.51,3.12-.51s.83-.18.87-.45c.05-.28.59-.35,1.09-.46.53-.12,1.17-.07,1.63-.18.46-.1,1.27-1.14,1.55-1.67.3-.53.05-2.37-.28-2.64-.36-.3-1.22-.75-2.05-1.23-.78-.47-.78-.01-1.19.6-2.77,4-3.34,3.88-4.43,4.58-1.12.71-1.45-.28-1.45-.99,0-.67.64-4.77.99-5.97.36-1.21,1.76-.8,2.46-.77.71.07,1.35-.04,1.81-.15.47-.11.93.81,1.45.92.48.12.33-.45.36-.92.07-.47-.15-.87-.45-1.11-.28-.19-.58-.63-.78-1.26-.24-.63-.66-.75-1.64-.68-.97.05-2.14.23-2.48-.23-.32-.48-.11-1.9,1.26-3.52.83-.95,1.81-.84,2.66-.84s1.4-.43,1.68-1.04c.29-.65,2.19,0,2.71.39.52.41,2.37,1.73,3.97,2.78,1.64,1.02,3.81,2.62,4.52,2.92.68.3,1.19.74,1.76,1.4.58.62,1.57,1.47,2.77,2.22,1.21.75,3.4.63,4.42.7,1.04.04,2.2.21,2.25-.07.05-.28.46-.6.98-.79.53-.23.64-.59.12-.81ZM649.84,28.72c-1.45.24-5.61.94-6.66,1-1.35.07-3.11.1-4.46-.23-1.31-.35-2.7-1.04-2.35-1.7.36-.61.76-.67,1.27-.95.52-.3,1.33-1.62,1.62-1.9.27-.28,1.66-1.82,3.16-2.01,1.51-.16,3.39-.12,4.47.69,1.12.81,2.9,1.53,3.7,2.07.79.51,1.96,1.21,1.96,1.72s-1.19,1.09-2.72,1.32Z"/>
      <path class="cls-1" d="M165.21,112.85h20.42v11.39s-.98,0-.98,0c-.33-4.07-1.22-6.85-2.72-8.29-.86-.79-2.1-1.21-3.8-1.27v29.8c0,2.1.22,3.46.65,4.16.44.68,1.33,1.03,2.72,1.03v1.42h-12.18v-1.42c1.36,0,2.25-.36,2.7-1.05.44-.7.67-2.06.67-4.15v-29.8c-1.69.05-2.97.48-3.85,1.27-1.67,1.49-2.6,4.25-2.81,8.29h-.86l.03-11.39Z"/>
      <path class="cls-1" d="M197.29,149.9c.76-.06,1.29-.24,1.61-.54.54-.47.81-1.43.81-2.82v-22.99c0-1.35-.24-2.25-.71-2.72-.29-.3-.87-.53-1.71-.65v-1.21h9.59v1.21c-.83.08-1.41.28-1.73.58-.52.49-.79,1.41-.79,2.8v9.76h6.85v-9.76c0-1.39-.27-2.3-.78-2.78-.3-.31-.88-.51-1.72-.6v-1.21h9.57v1.21c-.83.12-1.37.32-1.67.6-.5.49-.75,1.4-.75,2.78v22.99c0,1.39.29,2.34.83,2.83.32.31.85.49,1.59.53v1.19h-9.57v-1.19c.8-.03,1.37-.23,1.7-.56.53-.51.8-1.45.8-2.8v-10.98h-6.85v10.98c0,1.4.3,2.37.85,2.86.32.28.88.46,1.67.5v1.19h-9.59v-1.19Z"/>
      <path class="cls-1" d="M227.51,151.09v-1.19c.81-.03,1.38-.23,1.73-.56.52-.51.76-1.45.76-2.8v-22.99c0-1.39-.25-2.34-.8-2.8-.31-.3-.88-.5-1.7-.58v-1.21h16.4v9.6h-.71c-.37-3.09-.99-5.21-1.85-6.34-.87-1.13-2.47-1.7-4.78-1.7-.88,0-1.45.15-1.69.45-.24.3-.37.9-.37,1.8v11.05c1.64.04,2.77-.45,3.35-1.46.61-.99,1.05-2.81,1.38-5.45h.74v15.89h-.74c-.22-2.69-.66-4.59-1.3-5.68-.65-1.11-1.79-1.68-3.43-1.68v11.5c0,1.01.15,1.69.5,2.05.32.37.96.54,1.93.54,1.87,0,3.38-.58,4.54-1.74,1.16-1.16,2.19-3.35,3.1-6.56h.75l-1.12,9.85h-16.68Z"/>
      <path class="cls-1" d="M286.38,113.36c1.47.85,2.27,1.31,2.45,1.31.41,0,.76-.29,1.04-.86.25-.55.42-1.13.47-1.74h.89v13.22h-.89c-.82-2.89-1.66-5.15-2.5-6.83-1.58-3.06-3.39-4.58-5.41-4.58-2.3,0-3.91,1.65-4.89,4.93-.97,3.28-1.42,7.67-1.42,13.2,0,4.06.28,7.44.85,10.05,1.03,4.95,2.99,7.4,5.85,7.4,1.72,0,3.36-.81,4.86-2.43.87-.95,1.89-2.47,3.04-4.53l1.03,1.34c-1.36,2.5-2.51,4.31-3.53,5.42-1.77,1.97-3.77,2.96-5.96,2.96-3.35,0-6.15-1.65-8.42-5-2.53-3.66-3.79-8.58-3.79-14.82s1.23-11.16,3.65-14.97c2.27-3.57,5.06-5.36,8.36-5.36,1.41,0,2.85.43,4.31,1.3Z"/>
      <path class="cls-1" d="M320.94,122.91c1.93,3.16,2.89,7.23,2.89,12.2s-.97,9.05-2.89,12.21c-1.92,3.1-4.31,4.63-7.18,4.63-3.04,0-5.52-1.68-7.44-5.07-1.79-3.17-2.68-7.02-2.68-11.51,0-4.97.94-9.04,2.8-12.23,1.89-3.26,4.34-4.87,7.32-4.87s5.28,1.54,7.18,4.64ZM318.11,144.08c.43-2.29.63-5.28.63-8.96,0-5.05-.42-8.88-1.32-11.43-.9-2.57-2.14-3.84-3.67-3.84-2.15,0-3.6,2.15-4.39,6.42-.43,2.26-.62,5.22-.62,8.85s.19,6.71.64,8.96c.78,4.22,2.22,6.34,4.37,6.34s3.57-2.11,4.35-6.34Z"/>
      <path class="cls-1" d="M333.02,149.9c1.08-.02,1.77-.33,2.1-.98.32-.62.48-1.58.48-2.83v-22.54c0-1.31-.19-2.17-.54-2.57-.38-.4-1.02-.68-1.98-.81v-1.21h7.27l5.61,22.04.22-.03,5.49-22h7.17v1.21c-.94.13-1.57.44-1.9.9-.33.45-.52,1.6-.52,3.43v21.07c0,1.76.2,2.87.52,3.41.33.56.96.85,1.9.91v1.19h-9.42v-1.19c.88-.03,1.53-.29,1.95-.73.44-.42.64-1.38.64-2.84v-23.24h-.19l-6.97,27.99h-.78l-7.05-27.32-.12-.13v21.58c0,1.58.17,2.74.54,3.46.37.71,1.17,1.12,2.41,1.21v1.19h-6.83v-1.19Z"/>
      <path class="cls-1" d="M367.72,149.9c1.09-.02,1.79-.33,2.11-.98.33-.62.48-1.58.48-2.83v-22.54c0-1.31-.2-2.17-.54-2.57-.39-.4-1.04-.68-1.97-.81v-1.21h7.26l5.59,22.04.25-.03,5.45-22h7.19v1.21c-.92.13-1.57.44-1.9.9-.36.45-.51,1.6-.51,3.43v21.07c0,1.76.15,2.87.51,3.41.33.56.98.85,1.9.91v1.19h-9.41v-1.19c.85-.03,1.49-.29,1.93-.73.44-.42.65-1.38.65-2.84v-23.24h-.2l-6.95,27.99h-.78l-7.06-27.32-.11-.13v21.58c0,1.58.19,2.74.55,3.46.37.71,1.17,1.12,2.37,1.21v1.19h-6.81v-1.19Z"/>
      <path class="cls-1" d="M412.12,118.96v1.21c-1.11.08-1.83.36-2.21.85-.37.49-.54,1.67-.54,3.48v15.89c0,2.41.15,4.26.49,5.59.6,2.43,1.82,3.66,3.57,3.66,2.19,0,3.68-1.35,4.45-4.05.43-1.49.64-3.57.64-6.24v-14.49c0-1.69-.2-2.85-.58-3.51-.36-.61-1.12-1.04-2.2-1.17v-1.21h6.3v1.21c-.91.29-1.49.65-1.81,1.07-.29.43-.44,1.39-.44,2.9v15.19c0,4.03-.58,7.12-1.74,9.34-1.16,2.21-3.02,3.28-5.53,3.28-3.27,0-5.51-1.63-6.72-4.89-.63-1.73-.95-3.97-.95-6.69v-15.89c0-1.77-.16-2.9-.44-3.37-.29-.43-.96-.78-1.97-.96v-1.21h9.68Z"/>
      <path class="cls-1" d="M431.01,149.9c1.03-.03,1.69-.39,1.99-1.02.27-.63.43-1.55.43-2.79v-22.49c-.84-1.63-1.35-2.59-1.53-2.86-.22-.29-.47-.49-.79-.57v-1.21h5.94l9.72,19.74h.14v-13.86c0-1.62-.16-2.73-.52-3.43-.33-.67-1.01-1.12-2.07-1.24v-1.21h6.13v1.21c-.9.24-1.49.6-1.81,1.02-.28.41-.45,1.34-.45,2.8v27.97h-.77l-12.48-25.38h-.22v18.65c0,1.47.11,2.49.37,3.07.35.97,1.1,1.51,2.24,1.6v1.19h-6.31v-1.19Z"/>
      <path class="cls-1" d="M459.3,149.9c.79-.03,1.38-.2,1.73-.5.57-.49.85-1.47.85-2.86v-22.99c0-1.41-.27-2.35-.8-2.82-.35-.31-.93-.48-1.78-.56v-1.21h9.92v1.21c-.88.08-1.51.23-1.83.53-.54.47-.84,1.41-.84,2.85v22.99c0,1.33.23,2.23.65,2.69.46.46,1.13.67,2.01.67v1.19h-9.92v-1.19Z"/>
      <path class="cls-1" d="M478.39,118.96h17.15l.02,9.6h-.75c-.28-3.44-1.05-5.74-2.32-6.93-.73-.68-1.78-1.05-3.25-1.11v25.03c0,1.74.18,2.91.53,3.47.35.58,1.11.86,2.25.86v1.19h-10.11v-1.19c1.09,0,1.86-.29,2.22-.89.35-.56.53-1.73.53-3.44v-25.03c-1.39.05-2.46.43-3.21,1.11-1.41,1.23-2.18,3.54-2.34,6.93h-.75l.04-9.6Z"/>
      <path class="cls-1" d="M514.37,118.96v1.21c-.97.09-1.6.23-1.9.4-.26.15-.38.45-.38.95,0,.23,0,.48.06.71.05.26.16.72.32,1.4l3.8,11.39h.17l3.09-8.36c.2-.51.41-1.11.63-1.87.31-1.12.5-1.96.5-2.51,0-.84-.21-1.38-.62-1.67-.26-.2-.86-.34-1.77-.45v-1.21h6.28v1.21c-.47.13-.82.31-1.09.48-.35.3-.63.74-.87,1.34l-5.48,14.81v8.76c0,1.8.17,2.96.55,3.48.35.52,1.04.82,2.05.85v1.19h-9.86v-1.19c1.04-.03,1.73-.36,2.07-.91.35-.57.52-1.71.52-3.42v-6.99l-5.23-15.79c-.34-1.04-.75-1.77-1.26-2.17-.33-.27-.68-.42-1.04-.44v-1.21h9.46Z"/>
      <path class="cls-1" d="M565.1,113.36c1.47.85,2.28,1.31,2.45,1.31.44,0,.79-.29,1.05-.86.24-.55.42-1.13.51-1.74h.84v13.22h-.84c-.85-2.89-1.68-5.15-2.53-6.83-1.59-3.06-3.4-4.58-5.41-4.58-2.29,0-3.93,1.65-4.88,4.93-.97,3.28-1.44,7.67-1.44,13.2,0,4.06.28,7.44.84,10.05,1.05,4.95,3.01,7.4,5.87,7.4,1.72,0,3.34-.81,4.85-2.43.89-.95,1.88-2.47,3.05-4.53l1.03,1.34c-1.34,2.5-2.49,4.31-3.52,5.42-1.8,1.97-3.78,2.96-5.97,2.96-3.34,0-6.15-1.65-8.41-5-2.51-3.66-3.8-8.58-3.8-14.82s1.24-11.16,3.66-14.97c2.26-3.57,5.03-5.36,8.35-5.36,1.41,0,2.85.43,4.31,1.3Z"/>
      <path class="cls-1" d="M582.1,149.9c.79-.06,1.3-.24,1.63-.54.52-.47.79-1.43.79-2.82v-22.99c0-1.35-.22-2.25-.7-2.72-.29-.3-.87-.53-1.71-.65v-1.21h9.59v1.21c-.83.08-1.4.28-1.72.58-.54.49-.78,1.41-.78,2.8v9.76h6.81v-9.76c0-1.39-.25-2.3-.74-2.78-.3-.31-.89-.51-1.76-.6v-1.21h9.59v1.21c-.82.12-1.37.32-1.67.6-.48.49-.74,1.4-.74,2.78v22.99c0,1.39.25,2.34.82,2.83.31.31.84.49,1.59.53v1.19h-9.59v-1.19c.81-.03,1.39-.23,1.73-.56.5-.51.77-1.45.77-2.8v-10.98h-6.81v10.98c0,1.4.27,2.37.84,2.86.31.28.88.46,1.65.5v1.19h-9.59v-1.19Z"/>
      <path class="cls-1" d="M612.12,151.09v-1.19c.81-.03,1.4-.23,1.74-.56.51-.51.78-1.45.78-2.8v-22.99c0-1.39-.27-2.34-.82-2.8-.3-.3-.87-.5-1.7-.58v-1.21h16.43v9.6h-.74c-.34-3.09-.97-5.21-1.86-6.34-.87-1.13-2.47-1.7-4.77-1.7-.9,0-1.44.15-1.68.45-.24.3-.36.9-.36,1.8v11.05c1.64.04,2.77-.45,3.34-1.46.58-.99,1.06-2.81,1.35-5.45h.76v15.89h-.76c-.2-2.69-.63-4.59-1.26-5.68-.63-1.11-1.79-1.68-3.43-1.68v11.5c0,1.01.16,1.69.47,2.05.32.37.98.54,1.95.54,1.86,0,3.36-.58,4.53-1.74,1.16-1.16,2.19-3.35,3.12-6.56h.73l-1.11,9.85h-16.7Z"/>
      <path class="cls-1" d="M639.6,140.04h.74c.45,3.57,1.21,6.15,2.19,7.78,1.02,1.61,2.19,2.43,3.53,2.43,1.26,0,2.16-.56,2.68-1.68.52-1.11.78-2.26.78-3.5,0-1.4-.26-2.56-.8-3.45-.35-.6-1.11-1.36-2.25-2.3l-1.8-1.53c-1.78-1.53-3.04-3.05-3.79-4.53-.75-1.49-1.11-3.33-1.11-5.52,0-2.31.48-4.51,1.48-6.53.96-2.01,2.47-3.01,4.5-3.01,1.02,0,2.01.24,2.97.79.98.54,1.51.81,1.66.81.31,0,.5-.16.64-.46.12-.29.2-.67.28-1.15h.73v10.36h-.73c-.35-2.4-1-4.48-1.94-6.23-.93-1.73-2.05-2.6-3.38-2.6-.91,0-1.67.43-2.2,1.33-.55.89-.81,1.93-.81,3.18,0,1.5.24,2.63.76,3.37.5.75,1.62,1.87,3.36,3.33l2.13,1.77c.92.8,1.65,1.67,2.24,2.61,1.03,1.8,1.53,3.98,1.53,6.54,0,2.38-.55,4.6-1.68,6.76-1.13,2.11-2.91,3.17-5.39,3.17-.57,0-1.15-.08-1.73-.27-.59-.17-1.17-.44-1.73-.8l-.53-.35c-.14-.05-.27-.1-.37-.12-.13-.04-.22-.07-.32-.07-.29,0-.5.14-.58.42-.11.29-.21.67-.31,1.19h-.74v-11.76Z"/>
      <path class="cls-1" d="M663.09,118.96h17.13l.02,9.6h-.72c-.26-3.44-1.06-5.74-2.34-6.93-.71-.68-1.77-1.05-3.24-1.11v25.03c0,1.74.17,2.91.55,3.47.33.58,1.1.86,2.22.86v1.19h-10.1v-1.19c1.11,0,1.84-.29,2.22-.89.35-.56.52-1.73.52-3.44v-25.03c-1.38.05-2.46.43-3.21,1.11-1.38,1.23-2.16,3.54-2.33,6.93h-.75l.04-9.6Z"/>
    </g>
  </g>
</svg>