<?xml version="1.0" encoding="UTF-8"?>
<svg xmlns="http://www.w3.org/2000/svg" viewBox="0 0 433.62 105.88">
  <defs>
    <style>
      .cls-1 {
        fill: #e30413;
      }

      .cls-2 {
        isolation: isolate;
      }

      .cls-3 {
        mix-blend-mode: multiply;
      }

      .cls-4 {
        fill: #fff;
      }

      .cls-5 {
        fill: #1c1c1b;
      }
    </style>
  </defs>
  <g class="cls-2">
    <g id="_圖層_2" data-name="圖層 2">
      <g id="Layer_1" data-name="Layer 1">
        <g>
          <g>
            <g>
              <path class="cls-1" d="M52.96,105.88c29.21,0,52.94-23.7,52.94-52.94S82.18,0,52.96,0,0,23.7,0,52.94s23.71,52.94,52.96,52.94"/>
              <path class="cls-4" d="M8.86,52.9c0-24.35,19.72-44.07,44.08-44.07s44.05,19.72,44.05,44.07-19.73,44.08-44.05,44.08S8.86,77.24,8.86,52.9M52.95,99.11c25.49,0,46.18-20.69,46.18-46.2S78.44,6.71,52.95,6.71,6.75,27.39,6.75,52.9s20.66,46.2,46.2,46.2"/>
            </g>
            <g>
              <path class="cls-4" d="M51.89,29.56h-3.21c-.61,0-1.08-.51-1.08-1.13s.47-1.15,1.08-1.15h3.21v-10.25h-7.71l1.87,14.36h-10.78s4.06,27.81-6.88,51c6.52.04,14.4,0,14.4,0h-.03c7.56-21.36,6.73-23.89,6.73-23.89h2.4v-9.55h-2.43c-.62,0-1.1-.52-1.1-1.12,0-.66.48-1.17,1.1-1.17h2.43v-17.09Z"/>
              <path class="cls-4" d="M54.06,29.56h3.15c.6,0,1.08-.51,1.08-1.13s-.48-1.15-1.08-1.15h-3.15v-10.25h7.65l-1.86,14.36h10.83s-4.11,27.81,6.84,51c-6.54.04-14.41,0-14.41,0-7.57-21.36-6.71-23.89-6.71-23.89h-2.33v-9.55h2.38c.61,0,1.1-.52,1.1-1.12,0-.66-.49-1.17-1.1-1.17h-2.38v-17.09Z"/>
              <path class="cls-1" d="M45.14,60.59c-.05.06-.11.11-.19.18l.98,3.75c.14.56-.18,1.18-.74,1.31-.54.18-1.09-.17-1.25-.76l-.89-3.38c-.16.01-.34.04-.53.04-.14,0-.28-.02-.42-.04l-.87,3.38c-.16.59-.7.94-1.24.76-.58-.12-.9-.74-.74-1.31l.96-3.73c-.06-.07-.16-.11-.22-.18-.71-.74-1.08-1.7-1.08-2.74v-15.47c0-2.1,1.67-3.82,3.71-3.82,1.99,0,3.62,1.73,3.61,3.84v15.47c0,1.03-.38,1.98-1.1,2.71M40.96,48.87v8.99c0,.47.17.89.46,1.21.31.32.73.49,1.12.49.44,0,.85-.19,1.19-.51.28-.31.48-.74.48-1.17v-9.01h-3.25ZM44.21,46.71v-4.3c0-.96-.72-1.72-1.6-1.72s-1.63.76-1.64,1.69v4.32h3.25Z"/>
              <path class="cls-1" d="M67.79,47.78l-4.41-9.02-4.41,9.02,3.42,6.94v10.06c0,.61.45,1.08,1,1.08s1.04-.47,1.04-1.08v-10.09l3.37-6.91ZM63.38,52.18l-2.16-4.4,2.16-4.41,2.16,4.41-2.16,4.4Z"/>
            </g>
          </g>
          <g>
            <g>
              <polygon class="cls-5" points="424.04 85.63 432.88 75.85 426.7 75.85 417.09 86.61 417.09 75.85 412.07 75.85 412.07 100.46 417.09 100.46 417.09 92.74 420.69 89.29 427.75 100.46 433.62 100.46 424.04 85.63"/>
              <g>
                <polygon class="cls-5" points="268.23 90.16 279.07 90.16 279.07 85.68 268.23 85.68 268.23 80.32 280.46 80.32 280.46 75.85 263.21 75.85 263.21 100.46 280.59 100.46 280.59 95.98 268.23 95.98 268.23 90.16"/>
                <path class="cls-5" d="M254.09,85.96l-4.26-1.01c-1.71-.46-3.47-1.15-3.47-2.72,0-1.38,1.16-2.78,3.74-2.78,2.37,0,4.07.92,4.91,2.65l.14.29,4.34-1.7-.1-.31c-1.04-3.23-4.53-5.24-9.12-5.24-5.2,0-8.82,3.05-8.82,7.42,0,4.64,3.02,6.03,5.98,6.78l4.32.97c1.52.45,3.09,1.13,3.12,2.83v.51c0,.95-.45,1.68-1.32,2.2-.75.44-2.02.72-3.29.72-2.65,0-4.82-1.3-5.68-3.4l-.13-.32-4.53,1.77.1.32c1.18,3.73,5.05,6.05,10.1,6.05,5.6,0,9.67-3.21,9.67-7.63v-.5c-.02-3.69-1.94-6-5.71-6.88Z"/>
                <path class="cls-5" d="M217.06,75.29c-6.83,0-9.88,4.6-9.88,9.15v8c0,5.89,5.21,8.57,10.05,8.57s9.29-2.54,9.29-8.2v-5.44h-11v4.58h6.22v.46c0,2.83-2.26,4.09-4.5,4.09-1.38,0-2.65-.41-3.57-1.13-.98-.78-1.5-1.87-1.5-3.16v-8c0-3.04,2.46-4.4,4.9-4.4,1.1,0,4.67.27,4.67,3.79v.6h4.79v-1c0-3.64-2.48-7.9-9.46-7.9Z"/>
                <polygon class="cls-5" points="299.34 91.73 289.31 76.01 289.21 75.85 284.44 75.85 284.44 100.46 289.29 100.46 289.29 84.55 299.39 100.46 304.19 100.46 304.19 75.85 299.34 75.85 299.34 91.73"/>
                <polygon class="cls-5" points="402.5 75.85 402.5 91.73 392.48 76.01 392.37 75.85 387.61 75.85 387.61 100.46 392.46 100.46 392.46 84.55 402.55 100.46 407.36 100.46 407.36 75.85 402.5 75.85"/>
                <path class="cls-5" d="M318.4,75.29c-6.83,0-9.89,4.6-9.89,9.15v8c0,5.89,5.21,8.57,10.05,8.57s9.28-2.54,9.28-8.2v-5.44h-10.99v4.58h6.21v.31c0,2.83-2.25,4.09-4.49,4.09-3.51,0-5.07-2.08-5.07-4.14v-8c0-3.04,2.46-4.4,4.91-4.4,2.25,0,4.66,1,4.66,3.79v.6h4.78v-1c0-3.64-2.47-7.9-9.44-7.9Z"/>
                <path class="cls-5" d="M371.95,75.85l-9.15,24.61h5.06l1.82-5.13h8.81l1.76,5.13h5.26l-9.08-24.61h-4.48ZM377.04,90.94h-5.92l2.97-8.68,2.94,8.68Z"/>
                <path class="cls-5" d="M358.28,87.39c2.04-1.12,3.03-2.78,3.03-5.06,0-4.18-2.73-6.48-7.69-6.48h-10.6v24.61h11.18c3.78,0,7.86-2.25,7.86-7.19,0-2.82-1.37-4.97-3.77-5.88ZM348.04,90.06h5.41c2.43,0,3.62.96,3.62,2.94s-1.33,3.11-3.66,3.11h-5.37v-6.05ZM353.07,85.75h-5.04v-5.55h4.83c2.34,0,3.52.91,3.52,2.71s-1.21,2.84-3.32,2.84Z"/>
              </g>
              <polygon class="cls-5" points="150.57 75.85 150.57 85.68 141.17 85.68 141.17 75.85 136.15 75.85 136.15 100.46 141.17 100.46 141.17 90.16 150.57 90.16 150.57 100.46 155.58 100.46 155.58 75.85 150.57 75.85"/>
              <polygon class="cls-5" points="197.81 75.85 197.81 91.73 187.79 76.01 187.68 75.85 182.92 75.85 182.92 100.46 187.77 100.46 187.77 84.54 197.86 100.46 202.66 100.46 202.66 75.85 197.81 75.85"/>
              <path class="cls-5" d="M171.53,75.85h-4.49l-9.14,24.61h5.06l1.82-5.13h8.81l1.76,5.13h5.26l-9.08-24.61ZM172.13,90.94h-5.92l2.98-8.67,2.94,8.67Z"/>
            </g>
            <g>
              <path class="cls-5" d="M249.99,5.15c-1.44,4.09-.97,9.24-1.03,13.56.74.84,2.11.42,3.17.42,2.45-.28,5.88-1.69,7.71.66.41,1,.72,2.16.63,3.26-1.33.46-2.84.43-4.1.65-2.52.85-5.94.54-7.18,3.36-.36,1.1-.36,2.29-.05,3.41l.79.69c3.39-.69,6.38.53,9.49,1.08,1.2,1.15,1.88,2.9,1.88,4.52l-.51.37c-3.66-.37-7.33.09-10.99-.07-1.61.63-1.61,2.44-2.19,3.69-.16,1.56-1.19,4.14.64,5.12,2.65.75,5.51-.46,8.32.17,3.97.78,9.21.16,11,4.45.04,1.37-.34,2.59-1.06,3.6-1.52,0-2.83-.95-4.42-1.05-4.73-.38-14.03-1.47-14.67-1.38-.68.1-6.09.84-8.45,2.91-1.59,1.04-3.84.5-5.41,1.44-2.58.3-5.36.85-7.88.16-1.73.1-3.08,1.38-4.65,1.52-.69-1.95-.91-4.14-1.3-6.21-.29-.85.29-1.44.77-2.07,1.2-.48,2.03,1,3.21,1.09,3.29.43,6.41-1.19,9.86-1.29l7.6-2.39c1.64-1.52,1.86-4.02,1.39-6.2-.22-.23-.44-.71-.82-.55-1.77.49-3.73.64-5.59.8-1.27.4-2.37,1.26-3.69,1.45-1.6-1.81-1.51-4.57-1.57-6.8,1.57-.44,3.05.46,4.78.14,2.46-.47,4.76-1.2,7-2.2,1.6-1.31.97-3.74.53-5.36-1.19-.46-2.61-.11-3.82,0-2.08.2-4.08,1.26-6.24.89-1.35-1.29-1.46-3.09-2.55-4.5-1.33.12-1.49,1.64-2.49,2.2-2.76,2.62-6.86,2.72-10.37,3.49-.27-.21-.69-.17-.8-.61.53-1.52,2.29-2.5,2.83-4.09,1.42-1.42,3.15-2.66,4.1-4.36,2.82-2.92,5.4-6.13,6.46-9.85.19-.6-.16-1.47.63-1.69,1.89.11,2.83,2.54,4.51,3.25.65.36,1.37.52,1.78,1.27v.77c-2.35,1.84-6.25,3.53-5.54,7.15,1.88,1.15,4.46,1.27,6.61,1.2,1.39-.99,3.29-.88,4.87-1.67.94-.69.9-1.79,1.11-2.83-.63-4.21,1.04-9.32-1.72-12.76.55-1.12,2.05-1.05,3.18-1.41,1.48.83,3.47-1.31,4.28.61Z"/>
              <g>
                <path class="cls-5" d="M309.98,7.19c1.11.35,2.21,1.17,2.88,2.21-.4,2.04-3.44.37-3.92,2.67-.12,1.64.63,3.74-.31,5.21-1.69,1.62-2.93,3.41-3.32,5.57-.05.53.39.68.73.93.69.2,1.26-.17,1.64-.79.31-.62-.04-1.58.79-2.04,1.01-.18,2.15-.31,3.08-.18.28.38.33.96.85,1.06.95.27,2.32-.57,2.62.53.06,3.04-4.82,3.24-3.87,6.29.38.73,1.35.3,1.89.1.94-.15,2.24-1.09,2.99-.1.32,2.69-1.78,4.41-3.46,6.13-.79.69-2.15.62-2.41,1.87,0,.76-.49,2.04.36,2.5,1.78-.46,3-2.44,4.88-2.67.79.08.96.94,1.19,1.48-.03,1.33,1.02,2.26.66,3.56-.54.38-1.05-.07-1.58,0-1.72.78-3.2,2.26-5.04,2.57-.84.58-.79,1.7-.64,2.47,1.57.95,3.06-1.17,4.73-.31,1.2,4.29-3.47,6.08-5.97,8.36-3.08,1.36-6.57,1.86-10.03,2.02-1.36.22-2.57,1.75-3.95.96-1-.96-1.46-2.25-1.25-3.66.74-.55,1.58.09,2.38.15,1.87-.45,3.43-1.69,5.29-2.31,1.46-.75,3.43-1.06,4.28-2.67.53-3.17.57-6.47.9-9.71-1.31-1.65-3.1.12-4.62.32-1.11-.1-2.74,2.08-3.27-.06-.08-1.4-1.46-2.45-1.02-4.04.97-.89,2.42-.79,3.75-.98,1.9-1.42,5.51-.8,5.93-3.89-.03-.58-.32-1.15-.87-1.41-1.84.26-3.73,2.05-5.37.14-4.31,2.74-7.71,7.95-13.36,7.11-.47-.51.15-.97.41-1.44,2.57-4,6.29-7.66,8.7-11.79,3.96-3.38,4.88-7.97,8.77-11.39.62-1.12.73-3.09,2.51-3.15,1.16-.87-1.78-2.89.7-2.53l1.35.94Z"/>
                <path class="cls-5" d="M318.38,15.89c.48.22.58.76.43,1.14-.52,1.41-1.99,1.8-3.15,2.19-2.62-.38-2.88-3.26-4.2-4.93,0-.26-.06-.58.26-.74,2.21.79,4.4,1.68,6.66,2.34Z"/>
                <path class="cls-5" d="M338.38,5.38c1.61,1.26,3.35,2.39,4.72,4.02.26,1.3-1.75,1.3-1.48,2.57.63,3.58-1.11,6.3-1.26,9.56-.48,2.36-.79,4.78-.95,7.24,0,.36.1,1.06.69.95.68-.28,1.35-.16,1.89.37.83,1.26,2.46,2.23,2.3,3.77-.57.58-1.53.2-2.14.69-.99,1.56-2.26,2.8-3.67,3.98-.28.36-.22.96-.11,1.31,2.67,2.33,5.47,4.66,8.76,5.76,3.75,1.26,7.59,2.18,11.22,3.8.05.05.22.2.16.35-3.97,2.54-9.43,1.37-14.06,2.22-2.67.2-5.14-.96-6.26-3.36-3.04-3.03-4.91-6.94-8.32-9.32.07-1.6-1.11-2.63-2.17-3.73-.36-.26-.78-.6-1.2-.15-1.25,2.17-.3,5.34-.79,7.67-.11,1.66-.9,3.33-.16,4.9,1.01.06,1.75-1,2.74-1.26,1.2-.39,2.15-1.77,3.58-1.57.46.89-.12,1.89-.43,2.73-1.69,4.71-6.88,7.77-10.91,10.05-1.42.12-2.22,2.49-3.84,1.38-.94-1.67-3.98-2.88-3.16-5.38.74-.63,1.96,0,2.74-.55,4.26-1.57,2.99-6.62,4.26-10.06.35-2.57,1.12-5.04.83-7.91-.68-2.86.35-5.93-.32-8.63-.05-3.79.9-7.6-.79-11.17-.4-1.58-1.2-3.36-.53-5.1l.53-.3c3.04,1.56,6.32-.15,8.95-1.53,2.76-.9,5.26-2.57,8.16-3.35l1.01.05ZM333.8,11.82l-4.87,2.51c-1.16.69-2.73.21-3.56,1.67-.38,1.17-.6,3.01.4,3.79,3.26-.89,6.5-2.03,9.01-4.52.25-.99.76-2.04.37-3.12-.29-.49-.88-.22-1.36-.33ZM332.56,22c-1.84.92-3.67,2.04-5.67,2.59-1.21.67-1.11,2.19-1.16,3.43.15.74.11,1.8,1.16,1.7l4.51-2.05c1.98-.81,1.56-3.15,2.2-4.83-.06-.47-.52-.95-1.03-.85ZM334.75,30.71c-1.94.64-3.41,2.36-5.36,3.04l-.14.99c.14.81.87,1.37,1.56,1.74,2.42,1.44,3.88-1.36,5.62-2.46.45-.73,1.69-1.29,1.32-2.36-.53-1.08-1.97-.75-3-.95Z"/>
                <path class="cls-5" d="M304.21,43.93c-.16,2.63-1.79,4.95-4.14,6.23-2.21.18-2.31-2.19-3.24-3.44-.11-1.4,1.66-.58,2.46-1.04,1.51-.68,2.88-1.85,4.61-2.06l.31.32Z"/>
              </g>
              <g>
                <path class="cls-5" d="M187.58,20.71c1.18,1.32,4.62.58,3.82,3.21l-2.37,3.57c-.32,4.13-2,7.65-2.26,11.79-.68,1.43-.87,3.95-2.88,3.82-1.37-.73-2.54.44-3.83.61-3.83.59-7.29,2.57-11.29,2.25-1.54-.48-3.25.26-4.87.09-.67-.85-.32-2.09-.64-3.09-1.86-5.26-2.08-11.14-3.72-16.52.12-.42.32-.85.73-1.12.85-.31,1.84-.05,2.67.1,5.03-1.58,9.72-4.04,14.96-5.19,2.96-2.67,6.62-.05,9.67.47ZM180.87,24.01c-5.12,2.68-10.5,4.46-15.44,7.35-.54.46-.81,1.23-.17,1.68,1.47.43,2.85-.29,4.32-.45,2.82-.96,5.59-1.91,8.45-2.79.68-.39,1.31.2,1.71.78.48,1.29-.14,2.51-.93,3.51-3.58,1.89-7.51,2.82-11.4,3.84-.56.18-1.1.56-1.29,1.19,0,.48-.13,1.15.42,1.51,2.11.49,4.46.13,6.48-.35,2.88-1.35,7.63-.68,8.47-4.72-.32-3.73,1.47-6.56.84-10.44.09-.86-.69-1.3-1.47-1.11Z"/>
                <g>
                  <path class="cls-5" d="M149.68,4.25c0,.88-.9,1.42-1.2,2.13-1.27,2.38-.11,5.1.56,7.3-.3,3.68.95,6.88,1.32,10.33-.3,3.15-.04,6.17.09,9.3.12,5.67-.25,11.65-.33,17.33-.54,2.04-.17,4.5-.61,6.6-1.6,3.07-5.86,1.89-8.8,2.27l-.18-.5c3.28-9.54,3.33-20.15,4.49-30.57.3-4.52.71-9.37.25-13.82.73-2.98-.15-5.86-1.82-8.13,1.19-1.1,2.76-1.26,4.04-2.24.57-.38,1.79-.95,2.19,0Z"/>
                  <path class="cls-5" d="M185.95,7.34c.48,1.42-.21,2.94-.31,4.4-2.42,3.04-5.77,5.11-9.45,5.72-3.16,2.94-7.81,3.1-11.96,2.51-2.14-.9-1.75-3.5-1.91-5.4,1.56-.89,3.43.76,4.9-.46,3.31-1.38,6.56-2.69,10.08-3.48,2.78-.97,4.68-4.7,7.94-4.09l.72.81Z"/>
                  <path class="cls-5" d="M160.22,13.36c.11.6.34,1.26.23,1.84-2.26,1.04-3.99,3.31-6.65,3.47-1.18-.32-2.82.07-3.6-.93-.42-1.7,1.89-1.99,2.27-3.47.77-1.61,2.61-2.34,3.09-4.08,2.35-1.19,2.93,2.14,4.66,3.18Z"/>
                  <path class="cls-5" d="M139.63,23.12c.97,3.02,1.08,7.09-.12,10.03-1.11,1.52-3.09,1.37-4.78,1.37-1.14-.1-2.27-.69-2.83-1.77-.05-2.27,1.58-3.9,2.43-5.84,1.41-1.58,2.3-3.48,3.71-4.94.83-.37,1.33.52,1.6,1.15Z"/>
                  <path class="cls-5" d="M193.67,47.38c3.51,0,2.25,3.98,3.57,5.93.04.84-.89.52-1.36.73-4.93-1.74-10.61-.53-15.75-.14-1.85.45-3.52,1.28-5.2,2.08-4.37,1.04-8.86,1.78-13.54,2.11-1.84-.53-3.87-.12-5.35.92-.42,0-.89-.35-1.01-.77-.36-1.81-.25-3.78-1.04-5.42-.21-.52.32-.84.62-1.09,1.01-.21,1.69.36,2.56.36,3.6-.22,7.11.1,10.14-1.46,2.62-.37,4.98-1.53,7.71-1.74,3.89-.54,7.26-3.2,11.66-1.99,2.07.88,4.67,0,6.98.48Z"/>
                </g>
              </g>
              <g class="cls-3">
                <g>
                  <path class="cls-5" d="M394.53,7.55c.87.6,2.21,1.27,2.52,2.47.68,1.78-1.58.88-2.2,1.54-3.21,1.96-4.04,6.59-7.98,7.46-1.51.57-3.41.57-5.09.42-.3-.14-.3-.46-.15-.71,3.14-3.15,6.29-7.04,8.54-10.92.48-.84-.11-2.27,1.11-2.64,1.48.06,2,1.8,3.25,2.38Z"/>
                  <path class="cls-5" d="M423.8,7.86c.05,2.43-1.36,4.57-3.52,5.62-2.34.64-4.39,2.11-6.54,3.21-2.47-.49-5.72,2.58-7.04-.82-.3-1.65-1.88-3.06-1.46-4.91,1.52-1.1,3.52.42,5.18-.45,3.78-1.45,7.66-3.06,11.72-3.83.73.16,1.71.16,1.66,1.17Z"/>
                  <path class="cls-5" d="M431.57,19.92c.29,1.01,1.11,2.01.74,3.04-3.29,1.8-8.13-.26-11.31,1.73-.59.4-.27,1.74-.12,2.65.5,1.3,2.76,3.4,2.98,5.66.62,1.38.41,3.69.45,5.43.85,3.11.02,6.47.76,10.3-.35,3.11.75,4.66.34,9.02l-.48.44c-4.82-.56-10.04.25-14.35-1.61-.47-.47-1.19-.73-1.34-1.41.98-.77,2.51-.73,3.71-1.29,1.94-.85,4.32-.8,5.38-3.39,1.35-2.75.24-6.54.87-9.63-.67-3.56.53-7.61-1.29-10.7-.63-1.07-1.39-2.81-2.14-2.93-2.2-.1-3.53,1.29-5.47,1.75-2.31.57-4.95.45-6.52,2.64-.78.23-1.57-.28-1.94-1-.68-1.58-.95-3.31-1.79-4.78.12-.57-.3-1.36.37-1.6,1.99.09,3.57.5,5.5,0,8.03-2.17,15.48-7.67,24.56-5.45l1.09,1.12Z"/>
                  <path class="cls-5" d="M396.59,23.07c.08.47-.16.89-.58,1.11-1.22.17-2.42-.42-3.32.48-1.63,1.98-1.74,4.6-1.36,7.2,1.71,2.84,2.33,6.38,2.04,9.84.73,3.86-.63,7.69-.96,11.59-.46.93-.71,2.54-1.98,2.92-1.48,1-5.38.73-5.75.47-.99-.52-.16-1.51-.16-1.97,2.78-4.44,3.36-9.73,3.78-15.15.31-1.67,1.01-3.54.54-5.26-1.05-.67-1.5,1.23-2.29,1.43-3.24,2.63-6.13,6.18-10.54,5.98-1.74-.17-3.78.12-5.2-.54l.11-.71c2.93-1.64,4.97-4.66,7.87-6.46,3.61-1.79,6.29-5.83,9.12-8.56,1.18-2.05,2.68-4,3.33-6.28.31-.58.98-.28,1.39,0l3.95,3.92Z"/>
                </g>
              </g>
            </g>
          </g>
        </g>
      </g>
    </g>
  </g>
</svg>