<?xml version="1.0" encoding="UTF-8"?>
<svg id="_圖層_2" data-name="圖層 2" xmlns="http://www.w3.org/2000/svg" viewBox="0 0 200.9 78.43">
  <defs>
    <style>
      .cls-1 {
        fill: #231815;
      }
    </style>
  </defs>
  <g id="_前景" data-name="前景">
    <g>
      <g>
        <path class="cls-1" d="M7.66.56h5.87l-2.81,10.5h3.6L17.14.56h5.87l-7.66,28.61h-5.87l3.16-11.78h-3.6l-3.16,11.78H0L7.66.56Z"/>
        <path class="cls-1" d="M29.35.56h7.39l-2.17,28.61h-6.25l.74-5.01h-4.67l-1.94,5.01h-6.25L29.35.56ZM31.5,6.41h-.06l-4.86,12.14h3.28l1.64-12.14Z"/>
        <path class="cls-1" d="M43.61.56h9.19c4.48,0,5.33,3.21,4.15,7.61-1.02,3.81-2.85,6.29-5.68,6.81l-.02.08c2.76.32,3,2.6,1.98,6.41l-.65,2.44c-.4,1.48-.91,3.41-.78,3.97.07.32.11.64.43.88l-.11.4h-6.25c-.16-1.52.57-4.25.89-5.45l.52-1.92c.87-3.25.59-4.09-.83-4.09h-1.55l-3.07,11.46h-5.87L43.61.56ZM46.24,12.66h1.17c1.67,0,2.83-1.36,3.37-3.41.62-2.32.17-3.33-1.6-3.33h-1.14l-1.8,6.73Z"/>
        <path class="cls-1" d="M61.54.56h8.87c4.2,0,5.39,2.84,4.24,7.13-.82,3.04-2.59,5.77-5.25,6.41l-.02.08c2.87.36,3.21,3.57,2.42,6.53-1.33,4.97-4.16,8.45-9.05,8.45h-8.87L61.54.56ZM61.19,23.8h1.64c1.07,0,2.41-1.2,3.03-3.53.59-2.2-.09-3.45-1.16-3.45h-1.64l-1.87,6.97ZM64.41,11.78h1.42c1.2,0,2.23-1.36,2.64-2.88.43-1.6.13-2.96-1.07-2.96h-1.42l-1.57,5.85Z"/>
        <path class="cls-1" d="M87.04,0c6,0,6.93,4.17,4.07,14.86-2.87,10.7-6.04,14.86-12.03,14.86s-6.93-4.17-4.07-14.86c2.87-10.7,6.04-14.86,12.03-14.86ZM80.43,24.68c1.8,0,2.55-2.08,4.62-9.82,2.07-7.73,2.44-9.82.64-9.82s-2.55,2.08-4.62,9.82c-2.07,7.73-2.44,9.82-.64,9.82Z"/>
        <path class="cls-1" d="M103.12.56l-5.53,20.63c-.74,2.76-.27,3.49.83,3.49s1.96-.72,2.7-3.49L106.65.56h5.87l-5.02,18.75c-2.15,8.01-5.51,10.42-10.43,10.42s-7-2.4-4.85-10.42L97.25.56h5.87Z"/>
        <path class="cls-1" d="M114.84.56h9.19c4.48,0,5.33,3.21,4.15,7.61-1.02,3.81-2.85,6.29-5.68,6.81l-.02.08c2.76.32,3,2.6,1.98,6.41l-.65,2.44c-.4,1.48-.91,3.41-.78,3.97.07.32.11.64.43.88l-.11.4h-6.25c-.16-1.52.57-4.25.89-5.45l.51-1.92c.87-3.25.59-4.09-.83-4.09h-1.55l-3.07,11.46h-5.87L114.84.56ZM117.47,12.66h1.17c1.67,0,2.83-1.36,3.37-3.41.62-2.32.17-3.33-1.6-3.33h-1.14l-1.8,6.73Z"/>
        <path class="cls-1" d="M147.46,9.25c.87-3.25.65-4.21-.48-4.21-1.8,0-2.55,2.08-4.62,9.82-2.07,7.73-2.44,9.82-.64,9.82,1.45,0,2.2-1.6,3.65-7.01h5.68l-.57,2.12c-2.15,8.01-6.35,9.94-10.11,9.94-6.6,0-6.92-4.21-4.07-14.86,2.93-10.94,5.94-14.86,12.03-14.86,5.3,0,6.35,3.53,4.87,9.05l-.48,1.8h-5.68l.43-1.6Z"/>
        <path class="cls-1" d="M158.16.56h5.87l-7.67,28.61h-5.87l7.66-28.61Z"/>
        <path class="cls-1" d="M168.81,6.89h-4.42l1.7-6.33h14.71l-1.7,6.33h-4.42l-5.97,22.28h-5.87l5.97-22.28Z"/>
        <path class="cls-1" d="M182.79,17.91l-1.1-17.35h6.44l-.46,9.98h.06l4.88-9.98h6.44l-10.39,17.35-3.02,11.26h-5.87l3.02-11.26Z"/>
      </g>
      <g>
        <path class="cls-1" d="M91.69,41.37c-.57-1.71-2.39-4.44-4.1-6.38l-4.67,4.33c.8,1.02,4.21,5.81,4.21,5.81.91-.34,4.56-3.76,4.56-3.76Z"/>
        <path class="cls-1" d="M87.02,52.07s-3.07-4.56-4.67-5.92l-4.44,4.33c.8.8,4.33,5.81,4.33,5.81l4.78-4.21Z"/>
        <path class="cls-1" d="M131.92,41.06c-.57-1.71-2.76-4.13-4.47-6.07l-4.67,4.33c.8,1.02,4.21,5.81,4.21,5.81.91-.34,4.92-4.07,4.92-4.07Z"/>
        <path class="cls-1" d="M121.95,55.7l4.78-4.21s-3.08-4.55-4.67-5.92l-4.44,4.33c.8.8,4.33,5.81,4.33,5.81Z"/>
        <path class="cls-1" d="M109.86,66.09l-2.35-.03c.51-.84,1.53-2.83,2.71-5.21h2.31l1.82-5.24h-1.59c1.84-3.86,3.52-7.47,3.86-8.37.74-1.91.44-2.5-1.03-2.5-1.38,0-16.29-.13-20.6-.14.46-.53.93-1.08,1.41-1.66h21.83c.66,0,1.99-5.29,1.99-5.29l-19.95-.03c.38-.6.75-1.2,1.1-1.82l-4.44-1.59s-1.14,3.99-10.02,12.3l2.51,3.76s1.18-1.02,2.89-2.76c-1.12,2.54-2.54,5.33-4.03,8.11h-3.07l-1.42,3.62-3.94-.66s-3.3,7.4-11.05,16.06l3.76,2.28s8.97-9.92,11.01-16.06h1.79c-3.52,6.14-6.68,11.11-6.68,11.11.59,0,4.27,1.18,4.27,1.18.38-.32.89-.94,1.47-1.77l6.33-.04-2.21,5.78s.15,1.47,6.77,1.32c4.08-.09,7.16-3.76,9.29-7.19l3.5-.02c.44-.59,1.77-5.13,1.77-5.13ZM104.42,62.09c-.64,1.12-1.43,2.52-2.21,3.89l-4.19-.06,2.23-1.67c-.3-1.03-1.09-2.38-1.76-3.42h6.63c-.24.44-.47.86-.69,1.25ZM108.83,50.03c1.47-.15,1.47.74.88,1.76-.27.48-1.02,1.99-1.92,3.81h-5.51l2.73-2.05c-.31-1.07-1.15-2.48-1.83-3.53,2.47.05,4.94.08,5.64.01ZM95.59,51.5c.59-1.18.88-1.62,1.77-1.62.29,0,1.5.03,3.02.07l-2.54,2c.28.7,1.2,2.41,1.87,3.64h-6.24c1.15-2.19,1.96-3.78,2.12-4.1ZM90.66,60.84h4.71l-2.31,1.82c.25.62,1,2.05,1.64,3.22l-6.81-.09c.92-1.6,1.87-3.3,2.78-4.95ZM99.12,71.36c-2.29,1.74-4.8.86-6.38-.06l6.43-.04c-.03.06-.05.09-.05.09Z"/>
        <path class="cls-1" d="M196.34,48.41l-4.56-.59c-1.13,2.58-2.2,5.88-4.75,9.65.62-2.81,1.93-7.74,3.28-12.36,2.49-.05,4.41-.09,4.41-.09l.9-2.32c.19.88.35,1.74.42,2.47l4.85-2.65s-1.03-6.45-1.91-8.07l-4.85,2.77s.34,1.06.74,2.49c-.79,0-1.79-.01-2.9-.02.92-2.86,1.73-5.02,2.16-5.56l-5.29.59s-.7,2.11-1.61,4.95c-4.87-.02-9.93-.02-10.74.06-1.62.15-1.47.29-6.18,13.53-1,2.81-2.24,5.37-3.57,7.67l-.41-1.49-2.06.72,3.84-10.72h2.64l1.76-5.15h-2.56l3.14-8.78-5.15-.04-2.99,8.82h-3.34l-1.62,5.15h3.21l-4.26,12.57-5.28,1.84.15,5.44,9.72-3.51c-4.07,5.49-7.95,8.52-7.95,8.52l3.53,2.94c3.56-2.81,6.46-6.05,8.82-9.35l-.14,1.85c5.88.73,7.21-.59,8.97-3.09,1.77-2.5,6.03-14.86,6.47-16.33.44-1.47.29-1.91-1.18-1.91h-5.02c.23-.81.38-1.37.46-1.62.59-1.77,1.03-1.47,1.62-1.47.25,0,3.14-.05,6.36-.12-.8,2.63-1.54,5.18-1.94,6.88-.68,2.89-1.55,7.48-2.03,11.74-3.15,2.91-7.4,5.99-13.27,9.15l2.21,4.27s4.99-2.29,10.74-7.11c.03.61.07,1.17.15,1.67.74,4.56,1.77,5.74,3.68,5.59,1.91-.15,5-3.68,7.65-11.77l-4.27-1.47s-1.62,5.29-2.21,5.74c-.32.24-.42-1.6-.26-4.22,4.17-4.41,8.14-10.13,10.41-17.26ZM176.78,53.56c.59,0,.73.29.44,1.32-.29,1.03-3.97,9.85-4.71,10-.35.07-1.36-.17-2.31-.43,2.39-3.95,4.05-7.79,5.19-10.89h1.38Z"/>
        <path class="cls-1" d="M129.86,68.42h13.68c1.18,0,1.47-1.03,1.47-1.03l1.72-5.65c.96,1.88,1.81,3.15,1.81,3.15l5.13-2.86c-2.79-4.12-3.83-7.2-4.14-9.35h5.78l1.77-5.15h-6.74l1.15-3.27,5.74.03,1.91-5.15h-5.86l1.45-4.12h-5.15l-1.35,4.12h-4.74l1.54-4.27h-5s-.61,1.82-1.47,4.27h-5.74l-1.18,5,5.13.03c-.42,1.16-.85,2.31-1.25,3.35h-7.11l-1.32,5.15h5.37c-1.35,1.32-4.69,3.94-7.36,5.98.02-.1.04-.2.05-.3l-4.1-.68s-4.04,8.58-11.78,17.23l3.76,2.28s6.47-7.37,9.97-13.49l1,1.33c.88-.39,1.97-1.12,3.15-2.05-1.41,3.96-2.94,8.32-3.45,10.14-1.03,3.68,1.62,4.41,3.38,4.41s11.18.15,15.15,0c3.97-.15,8.51-10.1,8.51-10.1l-4.41-.59c-.86,2.01-2.92,5.4-4.24,5.4s-10.15.15-11.77.15-1.18-1.77-1.18-1.77l.73-2.21ZM141.92,63.12h-10l.74-2.65h10l-.73,2.65ZM141.65,44.21l4.89.03-1.08,3.3h-5.01l1.2-3.32ZM144.17,52.68c-.02.93.08,1.89.28,2.84l-9.19-.14c1-1.04,1.87-1.97,2.54-2.7h6.38Z"/>
      </g>
    </g>
  </g>
</svg>