<?xml version="1.0" encoding="UTF-8"?>
<svg id="_圖層_2" data-name="圖層 2" xmlns="http://www.w3.org/2000/svg" viewBox="0 0 355.92 90.7">
  <defs>
    <style>
      .cls-1 {
        fill: #009ab2;
        fill-rule: evenodd;
      }
    </style>
  </defs>
  <g id="_圖層_1-2" data-name="圖層 1">
    <g>
      <g>
        <path class="cls-1" d="M18.26,24.19l.49-.49h3.16l.49.56v1.74l-.49.35h-3.09l-.56-.49v-1.67ZM13.9,20.85l2.25-1.53h8.36l2.25,1.53v7.64l-2.25,2.22h-8.36l-2.25-2.22v-7.64ZM.49,5.07h9.97V1.46l4.28.56s2.74.56,1.11,1.95l-.13,1.11h6.32V1.46l4.77.76s1.76.35.84,1.46c-.16.19-.42.44-.42.44l-.07.95h9.97v4.45h-10.04v2.5h-4.99v-2.5h-6.39v2.5h-4s1.76,1.18,1.76,1.18h24.36v4.31h-4v16.26s0,2.99-4.21,3.81c-.22.04-4.56,0-4.56,0l-2.18-4.64h4.49s1.61.28,1.68-1.81c.07-2.08,0-13.62,0-13.62h-15.87v-3.06s-1.66,2.43-2.6,3.82v19.81h-4.91v-13.97l-2.04,2.36-3.65-3.61s5.55-5.49,9.48-12.58l.98.88v-1.64H.49v-4.45Z"/>
        <path class="cls-1" d="M55.96,13.83v3.06h-6.11l-1.26-1.25v-1.81h7.37ZM61.23,13.83h6.95v2.02l-1.26,1.25h-5.69v-3.27ZM61.23,7.44h5.69l1.26.97v1.89h-6.95v-2.86ZM48.59,8.41l1.26-.97h6.11v2.86h-7.37v-1.89ZM43.46,5.03l2.46-2.5h24.86l2.74,2.5v14.53l-2.74,2.57h-9.55v2.64h13.62v4.66h-13.62v2.22h16.5v4.73h-37.56v-4.66h15.8v-2.29h-12.78v-4.66h12.78v-2.64h-10.04l-2.44-2.57-.02-14.53Z"/>
        <path class="cls-1" d="M98.02,25.51l1.4-1.18h8.36l1.47,1.18v5.77l-1.47,1.04h-8.36l-1.4-1.04v-5.77ZM91.07,3.61s11.94.28,20.57-2.85l4.07,4.38s-7.16,1.28-9.41,1.5v4.82h10.46v4.24h-10.46v4.1h5.48l2.18,2.57v12.51l-2.18,1.74h-16.22l-2.11-1.74v-12.51l2.11-2.57h5.76v-4.03h-11.16v-4.31h11.16v-4.07s-5.59.66-7.65.66l-2.6-4.45ZM88.68,20.92s-3.23,6.95-8.85,13.34c0,0,4.35,2.99,4.42,3.2.07.21,7.79-12.86,7.93-13.14.14-.28-3.51-3.41-3.51-3.41ZM87.07,19.6s-4.85-3.47-7.65-5.07l3.86-3.54s3.86,2.5,7.09,4.93l-3.3,3.68ZM88.54,8.62s-4.49-3.68-7.3-4.17l3.44-3.54s3.16,1.11,7.02,4.03l-3.16,3.68Z"/>
        <path class="cls-1" d="M122.27,2.93h14.97V0s4.17.15,4.17.15c0,0,2.31.16,1.33,1.31-.35.42-.63.35-.63.9s-.07.56-.07.56h12.57v3.96h-7.86l.91.56s.56.35.42.69c-.14.35-.36.63-.36.63h8.08v3.6h-8.43v4.03h-15.52v-3.86h-5.62v4.62h28.81v3.27h-28.81l-.16,5.98s-.26,2.71-.96,4.87c-.7,2.15-.95,2.78-1.38,3.68-.42.9-1.4,2.12-1.4,2.12l-3.81-2.67s1.88-2.57,2.47-4.54c.8-2.65.98-3.24,1.12-7.07.14-3.82.18-5.49.11-7.92-.07-2.43.03-11.94.03-11.94ZM126.24,7.02h5.63v1.81h-5.62v-1.81ZM135.44,6.87l.84.48s.7.51.28.92c-.42.42-.49.49-.49.49h7.3v-1.88h-7.93ZM135.8,12.51h7.51v.97h-7.51v-.97ZM130.11,21.55h19.87l2.46,2.36v6.6l-2.25,2.22s.63.42,2.67.83c2.04.42,3.23.56,3.23.56,0,0-2.85,2.43-3.37,3.96,0,0-1.12-.35-4.56-1.74-3.44-1.39-4.56-1.95-4.56-1.95l-.7-.42s-.28-.42.14-.76c.42-.35.35-.35.35-.35h-5.76l.56.69s.7.63,0,.83c-.7.21-1.76.76-2.81,1.11-1.05.35-4.28,1.95-4.77,2.02-.49.07-1.83.56-1.83.56,0,0-2.04-1.88-2.67-2.29-.63-.42-1.7-1.27-1.7-1.27,0,0,2.12-.26,2.97-.54.84-.28,2.01-.56,2.29-.69.28-.14.73-.42.73-.42l-2.6-2.29v-6.74s2.32-2.29,2.32-2.29ZM142.18,24.81h4.7l1.05.85h-5.75v-.85ZM137.97,24.81h-4.7l-.89.85h5.59v-.85ZM137.95,28.5v1.03h-4.55s-.98-1.04-.98-1.04h5.53ZM142.23,28.5v1.03h4.78s.98-1.04.98-1.04h-5.77Z"/>
        <path class="cls-1" d="M163.18,10.22V1.88l4,.49s1.4.42,1.12,1.11c-.28.69-.35.56-.35.56,0,0-.35.14-.35.83v5.35h4.77v3.96h-4.77v8.1l4.84-1.53v4.08s2.25-1.69,2.95-2.73c.7-1.04,1.08-1.29,1.26-2.02h-5.2v-3.89h24.15v3.82h-14.39l-.63,1.88h13.48s.06,8.83.06,8.83c0,0-.13,2.85-1.04,3.96-.91,1.11-2.11,2.15-4.07,2.15s-2.67.07-2.67.07c0,0-.35-1.25-.91-2.02-.56-.76-.91-1.34-.91-1.34,0,0-.65.38-1.35,1.14-.7.76-2.48,2.1-2.87,2.35,0,0-.76-.7-1.61-1.26-.84-.56-1.9-1.4-1.9-1.4,0,0,1.48-.65,3.38-2.39,1.9-1.74,2.73-2.94,3.25-3.64.61-.83,1.32-2.52,1.32-2.52h-1.26s-.77,2.03-1.83,3.28c-1.05,1.25-2.53,2.71-3.44,3.2-.91.49-2.04,1.46-2.74,1.74-.7.28-1.12.7-1.12.7,0,0-2.81-2.5-3.3-2.71-.49-.21,1.26-.7,2.6-1.6,1.33-.9,1.68-.97,3.23-2.22,1.04-.84,1.19-.76,1.83-1.74.31-.48.42-.63.42-.63h-1.48s-.93.9-2.05,1.74c-1.12.83-2.08,1.39-2.57,1.6-.49.21-.84.49-.84.49,0,0-1.76-1.74-2.46-2.08-.7-.35-.98-.56-.98-.56l2.81-1.66-8.78,3.12s-.42.07-.63.49c-.21.42-.98,1.41-1.28.9-.54-.9-.97-1.65-1.31-2.26-.64-1.17-1.27-2.38-1.27-2.38l4.92-1.55-.02-9.46h-4.27s0-4.04,0-4.04l4.28.02ZM189.07,25.79h.71v4.66s-.19,1.5-.83,1.75c-1.05.41-3.44.13-3.44.13,0,0,1.12-1.32,1.9-2.64.55-.94,1.12-1.88,1.32-2.71.18-.73.34-1.18.34-1.18ZM174.34,4.45l2.25-2.22h13.2s2.25,2.22,2.25,2.22v9.04l-2.25,1.88-13.2.02-2.24-1.9V4.45ZM178.65,6.53l.94-1.04h6.98l1.05,1.06-8.97-.02ZM178.34,10.3h9.82s-1.09,1.8-1.09,1.8h-7.72l-1-1.8Z"/>
      </g>
      <g>
        <path class="cls-1" d="M210.29,8.41h4.92l1.33,1.32v6.74l-1.33,1.25h-4.92v-9.31ZM201.17,1.72h16.99l7.3,4.33v13.62l-7.3,4.03h-8v11.95h-8.99V1.72Z"/>
        <path class="cls-1" d="M274.89,10.49l1.69,7.78h-3.51l1.83-7.78ZM269.2,1.72h11.24l9.33,33.93h-9.33l-1.9-8.47h-7.44l-1.9,8.47h-9.48l9.48-33.93Z"/>
        <path class="cls-1" d="M340.47,10.49l1.69,7.78h-3.51l1.83-7.78ZM334.78,1.72h11.24l9.33,33.93h-9.33l-1.9-8.47h-7.44l-1.9,8.47h-9.48l9.48-33.93Z"/>
        <polygon class="cls-1" points="233.18 1.72 242.31 1.72 242.31 27.73 254.25 27.73 254.25 35.65 233.18 35.65 233.18 1.72"/>
        <polygon class="cls-1" points="296.38 1.72 318.85 1.72 318.85 8.55 307.05 28.84 319.69 28.84 319.69 35.65 296.38 35.65 296.38 28.84 308.03 8.55 296.38 8.55 296.38 1.72"/>
      </g>
      <g>
        <path class="cls-1" d="M56.78,57.13l2.32-1.46h4.92l2.25,1.46v21.89l-2.25,1.39h-4.92l-2.32-1.39v-21.89ZM44,51.12l9.48-5.56,16.15-.04,9.48,5.56v33.91l-9.48,5.56h-16.15l-9.48-5.42v-34.02Z"/>
        <path class="cls-1" d="M248.18,57.27l2.32-1.46h4.92l2.25,1.46v21.89l-2.25,1.39h-4.92l-2.32-1.39v-21.89ZM235.4,51.26l9.48-5.56,16.15.04,9.48,5.48v33.91l-9.48,5.56h-16.15l-9.48-5.42v-34.02Z"/>
        <path class="cls-1" d="M290.69,57.13l2.32-1.46h4.91l2.25,1.46v21.89l-2.25,1.39h-4.91l-2.32-1.39v-21.89ZM277.91,51.12l9.48-5.56,16.15-.04,9.48,5.56v33.91l-9.48,5.56h-16.15l-9.48-5.42v-34.02Z"/>
        <path class="cls-1" d="M333.59,55.81h7.23l2.25,1.46v21.89l-2.25,1.39h-4.91l-2.32.02v-24.76ZM320.81,45.76l9.48-.06,16.15.04,9.48,5.48v33.91l-9.48,5.56h-25.63v-44.94Z"/>
        <polygon class="cls-1" points=".77 46.53 .77 90.7 14.31 90.7 14.31 74.16 22.96 74.16 22.96 90.7 36.44 90.7 36.44 46.53 22.96 46.53 22.96 63.18 14.17 63.18 14.17 46.53 .77 46.53"/>
        <polygon class="cls-1" points="86.43 46.53 99.21 46.53 99.21 80.41 114.1 80.41 114.1 90.7 86.43 90.7 86.43 46.53"/>
        <polygon class="cls-1" points="182.36 45.52 193.45 90.7 203.7 90.7 207.77 74.3 211.85 90.7 222.1 90.7 232.07 45.52 218.31 45.52 214.37 61.09 210.72 45.52 204.26 45.52 200.47 61.09 196.12 45.52 182.36 45.52"/>
        <polygon class="cls-1" points="139.94 45.52 153 73.18 153 90.7 167.6 90.7 167.6 73.18 179.68 45.52 165.36 45.52 160.3 61.09 154.68 45.52 139.94 45.52"/>
        <polygon class="cls-1" points="118.78 46.53 131.56 46.53 131.56 80.41 146.45 80.41 146.45 90.7 118.78 90.7 118.78 46.53"/>
      </g>
    </g>
  </g>
</svg>