<?xml version="1.0" encoding="UTF-8"?>
<svg id="_圖層_2" data-name="圖層 2" xmlns="http://www.w3.org/2000/svg" viewBox="0 0 139.58 33.73">
  <defs>
    <style>
      .cls-1 {
        fill: #ffd400;
      }

      .cls-2 {
        fill: #0a2963;
      }
    </style>
  </defs>
  <g id="Corp_Coated">
    <g>
      <g>
        <path class="cls-2" d="M13.74,33.73c7.24,0,13.74-7.44,13.74-16.87S20.98,0,13.74,0,0,7.44,0,16.87s6.51,16.87,13.74,16.87Z"/>
        <path class="cls-1" d="M13.56,3.61h.95s.15-.06.15-.22c-.02-.74.47-1.58.47-1.6,0-.38-.62-.5-1.09-.5s-1.11.11-1.11.5c0,.02.43.93.47,1.6.01.23.16.22.16.22Z"/>
        <rect class="cls-1" x="13.46" y="3.88" width="1.16" height="1.05"/>
        <path class="cls-1" d="M13.6,8.98c.14-.01.27-.03.49-.03.17,0,.31.01.46.01.03-2.09.05-3.74.05-3.74h-1.12s.06,1.6.11,3.76Z"/>
        <g>
          <path class="cls-1" d="M13.64,19.77c-.01.36-.06.53-.07.83.04,0,.13.03.29.04.16.01.16.02.28.02.04-.32.08-.53.11-.86.1-1.21.15-2.19.18-3.03.02-.72.05-2.58.09-4.67-.15,0-.28,0-.49.01-.1,0-.27,0-.37.02.03,1.73.05,3.37.02,4.67-.02.91,0,1.98-.03,2.98Z"/>
          <path class="cls-1" d="M13.53,23.79c-.1,0-.22-.06-.22-.04-.16,1.02-.34,1.83-.67,2.66-1.15,2.84-4.19,4.1-4.19,4.1l1.69,1.49c.31-.35,1.06-1.48,1.56-2.48.63-1.27,1.27-2.8,1.65-4.1.17-.59.33-1.2.41-1.63-.07,0-.13,0-.23,0Z"/>
        </g>
        <path class="cls-1" d="M23.63,15.98h-.98c-.52-.06-.57-.85-.57-.85v-1.02s-.09-3.51-.1-4.19c0-.47.34-.47.34-.91,0-.39-.27-.67-.66-.67-.41,0-.65.3-.65.64,0,.47.37.46.36.96-.01.71-.1,4.17-.1,4.17l.02,1s-.03.77-.54.87h-6.06s0,.85,0,.85h6.06c.5.09.54.87.54.87l-.02,1s.09,3.47.1,4.17c0,.5-.36.49-.36.96,0,.34.24.63.65.63.39,0,.66-.28.66-.67,0-.44-.34-.43-.34-.91,0-.68.1-4.19.1-4.19v-1.02s.05-.83.63-.83v-.02h.91c.17,0,.31-.1.31-.28v-.3c0-.17-.14-.27-.31-.27Z"/>
        <path class="cls-1" d="M9.39,16.39c0,.18.03.31.04.44h3.99s0-.85,0-.85h-3.99c-.02.14-.06.28-.05.41Z"/>
        <path class="cls-1" d="M6.16,18.7v-1.01s.02-.48.3-.69c0-.08-.05-.45-.04-.64.01-.17.03-.52.04-.59-.27-.19-.3-.66-.3-.66v-1s-.09-3.47-.1-4.17c0-.5.36-.49.36-.96,0-.34-.24-.63-.65-.64-.39,0-.67.28-.66.67,0,.44.34.43.34.91,0,.68-.1,4.19-.1,4.19v1.02s-.04.79-.57.85h-.98c-.17,0-.31.1-.31.28v.3c0,.17.14.27.31.27h.91v.02c.59,0,.63.83.63.83v1.02s.09,3.51.1,4.19c0,.47-.34.47-.34.91,0,.39.27.67.66.67.41,0,.65-.3.65-.63,0-.47-.37-.46-.36-.96.01-.71.1-4.17.1-4.17Z"/>
        <path class="cls-1" d="M4.61,17.09h-.58v.05c-.11.87-.43,1.49-.79,1.49-.46,0-.84-1-.84-2.23s.38-2.23.84-2.23c.36,0,.67.6.79,1.45v.1h.58v-.1c-.17-1.26-.71-2.19-1.35-2.19-.77,0-1.39,1.33-1.39,2.96s.62,2.96,1.39,2.96c.65,0,1.19-.95,1.34-2.23v-.05Z"/>
        <path class="cls-1" d="M22.81,17.09h.58v.05c.11.87.43,1.49.79,1.49.47,0,.84-1,.84-2.23s-.38-2.23-.84-2.23c-.36,0-.67.6-.79,1.45v.1h-.58v-.1c.17-1.26.71-2.19,1.35-2.19.77,0,1.39,1.33,1.39,2.96s-.62,2.96-1.39,2.96c-.65,0-1.19-.95-1.34-2.23v-.05Z"/>
        <g>
          <path class="cls-1" d="M8.59,16.4c.06,1.85.86,2.9,1.8,3.72,2.02,1.76,4.82,1.49,6.05,1.07.58-.2.69-.25,1.43-.64.83-.44,1.29-.69,1.88-.7.42,0,.58.1.66.45.06.25-.03.57-.24.94.02-.01.29-.27.57-.63.27-.35.3-.68.16-.89-.29-.45-1.04-.3-1.39-.28-.45.02-.73.15-1.05.31-1.08.51-1,.56-1.98.9-1.27.44-2.14.42-3.57.15-.9-.17-1.61-.61-2.12-1.03-.88-.72-1.64-1.71-1.67-3.38"/>
          <path class="cls-1" d="M6.67,16.38c0,1.63.66,2.9.66,2.9.36.67.8,1.69,2.57,2.91.99.68,2.02,1.04,3.2,1.21,1.28.19,2.16.12,3.4-.19.77-.19,1.91-.58,2.72-1.33.82-.75,1-1.17.95-1.43-.03-.17-.19-.36-.44-.37-.3-.02-.7.12-.88.22-.17.09-1.45.88-2.23,1.11-.69.21-1.08.29-2.22.33-1.21.05-2.81-.4-3.77-1.11-.86-.63-1.33-1.15-1.74-1.91-.24-.46-.5-.97-.57-2.33M8.53,20.14l-.45-.69.42-.27.45.69-.42.28ZM10.1,21.54l-.65-.5.31-.4.65.5-.31.4ZM12.02,22.43l-.77-.29.18-.47.77.29-.18.47ZM14.1,22.8l-.8-.08.04-.51.82.09-.06.5ZM15.39,22.72l-.07-.5.81-.12.07.5-.81.12ZM17.43,22.22l-.21-.46.75-.34.21.46-.75.35Z"/>
        </g>
        <g>
          <path class="cls-1" d="M8.59,16.4c.06-1.84.86-2.9,1.8-3.72,2.02-1.76,4.82-1.49,6.05-1.07.58.2.69.25,1.43.64.83.44,1.29.69,1.88.7.42,0,.58-.1.66-.45.06-.25-.03-.57-.24-.94.02.01.29.27.57.63.27.35.3.68.16.89-.29.45-1.04.3-1.39.28-.45-.03-.73-.15-1.05-.31-1.08-.51-1-.56-1.98-.9-1.27-.43-2.14-.42-3.57-.15-.9.17-1.61.61-2.12,1.03-.88.72-1.64,1.71-1.67,3.38"/>
          <path class="cls-1" d="M8.34,16.4c.07-1.36.32-1.87.57-2.33.4-.77.88-1.28,1.74-1.91.96-.71,2.56-1.16,3.77-1.11,1.14.04,1.53.13,2.22.33.78.23,2.06,1.02,2.23,1.11.17.09.58.24.88.22.25-.02.41-.2.44-.37.04-.26-.14-.68-.95-1.43-.82-.75-1.96-1.13-2.72-1.32-1.23-.31-2.12-.38-3.4-.19-1.18.18-2.22.53-3.2,1.21-1.78,1.22-2.22,2.24-2.57,2.91,0,0-.66,1.27-.66,2.9M8.95,12.94l-.45.69-.42-.28.45-.69.42.27ZM10.41,11.66l-.65.5-.31-.4.65-.5.31.4ZM12.2,10.84l-.77.29-.18-.47.77-.29.18.47ZM14.15,10.5l-.82.09-.04-.51.8-.08.06.5ZM16.21,10.2l-.07.5-.81-.12.07-.5.81.12ZM18.18,10.92l-.21.46-.75-.34.21-.46.75.34Z"/>
        </g>
      </g>
      <g>
        <g>
          <g>
            <path d="M38.34,18.3c.52,0,.41-.45.66-.45.08,0,.15.07.15.18,0,.18-.03.39-.16,2.02-.01.11-.03.18-.11.18-.16,0-.1-.09-.37-.89-.2-.62-.45-.73-.89-.73-.24,0-.28.05-.28.19v5.77c0,.34.07.55.46.57.43.02.46.05.46.17,0,.1-.06.15-.19.15-.19,0-.42-.05-1.15-.05-.92,0-1.3.05-1.46.05-.1,0-.17-.05-.17-.15,0-.11.07-.13.35-.17.52-.06.58-.14.58-.66v-5.62c0-.2-.08-.25-.3-.25-.43,0-.68.2-1.06.86-.33.62-.33.74-.43.74-.07,0-.1-.05-.1-.11,0-.11.04-.35.27-1.76.07-.42.07-.5.21-.5.22,0,.05.45.49.45h3.03Z"/>
            <path d="M42.61,21.58c0-.64-.3-.92-.71-.92-.44,0-.78.29-.98.85v3.16c0,.31.05.36.48.51.1.03.16.07.16.14,0,.06-.03.13-.14.13-.22,0-.52-.05-.99-.05-.36,0-.72.05-.9.05-.12,0-.18-.02-.18-.12,0-.09.09-.14.24-.17.31-.07.4-.15.4-.53v-5.91c0-.53-.2-.5-.4-.53-.12-.01-.21-.02-.21-.12s.08-.14.23-.17c.77-.16.95-.52,1.22-.52.07,0,.09.03.09.16v3.47h.02c.44-.57.86-.9,1.34-.9.7,0,1.25.37,1.25,1.43v3.25c0,.18.11.3.5.41.08.02.13.07.13.15,0,.08-.06.12-.15.12-.14,0-.4-.05-.98-.05-.27,0-.56.05-.83.05-.14,0-.2-.03-.2-.11,0-.1.04-.11.19-.16.34-.1.4-.16.4-.41v-3.2Z"/>
            <path d="M45.86,22.57c-.19,0-.24.03-.24.4,0,1.09.48,2.06,1.34,2.06,1.19,0,1.12-.91,1.36-.91.09,0,.12.05.12.14,0,.28-.53,1.34-1.81,1.34-1.15,0-2.07-.94-2.07-2.69,0-1.46.82-2.81,2.16-2.81,1.18,0,1.71,1.02,1.71,2.01,0,.39-.09.47-.34.47h-2.25ZM46.77,20.37c-.94,0-1.1,1.46-1.1,1.69,0,.18.1.24.48.24,1.07,0,1.38-.15,1.38-.81,0-.48-.19-1.13-.75-1.13Z"/>
            <path d="M54.87,21.39c.12,0,.18-.07.18-.18v-2.13c0-.4-.03-.45-.4-.5-.28-.03-.33-.09-.33-.17,0-.08.07-.15.18-.15.14,0,.4.05,1.11.05.76,0,.86-.05,1.06-.05.15,0,.18.05.18.13,0,.1-.08.14-.34.19-.28.06-.35.1-.35.35v5.73c0,.27.06.38.41.5.23.08.32.06.32.21,0,.09-.07.11-.22.11-.18,0-.3-.05-1.08-.05-.64,0-.97.05-1.15.05-.1,0-.15-.07-.15-.16,0-.11.03-.13.34-.16.26-.03.41-.18.41-.59v-2.66c0-.11-.06-.18-.18-.18h-1.96c-.12,0-.18.07-.18.18v2.74c0,.33.05.35.52.51.14.05.25.06.25.16,0,.12-.07.16-.22.16-.2,0-.51-.05-1.04-.05-.66,0-1.01.05-1.17.05-.14,0-.18-.02-.18-.13s.06-.13.27-.18c.38-.1.46-.18.46-.55v-5.64c0-.27-.08-.34-.23-.39-.2-.06-.44,0-.44-.15,0-.1.06-.16.2-.16.23,0,.48.05,1.13.05s.91-.04,1.14-.05c.08,0,.15.03.15.11,0,.16-.11.1-.52.2-.24.06-.31.21-.31.5v2.13c0,.12.06.18.18.18h1.96Z"/>
            <path d="M59,25.59c-1.26,0-2.18-1.28-2.18-2.75s.92-2.75,2.18-2.75,2.18,1.29,2.18,2.75-.92,2.75-2.18,2.75ZM60.14,22.84c0-1.05-.4-2.48-1.14-2.48s-1.14,1.42-1.14,2.48.4,2.48,1.14,2.48,1.14-1.42,1.14-2.48Z"/>
            <path d="M64.83,21.58c0-.66-.29-.92-.7-.92-.43,0-.78.3-.98.85v3.16c0,.35.14.44.38.51.23.07.26.1.26.16,0,.07-.04.11-.14.11-.22,0-.52-.05-.99-.05-.36,0-.72.05-.9.05-.12,0-.18-.02-.18-.12,0-.09.09-.14.24-.17.31-.07.4-.15.4-.53v-3.18c0-.34-.06-.37-.24-.43-.16-.05-.34,0-.34-.12,0-.16.23-.14.69-.39.65-.35.58-.48.73-.48.07,0,.09.05.09.18v.79h.02c.38-.46.68-.9,1.34-.9.7,0,1.25.39,1.25,1.43v3.25c0,.23.1.36.38.41.23.05.26.09.26.18,0,.05-.06.09-.15.09-.14,0-.4-.05-.98-.05-.27,0-.56.05-.83.05-.14,0-.2-.03-.2-.11,0-.1.03-.11.19-.16.34-.1.4-.16.4-.41v-3.2Z"/>
            <path d="M70.1,20.84c.15.34.25.69.25,1.04,0,.7-.44,1.87-2.02,1.87-.32,0-.66.23-.66.41,0,.87,3.14-.46,3.14,1.88,0,1.27-1.09,1.87-2.39,1.87-1.23,0-1.75-.63-1.75-1.33,0-.78.93-1.06.93-1.25,0-.14-.73-.68-.73-.92,0-.31,1-.7,1-.81,0-.09-1.02-.47-1.02-1.73,0-.99.72-1.78,1.73-1.78.35,0,.61.09.81.19.19.1.33.19.43.19h.91c.05,0,.08.03.08.18s-.02.18-.08.18h-.63ZM68.38,25.36c-.65,0-.99.57-.99,1.01,0,.78.57,1.27,1.33,1.27.83,0,1.35-.46,1.35-1.24,0-.87-.73-1.04-1.69-1.04ZM68.6,23.53c.43,0,.75-.57.75-1.58s-.32-1.58-.75-1.58-.75.57-.75,1.58.32,1.58.75,1.58Z"/>
            <path d="M74.82,24.71c0,.24.05.33.33.43.12.05.18.03.19.17,0,.1-.06.15-.16.15-.2,0-.39-.05-.93-.05-.68,0-.84.05-1.04.05-.11,0-.17-.05-.17-.16,0-.1.06-.14.18-.16.44-.07.49-.11.49-.72v-5.45c0-.29-.08-.39-.27-.41-.24-.02-.36-.08-.36-.15,0-.09.08-.16.23-.16.14,0,.26.05,1.01.05.62,0,.76-.05.93-.05.16,0,.19.02.19.11,0,.14-.02.19-.34.2-.22.02-.27.07-.27.3v2.46h.02c1.32-1.77,1.81-2.32,1.81-2.53,0-.12-.07-.19-.26-.22-.3-.03-.35-.05-.36-.15-.01-.1.08-.17.23-.17.25,0,.41.05.82.05s.65-.05.8-.05c.11,0,.16.03.16.15,0,.07-.04.1-.29.16-.47.09-.63.38-1.92,2.08,1.88,4.13,1.73,4.26,2.25,4.5.13.06.2.07.2.16,0,.14-.07.16-.22.16-.14,0-.25-.05-.89-.05s-.85.05-.94.05c-.11,0-.18-.05-.18-.17,0-.1.09-.15.19-.15.24,0,.32-.1.32-.26,0-.12-.09-.24-.82-1.87-.58-1.31-.59-1.41-.66-1.41-.03,0-.25.25-.25.34v2.77Z"/>
            <path d="M80.33,25.59c-1.26,0-2.18-1.28-2.18-2.75s.92-2.75,2.18-2.75,2.18,1.29,2.18,2.75-.92,2.75-2.18,2.75ZM81.47,22.84c0-1.05-.4-2.48-1.14-2.48s-1.14,1.42-1.14,2.48.4,2.48,1.14,2.48,1.14-1.42,1.14-2.48Z"/>
            <path d="M86.1,21.58c0-.66-.29-.92-.7-.92-.43,0-.79.3-.98.85v3.16c0,.35.14.44.38.51.23.07.26.1.26.16,0,.07-.03.11-.14.11-.22,0-.52-.05-.99-.05-.37,0-.72.05-.9.05-.13,0-.18-.02-.18-.12,0-.09.09-.14.24-.17.31-.07.4-.15.4-.53v-3.18c0-.34-.06-.37-.24-.43-.16-.05-.34,0-.34-.12,0-.16.23-.14.69-.39.65-.35.58-.48.73-.48.07,0,.09.05.09.18v.79h.02c.37-.46.68-.9,1.34-.9.7,0,1.25.39,1.25,1.43v3.25c0,.23.1.36.38.41.23.05.26.09.26.18,0,.05-.06.09-.15.09-.14,0-.4-.05-.98-.05-.27,0-.56.05-.83.05-.14,0-.21-.03-.21-.11,0-.1.04-.11.2-.16.34-.1.4-.16.4-.41v-3.2Z"/>
            <path d="M91.67,20.84c.15.34.25.69.25,1.04,0,.7-.44,1.87-2.02,1.87-.32,0-.66.23-.66.41,0,.87,3.14-.46,3.14,1.88,0,1.27-1.09,1.87-2.39,1.87-1.23,0-1.75-.63-1.75-1.33,0-.78.93-1.06.93-1.25,0-.14-.73-.68-.73-.92,0-.31,1-.7,1-.81,0-.09-1.02-.47-1.02-1.73,0-.99.72-1.78,1.73-1.78.35,0,.61.09.81.19.19.1.33.19.43.19h.91c.05,0,.08.03.08.18s-.02.18-.08.18h-.63ZM89.96,25.36c-.65,0-.99.57-.99,1.01,0,.78.57,1.27,1.33,1.27.83,0,1.35-.46,1.35-1.24,0-.87-.73-1.04-1.69-1.04ZM90.17,23.53c.43,0,.75-.57.75-1.58s-.32-1.58-.75-1.58-.75.57-.75,1.58.32,1.58.75,1.58Z"/>
          </g>
          <g>
            <path d="M96.76,24.68c0,1.04-1,2.98-2.35,2.98-.52,0-.74-.26-.74-.66,0-.3.22-.57.51-.57.63,0,.51.77.76.77.29,0,.7-.62.7-1.7v-6.22c0-.52-.11-.68-.52-.72-.38-.03-.44-.02-.44-.17,0-.09.03-.15.27-.15.35,0,.78.04,1.23.04.84,0,1.02-.04,1.21-.04.1,0,.22.03.22.15,0,.14-.09.14-.42.17-.25.02-.42.15-.42.5v5.62Z"/>
            <path d="M99.71,25.59c-1.26,0-2.18-1.29-2.18-2.75s.92-2.75,2.18-2.75,2.18,1.28,2.18,2.75-.92,2.75-2.18,2.75ZM100.84,22.84c0-1.06-.4-2.48-1.14-2.48s-1.14,1.42-1.14,2.48.4,2.48,1.14,2.48,1.14-1.42,1.14-2.48Z"/>
            <path d="M105.04,25.02c.98,0,1.04-.93,1.27-.93.07,0,.12.04.12.2,0,.34-.56,1.3-1.78,1.3s-2.14-1.14-2.14-2.84c0-1.5.95-2.66,2.37-2.66.4,0,.95.09,1.16.22.16.09.18.12.18.61,0,.78-.02.83-.25.83-.2,0-.28-.08-.44-.4-.41-.75-.47-.99-.77-.99-.54,0-1.19.77-1.19,2.12,0,1.44.64,2.55,1.48,2.55Z"/>
            <path d="M108.31,23.17v1.5c0,.31.1.39.47.51.12.05.21.05.21.14,0,.07-.06.14-.12.14-.34,0-.68-.04-1.02-.04-.32,0-.64.04-.95.04-.1,0-.14-.03-.14-.12s.05-.13.16-.15c.39-.07.46-.17.46-.45v-5.98c0-.6-.19-.59-.33-.61-.13-.01-.25-.04-.25-.16,0-.09.15-.11.25-.14.41-.09.68-.21.86-.3.15-.08.26-.17.31-.17.07,0,.09.03.09.16v5.02c0,.1.02.11.04.11.02,0,.11-.09.43-.41,1.26-1.26,1.39-1.32,1.39-1.54,0-.14-.13-.19-.43-.21-.15-.02-.27-.05-.27-.15,0-.06.07-.12.19-.12.35,0,.66.05.97.05.34,0,.85-.05.94-.05.12,0,.14.04.14.09,0,.13-.05.09-.36.18-.52.15-.57.3-1.77,1.5,1.76,2.86,1.69,3.09,2.12,3.18.15.04.2.07.2.14,0,.09-.07.14-.2.14-.32,0-.64-.04-.96-.04-.24,0-.48.04-.76.04-.13,0-.17-.05-.17-.14,0-.07.05-.1.18-.14.22-.06.24-.09.24-.24,0-.1-.2-.4-1.31-2.32l-.6.54Z"/>
            <path d="M113.15,22.57c-.19,0-.24.03-.24.4,0,1.09.48,2.06,1.34,2.06,1.19,0,1.13-.91,1.36-.91.09,0,.13.05.13.13,0,.29-.53,1.34-1.81,1.34-1.15,0-2.07-.94-2.07-2.7,0-1.47.82-2.81,2.16-2.81,1.18,0,1.72,1.02,1.72,2.01,0,.39-.09.47-.34.47h-2.25ZM114.06,20.36c-.94,0-1.1,1.47-1.1,1.7,0,.18.1.24.48.24,1.07,0,1.38-.15,1.38-.8,0-.48-.19-1.13-.75-1.13Z"/>
            <path d="M116.98,23c-.79-2.31-.78-2.46-.98-2.5-.1-.02-.17-.03-.17-.14,0-.08.04-.13.17-.13.11,0,.39.05.83.05s.77-.05.84-.05c.13,0,.18.04.18.12s-.06.11-.2.15c-.34.08-.43.12-.43.32,0,.09.03.25.46,1.52.5,1.5.45,1.61.57,1.61.1,0,.11-.15.17-.31l.75-2.42c.03-.13.08-.26.08-.34,0-.23-.15-.34-.44-.39-.16-.02-.2-.03-.2-.11,0-.11.06-.16.18-.16.14,0,.32.05.64.05.35,0,.52-.05.61-.05s.12.06.12.11c0,.08-.07.14-.16.16-.22.04-.35.32-.48.7l-1.97,6.27c-.09.29-.16.44-.59.44-.45,0-.51-.07-.51-.53s.03-.53.53-.53c.46,0,.52-.02.68-.61l.18-.66-.87-2.57Z"/>
            <path d="M124.89,25.27c.41,0,.83-.24,1.07-1.18.26-1.02.29-1.05.4-1.05.19,0,.21.03.21,1.28,0,.59-.03.75-.17.87-.16.15-.78.4-1.54.4-1.79,0-2.9-1.76-2.9-3.76,0-2.3,1.28-3.72,2.89-3.72.59,0,1.08.11,1.42.33.12.08.14.1.14.9,0,.84-.02.89-.22.89-.1,0-.18-.11-.41-.75-.33-.92-.6-1.05-.99-1.05-1.02,0-1.6,1-1.6,3.35s.82,3.49,1.69,3.49Z"/>
            <path d="M128.69,24.6c0,.42.18.49.49.58.24.07.33.05.33.17,0,.07-.05.1-.17.1-.32,0-.77-.04-1.16-.04-.33,0-.75.04-.98.04-.13,0-.24-.01-.24-.11,0-.07.06-.12.23-.16.5-.11.57-.2.57-.76v-5.8c0-.27-.14-.38-.33-.43-.18-.03-.3-.05-.3-.16,0-.13.13-.13.24-.16.98-.28,1.16-.5,1.23-.51.07,0,.09.03.09.16v7.08Z"/>
            <path d="M133.95,24.59c0,.24.14.28.33.33.15.02.28.04.28.11,0,.11-.09.09-.35.17-.22.07-.59.18-.81.33-.06.04-.11.06-.17.06-.09,0-.09-.11-.09-.23v-.46c0-.1-.04-.13-.09-.13-.11,0-.66.77-1.41.77s-1.24-.45-1.24-1.47v-3.2c0-.34-.24-.36-.43-.38-.12,0-.25-.03-.25-.15,0-.09.06-.15.17-.15h1.26c.15,0,.18.06.18.2v3.6c0,.66.27.95.78.95s.9-.41.9-.93v-3.15c0-.34-.24-.36-.43-.37-.13-.01-.25-.04-.25-.15,0-.09.06-.15.17-.15h1.26c.15,0,.18.06.18.2v4.16Z"/>
            <path d="M135.63,18.66c0-.25-.01-.43-.26-.48-.18-.03-.29-.07-.29-.16,0-.11.11-.13.24-.16.48-.12,1.17-.5,1.15-.52v.02c.07,0,.09.03.09.16v2.85c0,.11,0,.22.08.22.12,0,.48-.5,1.22-.5,1.05,0,1.73,1.11,1.73,2.73,0,1.39-.86,2.77-2.3,2.77-.73,0-.88-.37-1.18-.37-.28,0-.19.48-.48.48-.1,0-.12-.05-.12-.19,0-.19.12-.4.12-1.29v-5.57ZM136.56,24.52c0,.48.29.8.74.8.73,0,1.24-.77,1.24-2.35,0-1.19-.41-2.31-1.26-2.31-.44,0-.71.21-.71.67v3.19Z"/>
          </g>
        </g>
        <g>
          <path d="M40.66,11.01v1.05h-3.33v-1.05h3.33ZM40.91,10.37s-.08.02-.1.04l-.33.32h-2.96l-.84-.29c.59-.51,1.11-1.1,1.58-1.78h.25v.85l-.05,1.05c0,.05.02.08.07.08.01,0,.03,0,.04,0l.4-.08c.3-.05.44-.15.44-.27l-.02-.8v-.83h.3c.5,1.07,1.58,1.94,3.23,2.64.23-.31.65-.49,1.27-.54l.02-.15-.83-.17c-.39-.08-.94-.28-1.65-.61-.71-.33-1.25-.71-1.61-1.16h3.57c.07,0,.11-.02.11-.07,0-.06-.18-.2-.53-.43-.35-.23-.55-.35-.61-.35-.06,0-.1.01-.12.03l-.48.54h-2.68v-1.05l.51-.06,1.72-.25s.13.01.27.06c.14.05.25.07.33.07.05,0,.08-.03.08-.1,0-.05-.26-.38-.77-1.01-1.76.54-3.51.93-5.27,1.16l-1.84.24.03.17,1.97-.05,1.58-.09.51-.05v.95h-4.72l.26.38c.33-.06.6-.1.8-.1h2.23c-.59,1.03-1.73,2.11-3.44,3.26l.1.12c.81-.26,1.7-.73,2.67-1.41v2.87l-.04,1.08s.01.06.05.09c.03.03.07.04.1.04.01,0,.02,0,.03,0l.51-.16c.18-.05.27-.12.27-.19v-.51h3.33v.74c0,.06.03.09.08.09.01,0,.03,0,.04,0l.37-.1c.28-.06.42-.16.42-.27v-2.99s.04-.09.12-.17c.08-.07.12-.13.12-.15,0-.04-.02-.07-.05-.1l-.73-.48s-.08-.04-.12-.04ZM40.66,12.34v1.22h-3.33v-1.22h3.33Z"/>
          <path d="M53.21,8.04v1.28h-1.31v-1.28h1.31ZM56.3,8.04c.06,0,.09-.03.09-.08,0-.05-.16-.2-.47-.45-.31-.25-.49-.38-.54-.38-.05,0-.1.02-.13.05l-.47.58h-.7v-1.01s.06-.1.18-.18c.12-.08.19-.14.19-.18,0-.08-.42-.21-1.26-.39l.03.79v.97h-1.31v-1c0-.05.05-.12.14-.2.1-.08.15-.14.15-.16,0-.06-.05-.1-.13-.12l-1.03-.28-.03.02.03.67v1.07h-1.53s.05.1.1.19c.06.09.09.15.1.19.32-.06.54-.09.65-.09h.67v1.28h-1.71l.42-1.08-.22-.06-.47.9-.84,1.51-.46.76c-.09.15-.33.22-.72.2h-.45s0,.18,0,.18c.37.09.62.19.75.28.13.09.21.16.23.2.02.04.03.15.03.31,0,.27-.03.51-.08.74-.05.23-.08.36-.08.39,0,.22.1.41.28.55.19.15.39.22.61.22.24,0,.37-.11.37-.33,0-.11-.04-.35-.11-.73-.07-.38-.11-.69-.11-.92v-.11s.05.01.09.04c.03.02.06.04.08.04.04,0,.26-.12.66-.36.4-.23.83-.53,1.3-.9h.02s.01,2.3.01,2.3c0,.29.05.48.15.59.1.11.29.2.57.25.28.05.81.08,1.58.08.94,0,1.62-.04,2.04-.12.41-.08.76-.29,1.02-.63-.25-.13-.41-.26-.51-.38-.09-.13-.15-.53-.17-1.21h-.2c-.15.63-.27,1.04-.37,1.21-.1.17-.22.27-.36.31-.14.03-.57.05-1.3.05s-1.12-.02-1.29-.05c-.16-.04-.25-.12-.27-.26-.02-.13-.03-.51-.03-1.11h1.96v.25c0,.05.03.08.1.08.04,0,.19-.04.44-.12.25-.08.38-.14.37-.2l-.04-.56v-.43c0-.07.03-.1.08-.09.48.4.87.67,1.2.8.3-.3.67-.44,1.12-.44l.04-.14c-1.33-.32-2.34-.9-3.03-1.72h2.66c.06,0,.09-.03.09-.1,0-.04-.15-.18-.46-.42-.3-.24-.47-.36-.51-.36-.05,0-.09.01-.11.03l-.48.56h-.85v-1.28h2.22ZM53.64,10.36s-.07,0-.09.03l-.27.24h-1.68l-.28-.2c.26-.34.46-.62.59-.82h1.45c.07.22.22.49.46.82l-.02.02c-.05-.05-.1-.08-.15-.08ZM48.56,11.58c.07-.29.1-.46.11-.49l.56-1.49h1.66c-.51.96-1.31,1.85-2.41,2.67h-.02v-.06c0-.13.03-.34.1-.64ZM53.45,10.91v.99h-1.95v-.99h1.95ZM48.39,7.46c.19.3.31.47.37.52.05.05.11.08.16.08.11,0,.22-.09.34-.25.11-.17.17-.32.17-.45,0-.4-.69-.8-2.06-1.21l-.09.15c.55.48.93.87,1.12,1.16ZM47.53,9.74c.14.2.26.31.34.31.11,0,.21-.08.33-.22.11-.14.16-.28.16-.42,0-.42-.64-.8-1.94-1.14l-.09.17c.42.32.82.75,1.2,1.3Z"/>
          <path d="M64.73,8.13v.49h-1.53v-.49h1.53ZM65.69,13.21h-1.22s-.02.15-.02.15c.71.11,1.73.52,3.05,1.22.09.05.18.08.24.08.19,0,.29-.13.29-.39,0-.55-.66-.88-1.97-1.01v-.02l.4-.08c.11-.02.16-.08.15-.17l-.04-1.14v-1.05c.38.22.79.39,1.22.5.24-.25.67-.39,1.3-.41l.03-.11c-1.63-.21-2.76-.58-3.4-1.11h3.12s.04-.02.04-.05c0-.04-.03-.07-.08-.11-.05-.03-.2-.13-.43-.3-.23-.17-.38-.25-.45-.25-.02,0-.03,0-.05.02l-.52.4h-1.74v-.48h2.03s.05-.02.05-.05c0-.02-.12-.11-.36-.28-.24-.17-.39-.26-.45-.26-.03,0-.05,0-.07.02l-.39.29h-.81v-.49h2.05c.07-.03.1-.05.1-.08,0-.03-.13-.14-.39-.32-.26-.18-.43-.27-.49-.27-.03,0-.05,0-.05,0l-.42.37h-.79v-.15s.04-.07.14-.11c.09-.04.14-.08.14-.11,0-.05-.39-.16-1.16-.31l.02.44v.25h-1.53v-.15s.05-.05.15-.09c.1-.04.15-.08.15-.12,0-.08-.41-.19-1.21-.34.02.4.04.64.03.69h-1.56c.13-.13.2-.37.23-.72h6.74c-.04.12-.13.32-.27.58l.12.08c.05-.03.16-.1.32-.2.16-.1.29-.18.39-.21.1-.03.34-.06.69-.06.08-.02.11-.05.1-.11-.14-.12-.34-.26-.6-.41-.27-.15-.41-.22-.44-.22-.02,0-.04,0-.07.03l-.46.29h-2.97c.2-.14.29-.25.29-.36,0-.31-.55-.51-1.66-.6l-.1.11c.28.18.5.46.66.85h-2.76l-.05-.36h-.2c0,.41-.32.8-.97,1.16-.19.11-.29.21-.29.28s.05.14.15.2c.1.06.2.09.29.09.28,0,.54-.09.79-.28l.16.23c.3-.04.58-.06.85-.06h.61v.49h-1.65l.22.37c.3-.06.51-.08.62-.08h.8v.48h-2.94l.21.36c.29-.05.53-.08.75-.08h1.6c-.76.75-1.8,1.38-3.13,1.88l.09.12c.87-.19,1.63-.48,2.29-.84v1.44l-.08,1.07s.02.06.05.06c.08,0,.24-.03.5-.11.26-.07.39-.14.39-.21v-.16h.51c-.83.62-2,1.14-3.53,1.57l.1.13c.83-.09,1.7-.27,2.6-.55l1.35-.41s.08.01.14.03c.06.02.1.03.13.03.08,0,.11-.03.11-.1,0-.04,0-.07-.03-.08l-.72-.62h2.94v.27ZM64.73,8.91v.48h-1.53v-.48h1.53ZM63.06,9.67h2.17c.17.21.34.4.5.54l-.15.14h-3.4v-.02c.1-.04.39-.26.88-.66ZM62.09,11.07v-.45h3.6v.45h-3.6ZM62.09,11.82v-.46h3.6v.46h-3.6ZM62.09,12.65v-.55h3.6v.55h-3.6Z"/>
          <path d="M76.23,6.96v1.09h-2.14v-1.09h2.14ZM73.2,11.79s.18-.04.46-.12c.28-.08.42-.15.42-.22v-.28h5.91c-.07.84-.16,1.46-.27,1.88-.11.41-.27.62-.5.62-.37,0-.97-.04-1.8-.13l-.06.17c.58.13.96.25,1.13.37.17.12.29.31.36.59.56-.13.95-.26,1.16-.38.22-.12.38-.4.51-.83.12-.43.23-1.1.32-2.01.01-.08.08-.15.21-.22.13-.07.19-.12.19-.16,0-.08-.12-.18-.37-.32-.25-.13-.39-.21-.42-.23-.03-.02-.06-.03-.08-.03-.03,0-.05.01-.08.04l-.37.36h-2.75v-1.09h3.04c.07,0,.1-.03.1-.09,0-.03-.17-.17-.51-.4-.34-.23-.53-.34-.55-.34-.04,0-.06.01-.08.03l-.48.51h-1.53v-1.18h3.09s.04-.04.04-.08,0-.06-.02-.06l-.88-.64c-.06-.05-.1-.07-.13-.07-.03,0-.06,0-.07.03l-.47.54h-1.56v-1.09h3.72c.08,0,.12-.03.12-.09,0-.05-.18-.18-.52-.41-.35-.22-.54-.34-.58-.34-.03,0-.05,0-.06.01l-.52.53h-5.06l-1.14-.48.04.91v3.46l-.06,1.15c0,.05.03.08.1.08ZM76.23,8.34v1.18h-2.14v-1.18h2.14ZM76.23,9.8v1.09h-2.14v-1.09h2.14ZM78.5,13.11c.06.08.13.12.2.12.11,0,.21-.06.3-.18.09-.12.14-.26.14-.4,0-.19-.12-.38-.36-.56-.24-.18-.64-.4-1.2-.65l-.14.09c.36.31.71.84,1.06,1.59ZM76.48,13.36c.04.09.12.13.23.13.1,0,.21-.07.32-.2.11-.13.16-.27.16-.42,0-.29-.44-.71-1.33-1.29l-.16.09c.34.42.6.98.78,1.69ZM74.43,13.62c0,.15.09.23.26.23.16,0,.29-.08.41-.23.12-.15.18-.32.18-.5,0-.13-.09-.32-.28-.58-.18-.26-.42-.51-.7-.76l-.18.05c.2.39.3.99.3,1.8ZM72.21,13.32c-.34.23-.51.39-.51.49,0,.2.14.3.43.3.23,0,.45-.07.69-.2.23-.14.35-.52.35-1.16,0-.24-.02-.52-.06-.85h-.22c-.11.74-.33,1.21-.67,1.44Z"/>
          <path d="M86.63,10.84v-1.55h1.96v1.55h-1.96ZM91.2,14.65s.19-.06.44-.17c.25-.12.38-.2.38-.24l-.03-1.92c0-.08,0-.14,0-.18,0-.05.06-.1.16-.16.1-.05.15-.11.15-.17,0-.06-.16-.16-.49-.32l.3-.1c.2-.07.32-.15.39-.24l-.02-1.16c0-.28,0-.43.01-.47.01-.04.08-.09.2-.16.12-.06.19-.12.19-.15s-.14-.13-.41-.28c-.27-.15-.44-.22-.5-.22-.04,0-.07,0-.1.03l-.39.28h-4.67l-.64-.28c.35-.18.67-.34.96-.51h.07l.18.3.6-.1h2.72c.07,0,.11-.03.11-.08,0-.03-.14-.15-.44-.39-.29-.23-.46-.35-.51-.35-.04,0-.07.01-.1.04l-.47.49h-2.03c.29-.19.58-.39.89-.62l1.03-.77c.92.88,2.26,1.65,4.02,2.28.14-.27.49-.47,1.05-.61l.04-.14c-2.13-.39-3.77-.96-4.91-1.72.06-.03.13-.05.22-.07.09-.01.15-.03.19-.06,0-.02.01-.03.01-.05,0-.05-.12-.14-.38-.27-.25-.13-.48-.23-.69-.3-.4.53-.9,1.03-1.51,1.51-.61.48-1.11.83-1.51,1.06l-1.81,1.06.16.15,1.6-.64h.04c0,.18,0,.37,0,.57,0,.61-.02,1.26-.04,1.94.05.07.11.1.18.1.05,0,.17-.05.34-.14.04.19.06.35.06.49v1.75l-.04.96s.05.06.14.06c.04,0,.17-.05.4-.15.23-.1.36-.17.4-.21.03-.04.05-.13.05-.29h3.85v.51c0,.07.05.11.14.11ZM86.94,9.52c.19.2.37.53.54.96.06.15.14.22.24.22s.2-.06.3-.18c.09-.12.14-.23.14-.32,0-.26-.38-.53-1.13-.8-.05.04-.08.09-.09.12ZM90.04,10.84c.18-.14.35-.28.51-.41.16-.13.28-.24.37-.32.09-.08.14-.13.18-.14.03-.02.09-.03.17-.05.08-.02.12-.06.12-.12,0-.02,0-.03,0-.05-.5-.28-.79-.42-.87-.42h-.03c-.21.57-.47,1.07-.76,1.51h-.25v-1.55h2.13v1.55h-1.54ZM86.44,11.33c.09-.04.17-.11.24-.21h4.9v.25c-.08-.03-.14-.05-.19-.05-.04,0-.06,0-.06,0l-.33.34h-3.71l-.86-.34ZM91.06,11.96v.72h-3.86v-.72h3.86ZM91.06,12.96v.78h-3.86v-.78h3.86Z"/>
        </g>
      </g>
    </g>
  </g>
</svg>