<?xml version="1.0" encoding="UTF-8"?>
<svg id="_圖層_2" data-name="圖層 2" xmlns="http://www.w3.org/2000/svg" viewBox="0 0 142.05 32.11">
  <defs>
    <style>
      .cls-1 {
        fill: #fdd000;
        fill-rule: evenodd;
      }

      .cls-2 {
        fill: #231815;
      }
    </style>
  </defs>
  <g id="_e_" data-name="´e¥∫">
    <path class="cls-1" d="M14.95,6.73h-7.19v18.39h6.83v-7.06l6.92,7.06h7.81V6.73h-6.47v7.87l-7.91-7.87ZM0,0v17.55l14.56,14.56h8.3v-5.48l5.25,5.25h9.96V14.55L23.53,0h-8.97v5.98L8.61.03l-8.61-.03Z"/>
    <g>
      <path class="cls-2" d="M74.96,7.48h-6.39v6.45c0,.11-.12.22-.37.33-.25.11-.42.16-.52.16-.08,0-.12-.03-.12-.1l.04-1.9v-4.79l-.05-1.05,1.22.54h2.47v-1.39h-3.83c-.05,0-.29.04-.72.12l-.31-.48h4.85c0-.97-.01-1.69-.04-2.16.8.23,1.24.36,1.32.39.07.04.11.09.11.15,0,.06-.06.13-.17.21-.11.08-.17.14-.17.19v1.21h3.12l.58-.77s.04-.03.09-.03c.06,0,.27.16.63.48.36.32.54.51.54.57,0,.07-.04.11-.12.11h-4.83v1.39h2.51l.48-.59s.06-.05.11-.05c.05,0,.25.13.59.38.34.25.51.4.51.45,0,.05-.08.14-.25.26-.17.12-.26.2-.28.25v5.71c0,.17-.09.33-.27.47-.18.14-.57.3-1.17.48-.04-.58-.54-1.04-1.49-1.38l.05-.25c.71.15,1.22.23,1.54.23.1,0,.18-.03.25-.1.07-.07.11-.12.11-.15v-5.34ZM74.59,11.37h-2.52v.98l.04,1.24c0,.15-.14.27-.44.37l-.43.14s-.04.01-.06.01c-.05,0-.08-.04-.08-.12l.02-2.63h-1.21s-.14.02-.3.07c-.16.05-.28.08-.34.09l-.28-.52h2.14v-1.05h-1.46c-.06,0-.17.02-.32.05-.15.04-.25.06-.3.06l-.28-.48h3.14c.37-.71.64-1.4.8-2.07.5.23.81.38.93.46.12.07.18.15.18.22,0,.01,0,.02,0,.04-.03.02-.09.04-.19.08s-.24.16-.43.38-.48.52-.88.91h1.02l.45-.7s.04-.02.09-.02c.06,0,.24.15.54.45.3.3.45.47.45.52,0,.08-.03.12-.09.12h-2.69v1.05h1.15l.46-.62s.06-.05.11-.05c.07,0,.24.13.51.39.27.26.4.43.4.51,0,.02-.04.06-.12.12ZM69.77,7.84l.11-.17c.51.21.89.39,1.12.55.24.16.36.36.36.6,0,.21-.06.38-.18.49-.12.11-.24.17-.35.17s-.26-.22-.43-.67-.38-.77-.62-.97Z"/>
      <path class="cls-2" d="M86.16,7.24l.76.59s.03.04.03.06c0,.05-.07.14-.2.28-.13.14-.2.23-.21.27l-.06,1.01c-.11,1.78-.23,2.83-.38,3.15-.15.32-.51.61-1.07.88-.02-.05-.06-.16-.11-.33-.06-.17-.13-.31-.21-.42-.09-.11-.32-.23-.69-.36l.07-.22c.43.09.75.13.96.13.1,0,.17-.06.22-.17.05-.11.12-.65.22-1.63.1-.97.14-1.81.13-2.5h-.8c-.15,2.65-.95,4.62-2.39,5.91l-.19-.12c1.07-1.48,1.61-3.37,1.61-5.67l.02-1.03-.02-1.05h-.73c-.1,0-.29.03-.56.08l-.26-.45h3.76l.49-.56s.07-.05.12-.05c.07,0,.23.14.49.42.25.28.38.43.38.45,0,.07-.03.11-.08.11h-2.58l-.04,1.58h.77l.38-.38s.06-.04.1-.04c.04,0,.07.01.1.04ZM83.82,3.58l.09-.16c1.14.34,1.7.74,1.7,1.19,0,.23-.08.44-.24.63-.16.18-.3.28-.43.28-.17,0-.29-.16-.36-.49-.14-.64-.4-1.13-.77-1.45ZM87.96,11.47h-.04c-.52,1.27-1.24,2.26-2.18,2.98l-.15-.11c.86-1.07,1.4-2.08,1.61-3.03.21-.95.31-1.9.3-2.83h.07l1.18.5s.04.04.04.08c0,.06-.04.12-.13.18-.09.05-.15.1-.17.13-.02.04-.07.23-.14.58-.07.35-.15.69-.24,1.03.35.71.74,1.21,1.17,1.5h.02v-4.93h-1.01c-.13,0-.35.03-.65.09l-.25-.31h-.04l-.35.36-.18-.11c.94-1.68,1.49-3.11,1.65-4.27.21.06.47.15.78.29s.5.21.55.25c.05.03.08.07.08.11,0,.04-.09.1-.26.2-.18.1-.26.16-.26.18s-.19.38-.56,1.08h2.6l.49-.73s.08-.06.15-.06c.07,0,.27.16.6.47.33.32.5.5.5.56,0,.08-.03.12-.09.12h-4.46c-.18.3-.55.77-1.1,1.4h4.09l.36-.42s.06-.04.11-.04c.07,0,.28.16.61.47.33.31.5.49.5.54,0,.05-.02.08-.06.11-.25.02-.43.06-.55.11s-.34.22-.67.49c-.33.27-.54.47-.65.58l-.17-.11c.29-.65.47-1.11.54-1.38h-1.26v2.36h1.2c.27-.46.43-.69.48-.69.05,0,.23.14.54.43.31.29.47.46.47.52,0,.07-.02.11-.06.11h-2.63v2.52c.77.15,1.65.22,2.65.22.16,0,.32,0,.49,0v.23c-.6.06-1.02.36-1.27.9-1.33-.2-2.3-.48-2.92-.85-.62-.37-1.06-.97-1.31-1.8Z"/>
      <path class="cls-2" d="M98.66,11.14l-.3-.49h4.97v-.25l-.04-.64,1.32.33s.05.09.05.12c0,.05-.05.1-.16.16-.11.06-.17.11-.18.17v.12h2.95l.57-.69s.07-.04.13-.04c.05,0,.26.15.64.44.38.29.57.48.57.54,0,.07-.04.11-.11.11h-4.24c1.02,1.02,2.53,1.67,4.54,1.93l-.04.14c-.37.07-.65.16-.83.25-.18.1-.4.32-.65.68-.2-.02-.71-.33-1.55-.92-.84-.59-1.47-1.29-1.9-2.09h-.12v1.87l.05,1.08c0,.15-.09.27-.29.35l-.59.23s-.01,0-.03,0c-.1,0-.15-.03-.15-.1l.02-2.92h-.01c-1.31,1.2-2.94,2.04-4.89,2.52l-.12-.21c1.85-.79,3.2-1.72,4.05-2.79v-.04h-2.88l-.83.13ZM104.52,8.21v1.14h2.28l.5-.7s.06-.04.11-.04c.04,0,.2.11.48.33.28.22.51.42.68.58l.02.1s-.02.05-.08.08h-7.02c0,.18,0,.29,0,.33s-.14.11-.41.21c-.27.1-.43.15-.49.15-.04,0-.07-.02-.1-.06-.03-.04-.04-.06-.03-.07l.07-1.12v-2.81h-.06c-.59.64-1.25,1.2-1.97,1.68l-.18-.16c1.5-1.55,2.53-3.05,3.09-4.49.79.36,1.18.57,1.18.64,0,.03-.02.06-.05.1-.26.09-.43.2-.53.35-.09.15-.27.38-.54.69h2.67c-.16-.72-.41-1.27-.77-1.64l.12-.16c.68.16,1.12.32,1.33.47.21.15.31.33.31.54,0,.25-.18.51-.54.77v.02h1.96l.56-.7s.05-.04.11-.04c.07,0,.28.14.63.43.36.29.53.46.53.53,0,.09-.04.14-.12.14h-3.77v.96h1.74l.48-.6s.04-.03.08-.03c.06,0,.26.13.58.39.32.26.49.42.49.47,0,.05-.03.09-.09.13h-3.28v1h1.79l.47-.57s.07-.06.11-.06c.05,0,.25.13.6.4.35.27.53.43.53.49,0,.07-.04.11-.12.11h-3.37ZM101.48,6.49h2.11v-.96h-2.11v.96ZM101.48,7.84h2.11v-1h-2.11v1ZM101.48,9.34h2.11v-1.14h-2.11v1.14Z"/>
      <path class="cls-2" d="M124.27,4.88v6.73l.06,1.9c0,.18-.02.31-.06.38-.05.08-.19.15-.42.23l-.43.15s-.02,0-.04,0c-.05,0-.08-.05-.08-.15v-.78h-7.03c0,.32,0,.52-.01.59,0,.07-.16.17-.45.29l-.41.18s-.04,0-.09-.01c-.05-.02-.07-.05-.07-.09l.07-2.23v-7.55l-.07-.83h.08l1.1.49h6.8l.37-.39s.05-.04.09-.04c.06,0,.23.1.52.29.29.2.43.32.43.37,0,.04-.01.07-.04.11-.2.2-.3.31-.3.36ZM122.14,10.11l-.42-.47-4.39.63c-.04.07-.09.1-.15.1-.09,0-.23-.27-.45-.8l2.55-.09v-.84h-1.14v.23s-.02.07-.05.09l-.57.26s-.08.03-.11.03c-.09,0-.13-.03-.13-.09l.03-1.47c.01-.52-.01-1.1-.08-1.76.12.03.31.1.56.22.25.11.38.17.39.17h1.11v-.57h-1.67c-.2,0-.44.03-.72.09l-.23-.46h2.63c-.01-.47-.02-.72-.04-.74.68.11,1.05.18,1.13.21.08.03.12.08.12.15,0,.07-.06.12-.19.14-.09.07-.13.15-.13.24h1.44l.4-.59s.04-.05.08-.05c.08,0,.26.14.54.41.28.28.42.43.42.47,0,.07-.04.11-.11.11h-2.78v.57h1.3l.26-.33s.05-.05.08-.05c.04,0,.08.01.11.04l.7.44s.06.07.06.12c0,.05-.12.18-.36.36v.9l.02.88c0,.05-.08.12-.23.2-.16.08-.29.13-.4.13v.02c.56.16.84.4.84.74,0,.12-.04.23-.11.33.08,0,.24.11.47.33s.35.35.34.38h.04v-6.24h-7.03v8.45h4.27c-.08-.48-.39-.8-.94-.96.02-.09.02-.17.02-.22l.79.12c.08.01.14.02.18.02.15,0,.23-.04.23-.12v-.89h-2.27v.03c.62.31.94.62.94.93,0,.24-.13.46-.39.64-.12,0-.19-.02-.21-.07-.27-.71-.53-1.22-.79-1.53h-.7c-.09,0-.37.04-.81.13l-.25-.49h4.48l-.04-.76c.16.02.39.07.7.16.31.09.47.16.47.21,0,.04-.04.08-.11.13-.07.05-.12.08-.13.1v.16h.31l.32-.42c-.11,0-.18-.02-.21-.05ZM119.29,6.66h-1.14v.63h1.14v-.63ZM118.14,8.28h1.14v-.63h-1.14v.63ZM121.5,7.29v-.63h-1.32v.63h1.32ZM121.5,8.28v-.63h-1.32v.63h1.32ZM121.5,8.63h-1.32v.79l1.22-.06c-.09-.08-.27-.2-.54-.37l.05-.17.62.12s-.02-.13-.02-.32ZM123.3,10.94h-1.58v1.17c0,.27-.33.55-.98.87v.02h2.57v-2.06Z"/>
    </g>
    <g>
      <path class="cls-2" d="M49.58,18.87h1.94l4.37,5.96v-4.58c0-.49-.05-.79-.15-.91-.13-.16-.34-.25-.62-.25h-.25v-.22h2.49v.22h-.25c-.3,0-.52.1-.64.3-.08.12-.12.41-.12.86v6.7h-.19l-4.71-6.4v4.89c0,.49.05.79.14.91.13.16.34.25.62.25h.25v.22h-2.49v-.22h.25c.31,0,.52-.1.65-.3.08-.12.12-.41.12-.86v-5.53c-.21-.27-.36-.45-.47-.53-.11-.09-.26-.17-.47-.24-.1-.04-.26-.05-.46-.05v-.22Z"/>
      <path class="cls-2" d="M62.46,24.16h-2.77l-.49,1.25c-.12.31-.18.54-.18.69,0,.12.05.23.16.32.1.09.33.15.67.18v.22h-2.25v-.22c.3-.06.49-.13.58-.23.18-.19.38-.57.6-1.14l2.52-6.54h.18l2.49,6.61c.2.53.38.88.55,1.03.16.16.39.25.68.27v.22h-2.82v-.22c.28-.02.48-.07.58-.16.1-.09.15-.2.15-.33,0-.17-.07-.44-.21-.81l-.43-1.14ZM62.31,23.72l-1.21-3.21-1.24,3.21h2.46Z"/>
      <path class="cls-2" d="M69.74,26.82l-2.76-6.69v5.31c0,.49.05.79.14.91.13.16.34.25.62.25h.25v.22h-2.49v-.22h.25c.3,0,.52-.1.64-.3.08-.12.12-.41.12-.86v-5.19c0-.35-.04-.61-.11-.76-.05-.11-.14-.21-.27-.28-.13-.08-.34-.11-.64-.11v-.22h2.02l2.59,6.22,2.55-6.22h2.02v.22h-.25c-.31,0-.52.1-.65.3-.08.12-.12.41-.12.86v5.19c0,.49.05.79.15.91.13.16.34.25.62.25h.25v.22h-3.04v-.22h.25c.31,0,.52-.1.64-.3.08-.12.12-.41.12-.86v-5.31l-2.76,6.69h-.17Z"/>
      <path class="cls-2" d="M77.18,19.31v3.14h1.57c.41,0,.68-.07.82-.21.18-.18.28-.5.31-.95h.2v2.77h-.2c-.05-.39-.1-.63-.15-.74-.06-.14-.17-.24-.31-.32-.14-.08-.37-.12-.66-.12h-1.57v2.62c0,.35.01.57.04.64.03.08.08.14.15.18.07.05.2.07.4.07h1.21c.4,0,.7-.03.88-.09.18-.06.36-.19.53-.37.22-.24.44-.61.67-1.1h.21l-.62,1.99h-5.51v-.22h.25c.17,0,.33-.04.48-.13.11-.06.19-.16.23-.28.04-.12.06-.38.06-.77v-5.16c0-.5-.05-.81-.14-.93-.13-.16-.34-.23-.63-.23h-.25v-.22h5.51l.08,1.74h-.21c-.07-.42-.16-.7-.25-.86-.09-.16-.22-.28-.4-.36-.14-.06-.39-.09-.74-.09h-1.96Z"/>
      <path class="cls-2" d="M86.47,18.69v2.75h-.19c-.06-.53-.18-.95-.34-1.26-.16-.31-.4-.56-.7-.74-.3-.18-.62-.28-.94-.28-.37,0-.67.12-.91.37-.24.25-.36.53-.36.85,0,.24.08.46.23.66.22.29.74.68,1.56,1.17.67.4,1.12.7,1.37.92.24.21.43.46.56.75.13.29.2.59.2.91,0,.6-.21,1.12-.63,1.56-.42.44-.96.65-1.62.65-.21,0-.4-.02-.59-.05-.11-.02-.33-.09-.68-.21-.34-.12-.56-.18-.65-.18s-.16.03-.21.09c-.05.06-.09.18-.11.36h-.19v-2.72h.19c.09.57.21,1,.37,1.28.15.28.39.52.71.71.32.19.67.28,1.05.28.44,0,.79-.13,1.04-.39.25-.26.38-.56.38-.91,0-.2-.05-.39-.14-.59-.1-.2-.25-.38-.45-.56-.14-.12-.51-.37-1.12-.75-.61-.38-1.05-.68-1.31-.91s-.45-.48-.59-.75c-.13-.27-.2-.57-.2-.9,0-.57.2-1.06.59-1.47.39-.41.89-.62,1.5-.62.38,0,.78.1,1.21.31.2.1.34.15.42.15.09,0,.17-.03.22-.09.06-.06.1-.18.14-.37h.19Z"/>
      <path class="cls-2" d="M91.48,18.69c.93,0,1.73.39,2.41,1.17.68.78,1.02,1.76,1.02,2.93s-.34,2.21-1.03,3.01c-.69.8-1.52,1.2-2.49,1.2s-1.81-.39-2.48-1.17c-.67-.78-1-1.78-1-3.02s.39-2.29,1.16-3.09c.67-.69,1.47-1.04,2.41-1.04ZM91.38,19.12c-.64,0-1.15.26-1.54.79-.48.66-.72,1.62-.72,2.88s.25,2.29.75,2.99c.38.53.89.8,1.52.8.67,0,1.23-.29,1.66-.87.44-.58.66-1.5.66-2.75,0-1.36-.24-2.37-.72-3.04-.39-.53-.92-.8-1.6-.8Z"/>
      <path class="cls-2" d="M95.18,18.87h1.94l4.37,5.96v-4.58c0-.49-.05-.79-.15-.91-.13-.16-.34-.25-.62-.25h-.25v-.22h2.49v.22h-.25c-.3,0-.52.1-.64.3-.08.12-.12.41-.12.86v6.7h-.19l-4.71-6.4v4.89c0,.49.05.79.14.91.13.16.34.25.62.25h.25v.22h-2.49v-.22h.25c.31,0,.52-.1.65-.3.08-.12.12-.41.12-.86v-5.53c-.21-.27-.36-.45-.47-.53-.11-.09-.26-.17-.47-.24-.1-.04-.26-.05-.46-.05v-.22Z"/>
      <path class="cls-2" d="M112.45,18.69l.18,2.51h-.18c-.19-.62-.43-1.1-.72-1.41-.43-.46-.97-.69-1.64-.69-.91,0-1.6.4-2.08,1.2-.4.68-.6,1.48-.6,2.41,0,.76.13,1.45.4,2.07.26.62.61,1.08,1.04,1.37.43.29.87.44,1.32.44.26,0,.52-.04.76-.11s.48-.18.71-.33v-2.3c0-.4-.03-.66-.08-.78-.05-.12-.14-.22-.25-.28-.11-.06-.32-.1-.6-.1v-.22h2.77v.22h-.13c-.27,0-.46.1-.56.3-.07.14-.11.43-.11.86v2.43c-.4.24-.8.42-1.2.53-.39.11-.83.17-1.31.17-1.38,0-2.43-.49-3.15-1.48-.54-.74-.81-1.59-.81-2.55,0-.7.15-1.37.45-2.01.36-.76.85-1.35,1.48-1.76.52-.34,1.14-.51,1.86-.51.26,0,.5.02.71.07.21.05.51.15.9.31.2.08.33.12.4.12s.12-.03.17-.1c.05-.07.08-.2.09-.4h.2Z"/>
      <path class="cls-2" d="M120.92,26.82h-1.91l-2.42-3.71c-.18,0-.33.01-.44.01-.05,0-.09,0-.15,0-.05,0-.11,0-.16,0v2.31c0,.5.05.81.15.93.13.17.33.26.6.26h.28v.22h-3.06v-.22h.27c.3,0,.52-.11.65-.33.07-.12.11-.41.11-.86v-5.13c0-.5-.05-.81-.15-.93-.14-.17-.34-.26-.61-.26h-.27v-.22h2.6c.76,0,1.32.06,1.68.18.36.12.67.35.92.68.25.33.38.72.38,1.18,0,.49-.14.91-.43,1.27-.29.36-.73.61-1.33.76l1.48,2.28c.34.52.63.87.87,1.04.24.17.56.28.95.33v.22ZM115.84,22.73c.07,0,.12,0,.17,0,.05,0,.09,0,.12,0,.68,0,1.2-.16,1.54-.49.35-.33.52-.75.52-1.25s-.14-.9-.42-1.21c-.28-.31-.65-.47-1.11-.47-.2,0-.48.04-.83.11v3.3Z"/>
      <path class="cls-2" d="M124.78,18.69c.93,0,1.73.39,2.41,1.17.68.78,1.02,1.76,1.02,2.93s-.34,2.21-1.03,3.01c-.69.8-1.52,1.2-2.49,1.2s-1.81-.39-2.48-1.17c-.67-.78-1-1.78-1-3.02s.39-2.29,1.16-3.09c.67-.69,1.47-1.04,2.41-1.04ZM124.68,19.12c-.64,0-1.15.26-1.54.79-.48.66-.72,1.62-.72,2.88s.25,2.29.75,2.99c.38.53.89.8,1.52.8.67,0,1.23-.29,1.66-.87.44-.58.66-1.5.66-2.75,0-1.36-.24-2.37-.72-3.04-.39-.53-.92-.8-1.6-.8Z"/>
      <path class="cls-2" d="M133.78,19.09v-.22h2.53v.22h-.27c-.28,0-.5.13-.65.39-.07.12-.11.4-.11.84v3.22c0,.8-.07,1.41-.21,1.85-.14.44-.42.82-.84,1.13-.42.31-.98.47-1.7.47-.78,0-1.37-.15-1.78-.45-.4-.3-.69-.7-.86-1.21-.11-.35-.17-1-.17-1.96v-3.11c0-.49-.06-.81-.18-.96-.12-.15-.32-.23-.59-.23h-.27v-.22h3.09v.22h-.27c-.3,0-.51.1-.63.31-.09.14-.13.43-.13.88v3.46c0,.31.03.66.08,1.06.05.4.14.71.28.93.13.22.33.41.58.55.25.14.56.22.93.22.47,0,.89-.11,1.25-.34.37-.23.62-.52.76-.87.14-.35.2-.95.2-1.8v-3.22c0-.5-.05-.81-.15-.93-.14-.17-.34-.26-.61-.26h-.27Z"/>
      <path class="cls-2" d="M138.64,23.1v2.31c0,.5.05.81.15.93.13.17.34.26.61.26h.27v.22h-3.06v-.22h.27c.3,0,.52-.11.65-.33.07-.12.11-.41.11-.86v-5.13c0-.5-.05-.81-.14-.93-.14-.17-.34-.26-.61-.26h-.27v-.22h2.62c.64,0,1.14.07,1.51.22.37.15.68.39.93.74.25.35.38.76.38,1.24,0,.65-.19,1.18-.58,1.58-.38.41-.93.61-1.63.61-.17,0-.36-.01-.56-.04-.2-.03-.42-.07-.64-.12ZM138.64,22.76c.19.04.35.07.5.09.14.02.27.03.37.03.37,0,.68-.16.95-.47.27-.31.4-.72.4-1.22,0-.34-.06-.66-.19-.96-.13-.29-.31-.52-.54-.66-.23-.15-.5-.22-.79-.22-.18,0-.41.04-.69.11v3.3Z"/>
    </g>
  </g>
</svg>