<?xml version="1.0" encoding="UTF-8"?>
<svg id="_圖層_2" data-name="圖層 2" xmlns="http://www.w3.org/2000/svg" viewBox="0 0 729.66 249.29">
  <defs>
    <style>
      .cls-1 {
        fill: #e0801f;
      }
    </style>
  </defs>
  <g id="_圖層_1-2" data-name="圖層 1">
    <path class="cls-1" d="M619.63,197.43h-46.76v51.19h46.76v-51.19ZM521.48,197.63l-17.52,51.33h48.47l15.88-51.33h-46.82ZM121.41,167.12h-26.49v81.97h26.49v-81.97ZM35.76,167.12H9.27v81.97h26.49v-81.97ZM87.9,115.14h39.98v-26.23h-15.61l10.95-36.86h-44.09l-10.4,36.86h-7.25v-44.5h64.21v-26.03h-36.69V0h-50.38v18.39H0v26.03h17.83l-.03,44.41H0v26.31h42.44v17.25H0v26.31h42.44v90.34h45.46v-90.34h37.51v-26.31h-37.51v-17.25ZM196.75,249.22h35.6V114.29h-.01v-25.38h-55.45v-44.05h55.45v-26.49h-71.98v.03l-27.56.02v230.72h44.09V114.29h19.86v134.94ZM291.02,88.89L310.22.07h-45.46l-21.1,97.89h12.05v151.29h46V88.89h-10.68ZM355.65,43.92h26.63v38.43h-26.63v-38.43ZM355.65,187.34h43.27v-24.56h-43.27v-14.3h43.27v-23.7h-43.27v-17.33h42.99V18.57h-87.35v230.73h44.36v-61.95ZM404.39,107.45h79.96V18.57h-79.96v25.36h35.32v38.38h-35.32v25.15ZM449.55,249.19h36.6l-22.37-37.36c12.01-16.42,20.54-39.62,20.54-73.04v-14.13h-80.05v14.13h45.44c-.28,5.91-1.71,22.68-9.03,38.4l-8.37-14.41h-28.19l21.82,34.64c-8.87,7.72-21.01,12.76-37.72,12.02v39.84s26.05.47,51.05-14.96l10.29,14.87ZM685.57,142.78h-11.77v-42.41h11.77v42.41ZM685.57,92.62h-11.77V31.1h11.77v61.51ZM628.07,163.7h-8.5V56.54h8.5v107.16ZM573.29,163.7h-17.25v-37.05h17.25v37.05ZM573.29,118.18h-17.25v-18.38h17.25v18.38ZM573.29,92.47h-17.25v-35.92h17.25v35.92ZM729.66,248.73V.02h-101.59v29.66h-8.5V.02h-46.28v29.67h-17.25V0h-45.46v29.69h-10.68v26.86h10.68v107.16h-13.14v26.29h130.62v58.96l45.73-40.01v-58.41h11.77v72.83h-19.97l16.96,25.37h47.1Z"/>
  </g>
</svg>