<?xml version="1.0" encoding="UTF-8"?>
<svg id="_圖層_2" data-name="圖層 2" xmlns="http://www.w3.org/2000/svg" viewBox="0 0 192.21 100.34">
  <g id="Layer_1" data-name="Layer 1">
    <g>
      <path d="M103.97,28.41l-.22-.19-7.86,4.7c-.83-.48-1.71-.97-2.56-1.47-.95-.55-1.9-1.11-2.88-1.65l-.38-.2-.19.38c-.23.47-.49.9-.75,1.31l-.43.7,4.71,2.59c-.08.06-.15.11-.24.19-.29.2-.6.41-.9.61-.12.07-.22.19-.27.36-.06.35.23.7.75,1.32.16.19.39.45.45.57v.72l2.86-2c.44.3.91.53,1.33.77.39.19.76.38,1.05.57l.35.26.42-.63c.15-.25.19-.33.85-1.36l.16-.25-.22-.23c-.27-.32-.7-.56-1.1-.78,1.18-.74,2.4-1.48,3.62-2.2.93-.58,1.86-1.14,2.77-1.7l.36-.22-.23-.35c-.49-.78-.96-1.37-1.44-1.8Z"/>
      <path d="M60.31.05h-.39v69.27s72,.06,72,.06V0L60.31.05ZM95.21,19.64l3.06-7.62v1.34c.04,2.73.07,5.54-1.56,6.09l-1.5.18ZM95.96,9.11c-.56,1.54-1.12,3.13-1.79,4.67-.56-1.43-1.14-3.05-1.77-4.73-.62-1.71-1.26-3.45-1.89-5.1,1.41,0,5.04.04,7.42,0-.75,1.69-1.37,3.47-1.98,5.16ZM89.1,11.43l2.93,8.32h-.18c-1.18,0-2.11-.39-2.57-1.1-.43-1.53-.31-4.99-.19-7.22ZM71.52,27.29c-.54-.33-1.24-.7-1.95-1.11-2.32-1.25-5.47-2.94-5.91-4.75v-.11c-.12-1.4-.14-2.48-.05-3.26,2.1,1.35,4.25,2.57,6.37,3.73,2.88,1.62,5.86,3.29,8.57,5.25,1.72,1.74,2.83,3.6,2.93,7.37.05.68.05,1.07.05,1.33-.77-.85-2.11-1.48-2.93-1.48-.09,0-.16.02-.18.02-4.3.04-6.07,2.99-7.82,5.87-.93,1.53-1.9,3.13-3.26,4.31-.75.23-1.79.43-2.2.11-1.17-.96-1.24-2.79-.67-3.9,1.41-2.29,3.17-3,5.05-3.74.56-.23,1.15-.47,1.75-.74l.23-.11v-1.22l-7.99-.07v-7.41c2.78.09,7.71.65,7.77.65l1.77.2-1.51-.94ZM86.23,18.24c-1.01-.48-1.63-1.44-2.28-2.41-.38-.61-.77-1.22-1.23-1.71l-6.37-8.98c-.06-.94.59-1.32,1.02-1.43.41.01,1.02-.05,1.72-.1.84-.09,1.77-.19,2.74-.19,2.29,0,3.74.58,4.36,1.77.31,4.5.32,8.79.03,13.05ZM81.02,65.45l-2.68-.04c.57-.49.79-1.05.58-1.66l-.12-.35-.37.09c-.23.07-.49.15-.77.25-.63.22-1.41.49-2.01.49-.42,0-.66-.13-.78-.44.23-.18.45-.36.65-.53.33-.3.65-.56,1.01-.79l.45-.5c2.92-3.3,6.55-7.45,6.39-11.79v-.55c.41-.04.84.11,1.06.33.1.11.14.22.14.35-1.35,3.97-2.68,7.93-3.98,11.91l-.04.11c-.02.98-.08,2.15.46,3.12ZM79.19,48.29c.26,0,.5.04.72.11l.56.81c.24,3.79-5.62,9.13-8.01,11.22-1.47-1.73-3.16-2.61-5.01-2.61-.31,0-.6.01-.91.06.6-.77,1.26-1.51,1.93-2.24.6-.67,1.23-1.38,1.77-2.09,1.55-1.32,6.13-5.26,8.93-5.26ZM65.74,59.05s.01.03.01.05c.23.38.68.4,1.12.42.26.01.67.03.75.16l.07.09.1.05c.77.4.92,1.06,1.09,1.79.09.34.17.7.32,1.03-.16.11-.32.21-.47.3-.98.62-1.98,1.26-2.98,1.26-.42,0-.8-.11-1.2-.32-.34-1.75.23-3.33,1.18-4.82ZM80.21,22.26h-.61c-2.67-1.47-5.27-3.1-7.8-4.68-2.58-1.62-5.27-3.29-8.01-4.81-.02-.07-.02-.14-.03-.22,0-.12,0-.22-.02-.36.04-1.04.04-1.66.04-2.03q0-.51.08-.64c.39-.48.96-.72,1.74-.72,2.4,0,5.68,2.33,5.71,2.35l.51-.6-7.11-7.14c4.98.04,10.2,4.92,15.55,14.46.33.58.47.83.58.93.32.93.04,2.55-.62,3.46ZM69.44,47.92c2.81-1,4.22-3.29,5.58-5.53,1.19-1.89,2.27-3.66,4.18-4.75.59-.07.94.31,1.27,1.33-.08,1.58-1.52,2.72-2.92,3.81-.72.56-1.41,1.09-1.89,1.68l-.65.79,1.44-.2c1.67-.21,3.38-.63,4.7-1.13.04.5.09,1.14.04,1.82-.7-.11-1.39-.16-2.08-.16-5.7,0-11.69,3.74-15.6,9.62v-8.17c1.64,1.08,3.76,1.44,5.94.89ZM85.88,59.08c.09-.27.19-.56.28-.83.22-.6.39-1.25.59-1.89.76-2.69,1.57-5.44,4.13-6.63.37.04.81.02,1.25,0,.24-.02.48-.04.71-.04.92,0,1.22.21,1.34.52-.88,4.3-2.03,7.89-3.92,12.37-.46.75-1.55,2.07-3.1,1.78h-.09s-.08,0-.08,0c-.83.17-1.56-.55-1.73-1.19-.25-1.58.18-2.8.64-4.1ZM96.23,53.65c.37-1.24.75-2.54.93-2.83l.1-.09c.55-.63,1.03-.72,1.69-.87l-2.75,14.14c-.43.89-.78,1.05-1.65,1.4h-.99c-.38.03-.84.01-1.36-.03-.28-.02-.58-.04-.9-.06,2.34-2.91,3.94-8.31,4.93-11.66ZM84.34,23.1c3,0,20.26-.06,23.14-.06v23.41h-23.04l-.1-23.36ZM100.16,58.4l.62-3.21,2.16,3.18-2.78.03ZM106.47,52.41l8.58,11.65c.23.45.17.96-.13,1.3-.17.1-.35.16-.55.16-.68,0-1.46-.53-2.1-.96l-.13-.09c-2.41-2.79-4.3-5.9-6.14-8.9-1.14-1.89-2.32-3.83-3.64-5.69,1.75.34,3.35.97,4.11,2.53ZM99.66,61.44l5.13-.02c.2.27.39.51.6.77.81,1,1.55,1.94,1.48,2.98-.4.13-.77.18-1.28.18-.27,0-.53-.02-.82-.04-.7-.03-1.5-.05-2.2.06-.37-.11-.89-.07-1.41-.02-.27.03-.51.06-.77.06-.69,0-1.1-.21-1.42-.71l.68-3.26ZM128.38,5.38c-.03.95-.02,2.44-.02,4.05.02,2.22.02,4.65,0,6.03-.89-.72-1.98-1.07-3.25-1.07-.12,0-.24,0-.35.01-2.24,0-4.45,1.62-5.24,3.76-.55.95-1.08,2.17-1.65,3.48-1.03,2.38-2.2,5.09-3.34,5.36-.66.03-2.32,0-2.68-1.03-.84-2.56,1.15-4.11,3.3-5.74.8-.61,1.55-1.18,2.15-1.81l.15-.19-.05-.21s0-.11,0-.17c.03-.24.08-.77-.47-.99l-.2-.09-.19.1c-2.32,1.4-5.16,2.83-8.64,3.04.62-1.2,1.31-2.41,2-3.56.54-.94,1.11-1.92,1.61-2.89.29-.04,1.49.01,2.21.29.06.68-.13,1.14-.34,1.75-.19.51-.39,1.08-.54,1.89l-.23,1.32.92-.98c3-3.16,5.92-6.88,8.13-9.77l.14-.19-.09-.21c-.14-.34-.42-.37-.5-.37-.22,0-.39.14-.53.27-.03.03-.08.08-.11.09l-.11-.02-.15.11c-2.16,1.62-4.4,3.27-7.33,3.05l3.98-6.77,7.22.12c.45.29.26.85-.63,2.59-.49,1-1.12,2.25-1.64,3.81l-.5,1.5,6.97-6.61ZM118.57,57.46c3.05.45,6.09,1.79,9.52,4.23v4.03c-.53.04-.98.04-1.42.04-3.29,0-5.44-.79-6.93-2.57l-3.37-4.19c.47-.65,1.27-1.22,2.2-1.54ZM114.6,49.01c1.04.46,1.81,1.19,2.25,2.26.63,1,.75,1.82.43,2.45l-2.7,2.72c-.75-.97-1.6-2.01-2.42-3.05-.72-.89-1.43-1.78-2.09-2.62.45-.26.86-.56,1.27-.83.81-.58,1.53-1.08,2.38-1.08.29,0,.61.06.89.14ZM120.75,54.38c-.17,0-.33.03-.51.03.58-.97.75-2.08.89-3.18v-.15s.01-.07.01-.07c-.36-2.34-2.02-4.48-4.04-5.19-.65-.22-1.26-.33-1.86-.33-1.35,0-2.38.55-3.42,1.03-.31.15-.61.31-.91.43v-.42c0-1.28.07-2.09,1-2.37,2.89.17,5.44,1.37,7.91,2.51,1.25.57,2.53,1.17,3.85,1.63.42.25.84.47,1.24.68,1.15.6,2.18,1.1,2.97,2.4l.19,4.65c-.24.04-.48.08-.72.08-1.08,0-2.07-.42-3.14-.84-1.08-.43-2.2-.91-3.47-.91ZM122.97,40.87h.11s.08-.08.08-.08c.17-.11.42-.15.83-.15.15,0,.3,0,.46.02h.49c.4,0,1.33,0,1.71-.92l.2-.48-.51-.08c-1.17-.16-2.38-.4-3.54-.65-2.49-.49-5.08-.99-7.62-.89l-.73.03.4.6c.45.63,1.13,1.06,1.79,1.47.87.53,1.64,1.01,1.87,1.85-1.84-.79-3.73-1.44-5.58-2.11-.58-.2-1.14-.4-1.7-.6.18-.38.62-.78,1.26-1.14.51-.18.99-.39,1.45-.58.74-.29,1.42-.61,2.11-.73l2.36-1.03-1.66-.1c-.27-.03-.71,0-1.25.02-.52.02-1.11.06-1.71.06-2.17,0-2.68-.35-2.81-.54.03-.84,0-2-.03-3.22-.03-.96-.06-1.94-.04-2.82.61.58,1.4.93,2.17,1.21l.1.02c.32,0,.62.04.88.06,1.14.13,2.07.07,3.27-.51,3.45-1.35,4.43-4.18,5.36-6.94.64-1.9,1.28-3.68,2.65-5.02h.4c.93,0,1.52.27,1.94.92.44.97,0,2.24-.17,2.69-.65,1.03-1.6,1.76-2.53,2.49-.65.51-1.34,1.04-1.9,1.68l-.25.28.69.64,4.77-1.46v10.12c-.68.04-1.38,0-2.06,0-.49,0-.97,0-1.47,0-.9,0-2.08,0-3.21.22l-1.01.18.88.55c.76.5,1.64.83,2.49,1.15,1.66.6,3.22,1.19,4,2.87.51,1.18.46,2.6.4,4.06-.03.51-.04,1.06-.03,1.57-2.36-.97-4.7-1.95-7.05-2.91.47-1.19,1.01-1.77,1.72-1.8ZM102.54,5.29c-.03-.54.64-1.19,1-1.34h7.05c.54.56.89,1.47.53,2.23-1.21,1.7-2.18,3.54-3.13,5.33-1.33,2.53-2.73,5.13-4.72,7.34-.53-.07-1.18-.38-1.18-.92.03-1.44.01-2.86,0-4.2-.06-2.85-.1-5.54.45-8.35v-.09Z"/>
      <path d="M15.4,33.22c-.19,0-.35,0-.94,1.81v-1.66c.06-.04.17-.17.49-.4.29-.19.29-.52.29-.66,0-.35-.26-.77-2.04-1.35h3.12c.21,0,.46-.13.46-.75,0-.18-.09-.55-.77-1.81-.76-1.43-1-1.54-1.23-1.54-.2,0-.44,0-1.37,2.67h-1.13v-4.86h3.34c.42,0,.42-.48.42-.72,0-.32-.39-1.1-.72-1.7-.68-1.25-.9-1.47-1.16-1.47-.23,0-.34,0-1.38,2.53h-.49v-2.71c.07-.05.2-.17.47-.39.26-.18.42-.42.42-.72,0-.59-.84-1.09-2.89-1.73l-.41-.12.03.42c.09.98.12,2.35.12,4.24v.94h-.21c-1.15,0-1.98-.12-2.5-.34.04-.14.08-.23.08-.35,0-.32-.24-.8-.79-1.61-.74-1.13-.95-1.22-1.14-1.22s-.4,0-1.23,1.78h-1.36c-.66-.58-1.29-1.05-1.88-1.4l-.49-.27.05.54c.12,1.43.19,3.19.19,5.18v11.84c0,2.12-.03,4.65-.11,7.49,0,.87.59.94.77.94,1.35,0,1.56-.86,1.56-1.37v-2.25h1.4v1.74c0,.83.5.92.7.92,1.03,0,1.58-.52,1.58-1.5-.07-3.04-.09-4.86-.09-5.46v-1.92l.28,1.42.32-.15c.41-.18,1.17-.28,2.22-.28h2.83v7.94c0,.4-.06.51-.06.51h-1.05c-.41,0-.77-.08-1.16-.13l-.35-.04-.02,1.04.16.11c1.17.6,1.8,1.52,1.9,2.73.03.21.1.74.58.74.37,0,.8-.32,1.4-1,.57-.68.83-1.79.83-3.4v-8.46h2.12c.42,0,.42-.48.42-.7,0-.34-.41-1.24-.56-1.64-.53-1.23-.76-1.46-1.04-1.46ZM4.34,22.92v7.94h-1.38v-7.94h1.38ZM4.34,32.27v8.5h-1.38v-8.5h1.38ZM6.56,23.98s.02-.1.28-.37c.03-.04.06-.07.08-.13l.33,1.54.31-.12c.43-.18,1.14-.28,2.08-.28h.37v4.88h-.38c-1.11,0-2.05-.15-2.76-.43l-.32-.13v-4.96ZM6.56,29.7l.34,1.64.34-.16c.3-.13.94-.22,1.88-.22h2.96l.02.09c.08.78.12,2.08.12,4.08v.42h-2.74c-1.05,0-1.91-.16-2.63-.49l-.28-.12v-5.24Z"/>
      <path d="M10.06,44.52c.85,0,1.26-.79,1.26-2.34,0-2.17-.94-3.73-2.8-4.63l-.26-.12-.36.75.06.11c.57,1.08.92,2.46,1.09,4.09.12,1.12.33,2.14,1,2.14Z"/>
      <path d="M38.92,21.16l.1.11c.58.67,1.05,1.72,1.43,3.11.27,1.1.62,1.65,1.09,1.65.49,0,1.05-.36,1.05-1.94,0-2.06-1.08-3.31-3.22-3.72l-.27-.04-.18.83Z"/>
      <path d="M43.81,46.71c-.25-.59-.37-1.17-.37-1.66,0-.78.06-2.12.13-4.17l.08-1.77-.86-.29-.03.36c-.47,3.86-.72,5.09-.84,5.48-.3-.2-.9-1.05-1.91-4.48-.83-2.95-1.33-6.09-1.49-9.35l5.33-1.38c.14-.08.34-.23.34-.63,0-.2-.11-.57-.96-1.6-.95-1.17-1.08-1.21-1.26-1.21-.34,0-.51.23-1.25,2.76l-2.25.64c-.16-2.98-.24-5.81-.24-8.4.08-.1.26-.25.46-.41l.1-.07c.24-.24.37-.49.37-.77,0-.35-.25-.77-3.08-1.29l-.36-.04.03.37c.09.75.14,1.75.15,2.94.07,2.71.17,5.48.32,8.24l-.08.03s-.09,0-.28.08c-1.62.35-2.74.4-3.31.28l-.38-.09v-.92c.04-.09.2-.26.44-.53.18-.15.27-.41.27-.71,0-.35-.26-.68-.82-1.02.59-1.73,1.13-3.68,1.65-6.02.05,0,.1,0,.19-.04.8-.18.91-.64.91-.88,0-.35-.31-.87-2.67-2.33l-.37-.23-.04.45c-.39,2.87-1.06,5.95-1.99,9.14-.97,3.28-1.85,5.74-2.67,7.45l-.04.12.43,1.02.31-.41c.63-.85,1.35-2.06,2.19-3.59v9.86c0,2.76,0,5.22-.02,7.47,0,.85.46.99.74.99,1.41,0,1.62-.88,1.62-1.39-.09-3.7-.09-5.79-.09-6.34l-.03-11.81.68,2.29.33-.29c.62-.52,1.3-.79,2.02-.8l1.12-.27c.29,4.64,1.05,8.82,2.31,12.43,1.32,3.87,2.77,5.74,4.38,5.74.81,0,1.25-.47,1.25-1.32,0-.41-.13-.88-.44-1.62Z"/>
      <path d="M162.91,29.9c-.27,0-.37,0-1.28,2.4h-7.42c-1.08,0-2.05-.16-2.85-.46h0c0-.82,0-1.66,0-2.54v-2.21l.17.84.31-.14c.44-.2,1.16-.29,2.13-.29h.04v.55c0,.82,0,1.78-.01,2.93,0,.86.43.97.7.97h0c.94,0,1.48-.48,1.5-1.31h2.47v.3c0,.88.57.95.74.95.97,0,1.5-.51,1.5-1.4-.02-.52-.04-1.09-.04-1.68,0-.31-.02-.6-.02-.82v-.52h3.14c.2,0,.46-.11.46-.67,0-.1,0-.39-.66-1.58-.6-1-.87-1.2-1.12-1.2-.2,0-.35,0-1.16,2.05h-.67v-.71s.16-.15.48-.35c.2-.11.3-.32.3-.63,0-.35-.28-.77-2.07-1.28h4.7c.15,0,.43-.1.43-.65,0-.18-.09-.52-.74-1.72-.61-1.23-.86-1.45-1.12-1.45-.28,0-.41.1-1.33,2.39h-3.69c.2-.4.22-.95.22-1.38,0-1.18-.49-2.57-2.81-2.57-.28,0-.43.01-.59.04l-.21.05-.07.84.1.08c.6.53,1.09,1.28,1.42,2.22.1.3.2.53.3.72h-4.75c-.49-.47-1.11-.94-1.94-1.5l-.48-.33.05.6c.1,1.23.14,2.79.14,4.89v4.08c0,9.22-.5,15.81-1.49,19.56l-.05.13.64.77.2-.37c.88-1.6,1.57-3.78,2.07-6.51.42-2.07.66-5.11.76-9.26l.09.44.33-.16c.08-.03.19-.08.34-.1l.04.39c.1.98.15,2.23.15,4.03v1.99c0,1.14,0,2.59-.04,4.36,0,.84.49.93.71.93,1.23,0,1.49-.7,1.49-1.29v-.12h.39l-.09.21c-.25.68-.87,1.47-1.85,2.44-.96.93-1.95,1.66-2.92,2.2l-.19.1.19.94h.25c2.29-.13,4.29-1.06,5.94-2.82h.21c.96,0,1.07-.52,1.07-.73,0-.3-.28-.79-2.23-2.28l-.13-.06h5.36v.1c0,.35.08.58.2.72-.62-.14-1.33-.23-2.09-.28l-.27-.02-.15.98.16.09c1.37.82,2.62,1.9,3.67,3.18.84,1.04,1.16,1.04,1.3,1.04.4,0,.9-.26.9-1.55,0-1.58-.95-2.66-2.8-3.26.84-.05,1.3-.55,1.3-1.33l-.03-1.69c0-1.14-.02-1.87-.02-2.18v-2.11s.02-.11.21-.35c.32-.54.47-.87.47-1.17,0-.19-.1-.52-.68-1.54-.5-.76-.74-1.05-.98-1.13h2.84c.1,0,.46-.05.46-.66,0-.24-.08-.6-.8-1.75-.66-1.12-.9-1.39-1.18-1.39ZM158.42,39.03v-2.21h1.99v2.21h-1.99ZM160.41,40.44v2.41h-1.99v-2.41h1.99ZM160.29,35.36h-1.87v-1.65h2.91c-.22.08-.45.43-1.04,1.65ZM156.29,36.82v2.21h-1.85v-2.21h1.85ZM156.29,40.44v2.41h-1.85v-2.41h1.85ZM158.65,27.51v1.75h-2.47v-1.75h2.47ZM156.18,26.07v-.59c.05-.07.17-.21.48-.51.22-.17.26-.41.26-.63,0-.28-.16-.64-2.06-1.22l3.66-.03.02.15c.09,1.02.11,1.96.11,2.81l-2.47.02ZM151.35,23.14h2.52s0,.11,0,.11c.09.84.13,1.78.13,2.83-.95-.02-1.79-.18-2.46-.46l-.18-.07v-2.4ZM152.21,33.87c.39-.08.94-.14,1.79-.14h2.29v1.58h-1.8c-.61-.5-1.27-.95-1.95-1.3l-.32-.14Z"/>
      <path d="M191.76,34.54c.11,0,.45-.05.45-.69,0-.19-.11-.57-.67-1.67-.7-1.41-.92-1.41-1.05-1.41-.25,0-.43,0-1.33,2.38h-6.1c-1.15,0-2.16-.15-2.93-.42l-.47-.17.55,2.45.33-.23c.25-.15.78-.34,1.94-.35-.68,2.79-1.91,5.23-3.67,7.51l-.12.12.33.94.32-.2c1.55-.98,2.88-2.51,3.96-4.52h.4c-.77,2.57-2.19,4.99-4.35,7.4l-.1.11.22.9.33-.16c2.91-1.56,5.01-4.32,6.27-8.24h.42c-1.01,4.17-2.82,7.65-5.4,10.35l-.11.11.23.92.32-.17c1.43-.75,2.82-2.04,4.08-3.82l-.13.88.16.11c.95.58,1.45,1.33,1.58,2.33.04.31.16,1.01.66,1.01s1.08-.36,1.71-1.15c.57-.75.98-2.32,1.21-4.81.23-2.41.35-3.91.34-4.48,0-.03.05-.11.17-.23.43-.45.67-.89.67-1.22s-.2-.79-.73-1.67c-.73-1.15-.95-1.24-1.12-1.24-.24,0-.39.07-1.18,1.7h-4.9c.24-.52.53-1.3.89-2.39h6.8ZM185.94,45.21c1.34-2.01,2.31-4.33,2.93-6.93h.13c-.25,7.14-.97,7.54-1.02,7.56-.58,0-1.25-.1-2.02-.29l-.21-.05c.06-.11.12-.19.19-.28Z"/>
      <path d="M181.84,36.15l.03-.08-.2-1-.35.24c-.72.52-1.32.92-1.87,1.21v-8h2.1c.05,0,.18-.02.31-.13,0,.32-.01.68-.01,1.06l-.05,1.94c0,.94.58,1,.77,1,1.34,0,1.52-.83,1.52-1.33v-.42h3.66v.46c0,.58.35.79.67.79,1.39,0,1.68-.72,1.68-1.33v-.41c-.05-2.03-.07-3.17-.07-3.45v-4.21s.04-.08.16-.18c.41-.46.59-.8.59-1.1,0-.12,0-.47-.74-1.62-.71-1.09-.97-1.16-1.17-1.16-.16,0-.41,0-1.16,1.78h-3.62c-.67-.62-1.25-1.07-1.89-1.49l-.48-.34.04.61c.06.71.11,2.18.11,5.14v3.23c-.1-.3-.26-.67-.51-1.1-.67-1.29-.92-1.29-1.04-1.29-.13,0-.35,0-.87,1.22v-5.23s.04-.02.06-.05c.13-.11.3-.27.5-.47.18-.12.25-.34.25-.64,0-.39-.29-.91-2.8-1.48l-.4-.08.03.37c.11,1.11.15,2.52.15,4.24v4.23c-.82,0-1.44-.12-1.91-.35l-.53-.28.53,2.51.34-.17c.23-.1.67-.23,1.57-.27v8.96c-.82.3-1.52.5-2.08.56l-.31.04.06.3c.92,4.93,1.03,4.93,1.36,4.93.39,0,.57-.45.61-1.61,0-.08.03-.15.03-.18,2.19-1.54,3.84-3.35,4.92-5.37ZM184.1,24.65v-3.06h3.63v3.06h-3.63ZM187.74,26.05v3.19h-3.63v-3.19h3.63Z"/>
      <path d="M4.38,91.08v3.55c0,.59.03.95.1,1.1.06.15.19.27.38.38.19.11.44.17.77.17h.38v.31H0v-.31h.38c.33,0,.6-.06.8-.18.15-.08.26-.21.34-.41.06-.14.09-.49.09-1.07v-7.55c0-.59-.03-.95-.09-1.1-.06-.15-.19-.28-.38-.39-.19-.11-.44-.17-.77-.17h-.38v-.31h6v.31h-.38c-.33,0-.6.06-.8.18-.15.08-.26.21-.35.41-.06.14-.09.49-.09,1.07v3.25h4.05v-3.25c0-.59-.03-.95-.09-1.1-.06-.15-.19-.28-.38-.39-.19-.11-.45-.17-.77-.17h-.37v-.31h5.99v.31h-.37c-.34,0-.61.06-.8.18-.15.08-.26.21-.35.41-.06.14-.09.49-.09,1.07v7.55c0,.59.03.95.09,1.1.06.15.19.27.38.38.19.11.45.17.77.17h.37v.31h-5.99v-.31h.37c.34,0,.61-.06.8-.18.15-.08.26-.21.35-.41.06-.14.09-.49.09-1.07v-3.55h-4.05Z"/>
      <path d="M17.44,88.44c.69,0,1.33.18,1.92.53.59.36,1.04.86,1.35,1.52.31.65.46,1.37.46,2.15,0,1.12-.28,2.06-.85,2.82-.69.91-1.64,1.37-2.85,1.37s-2.11-.42-2.75-1.25c-.64-.83-.97-1.8-.97-2.9s.33-2.12.99-2.97c.66-.84,1.56-1.27,2.7-1.27ZM17.47,89.04c-.29,0-.53.11-.74.33-.21.22-.34.65-.41,1.29-.06.64-.1,1.53-.1,2.67,0,.6.04,1.17.12,1.69.06.4.19.71.4.91.2.21.43.31.69.31s.47-.07.63-.21c.22-.19.37-.46.44-.8.11-.54.17-1.62.17-3.25,0-.96-.05-1.62-.16-1.98-.11-.36-.27-.62-.47-.78-.15-.12-.34-.18-.58-.18Z"/>
      <path d="M25.61,88.68v1.02c.41-.44.8-.76,1.17-.96.37-.2.77-.3,1.2-.3.51,0,.94.14,1.28.43.34.28.56.64.68,1.06.09.32.14.94.14,1.85v3.08c0,.61.06.99.16,1.14.11.15.34.24.69.28v.31h-4v-.31c.3-.04.51-.16.64-.37.09-.14.14-.49.14-1.05v-3.52c0-.65-.03-1.06-.08-1.23-.05-.17-.14-.3-.26-.39-.12-.09-.26-.14-.4-.14-.49,0-.94.35-1.35,1.04v4.24c0,.59.05.97.16,1.13.11.16.31.26.61.3v.31h-4v-.31c.33-.03.57-.14.71-.32.1-.12.14-.49.14-1.1v-4.47c0-.6-.05-.97-.16-1.12-.11-.15-.34-.24-.69-.29v-.31h3.23Z"/>
      <path d="M37.09,88.77h2.67v.93h-1.52c.28.28.47.53.58.75.14.3.2.62.2.96,0,.56-.16,1.05-.47,1.47-.31.42-.74.74-1.28.97-.54.23-1.02.35-1.43.35-.03,0-.37-.01-1.02-.04-.25,0-.47.08-.64.25-.17.17-.26.37-.26.6,0,.2.08.37.23.5.15.13.41.19.76.19l1.46-.02c1.19,0,2,.13,2.45.39.64.36.96.92.96,1.67,0,.48-.15.92-.44,1.31-.29.39-.68.68-1.16.87-.73.28-1.57.41-2.51.41-.71,0-1.36-.07-1.95-.21-.59-.14-1.01-.33-1.26-.58-.25-.25-.38-.5-.38-.77s.1-.49.29-.7c.19-.21.56-.38,1.09-.52-.73-.36-1.1-.86-1.1-1.51,0-.39.15-.77.45-1.13.3-.37.77-.69,1.42-.96-.76-.28-1.3-.64-1.64-1.09-.34-.45-.51-.97-.51-1.57,0-.77.32-1.44.95-2.01.63-.57,1.44-.85,2.44-.85.53,0,1.07.11,1.63.33ZM35.13,97.76c-.58,0-.96.05-1.14.14-.32.17-.48.41-.48.71s.17.55.5.78c.33.23.96.35,1.88.35.78,0,1.4-.1,1.85-.31.45-.21.67-.5.67-.88,0-.14-.04-.26-.13-.36-.15-.17-.38-.29-.69-.35-.31-.06-1.13-.09-2.46-.09ZM35.63,88.97c-.33,0-.6.16-.83.5-.23.33-.34,1.01-.34,2.05,0,.84.11,1.42.33,1.73.22.31.49.47.79.47.34,0,.62-.16.85-.47.23-.31.34-.91.34-1.81,0-1.01-.13-1.7-.38-2.07-.18-.27-.43-.41-.76-.41Z"/>
      <path d="M51.65,89.51l4.04,5.05c.57.71,1.06,1.19,1.47,1.45.3.18.61.27.95.27v.31h-5.98v-.31c.38-.03.62-.09.73-.18.11-.08.16-.19.16-.31,0-.24-.26-.68-.78-1.34l-2.63-3.31-.42.35v3.13c0,.6.03.97.1,1.12.07.15.2.27.39.38.19.1.5.16.92.16v.31h-5.79v-.31h.38c.33,0,.6-.06.8-.18.15-.08.26-.21.34-.41.06-.14.09-.49.09-1.07v-7.55c0-.59-.03-.95-.09-1.1-.06-.15-.19-.28-.38-.39-.19-.11-.44-.17-.77-.17h-.38v-.31h5.71v.31c-.39,0-.69.06-.89.17-.15.08-.26.21-.35.4-.07.14-.1.5-.1,1.08v3.57l4.26-3.45c.59-.48.89-.86.89-1.15,0-.21-.12-.38-.36-.51-.12-.06-.43-.1-.92-.12v-.31h4.48v.31c-.4.03-.72.1-.94.22-.23.12-.75.51-1.58,1.17l-3.36,2.69Z"/>
      <path d="M62.24,88.44c.69,0,1.33.18,1.92.53.59.36,1.04.86,1.35,1.52.31.65.46,1.37.46,2.15,0,1.12-.29,2.06-.85,2.82-.69.91-1.64,1.37-2.85,1.37s-2.11-.42-2.75-1.25c-.64-.83-.96-1.8-.96-2.9s.33-2.12.99-2.97c.66-.84,1.56-1.27,2.7-1.27ZM62.27,89.04c-.29,0-.53.11-.74.33-.21.22-.34.65-.41,1.29-.06.64-.1,1.53-.1,2.67,0,.6.04,1.17.12,1.69.06.4.19.71.4.91.2.21.43.31.69.31s.47-.07.63-.21c.22-.19.37-.46.44-.8.11-.54.17-1.62.17-3.25,0-.96-.05-1.62-.16-1.98s-.27-.62-.47-.78c-.15-.12-.34-.18-.58-.18Z"/>
      <path d="M70.4,88.68v1.02c.41-.44.8-.76,1.17-.96.37-.2.77-.3,1.2-.3.51,0,.94.14,1.28.43.34.28.56.64.68,1.06.09.32.14.94.14,1.85v3.08c0,.61.06.99.16,1.14.11.15.34.24.69.28v.31h-4v-.31c.3-.04.51-.16.64-.37.09-.14.14-.49.14-1.05v-3.52c0-.65-.03-1.06-.08-1.23-.05-.17-.14-.3-.26-.39-.12-.09-.26-.14-.4-.14-.49,0-.94.35-1.35,1.04v4.24c0,.59.05.97.17,1.13.11.16.31.26.61.3v.31h-4v-.31c.33-.03.57-.14.71-.32.1-.12.14-.49.14-1.1v-4.47c0-.6-.06-.97-.17-1.12-.11-.15-.34-.24-.69-.29v-.31h3.23Z"/>
      <path d="M81.89,88.77h2.67v.93h-1.52c.28.28.47.53.58.75.14.3.2.62.2.96,0,.56-.16,1.05-.47,1.47-.31.42-.74.74-1.28.97-.54.23-1.02.35-1.43.35-.03,0-.37-.01-1.02-.04-.25,0-.47.08-.64.25-.17.17-.26.37-.26.6,0,.2.08.37.23.5.15.13.41.19.76.19l1.46-.02c1.19,0,2,.13,2.45.39.64.36.96.92.96,1.67,0,.48-.15.92-.44,1.31-.29.39-.68.68-1.16.87-.73.28-1.57.41-2.51.41-.71,0-1.36-.07-1.95-.21-.59-.14-1.01-.33-1.26-.58-.25-.25-.38-.5-.38-.77s.1-.49.29-.7c.19-.21.56-.38,1.09-.52-.73-.36-1.1-.86-1.1-1.51,0-.39.15-.77.45-1.13.3-.37.77-.69,1.42-.96-.76-.28-1.3-.64-1.64-1.09-.34-.45-.51-.97-.51-1.57,0-.77.32-1.44.95-2.01.63-.57,1.44-.85,2.44-.85.52,0,1.07.11,1.62.33ZM79.93,97.76c-.57,0-.96.05-1.14.14-.32.17-.48.41-.48.71s.17.55.5.78c.33.23.96.35,1.88.35.78,0,1.4-.1,1.85-.31.45-.21.67-.5.67-.88,0-.14-.04-.26-.13-.36-.15-.17-.38-.29-.69-.35-.31-.06-1.13-.09-2.46-.09ZM80.43,88.97c-.33,0-.6.16-.83.5-.23.33-.34,1.01-.34,2.05,0,.84.11,1.42.33,1.73.22.31.49.47.79.47.34,0,.62-.16.85-.47.23-.31.34-.91.34-1.81,0-1.01-.13-1.7-.38-2.07-.18-.27-.43-.41-.76-.41Z"/>
      <path d="M100.17,85.12v3.11h-.31c-.18-.72-.38-1.23-.6-1.54-.22-.31-.52-.56-.9-.75-.22-.1-.59-.15-1.13-.15h-.85v8.85c0,.59.03.95.1,1.1.06.15.19.27.38.38.19.11.45.17.77.17h.38v.31h-6.01v-.31h.38c.33,0,.6-.06.8-.18.15-.08.26-.21.35-.41.06-.14.09-.49.09-1.07v-8.85h-.83c-.77,0-1.33.16-1.68.49-.49.46-.8,1.11-.93,1.96h-.32v-3.11h10.31Z"/>
      <path d="M104.47,88.68v6.27c0,.56.06.92.19,1.07.13.15.38.24.76.27v.31h-4.27v-.31c.35-.01.61-.11.78-.3.11-.13.17-.47.17-1.03v-4.62c0-.56-.07-.92-.19-1.07-.13-.16-.38-.24-.75-.27v-.31h3.32ZM103.28,84.85c.37,0,.68.13.93.39.25.26.38.57.38.93s-.13.67-.39.92c-.26.25-.57.38-.93.38s-.67-.13-.92-.38c-.25-.25-.38-.56-.38-.92s.13-.67.38-.93c.25-.26.56-.39.92-.39Z"/>
      <path d="M109.48,88.68v1.04c.43-.47.84-.81,1.21-.99.37-.19.77-.28,1.21-.28.51,0,.93.12,1.28.36.34.24.61.6.79,1.08.45-.51.89-.87,1.3-1.1.41-.23.85-.34,1.3-.34.55,0,.98.13,1.31.38.33.25.55.57.68.96.13.39.19,1,.19,1.85v3.24c0,.61.06.99.17,1.13.11.15.34.24.69.29v.31h-4.09v-.31c.32-.03.56-.15.71-.37.1-.15.15-.5.15-1.05v-3.4c0-.71-.03-1.15-.09-1.35-.06-.19-.15-.33-.27-.43-.12-.09-.26-.14-.43-.14-.24,0-.49.09-.74.27-.25.18-.5.44-.75.8v4.25c0,.57.05.93.14,1.08.13.21.38.32.74.35v.31h-4.1v-.31c.22-.01.39-.07.52-.16.13-.1.21-.22.25-.36.04-.14.06-.44.06-.9v-3.4c0-.72-.03-1.16-.08-1.35-.06-.18-.15-.32-.28-.42-.13-.1-.27-.15-.43-.15-.22,0-.43.06-.62.18-.27.17-.55.47-.85.9v4.25c0,.56.05.93.16,1.11.11.18.34.28.69.32v.31h-4.08v-.31c.33-.03.57-.14.71-.32.1-.12.14-.49.14-1.1v-4.47c0-.6-.06-.97-.17-1.12-.11-.15-.34-.24-.69-.29v-.31h3.23Z"/>
      <path d="M127.34,92.35h-4.34c.05,1.05.33,1.88.84,2.49.39.47.86.7,1.4.7.34,0,.65-.09.92-.28.28-.19.57-.53.89-1.02l.29.19c-.43.87-.9,1.49-1.42,1.86-.52.36-1.12.55-1.8.55-1.17,0-2.06-.45-2.67-1.35-.49-.73-.73-1.63-.73-2.71,0-1.32.36-2.37,1.07-3.15.71-.78,1.55-1.17,2.51-1.17.8,0,1.5.33,2.09.99.59.66.91,1.63.95,2.92ZM125.26,91.79c0-.91-.05-1.53-.15-1.87-.1-.34-.25-.59-.46-.77-.12-.1-.28-.15-.47-.15-.29,0-.53.14-.72.43-.33.5-.5,1.19-.5,2.07v.3h2.3Z"/>
      <path d="M133.33,88.46l.13,2.7h-.29c-.34-.8-.7-1.35-1.07-1.64-.37-.29-.74-.44-1.1-.44-.23,0-.43.08-.59.23-.16.16-.25.33-.25.54,0,.15.06.3.17.44.18.23.69.63,1.52,1.19.83.56,1.38,1.04,1.64,1.43.26.39.39.83.39,1.32,0,.44-.11.87-.33,1.3-.22.42-.53.75-.93.97-.4.23-.84.34-1.33.34-.38,0-.88-.12-1.52-.36-.17-.06-.29-.09-.35-.09-.19,0-.34.14-.47.42h-.28l-.14-2.84h.29c.25.74.6,1.3,1.04,1.68.44.37.86.56,1.26.56.27,0,.49-.08.66-.25s.26-.37.26-.61c0-.27-.09-.5-.25-.7-.17-.2-.55-.5-1.14-.9-.86-.6-1.42-1.06-1.68-1.37-.37-.46-.56-.97-.56-1.53,0-.61.21-1.16.63-1.65.42-.49,1.03-.74,1.83-.74.43,0,.84.1,1.24.31.15.08.28.13.37.13s.18-.02.25-.06c.06-.04.16-.16.3-.36h.29Z"/>
      <path d="M146.97,84.85l.09,3.83h-.35c-.16-.96-.57-1.73-1.21-2.31-.64-.58-1.33-.88-2.08-.88-.57,0-1.03.15-1.37.46-.34.31-.5.66-.5,1.06,0,.25.06.48.18.68.16.27.43.53.79.79.27.19.88.52,1.84.99,1.34.66,2.25,1.28,2.72,1.87.46.59.69,1.26.69,2.01,0,.96-.37,1.78-1.12,2.48-.75.69-1.7,1.04-2.85,1.04-.36,0-.7-.04-1.02-.11-.32-.07-.73-.21-1.21-.42-.27-.11-.49-.17-.67-.17-.15,0-.3.06-.47.17-.16.11-.3.28-.4.52h-.31v-4.33h.31c.25,1.22.73,2.15,1.43,2.79.71.64,1.47.96,2.29.96.63,0,1.14-.17,1.51-.52.37-.34.56-.74.56-1.2,0-.27-.07-.53-.21-.79-.14-.25-.36-.5-.66-.72-.29-.23-.81-.53-1.56-.89-1.04-.51-1.8-.95-2.25-1.31-.46-.36-.81-.76-1.05-1.21-.25-.45-.37-.94-.37-1.47,0-.91.33-1.69,1.01-2.34.67-.64,1.52-.96,2.54-.96.37,0,.73.04,1.08.13.27.07.59.19.97.38.38.18.65.28.8.28s.26-.05.35-.14c.08-.09.16-.31.24-.65h.25Z"/>
      <path d="M154.37,95.77c-.35.36-.67.62-.97.76-.39.2-.81.3-1.23.3-.99,0-1.78-.44-2.35-1.33-.46-.71-.68-1.55-.68-2.53,0-.82.17-1.59.52-2.31.35-.72.82-1.27,1.43-1.65.61-.38,1.25-.57,1.92-.57.45,0,.85.08,1.21.23.35.15.66.38.91.69l1.33-.92h.29v10.25c0,.52.04.84.14.97.15.21.44.32.89.32v.31h-4.57v-.31c.35,0,.6-.04.76-.12.16-.08.27-.18.33-.31.06-.13.09-.4.09-.8v-3ZM154.37,95v-3.26c0-.91-.05-1.51-.15-1.8-.1-.29-.28-.55-.55-.76-.14-.11-.31-.16-.52-.16-.43,0-.76.19-1,.57-.37.58-.56,1.66-.56,3.24,0,1.21.16,2.07.48,2.56.22.33.5.5.85.5.2,0,.43-.07.69-.21.26-.14.5-.36.74-.67Z"/>
      <path d="M166.34,88.68v6.2c0,.6.06.98.17,1.13.11.15.34.24.68.28v.31h-3.22v-1.06c-.38.45-.76.78-1.14.99-.38.21-.8.31-1.27.31s-.84-.14-1.19-.41c-.35-.27-.58-.59-.7-.96-.12-.37-.18-1.01-.18-1.92v-3.14c0-.6-.05-.97-.17-1.12-.11-.15-.34-.24-.69-.29v-.31h3.23v5.41c0,.56.03.93.08,1.09.05.16.14.29.25.37.11.09.25.13.4.13.2,0,.39-.05.55-.16.22-.15.5-.44.81-.89v-4.23c0-.6-.06-.97-.17-1.12-.11-.15-.34-.24-.69-.29v-.31h3.23Z"/>
      <path d="M172.71,95.43c-.96.85-1.83,1.28-2.6,1.28-.45,0-.83-.15-1.12-.44-.3-.3-.45-.67-.45-1.11,0-.6.26-1.15.78-1.63.52-.48,1.65-1.12,3.39-1.93v-.8c0-.6-.03-.98-.1-1.13-.07-.16-.19-.29-.37-.41-.18-.12-.38-.17-.61-.17-.37,0-.67.08-.91.25-.15.1-.22.22-.22.36,0,.12.08.27.24.44.21.24.32.48.32.7,0,.28-.1.51-.31.71-.21.19-.48.29-.81.29-.36,0-.65-.11-.89-.32-.24-.21-.36-.47-.36-.75,0-.41.16-.79.48-1.16.32-.37.77-.65,1.35-.85.58-.2,1.17-.3,1.8-.3.75,0,1.34.16,1.78.48.44.32.72.66.85,1.04.08.24.12.78.12,1.63v3.07c0,.36.01.59.04.68.03.09.07.16.13.21.06.05.12.07.19.07.15,0,.3-.1.45-.31l.25.2c-.28.42-.57.72-.88.91-.3.19-.64.28-1.03.28-.45,0-.8-.11-1.06-.32-.25-.21-.41-.53-.47-.96ZM172.71,94.81v-2.65c-.68.4-1.19.83-1.52,1.29-.22.3-.33.61-.33.92,0,.26.09.49.28.69.14.15.34.23.59.23.28,0,.61-.16.98-.47Z"/>
      <path d="M180.29,88.68v1.79c.53-.82.99-1.36,1.38-1.63.39-.27.78-.4,1.14-.4.32,0,.57.1.76.29.19.19.28.47.28.83,0,.38-.09.67-.28.88-.18.21-.41.31-.66.31-.3,0-.56-.1-.78-.29-.22-.19-.35-.3-.39-.32-.06-.03-.12-.05-.19-.05-.16,0-.32.06-.47.19-.23.19-.41.47-.53.82-.18.55-.27,1.15-.27,1.81v2.29c0,.32.03.53.07.62.07.15.17.26.3.33.13.07.36.11.67.13v.31h-4.28v-.31c.34-.03.58-.12.7-.28.12-.16.18-.59.18-1.27v-4.38c0-.45-.02-.74-.07-.86-.06-.16-.14-.27-.25-.35-.11-.07-.3-.12-.57-.15v-.31h3.23Z"/>
      <path d="M191.4,92.35h-4.34c.05,1.05.33,1.88.84,2.49.39.47.86.7,1.41.7.34,0,.65-.09.92-.28.28-.19.57-.53.89-1.02l.29.19c-.43.87-.9,1.49-1.42,1.86-.52.36-1.12.55-1.8.55-1.17,0-2.06-.45-2.67-1.35-.49-.73-.73-1.63-.73-2.71,0-1.32.36-2.37,1.07-3.15.71-.78,1.55-1.17,2.51-1.17.8,0,1.5.33,2.09.99.59.66.91,1.63.95,2.92ZM189.32,91.79c0-.91-.05-1.53-.15-1.87-.1-.34-.25-.59-.46-.77-.12-.1-.28-.15-.47-.15-.29,0-.53.14-.72.43-.33.5-.5,1.19-.5,2.07v.3h2.3Z"/>
    </g>
  </g>
</svg>