<svg width="145" height="145" viewBox="0 0 145 145" fill="none" xmlns="http://www.w3.org/2000/svg">
<path opacity="0.6" fill-rule="evenodd" clip-rule="evenodd" d="M86.8269 5.03466C49.7691 -3.00988 13.2056 20.5135 5.16318 57.5713C-2.88135 94.6312 20.6421 131.195 57.7019 139.237C94.7597 147.28 131.321 123.758 139.366 86.6984C147.408 49.6406 123.887 13.0771 86.8269 5.03466Z" fill="#EAF6FF"/>
<path opacity="0.6" d="M57.0193 142.387C18.22 133.967 -6.40719 95.6875 2.01474 56.8882C10.4346 18.0909 48.7143 -6.53651 87.5116 1.88568C126.31 10.3061 150.936 48.5858 142.516 87.3826C134.094 126.181 95.8162 150.807 57.0193 142.387ZM8.3138 58.2541C0.646892 93.5744 23.065 128.423 58.3853 136.088C93.7035 143.753 128.55 121.335 136.217 86.0145C143.882 50.6964 121.464 15.8496 86.1436 8.18475L84.488 7.84693C49.743 1.22137 15.8592 23.4882 8.3138 58.2541Z" fill="#B2E0F1"/>
<path d="M91.6079 116.008C89.822 112.928 90.8703 108.985 93.9496 107.199C108.204 98.9318 115.678 83.4412 114.4 68.0158C114.106 64.4683 116.742 61.3545 120.289 61.06C123.837 60.766 126.953 63.4024 127.247 66.9499C128.921 87.1489 119.14 107.49 100.417 118.35C97.3371 120.135 93.394 119.087 91.6079 116.008ZM67.2719 125.343C63.7341 124.95 61.1849 121.764 61.5772 118.226C61.9698 114.688 65.1565 112.139 68.6946 112.531C72.2012 112.92 75.7678 112.863 79.3035 112.338C82.8246 111.815 86.1035 114.245 86.6266 117.766C87.1495 121.288 84.7175 124.566 81.1962 125.089C76.5462 125.78 71.8651 125.852 67.2719 125.343Z" fill="white"/>
</svg>
