<svg width="145" height="145" viewBox="0 0 145 145" fill="none" xmlns="http://www.w3.org/2000/svg">
<path opacity="0.6" fill-rule="evenodd" clip-rule="evenodd" d="M139.366 86.6979C147.411 49.6401 123.888 13.0766 86.8299 5.03416C49.77 -3.01038 13.2064 20.513 5.16401 57.5729C-2.87838 94.6307 20.6429 131.192 57.7028 139.237C94.7605 147.279 131.324 123.758 139.366 86.6979Z" fill="#EAF6FF"/>
<path opacity="0.6" d="M2.01396 56.8902C10.4338 18.0909 48.7136 -6.53633 87.513 1.88559C126.31 10.3055 150.938 48.5851 142.515 87.3825C134.095 126.181 95.8153 150.807 57.0185 142.387C18.2198 133.965 -6.40543 95.6871 2.01396 56.8902ZM86.147 8.18466C50.8268 0.517744 15.978 22.9359 8.31302 58.2561C0.648154 93.5743 23.066 128.421 58.3866 136.088C93.7047 143.753 128.551 121.334 136.216 86.0144L136.554 84.3589C143.18 49.6138 120.913 15.7301 86.147 8.18466Z" fill="#B2E0F1"/>
<path d="M28.3932 91.4789C31.4726 89.693 35.4157 90.7413 37.2018 93.8206C45.4693 108.075 60.9599 115.549 76.3853 114.271C79.9328 113.977 83.0466 116.613 83.3411 120.16C83.6351 123.708 80.9987 126.824 77.4512 127.118C57.2522 128.792 36.9112 119.011 26.0515 100.288C24.2657 97.2081 25.3139 93.2649 28.3932 91.4789ZM19.0579 67.1429C19.4507 63.6051 22.6373 61.0559 26.1753 61.4482C29.7133 61.8408 32.2624 65.0275 31.8701 68.5656C31.4814 72.0722 31.5379 75.6388 32.0631 79.1745C32.5858 82.6956 30.156 85.9745 26.6349 86.4975C23.1136 87.0205 19.8349 84.5884 19.3118 81.0672C18.6211 76.4172 18.5487 71.736 19.0579 67.1429Z" fill="white"/>
</svg>
