<svg width="48" height="41" viewBox="0 0 48 41" fill="none" xmlns="http://www.w3.org/2000/svg">
<path d="M25.0805 9.30102C24.4963 8.7168 23.5522 8.70282 22.9514 9.26959L22.9225 9.29666C22.9121 9.30714 22.9007 9.31762 22.8902 9.3281L8.20788 24.0115C7.92143 24.298 7.76074 24.6866 7.76074 25.0918V39.4425C7.76074 40.287 8.44456 40.9708 9.28906 40.9708H38.7114C39.5559 40.9708 40.2397 40.287 40.2397 39.4425V25.0918C40.2397 24.6866 40.079 24.298 39.7917 24.0115L25.0805 9.30102ZM27.5948 37.9151H20.4039V27.0095H27.5948V37.9151ZM37.1831 37.9151H30.6515V25.4813C30.6515 24.6368 29.9676 23.953 29.1231 23.953H18.8756C18.031 23.953 17.3472 24.6368 17.3472 25.4813V37.9151H10.8174V25.7258L23.9993 12.5427L37.1831 25.7258V37.9151Z" fill="#FDE021"/>
<path d="M46.8389 23.2028L25.3254 1.69029C25.0494 1.24753 24.5612 0.970703 24.0285 0.970703H23.9726C23.4399 0.970703 22.9517 1.24753 22.6757 1.69029L1.1622 23.2028C0.565723 23.7993 0.565723 24.7669 1.1622 25.3642C1.75869 25.9607 2.72633 25.9607 3.32368 25.3642L24.0005 4.68828L44.6774 25.3642C44.9761 25.6629 45.3673 25.8122 45.7577 25.8122C46.1481 25.8122 46.5402 25.6629 46.838 25.3642C47.4345 24.7678 47.4345 23.8002 46.838 23.2028H46.8389Z" fill="#FDE021"/>
</svg>
