<svg width="29" height="187" viewBox="0 0 29 187" fill="none" xmlns="http://www.w3.org/2000/svg">
<path d="M28.4703 187.008L25.5093 187.008L25.5093 185.698C25.5093 185.376 25.5732 185.154 25.701 185.037C25.8288 184.92 26.0717 184.861 26.4253 184.861C26.7619 184.861 26.9877 184.924 27.1197 185.045C27.239 185.166 27.3029 185.397 27.3029 185.736L27.3029 186.681L28.4661 186.681L28.4661 187.008L28.4703 187.008ZM27.0218 186.681L27.0218 185.92C27.0218 185.602 26.9919 185.397 26.9195 185.305C26.8556 185.213 26.6937 185.171 26.4551 185.171C26.1654 185.171 25.9907 185.204 25.914 185.263C25.8373 185.321 25.8033 185.468 25.8033 185.698L25.7947 185.819L25.7947 186.681L27.0218 186.681Z" fill="black"/>
<path d="M26.3999 184.468L26.3999 184.179L26.6385 184.208L26.647 184.2C26.4425 184.087 26.3445 183.899 26.3445 183.631C26.3445 183.267 26.5362 183.083 26.941 183.083L27.0815 183.083L27.0815 183.371L27.0347 183.371C26.975 183.371 26.941 183.363 26.9196 183.363C26.6981 183.363 26.5959 183.472 26.5959 183.694C26.5959 184.02 26.8046 184.179 27.2264 184.179L28.4705 184.179L28.4705 184.468L26.3999 184.468Z" fill="black"/>
<path d="M26.3613 181.973C26.3613 181.605 26.4338 181.367 26.5616 181.254C26.6936 181.145 26.9876 181.09 27.435 181.09C27.8823 181.09 28.1635 181.145 28.2956 181.254C28.4277 181.367 28.4958 181.605 28.4958 181.973C28.4958 182.342 28.4277 182.58 28.2956 182.693C28.1635 182.802 27.8738 182.856 27.435 182.856C26.9961 182.856 26.6936 182.802 26.5616 182.693C26.4338 182.58 26.3613 182.342 26.3613 181.973ZM26.6127 181.973C26.6127 182.237 26.6553 182.392 26.7405 182.455C26.8342 182.517 27.06 182.551 27.4307 182.551C27.8014 182.551 28.0229 182.517 28.1124 182.455C28.2019 182.392 28.2445 182.237 28.2445 181.973C28.2445 181.71 28.2019 181.555 28.1124 181.492C28.0229 181.429 27.7971 181.4 27.4307 181.4C27.0643 181.4 26.83 181.429 26.7405 181.492C26.6553 181.555 26.6127 181.714 26.6127 181.973Z" fill="black"/>
<path d="M26.3997 180.643L26.3997 180.35L26.7107 180.358L26.7107 180.35C26.4764 180.237 26.3613 180.019 26.3613 179.697C26.3613 179.354 26.4764 179.153 26.7149 179.077L26.7149 179.069C26.4764 178.944 26.3613 178.718 26.3613 178.383C26.3613 177.914 26.617 177.676 27.1154 177.676L28.4703 177.676L28.4703 177.968L27.0899 177.968C26.9067 177.968 26.7831 177.998 26.7149 178.061C26.651 178.127 26.617 178.24 26.617 178.416C26.617 178.646 26.6638 178.801 26.7533 178.885C26.8428 178.969 27.0217 179.006 27.2731 179.006L28.4745 179.006L28.4745 179.295L27.1197 179.295L27.026 179.303C26.7533 179.303 26.617 179.45 26.617 179.743C26.617 180.145 26.8428 180.345 27.2944 180.345L28.4703 180.345L28.4703 180.638L26.3997 180.638L26.3997 180.643Z" fill="black"/>
<path d="M26.3613 176.282C26.3613 175.914 26.4338 175.675 26.5616 175.562C26.6936 175.453 26.9876 175.399 27.435 175.399C27.8823 175.399 28.1635 175.458 28.2956 175.562C28.4277 175.675 28.4958 175.914 28.4958 176.282C28.4958 176.65 28.4277 176.893 28.2956 177.002C28.1635 177.111 27.8738 177.165 27.435 177.165C26.9961 177.165 26.6936 177.111 26.5616 177.002C26.4338 176.893 26.3613 176.654 26.3613 176.282ZM26.6127 176.282C26.6127 176.541 26.6553 176.701 26.7405 176.767C26.8342 176.83 27.06 176.86 27.4307 176.86C27.8014 176.86 28.0229 176.83 28.1124 176.767C28.2019 176.705 28.2445 176.546 28.2445 176.282C28.2445 176.018 28.2019 175.864 28.1124 175.801C28.0229 175.738 27.7971 175.709 27.4307 175.709C27.0643 175.709 26.83 175.738 26.7405 175.801C26.6553 175.859 26.6127 176.023 26.6127 176.282Z" fill="black"/>
<path d="M26.3998 173.892L26.6469 173.892L26.6469 174.658L27.9166 174.658C28.1381 174.658 28.2489 174.566 28.2489 174.373C28.2489 174.181 28.1509 174.093 27.9464 174.093L27.8441 174.093L27.7334 174.085L27.7334 173.813L27.8867 173.804C28.2957 173.804 28.496 173.993 28.496 174.365C28.496 174.737 28.3256 174.947 27.9847 174.947L26.6469 174.947L26.6469 175.219L26.3998 175.219L26.3998 174.947L25.8928 174.947L25.8928 174.658L26.3998 174.658L26.3998 173.892Z" fill="black"/>
<path d="M25.8501 173.269L25.8501 173.558L25.5093 173.558L25.5093 173.269L25.8501 173.269ZM28.4703 173.269L28.4703 173.558L26.3997 173.558L26.3997 173.269L28.4703 173.269Z" fill="black"/>
<path d="M26.3613 171.93C26.3613 171.562 26.4338 171.319 26.5616 171.21C26.6936 171.101 26.9876 171.043 27.435 171.043C27.8823 171.043 28.1635 171.101 28.2956 171.21C28.4277 171.319 28.4958 171.562 28.4958 171.93C28.4958 172.298 28.4277 172.537 28.2956 172.645C28.1635 172.754 27.8738 172.809 27.435 172.809C26.9961 172.809 26.6936 172.754 26.5616 172.645C26.4338 172.537 26.3613 172.294 26.3613 171.93ZM26.6127 171.93C26.6127 172.189 26.6553 172.348 26.7405 172.407C26.8342 172.474 27.06 172.503 27.4307 172.503C27.8014 172.503 28.0229 172.474 28.1124 172.407C28.2019 172.344 28.2445 172.189 28.2445 171.93C28.2445 171.67 28.2019 171.507 28.1124 171.444C28.0229 171.382 27.7971 171.348 27.4307 171.348C27.0643 171.348 26.83 171.382 26.7405 171.444C26.6553 171.507 26.6127 171.666 26.6127 171.93Z" fill="black"/>
<path d="M26.3997 170.595L26.3997 170.314L26.6809 170.323L26.6894 170.314C26.4721 170.226 26.3613 170.005 26.3613 169.649C26.3613 169.364 26.421 169.172 26.519 169.071C26.6212 168.971 26.8215 168.921 27.1197 168.921L28.466 168.921L28.466 169.21L27.0686 169.21C26.8896 169.21 26.7661 169.243 26.7022 169.306C26.6425 169.373 26.6084 169.498 26.6084 169.687C26.6084 170.101 26.8129 170.302 27.2219 170.302L28.466 170.302L28.466 170.595L26.3954 170.595L26.3997 170.595Z" fill="black"/>
<path d="M26.9792 168.084L26.9792 168.373C26.7364 168.373 26.5745 168.322 26.4935 168.218C26.4041 168.113 26.3657 167.908 26.3657 167.603C26.3657 167.272 26.4211 167.046 26.5191 166.929C26.6256 166.812 26.8173 166.753 27.1071 166.753L28.4747 166.753L28.4747 167.042L28.2489 167.017L28.2489 167.025C28.4193 167.138 28.5002 167.36 28.5002 167.703C28.5002 168.205 28.2915 168.452 27.8739 168.452C27.6226 168.452 27.4522 168.398 27.3584 168.285C27.2604 168.172 27.2178 167.971 27.2178 167.674C27.2178 167.322 27.2903 167.117 27.4308 167.046L27.4308 167.038L27.171 167.038C26.9324 167.038 26.7833 167.071 26.7151 167.13C26.6384 167.197 26.6086 167.331 26.6086 167.54C26.6086 167.9 26.7151 168.08 26.9196 168.08L26.9792 168.08L26.9792 168.084ZM27.4479 167.607C27.4479 167.833 27.4735 167.975 27.5246 168.046C27.5714 168.113 27.6822 168.147 27.8356 168.147C28.0103 168.147 28.1168 168.113 28.1679 168.046C28.2276 167.979 28.2531 167.841 28.2531 167.64C28.2531 167.226 28.1253 167.025 27.8612 167.025C27.7035 167.025 27.5927 167.063 27.5374 167.146C27.4777 167.222 27.4521 167.377 27.4521 167.607" fill="black"/>
<path d="M25.5093 165.924L25.5093 166.213L28.4703 166.213L28.4703 165.924L25.5093 165.924Z" fill="black"/>
<path d="M28.4703 164.321L25.5093 164.321L25.5093 163.011C25.5093 162.689 25.5732 162.467 25.701 162.346C25.8288 162.229 26.0717 162.17 26.4253 162.17C26.7619 162.17 26.9877 162.229 27.1197 162.354C27.239 162.476 27.3029 162.706 27.3029 163.041L27.3029 163.987L28.4661 163.987L28.4661 164.317L28.4703 164.321ZM27.0218 163.991L27.0218 163.233C27.0218 162.915 26.9919 162.706 26.9195 162.614C26.8556 162.526 26.6937 162.48 26.4551 162.48C26.1654 162.48 25.9907 162.509 25.914 162.572C25.8373 162.635 25.8033 162.781 25.8033 163.007L25.7947 163.129L25.7947 163.991L27.0218 163.991Z" fill="black"/>
<path d="M26.9792 161.51L26.9792 161.798C26.7364 161.798 26.5745 161.744 26.4935 161.639C26.4041 161.535 26.3657 161.334 26.3657 161.024C26.3657 160.694 26.4211 160.468 26.5191 160.35C26.6256 160.229 26.8173 160.175 27.1071 160.175L28.4747 160.175L28.4747 160.463L28.2489 160.438L28.2489 160.447C28.4193 160.56 28.5002 160.781 28.5002 161.125C28.5002 161.627 28.2915 161.878 27.8739 161.878C27.6226 161.878 27.4522 161.819 27.3584 161.711C27.2604 161.598 27.2178 161.392 27.2178 161.095C27.2178 160.748 27.2903 160.539 27.4308 160.468L27.4308 160.463L27.171 160.463C26.9324 160.463 26.7833 160.497 26.7151 160.556C26.6384 160.618 26.6086 160.756 26.6086 160.97C26.6086 161.326 26.7151 161.505 26.9196 161.505L26.9792 161.505L26.9792 161.51ZM27.4479 161.037C27.4479 161.259 27.4735 161.405 27.5246 161.472C27.5714 161.539 27.6822 161.572 27.8356 161.572C28.0103 161.572 28.1168 161.539 28.1679 161.472C28.2276 161.405 28.2531 161.267 28.2531 161.066C28.2531 160.656 28.1253 160.447 27.8612 160.447C27.7035 160.447 27.5927 160.489 27.5374 160.568C27.4777 160.652 27.4521 160.802 27.4521 161.037" fill="black"/>
<path d="M26.3999 159.601L26.3999 159.313L26.6385 159.342L26.647 159.342C26.4425 159.22 26.3445 159.032 26.3445 158.764C26.3445 158.4 26.5362 158.216 26.941 158.216L27.0815 158.216L27.0815 158.505L27.0347 158.505C26.975 158.501 26.941 158.501 26.9196 158.501C26.6981 158.501 26.5959 158.609 26.5959 158.831C26.5959 159.154 26.8046 159.317 27.2264 159.317L28.4705 159.317L28.4705 159.605L26.3999 159.605L26.3999 159.601Z" fill="black"/>
<path d="M26.3998 156.877L26.6469 156.877L26.6469 157.647L27.9166 157.647C28.1381 157.647 28.2489 157.555 28.2489 157.363C28.2489 157.17 28.1509 157.078 27.9464 157.078L27.8441 157.078L27.7334 157.07L27.7334 156.798L27.8867 156.798C28.2957 156.794 28.496 156.982 28.496 157.354C28.496 157.727 28.3256 157.936 27.9847 157.936L26.6469 157.936L26.6469 158.208L26.3998 158.208L26.3998 157.936L25.8928 157.936L25.8928 157.647L26.3998 157.647L26.3998 156.877Z" fill="black"/>
<path d="M26.3997 156.542L26.3997 156.266L26.6809 156.274L26.6894 156.266C26.4721 156.178 26.3613 155.952 26.3613 155.6C26.3613 155.312 26.421 155.119 26.519 155.019C26.6212 154.918 26.8215 154.864 27.1197 154.864L28.466 154.864L28.466 155.153L27.0686 155.153C26.8896 155.153 26.7661 155.19 26.7022 155.253C26.6425 155.32 26.6084 155.446 26.6084 155.634C26.6084 156.044 26.8129 156.249 27.2219 156.249L28.466 156.249L28.466 156.538L26.3954 156.538L26.3997 156.542Z" fill="black"/>
<path d="M27.8399 152.952L27.8399 152.655L27.9165 152.646C28.1296 152.646 28.2787 152.709 28.3682 152.835C28.4576 152.956 28.496 153.182 28.496 153.496C28.496 153.864 28.4235 154.111 28.2872 154.224C28.1509 154.337 27.8569 154.396 27.4095 154.396C26.9963 154.396 26.7151 154.337 26.5787 154.224C26.4382 154.111 26.3657 153.885 26.3657 153.546C26.3657 153.178 26.4296 152.939 26.5532 152.826C26.6767 152.713 26.9366 152.655 27.3329 152.655L27.499 152.655L27.499 154.09C27.8228 154.09 28.0316 154.057 28.1168 153.99C28.2063 153.918 28.2531 153.764 28.2531 153.517C28.2531 153.27 28.2276 153.127 28.1935 153.056C28.1466 152.989 28.0529 152.952 27.9123 152.952L27.8441 152.952L27.8399 152.952ZM27.2519 152.952L27.1582 152.952C26.9324 152.952 26.7833 152.989 26.7151 153.061C26.6512 153.136 26.6171 153.287 26.6171 153.525C26.6171 153.764 26.6554 153.91 26.7364 153.981C26.8173 154.057 26.992 154.086 27.2562 154.086L27.2562 152.952L27.2519 152.952Z" fill="black"/>
<path d="M26.3999 152.161L26.3999 151.868L26.6385 151.897L26.647 151.889C26.4425 151.776 26.3445 151.583 26.3445 151.32C26.3445 150.956 26.5362 150.771 26.941 150.771L27.0815 150.771L27.0815 151.056L27.0347 151.056C26.975 151.056 26.941 151.056 26.9196 151.056C26.6981 151.056 26.5959 151.165 26.5959 151.391C26.5959 151.709 26.8046 151.872 27.2264 151.872L28.4705 151.872L28.4705 152.165L26.3999 152.165L26.3999 152.161Z" fill="black"/>
<path d="M26.945 148.942L26.945 149.231C26.7959 149.231 26.7022 149.26 26.6681 149.319C26.6297 149.373 26.6127 149.52 26.6127 149.754C26.6127 149.972 26.6297 150.11 26.6681 150.173C26.7064 150.231 26.7916 150.26 26.9322 150.26C27.1453 150.26 27.2603 150.16 27.2688 149.963L27.2816 149.725L27.2944 149.424C27.3157 149.059 27.5117 148.879 27.8866 148.879C28.1252 148.879 28.2786 148.938 28.368 149.055C28.4575 149.177 28.4958 149.403 28.4958 149.721C28.4958 150.039 28.4532 150.273 28.3723 150.399C28.2913 150.52 28.1422 150.587 27.9207 150.587L27.8142 150.579L27.8142 150.277L27.9079 150.277C28.0442 150.277 28.1337 150.24 28.1763 150.173C28.2232 150.106 28.2487 149.972 28.2487 149.775C28.2487 149.537 28.2232 149.373 28.172 149.298C28.1252 149.223 28.0272 149.185 27.8738 149.185C27.6565 149.185 27.55 149.281 27.55 149.474C27.55 149.917 27.5074 150.21 27.435 150.348C27.3583 150.491 27.1921 150.562 26.945 150.562C26.7107 150.562 26.5531 150.507 26.4764 150.394C26.3997 150.286 26.3613 150.064 26.3613 149.733C26.3613 149.206 26.5317 148.938 26.8641 148.938L26.9408 148.938L26.945 148.942Z" fill="black"/>
<path d="M25.5093 143.393L28.4703 144.285L28.4703 144.774L26.3401 145.373L26.0759 145.448C26.0759 145.448 26.0163 145.465 25.9438 145.482L25.8118 145.524L25.8118 145.532L25.9438 145.565L26.0759 145.607L26.3486 145.683L28.4746 146.289L28.4746 146.775L25.5135 147.649L25.5135 147.319L27.6395 146.704L27.9292 146.62C27.9292 146.62 28.0017 146.599 28.0698 146.578L28.2147 146.536L28.2147 146.528L28.0698 146.49L27.9292 146.448L27.6395 146.365L25.5135 145.762L25.5135 145.289L27.6395 144.687L27.9292 144.603L28.0741 144.565L28.2147 144.523L28.2147 144.515L28.0698 144.473L27.925 144.431L27.6353 144.343L25.5135 143.72L25.5135 143.385L25.5093 143.393Z" fill="black"/>
<path d="M26.3613 142.305C26.3613 141.937 26.4338 141.694 26.5616 141.585C26.6936 141.476 26.9876 141.418 27.435 141.418C27.8823 141.418 28.1635 141.476 28.2956 141.585C28.4277 141.694 28.4958 141.937 28.4958 142.305C28.4958 142.673 28.4277 142.912 28.2956 143.02C28.1635 143.129 27.8738 143.184 27.435 143.184C26.9961 143.184 26.6936 143.129 26.5616 143.02C26.4338 142.912 26.3613 142.669 26.3613 142.305ZM26.6127 142.305C26.6127 142.56 26.6553 142.723 26.7405 142.786C26.8342 142.849 27.06 142.878 27.4307 142.878C27.8014 142.878 28.0229 142.849 28.1124 142.786C28.2019 142.723 28.2445 142.564 28.2445 142.305C28.2445 142.045 28.2019 141.886 28.1124 141.819C28.0229 141.761 27.7971 141.727 27.4307 141.727C27.0643 141.727 26.83 141.761 26.7405 141.819C26.6553 141.886 26.6127 142.045 26.6127 142.305Z" fill="black"/>
<path d="M26.3999 140.933L26.3999 140.644L26.6385 140.673L26.647 140.673C26.4425 140.552 26.3445 140.363 26.3445 140.1C26.3445 139.732 26.5362 139.547 26.941 139.547L27.0815 139.547L27.0815 139.836L27.0347 139.836C26.975 139.828 26.941 139.828 26.9196 139.828C26.6981 139.828 26.5959 139.937 26.5959 140.158C26.5959 140.481 26.8046 140.644 27.2264 140.644L28.4705 140.644L28.4705 140.933L26.3999 140.933Z" fill="black"/>
<path d="M25.5093 138.978L25.5093 139.267L28.4703 139.267L28.4703 138.978L25.5093 138.978Z" fill="black"/>
<path d="M25.5093 136.786L28.4703 136.786L28.4703 137.074L28.2019 137.062L28.2019 137.07C28.3979 137.162 28.4959 137.376 28.4959 137.71C28.4959 138.016 28.4192 138.225 28.2658 138.338C28.1124 138.451 27.8227 138.51 27.4009 138.51C27.009 138.51 26.7406 138.451 26.5914 138.338C26.4423 138.229 26.3656 138.024 26.3656 137.727C26.3656 137.367 26.4679 137.15 26.6681 137.079L26.6596 137.07L25.5135 137.07L25.5135 136.781L25.5093 136.786ZM26.6127 137.664C26.6127 137.882 26.6639 138.02 26.7704 138.095C26.8726 138.167 27.0771 138.204 27.3967 138.204C27.7418 138.204 27.9718 138.171 28.0869 138.095C28.1977 138.029 28.2488 137.882 28.2488 137.66C28.2488 137.422 28.1934 137.263 28.0869 137.192C27.9761 137.116 27.7375 137.083 27.3711 137.083C27.0729 137.083 26.8726 137.125 26.7704 137.204C26.6639 137.284 26.6127 137.438 26.6127 137.669" fill="black"/>
<path d="M26.3999 133.68L28.4705 134.241L28.4705 134.676L27.3244 134.944L26.9708 135.024L26.7961 135.061L26.6172 135.103L26.7961 135.145L26.9708 135.187L27.3244 135.27L28.4705 135.538L28.4705 135.978L26.3999 136.518L26.3999 136.212L27.546 135.932L27.9081 135.844L28.0871 135.802L28.266 135.76L28.266 135.756L28.0871 135.71L27.9081 135.672L27.5502 135.589L26.3999 135.317L26.3999 134.89L27.5502 134.618L27.9081 134.534L28.0871 134.496L28.266 134.45L28.0871 134.4L27.9081 134.362L27.546 134.27L26.3999 133.99L26.3999 133.68Z" fill="black"/>
<path d="M25.8501 133.128L25.8501 133.417L25.5093 133.417L25.5093 133.128L25.8501 133.128ZM28.4703 133.128L28.4703 133.417L26.3997 133.417L26.3997 133.128L28.4703 133.128Z" fill="black"/>
<path d="M25.5093 130.939L28.4703 130.939L28.4703 131.228L28.2019 131.215L28.2019 131.223C28.3979 131.316 28.4959 131.529 28.4959 131.868C28.4959 132.169 28.4192 132.383 28.2658 132.496C28.1124 132.609 27.8227 132.663 27.4009 132.663C27.009 132.663 26.7406 132.609 26.5914 132.496C26.4423 132.379 26.3656 132.178 26.3656 131.889C26.3656 131.525 26.4679 131.307 26.6681 131.24L26.6596 131.232L25.5135 131.232L25.5135 130.943L25.5093 130.939ZM26.6127 131.814C26.6127 132.031 26.6639 132.169 26.7704 132.245C26.8726 132.316 27.0771 132.353 27.3967 132.353C27.7418 132.353 27.9718 132.316 28.0869 132.245C28.1977 132.173 28.2488 132.031 28.2488 131.809C28.2488 131.567 28.1934 131.408 28.0869 131.341C27.9761 131.27 27.7375 131.232 27.3711 131.232C27.0729 131.232 26.8726 131.274 26.7704 131.353C26.6639 131.433 26.6127 131.592 26.6127 131.822" fill="black"/>
<path d="M27.8399 129.04L27.8399 128.743L27.9165 128.734C28.1296 128.734 28.2787 128.801 28.3682 128.922C28.4576 129.048 28.496 129.27 28.496 129.588C28.496 129.956 28.4235 130.199 28.2872 130.312C28.1509 130.429 27.8569 130.483 27.4095 130.483C26.9963 130.483 26.7151 130.425 26.5787 130.312C26.4382 130.199 26.3657 129.969 26.3657 129.63C26.3657 129.266 26.4296 129.023 26.5532 128.91C26.6767 128.793 26.9366 128.738 27.3329 128.738L27.499 128.738L27.499 130.174C27.8228 130.174 28.0316 130.14 28.1168 130.073C28.2063 130.006 28.2531 129.851 28.2531 129.6C28.2531 129.366 28.2276 129.215 28.1935 129.144C28.1466 129.073 28.0529 129.04 27.9123 129.04L27.8441 129.04L27.8399 129.04ZM27.2519 129.04L27.1582 129.04C26.9324 129.04 26.7833 129.077 26.7151 129.144C26.6512 129.22 26.6171 129.37 26.6171 129.609C26.6171 129.847 26.6554 129.994 26.7364 130.069C26.8173 130.14 26.992 130.174 27.2562 130.174L27.2562 129.04L27.2519 129.04Z" fill="black"/>
<path d="M10.7595 155.625C10.0054 156.337 9.74976 157.375 9.74976 159.66L9.74976 170.025L23.7966 170.025L23.7966 166.108L20.2988 166.108L20.2988 160.024L20.3158 159.295C20.3158 155.554 19.1314 154.516 14.8751 154.516C12.7449 154.516 11.6457 154.822 10.7595 155.63M16.8776 160.116L16.8776 166.104L13.1667 166.104L13.1667 160.116C13.1667 158.869 13.6524 158.425 15.0796 158.425C16.5069 158.425 16.8733 158.848 16.8733 160.116" fill="black"/>
<path d="M9.74975 131.68L20.401 135.534L9.74976 138.719L9.74976 143.423L20.401 146.779L9.74976 150.524L9.74976 154.517L23.7966 149.319L23.7966 144.092L13.8185 141.121L23.7966 138.279L23.7966 132.977L9.74975 127.721L9.74975 131.68Z" fill="black"/>
<path d="M10.7595 172.608C10.0054 173.315 9.74976 174.353 9.74976 176.638L9.74976 187.008L23.7966 187.008L23.7966 183.091L20.2988 183.091L20.2988 177.01L20.3158 176.282C20.3158 172.537 19.1314 171.503 14.8751 171.503C12.7449 171.503 11.6457 171.808 10.7595 172.616M16.8776 177.098L16.8776 183.087L13.1667 183.087L13.1667 177.098C13.1667 175.851 13.6524 175.407 15.0796 175.407C16.5069 175.407 16.8733 175.83 16.8733 177.098" fill="black"/>
<path d="M28.0315 65.5514C28.0315 66.1707 27.9122 66.7566 27.6736 67.3048C27.435 67.853 27.1027 68.3343 26.6809 68.7486C26.2591 69.1629 25.7692 69.4893 25.2111 69.7237C24.6529 69.958 24.0565 70.0752 23.4259 70.0752C22.7954 70.0752 22.1904 69.958 21.6365 69.7237C21.0826 69.4893 20.5927 69.1629 20.1709 68.7486C19.7491 68.3343 19.4168 67.853 19.1782 67.3048C18.9396 66.7566 18.8203 66.1707 18.8203 65.5514C18.8203 64.932 18.9396 64.3461 19.1782 63.8021C19.4168 63.2539 19.7491 62.7726 20.1709 62.3583C20.5927 61.944 21.0826 61.6176 21.6365 61.3833C22.1904 61.1489 22.7868 61.0317 23.4259 61.0317C24.065 61.0317 24.6529 61.1489 25.2111 61.3833C25.7692 61.6176 26.2591 61.944 26.6809 62.3583C27.1027 62.7726 27.435 63.2539 27.6736 63.8021C27.9122 64.3503 28.0315 64.9362 28.0315 65.5514ZM27.0814 65.5514C27.0814 65.0576 26.9877 64.593 26.8002 64.1578C26.6128 63.7226 26.3529 63.3418 26.0163 63.0112C25.6797 62.6806 25.2877 62.4211 24.8447 62.237C24.4016 62.0528 23.9287 61.9608 23.4259 61.9608C22.9232 61.9608 22.4417 62.0528 21.9986 62.237C21.5598 62.4211 21.1721 62.6806 20.8355 63.0112C20.4989 63.3418 20.2391 63.7268 20.0473 64.1578C19.8599 64.593 19.7661 65.0576 19.7661 65.5514C19.7661 66.0452 19.8599 66.5097 20.0473 66.9407C20.2348 67.3718 20.4989 67.7526 20.8355 68.0832C21.1721 68.4138 21.5598 68.6733 21.9986 68.8616C22.4375 69.0499 22.9147 69.142 23.4259 69.142C23.9372 69.142 24.4016 69.0499 24.8447 68.8658C25.2877 68.6816 25.6797 68.4264 26.0163 68.0958C26.3529 67.7652 26.617 67.3802 26.8002 66.9449C26.9877 66.5097 27.0814 66.0452 27.0814 65.5514ZM26.1654 65.338C26.1654 65.7899 26.0546 66.2293 25.8374 66.6562C25.6201 67.083 25.3048 67.4346 24.9 67.7066C24.491 67.9786 24.0011 68.1167 23.4302 68.1167C22.936 68.1167 22.4843 67.9911 22.0668 67.7401C21.6535 67.489 21.3212 67.15 21.0699 66.7273C20.8185 66.3046 20.6907 65.8443 20.6907 65.3421C20.6907 64.8818 20.7929 64.4633 20.9974 64.0867C21.0741 63.9193 21.2019 63.823 21.3894 63.7979C21.5726 63.7728 21.7302 63.8105 21.8666 63.9109C21.9773 63.9946 22.0412 64.1034 22.0583 64.2373C22.0753 64.3713 22.0583 64.4968 21.9944 64.614C21.9433 64.7228 21.9049 64.8399 21.8794 64.9613C21.8538 65.0827 21.841 65.2124 21.841 65.3463C21.841 65.6476 21.9134 65.9196 22.0583 66.1665C22.2031 66.4135 22.3949 66.6143 22.6335 66.765C22.872 66.9156 23.1362 66.991 23.4259 66.991C23.7582 66.991 24.0437 66.9115 24.2823 66.7524C24.5209 66.5934 24.7041 66.3884 24.8234 66.1373C24.9469 65.8862 25.0108 65.6225 25.0108 65.3463C25.0108 65.2208 24.998 65.0952 24.9725 64.9739C24.9469 64.8525 24.9086 64.7353 24.8574 64.614C24.7978 64.4968 24.7808 64.3713 24.7978 64.2373C24.8191 64.1034 24.8873 63.9946 24.998 63.9109C25.1514 63.7937 25.3176 63.7561 25.488 63.7896C25.6627 63.8272 25.7905 63.9193 25.8672 64.0699C25.9694 64.2708 26.0461 64.4801 26.0887 64.6935C26.1356 64.9069 26.1612 65.1245 26.1612 65.3421L26.1654 65.338Z" fill="black"/>
<path d="M18.9397 55.4069C18.9397 55.2897 18.9738 55.1642 19.0377 55.0344C19.1016 54.9047 19.1825 54.8043 19.2848 54.7373L24.0651 51.6866L24.0395 52.3143L19.2848 49.1882C19.0547 49.0292 18.9397 48.8241 18.9397 48.573C18.9397 48.3722 19.0121 48.1922 19.157 48.0332C19.3018 47.8742 19.4893 47.7946 19.7194 47.7946L27.1199 47.7946C27.3414 47.7946 27.5246 47.8658 27.6737 48.0081C27.8228 48.1504 27.8995 48.3387 27.8995 48.573C27.8995 48.8074 27.8271 48.9999 27.6737 49.1422C27.5246 49.2886 27.3414 49.3598 27.1199 49.3598L21.0998 49.3598L21.2148 48.8702L25.1899 51.4313C25.2836 51.5066 25.3645 51.6029 25.4327 51.7117C25.5009 51.8247 25.5307 51.9418 25.5222 52.059C25.5307 52.1678 25.5009 52.2766 25.4327 52.3938C25.3645 52.5068 25.2836 52.5989 25.1899 52.6742L21.3298 55.0721L20.6524 54.7457L27.1199 54.7457C27.3414 54.7457 27.5246 54.8126 27.6737 54.9466C27.8228 55.0805 27.8995 55.2562 27.8995 55.4738C27.8995 55.6915 27.8271 55.8547 27.6737 55.9886C27.5246 56.1225 27.3414 56.1895 27.1199 56.1895L19.7194 56.1895C19.5063 56.1895 19.3231 56.1141 19.1698 55.9551C19.0164 55.8003 18.9397 55.6161 18.9397 55.3985L18.9397 55.4069Z" fill="black"/>
<path d="M20.2306 45.3847C20.2306 45.6693 20.1837 45.8701 20.09 45.9873C19.9963 46.1045 19.8301 46.1631 19.5915 46.1631L19.3487 46.1631C19.1015 46.1631 18.9311 46.1003 18.8417 45.9664C18.7522 45.8367 18.7053 45.64 18.7053 45.3721C18.7053 45.0792 18.7522 44.8741 18.8459 44.757C18.9397 44.6398 19.1058 44.5812 19.3444 44.5812L19.5872 44.5812C19.8344 44.5812 20.0005 44.644 20.09 44.7695C20.1795 44.8951 20.2221 45.1001 20.2221 45.3847L20.2306 45.3847ZM27.1241 44.6189C27.3456 44.6189 27.5288 44.69 27.6779 44.8323C27.8271 44.9746 27.9037 45.1545 27.9037 45.3721C27.9037 45.5898 27.8313 45.7697 27.6779 45.912C27.5288 46.0543 27.3456 46.1254 27.1241 46.1254L21.8453 46.1254C21.6238 46.1254 21.4406 46.0543 21.2914 45.912C21.1423 45.7697 21.0699 45.5898 21.0699 45.3721C21.0699 45.1545 21.1423 44.9746 21.2914 44.8323C21.4406 44.69 21.628 44.6189 21.8453 44.6189L27.1241 44.6189Z" fill="black"/>
<path d="M20.9335 39.4843C20.9335 38.865 21.0655 38.3921 21.3297 38.0698C21.5938 37.7476 21.9475 37.5258 22.382 37.4044C22.8209 37.2831 23.3108 37.2245 23.8476 37.2245L27.1197 37.2245C27.3412 37.2245 27.5245 37.2956 27.6736 37.4379C27.8227 37.5802 27.8994 37.7602 27.8994 37.9778C27.8994 38.1954 27.8269 38.3753 27.6736 38.5176C27.5245 38.6599 27.3412 38.731 27.1197 38.731L23.8476 38.731C23.5664 38.731 23.3108 38.7687 23.0893 38.8398C22.8635 38.911 22.6845 39.0407 22.5482 39.2248C22.4119 39.409 22.3437 39.6726 22.3437 40.0158C22.3437 40.3589 22.4119 40.631 22.5482 40.8653C22.6845 41.0955 22.8635 41.2712 23.0893 41.3926C23.3151 41.514 23.5707 41.5726 23.8476 41.5726L27.1197 41.5726C27.3412 41.5726 27.5245 41.6437 27.6736 41.786C27.8227 41.9283 27.8994 42.1082 27.8994 42.3258C27.8994 42.5434 27.8269 42.7234 27.6736 42.8657C27.5245 43.008 27.3412 43.0791 27.1197 43.0791L21.8409 43.0791C21.6194 43.0791 21.4362 43.008 21.2871 42.8657C21.138 42.7234 21.0655 42.5434 21.0655 42.3258C21.0655 42.1082 21.138 41.9283 21.2871 41.786C21.4362 41.6437 21.6237 41.5726 21.8409 41.5726L22.3906 41.5726L22.3522 41.7609C22.2073 41.6855 22.0497 41.5767 21.8836 41.4345C21.7174 41.2922 21.564 41.1248 21.4149 40.9323C21.27 40.7398 21.1507 40.5222 21.0613 40.2794C20.9718 40.0367 20.9292 39.7731 20.9292 39.4885L20.9335 39.4843Z" fill="black"/>
<path d="M20.2306 34.9394C20.2306 35.224 20.1837 35.4248 20.09 35.542C19.9963 35.6592 19.8301 35.7178 19.5915 35.7178L19.3487 35.7178C19.1015 35.7178 18.9311 35.655 18.8417 35.5211C18.7522 35.3914 18.7053 35.1947 18.7053 34.9268C18.7053 34.6339 18.7522 34.4288 18.8459 34.3117C18.9397 34.1945 19.1058 34.1359 19.3444 34.1359L19.5872 34.1359C19.8344 34.1359 20.0005 34.1987 20.09 34.3242C20.1795 34.4498 20.2221 34.6548 20.2221 34.9394L20.2306 34.9394ZM27.1241 34.1736C27.3456 34.1736 27.5288 34.2447 27.6779 34.387C27.8271 34.5293 27.9037 34.7092 27.9037 34.9268C27.9037 35.1444 27.8313 35.3244 27.6779 35.4667C27.5288 35.609 27.3456 35.6801 27.1241 35.6801L21.8453 35.6801C21.6238 35.6801 21.4406 35.609 21.2914 35.4667C21.1423 35.3244 21.0699 35.1444 21.0699 34.9268C21.0699 34.7092 21.1423 34.5293 21.2914 34.387C21.4406 34.2447 21.628 34.1736 21.8453 34.1736L27.1241 34.1736Z" fill="black"/>
<path d="M18.9397 31.7126C18.9397 31.5954 18.9738 31.4698 19.0377 31.3401C19.1016 31.2104 19.1825 31.1099 19.2848 31.043L24.0651 27.9922L24.0395 28.6199L19.2848 25.4939C19.0547 25.3348 18.9397 25.1298 18.9397 24.8787C18.9397 24.6778 19.0121 24.4979 19.157 24.3389C19.3018 24.1798 19.4893 24.1003 19.7194 24.1003L27.1199 24.1003C27.3414 24.1003 27.5246 24.1715 27.6737 24.3137C27.8228 24.456 27.8995 24.6443 27.8995 24.8787C27.8995 25.113 27.8271 25.3055 27.6737 25.4478C27.5246 25.5943 27.3414 25.6654 27.1199 25.6654L21.0998 25.6654L21.2148 25.1758L25.1899 27.7369C25.2836 27.8123 25.3645 27.9085 25.4327 28.0173C25.5009 28.1303 25.5307 28.2475 25.5222 28.3647C25.5307 28.4735 25.5009 28.5823 25.4327 28.6995C25.3645 28.8124 25.2836 28.9045 25.1899 28.9798L21.3298 31.3778L20.6524 31.0513L27.1199 31.0513C27.3414 31.0513 27.5246 31.1183 27.6737 31.2522C27.8228 31.3861 27.8995 31.5619 27.8995 31.7795C27.8995 31.9971 27.8271 32.1603 27.6737 32.2942C27.5246 32.4282 27.3414 32.4951 27.1199 32.4951L19.7194 32.4951C19.5063 32.4951 19.3231 32.4198 19.1698 32.2608C19.0164 32.1059 18.9397 31.9218 18.9397 31.7042L18.9397 31.7126Z" fill="black"/>
<path d="M24.4867 15.8312C25.1854 15.8312 25.8032 15.9818 26.3358 16.2915C26.8683 16.597 27.2859 17.0071 27.5841 17.5219C27.8823 18.0366 28.0315 18.6141 28.0315 19.2502C28.0315 19.8863 27.8823 20.4638 27.5841 20.9785C27.2859 21.4933 26.8726 21.9034 26.3358 22.2089C25.8032 22.5144 25.1897 22.665 24.4867 22.665C23.7837 22.665 23.1702 22.5144 22.6377 22.2089C22.1051 21.9034 21.6876 21.4933 21.3851 20.9785C21.0826 20.4638 20.9292 19.8905 20.9292 19.2502C20.9292 18.6099 21.0826 18.0408 21.3851 17.5219C21.6876 17.0071 22.1051 16.597 22.6377 16.2915C23.1702 15.986 23.788 15.8312 24.4867 15.8312ZM24.4867 17.3377C24.0521 17.3377 23.6772 17.4256 23.3534 17.5972C23.0339 17.7688 22.7868 17.9989 22.6078 18.2877C22.4289 18.5764 22.3394 18.8987 22.3394 19.2502C22.3394 19.6017 22.4289 19.924 22.6078 20.2127C22.7868 20.5015 23.0339 20.7316 23.3534 20.9032C23.673 21.0748 24.0521 21.1627 24.4867 21.1627C24.9213 21.1627 25.2877 21.0748 25.6072 20.9032C25.9268 20.7316 26.1739 20.5015 26.3528 20.2127C26.5318 19.924 26.6212 19.6017 26.6212 19.2502C26.6212 18.8987 26.5318 18.5764 26.3528 18.2877C26.1739 17.9989 25.9268 17.7688 25.6072 17.5972C25.2877 17.4256 24.917 17.3377 24.4867 17.3377Z" fill="black"/>
<path d="M27.9037 13.7594C27.9037 13.977 27.8312 14.157 27.6779 14.2993C27.5287 14.4415 27.3455 14.5127 27.124 14.5127L21.8452 14.5127C21.6237 14.5127 21.4405 14.4415 21.2914 14.2993C21.1422 14.157 21.0698 13.977 21.0698 13.7594C21.0698 13.5418 21.1422 13.3619 21.2914 13.2196C21.4405 13.0773 21.6279 13.0061 21.8452 13.0061L23.0467 13.0061L22.1903 13.094C21.9858 13.002 21.8026 12.8848 21.645 12.7383C21.4873 12.5919 21.3553 12.4286 21.2488 12.2403C21.1422 12.0562 21.0656 11.8595 21.0144 11.6503C20.9633 11.441 20.9377 11.2318 20.9377 11.0225C20.9377 10.7714 21.0102 10.5622 21.155 10.3864C21.2999 10.2149 21.4703 10.1312 21.6663 10.1312C21.9475 10.1312 22.152 10.2023 22.2713 10.3446C22.3948 10.4869 22.4587 10.6417 22.4587 10.8091C22.4587 10.9681 22.4289 11.1146 22.3693 11.2443C22.3096 11.3741 22.2798 11.5205 22.2798 11.6879C22.2798 11.8386 22.3139 11.9934 22.3863 12.1483C22.4587 12.3031 22.5738 12.4454 22.7272 12.5751C22.8805 12.7048 23.068 12.8095 23.2938 12.889C23.5196 12.9685 23.788 13.0061 24.0948 13.0061L27.124 13.0061C27.3455 13.0061 27.5287 13.0773 27.6779 13.2196C27.827 13.3619 27.9037 13.5418 27.9037 13.7594Z" fill="black"/>
<path d="M20.2306 8.41108C20.2306 8.69565 20.1837 8.89652 20.09 9.0137C19.9963 9.13087 19.8301 9.18945 19.5915 9.18945L19.3487 9.18945C19.1015 9.18945 18.9311 9.12668 18.8417 8.99276C18.7522 8.86303 18.7053 8.66635 18.7053 8.39852C18.7053 8.10558 18.7522 7.90053 18.8459 7.78335C18.9397 7.66617 19.1058 7.60758 19.3444 7.60758L19.5872 7.60758C19.8344 7.60758 20.0005 7.67036 20.09 7.7959C20.1795 7.92145 20.2221 8.12651 20.2221 8.41108L20.2306 8.41108ZM27.1241 7.64107C27.3456 7.64107 27.5288 7.7122 27.6779 7.85448C27.8271 7.99677 27.9037 8.17672 27.9037 8.39433C27.9037 8.61195 27.8313 8.7919 27.6779 8.93418C27.5288 9.07647 27.3456 9.1476 27.1241 9.1476L21.8453 9.1476C21.6238 9.1476 21.4406 9.07647 21.2914 8.93418C21.1423 8.7919 21.0699 8.61195 21.0699 8.39433C21.0699 8.17672 21.1423 7.99677 21.2914 7.85448C21.4406 7.7122 21.628 7.64107 21.8453 7.64107L27.1241 7.64107Z" fill="black"/>
<path d="M28.0316 2.93352C28.0316 3.64495 27.8782 4.2643 27.5757 4.78741C27.2732 5.31052 26.8642 5.71226 26.3444 5.99265C25.8246 6.27303 25.2367 6.41113 24.5806 6.41113C23.8137 6.41113 23.1576 6.25629 22.6165 5.9508C22.0754 5.6453 21.6579 5.24774 21.3682 4.74975C21.0785 4.25593 20.9336 3.73283 20.9336 3.18043C20.9336 2.75357 21.0231 2.34763 21.202 1.96681C21.3809 1.58599 21.6281 1.25121 21.9391 0.958274C22.2501 0.665335 22.6122 0.435162 23.0212 0.259398C23.4302 0.0878195 23.8648 -6.02096e-05 24.325 -6.02297e-05C24.5295 0.00830921 24.6956 0.0878247 24.8234 0.238479C24.9512 0.389134 25.0152 0.564889 25.0152 0.765762L25.0152 5.56161L23.737 5.93824L23.737 1.33072L23.9926 1.60692L23.6475 1.60692C23.4004 1.62366 23.1789 1.71154 22.9829 1.86638C22.7869 2.02122 22.6293 2.21372 22.5142 2.44389C22.3992 2.67406 22.3396 2.92097 22.3396 3.18043C22.3396 3.43989 22.3736 3.66587 22.4418 3.88348C22.51 4.10109 22.625 4.28941 22.7869 4.44844C22.9488 4.60746 23.1661 4.733 23.4388 4.82507C23.7114 4.91714 24.0565 4.96317 24.4741 4.96317C24.9342 4.96317 25.3219 4.86692 25.6414 4.6786C25.961 4.49028 26.2038 4.24756 26.37 3.95044C26.5362 3.65331 26.6171 3.33526 26.6171 3.00466C26.6171 2.69498 26.5915 2.44808 26.5404 2.26394C26.4893 2.07981 26.4254 1.93334 26.3572 1.81616C26.2848 1.70317 26.2251 1.60274 26.1697 1.50649C26.0931 1.35583 26.0547 1.21354 26.0547 1.07963C26.0547 0.895492 26.1186 0.74065 26.2464 0.619289C26.3743 0.497928 26.5234 0.435168 26.6938 0.435168C26.9239 0.435168 27.1326 0.552342 27.3201 0.786693C27.5075 1.00431 27.6737 1.3098 27.81 1.70318C27.9506 2.09655 28.0231 2.50247 28.0231 2.92096L28.0316 2.93352Z" fill="black"/>
<path d="M3.78062 101.737C3.76358 100.967 3.11172 100.356 2.32353 100.373C1.5396 100.39 0.913307 101.03 0.93461 101.804C0.951652 102.574 1.60351 103.185 2.3917 103.169C3.17989 103.152 3.80193 102.512 3.78062 101.737Z" fill="black"/>
<path d="M3.34605 83.2489C3.32901 82.4789 2.67715 81.8679 1.88896 81.8847C1.10503 81.9014 0.478737 82.5417 0.500039 83.3159C0.517081 84.0859 1.16894 84.7011 1.95713 84.6801C2.74106 84.6634 3.36736 84.0231 3.34605 83.2489Z" fill="black"/>
<path d="M8.80791 76.6118C8.56506 76.7374 8.38612 76.9508 8.30943 77.2103C8.14327 77.7417 8.45003 78.3109 8.99537 78.4741C10.3545 78.88 11.9692 79.5789 12.0118 80.6125C12.0118 80.6209 12.0118 80.6293 12.0118 80.6376C12.0203 81.1147 11.8755 81.4621 11.5602 81.7299C10.4439 82.6799 7.55958 82.4915 6.63505 82.3493L6.62227 82.3493L6.59671 82.3451C6.03858 82.2614 5.51454 82.638 5.42507 83.1862C5.3356 83.7344 5.71905 84.2534 6.27291 84.3412C6.28995 84.3412 6.30699 84.3454 6.3283 84.3496L6.34534 84.3496C7.23578 84.4919 8.12197 84.7262 8.97407 85.0443C9.54497 85.2577 10.4056 85.58 10.8998 86.1449C11.164 86.4462 11.2534 86.961 10.9722 87.2539C10.8956 87.3334 10.6357 87.4506 9.71539 87.3711C7.65757 87.1869 5.91929 88.3545 5.67644 90.087C5.53158 91.1291 5.8426 92.0748 6.58819 92.8197C6.1451 93.1336 5.86816 93.5102 5.76591 93.9455C5.40377 95.4771 7.09519 96.2471 8.73548 97.0004C10.0264 97.5905 11.7903 98.3981 11.8456 99.2812C11.8456 99.2895 11.8456 99.2979 11.8456 99.3063C11.8542 99.5783 11.7775 99.7708 11.5943 99.9549C10.7379 100.788 8.21144 100.938 6.82252 100.838C6.27717 100.796 5.79574 101.181 5.72331 101.713C5.65088 102.244 6.01302 102.738 6.54984 102.838C10.8359 103.65 11.4324 104.88 11.5048 105.119C11.5304 105.203 11.6113 105.445 11.2705 105.789C10.9765 106.086 10.3928 106.077 9.54071 106.031C8.38612 105.969 6.64357 105.876 6.0045 107.705C5.73183 108.488 5.78295 109.258 6.15362 109.936C6.31978 110.241 6.5541 110.526 6.84382 110.781C6.55837 111.028 6.33256 111.317 6.1664 111.652C5.59975 112.786 5.81704 113.648 6.09823 114.175C6.307 114.564 6.63505 114.912 7.06963 115.209C6.73731 115.539 6.50724 115.941 6.38369 116.401C6.08119 117.54 6.46037 118.259 6.8353 118.661C7.93451 119.845 10.1755 119.553 10.6101 119.481C10.8828 119.435 11.1214 119.293 11.279 119.071C11.4366 118.854 11.5005 118.586 11.4537 118.322C11.3642 117.774 10.8316 117.397 10.2735 117.485C9.51515 117.607 8.7014 117.54 8.46707 117.343C8.30517 117.205 8.24126 117.012 8.29239 116.811C8.55654 115.815 11.5218 115.87 13.4391 116.221C13.9972 116.322 14.534 115.962 14.6405 115.414C14.6533 115.338 14.6618 115.263 14.6576 115.188C14.6405 114.715 14.2954 114.322 13.8183 114.234C13.4519 114.167 11.5218 113.84 9.70261 114.096C9.34473 114.037 8.18588 113.819 7.95155 113.317C7.80243 113.007 7.80669 112.723 7.96007 112.443C8.14753 112.104 8.64175 111.999 9.21692 111.903C9.29787 111.903 9.38308 111.89 9.46403 111.869C10.3587 111.769 11.6198 111.869 12.6722 112.124C13.2218 112.263 13.7842 111.932 13.9205 111.392C13.9461 111.3 13.9546 111.204 13.9503 111.108C13.9333 110.66 13.6138 110.275 13.1707 110.166C12.8256 110.082 11.0191 109.668 9.27656 109.856C9.02519 109.768 8.21996 109.463 7.95581 108.973C7.90894 108.885 7.77261 108.584 7.97711 108.291C8.18588 107.994 8.38612 107.981 9.41716 108.048C10.3374 108.107 11.7306 108.199 12.7276 107.203C13.4902 106.437 13.7586 105.458 13.4561 104.516C13.1877 103.671 12.5103 102.935 11.4366 102.328C12.097 102.089 12.6338 101.775 13.0258 101.395C13.6478 100.792 13.9418 100.018 13.8864 99.1556C13.7543 97.0757 11.4452 96.017 9.59184 95.1674C9.05076 94.9205 8.32221 94.5858 7.94303 94.3263C8.73974 93.9455 11.1256 93.7697 13.3326 93.9329C13.8992 93.9748 14.3934 93.5563 14.436 92.9997C14.4786 92.4347 14.0483 91.9577 13.4859 91.9158C11.7349 91.7861 10.2437 91.8028 9.05928 91.9786C9.05928 91.9786 9.05076 91.9786 9.05076 91.9744C9.04224 91.9744 9.03371 91.966 9.02519 91.966C8.87182 91.9242 7.54254 91.5266 7.70018 90.3674C7.80243 89.6351 8.70992 89.3128 9.51089 89.3882C10.4013 89.4677 11.5218 89.4719 12.3228 88.7688C12.8639 88.2959 13.1494 87.6096 13.1707 86.7266C13.1962 85.6846 12.6381 84.7806 11.5005 84.0399C12.0416 83.8432 12.506 83.5838 12.8809 83.2699C13.6606 82.6087 14.0611 81.6922 14.0441 80.6167C14.0441 80.5958 14.0441 80.5707 14.0441 80.5498C13.9759 78.767 12.4719 77.4195 9.57054 76.5532C9.30639 76.4737 9.02945 76.4988 8.78661 76.6286L8.80791 76.6118Z" fill="black"/>
<path d="M20.0046 111.229C19.9279 112.401 20.2901 113.313 20.8184 113.999C20.4179 114.15 20.0685 114.347 19.7958 114.606C18.9182 115.447 18.7818 116.301 18.8244 116.87C18.8585 117.318 19.0076 117.715 19.1994 118.059C18.8372 118.218 18.6327 118.393 18.5603 118.465C18.1385 118.87 18.1342 119.536 18.5475 119.946C18.7563 120.155 19.0545 120.272 19.3527 120.26C19.5104 120.251 19.6638 120.214 19.8001 120.143C20.077 120 20.3028 119.866 20.6309 119.846C20.9973 119.82 21.3637 119.875 21.7216 119.946C23.3661 120.277 25.7563 120.256 25.8585 120.256C26.4294 120.251 26.8896 119.804 26.9151 119.251C26.9151 119.235 26.9151 119.214 26.9151 119.197C26.9109 118.619 26.4252 118.155 25.8372 118.159C25.8159 118.159 23.5706 118.176 22.1476 117.891C22.0198 117.866 21.9005 117.845 21.7855 117.828C21.4233 117.774 20.9291 117.607 20.959 116.812C20.9717 116.506 21.0825 116.309 21.3765 116.058C21.9687 115.552 24.64 115.59 26.7916 115.941C27.371 116.037 27.9206 115.648 28.0186 115.079C28.0271 115.033 28.0314 114.991 28.0314 114.949C28.0527 114.43 27.6778 113.962 27.1409 113.874C26.5104 113.769 25.1641 113.581 23.7581 113.585C23.5706 113.531 22.0156 113.012 22.1349 111.38C22.1604 111.003 22.2925 110.739 22.5652 110.526C23.4854 109.794 25.5816 109.894 26.2462 109.99C26.8299 110.074 27.371 109.676 27.4562 109.103C27.4605 109.065 27.4647 109.028 27.4647 108.994C27.486 108.467 27.0983 107.994 26.553 107.915C26.1994 107.864 23.0423 107.458 21.2274 108.894C20.4946 109.475 20.0728 110.283 20.0046 111.237L20.0046 111.229Z" fill="black"/>
<path d="M19.6808 91.1707C18.9182 92.1164 18.8969 92.9827 19.0119 93.5393C19.0972 93.9536 19.2804 94.3135 19.5019 94.619C19.2079 94.8073 19.046 94.9872 18.9906 95.0584C18.6285 95.5145 18.7094 96.1716 19.1738 96.5273C19.4337 96.7281 19.7575 96.7951 20.0771 96.7072C20.3625 96.6277 20.5329 96.4185 20.8866 96.3013C21.1976 96.2008 21.8452 96.0879 22.3223 96.1213C23.9967 96.2385 26.3656 95.9163 26.4636 95.9037C27.0302 95.8242 27.4264 95.3262 27.3753 94.7738C27.3753 94.7571 27.3753 94.7403 27.371 94.7194C27.2901 94.1461 26.749 93.7485 26.1653 93.828C26.144 93.828 23.92 94.1335 22.4715 94.0331C22.2542 94.0164 22.0412 94.0498 21.8537 93.9452C21.6407 93.8239 21.172 93.4681 21.1038 93.1166C21.0911 93.0497 21.0485 92.8488 21.3552 92.4722C21.7216 92.0202 21.6407 91.359 21.1805 90.9991C20.7204 90.6392 20.0472 90.7187 19.6808 91.1707Z" fill="black"/>
<path d="M16.0253 87.7305C16.0977 88.5005 16.7879 89.0655 17.5718 88.9985C18.3558 88.9316 18.9309 88.2494 18.8628 87.4794C18.7903 86.7094 18.1001 86.1445 17.3162 86.2114C16.5323 86.2826 15.9571 86.9605 16.0253 87.7305Z" fill="black"/>
<path d="M20.111 87.4541C20.0258 88.0275 20.4263 88.5589 21.01 88.6426C21.125 88.6594 23.8773 89.0528 26.2504 88.605C26.7915 88.5045 27.1622 88.0149 27.111 87.4834C27.111 87.45 27.1025 87.4123 27.0983 87.3788C26.9875 86.8097 26.4294 86.4372 25.8499 86.546C23.839 86.9269 21.3466 86.5753 21.3253 86.5711C20.7416 86.4874 20.2005 86.8808 20.1153 87.4541L20.111 87.4541Z" fill="black"/>
<path d="M23.7409 76.5871C23.677 76.8507 23.7196 77.1353 23.8602 77.3697C23.9667 77.5454 24.1499 77.6375 24.299 77.7714C24.5121 77.9681 24.6441 78.2066 24.7677 78.4619C25.0191 78.9766 25.198 79.5751 25.1128 80.1484C25.0191 80.797 24.5802 81.295 23.775 81.6675C23.6514 80.0898 23.2296 77.5538 21.8194 76.7963C21.453 76.5996 20.6989 76.3527 19.7659 76.901C17.9466 77.9597 17.3246 79.9601 18.2534 81.7637C19.1992 83.6009 21.6277 84.8438 24.4439 83.672C26.9533 82.6258 27.3112 80.7887 27.2643 79.6755C27.2643 79.6127 27.2601 79.55 27.2516 79.4914C27.1152 77.8718 26.016 76.0472 25.0318 75.8129C24.4609 75.6748 23.8815 76.0221 23.7452 76.5829L23.7409 76.5871ZM20.1536 80.91C19.8511 80.2363 19.8212 78.8427 20.7926 78.7088C21.5297 78.6084 22.1816 82.019 21.4743 81.9562C20.8608 81.9018 20.3964 81.4541 20.1493 80.9059L20.1536 80.91Z" fill="black"/>
<path d="M27.2177 102.261C27.2177 104.416 25.4325 106.165 23.2426 106.165C21.0527 106.165 19.2676 104.412 19.2676 102.261C19.2676 100.11 21.0527 98.3561 23.2426 98.3561C25.4325 98.3561 27.2177 100.11 27.2177 102.261ZM21.4617 102.261C21.4617 103.223 22.2584 104.006 23.2384 104.006C24.2183 104.006 25.015 103.223 25.015 102.261C25.015 101.298 24.2183 100.515 23.2384 100.515C22.2584 100.515 21.4617 101.298 21.4617 102.261Z" fill="black"/>
</svg>
