<svg width="47" height="41" viewBox="0 0 47 41" fill="none" xmlns="http://www.w3.org/2000/svg">
<path d="M40.132 0.970703H6.86796C3.08115 0.970703 0 4.0522 0 7.83943V34.102C0 37.8892 3.08115 40.9707 6.86796 40.9707H40.132C43.9188 40.9707 47 37.8892 47 34.102V7.83943C47 4.0522 43.9188 0.970703 40.132 0.970703ZM31.3014 22.6902L43.3508 7.91657V34.1009C43.3508 34.3011 43.332 34.4971 43.2966 34.6868L31.3014 22.6902ZM40.132 4.61929C40.5021 4.61929 40.8565 4.68288 41.1879 4.79755L27.3603 21.7499C26.4107 22.9154 25.0036 23.5836 23.5005 23.5836C21.9975 23.5836 20.5903 22.9154 19.6397 21.7499L5.81207 4.79755C6.14353 4.68184 6.49793 4.61929 6.86796 4.61929H40.132ZM3.70238 34.6878C3.66694 34.4981 3.64818 34.3021 3.64818 34.102V7.91657L15.6976 22.6902L3.70238 34.6868V34.6878ZM6.86796 37.3221C6.66783 37.3221 6.47187 37.3034 6.28216 37.2679L18.1617 25.3871C19.6679 26.5755 21.5357 27.2332 23.4995 27.2332C25.4632 27.2332 27.3311 26.5755 28.8373 25.3871L40.7168 37.2679C40.5271 37.3034 40.3311 37.3221 40.131 37.3221H6.86796Z" fill="#FDE021"/>
</svg>
