<svg width="41" height="41" viewBox="0 0 41 41" fill="none" xmlns="http://www.w3.org/2000/svg">
<path d="M17.1959 40.2707C7.69585 38.5707 0.49585 30.3707 0.49585 20.4707C0.49585 9.4707 9.49585 0.470703 20.4958 0.470703C31.4958 0.470703 40.4958 9.4707 40.4958 20.4707C40.4958 30.3707 33.2958 38.5707 23.7958 40.2707L22.6959 39.3707H18.2958L17.1959 40.2707Z" fill="url(#paint0_linear_41_503)"/>
<path d="M28.2959 26.0705L29.1959 20.4705H23.8959V16.5705C23.8959 14.9705 24.4959 13.7705 26.8959 13.7705H29.4959V8.67051C28.0959 8.47051 26.4959 8.27051 25.0959 8.27051C20.4959 8.27051 17.2959 11.0705 17.2959 16.0705V20.4705H12.2959V26.0705H17.2959V40.1705C18.3959 40.3705 19.4959 40.4705 20.5959 40.4705C21.6959 40.4705 22.7959 40.3705 23.8959 40.1705V26.0705H28.2959Z" fill="white"/>
<defs>
<linearGradient id="paint0_linear_41_503" x1="20.6559" y1="39.2549" x2="20.6559" y2="0.668305" gradientUnits="userSpaceOnUse">
<stop stop-color="#0062E0"/>
<stop offset="1" stop-color="#19AFFF"/>
</linearGradient>
</defs>
</svg>
