<svg width="48" height="41" viewBox="0 0 48 41" fill="none" xmlns="http://www.w3.org/2000/svg">
<path d="M39.98 9.55974V6.92162C39.98 3.64015 37.3163 0.970703 34.042 0.970703H13.958C10.6837 0.970703 8.02 3.64015 8.02 6.92162V9.55974C3.82231 9.86992 0.5 13.3905 0.5 17.6757V34.2344C0.5 35.2443 1.31599 36.0621 2.32372 36.0621H10.6608V39.143C10.6608 40.1529 11.4767 40.9707 12.4845 40.9707H35.5155C36.5233 40.9707 37.3392 40.1529 37.3392 39.143V36.0621H45.6763C46.684 36.0621 47.5 35.2443 47.5 34.2344V17.6757C47.5 13.3905 44.1777 9.86992 39.98 9.55974ZM11.6674 6.92162C11.6674 5.65582 12.695 4.62606 13.958 4.62606H34.042C35.305 4.62606 36.3326 5.65582 36.3326 6.92162V9.53467H11.6674V6.92162ZM33.6918 37.3153H14.3082V27.708H33.6918V37.3153ZM43.8526 32.4067H37.3392V27.708H38.1563C39.164 27.708 39.98 26.8903 39.98 25.8804C39.98 24.8704 39.164 24.0527 38.1563 24.0527H35.5343C35.528 24.0527 35.5218 24.0527 35.5166 24.0527H12.4845C12.4782 24.0527 12.472 24.0527 12.4668 24.0527H9.84477C8.83703 24.0527 8.02104 24.8704 8.02104 25.8804C8.02104 26.8903 8.83703 27.708 9.84477 27.708H10.6618V32.4067H4.14849V17.6757C4.14849 15.2026 6.15667 13.19 8.62443 13.19H39.3776C41.8454 13.19 43.8536 15.2026 43.8536 17.6757V32.4067H43.8526Z" fill="#FDE021"/>
<path d="M38.1564 15.6963H34.4641C33.4564 15.6963 32.6404 16.514 32.6404 17.524C32.6404 18.5339 33.4564 19.3516 34.4641 19.3516H38.1564C39.1641 19.3516 39.9801 18.5339 39.9801 17.524C39.9801 16.514 39.1641 15.6963 38.1564 15.6963Z" fill="#FDE021"/>
<path d="M29.8202 29.6914H18.1796C17.4605 29.6914 16.877 30.2763 16.877 30.9969C16.877 31.7175 17.4605 32.3024 18.1796 32.3024H29.8202C30.5393 32.3024 31.1229 31.7175 31.1229 30.9969C31.1229 30.2763 30.5393 29.6914 29.8202 29.6914Z" fill="#FDE021"/>
<path d="M29.8202 32.9287H18.1796C17.4605 32.9287 16.877 33.5136 16.877 34.2342C16.877 34.9548 17.4605 35.5397 18.1796 35.5397H29.8202C30.5393 35.5397 31.1229 34.9548 31.1229 34.2342C31.1229 33.5136 30.5393 32.9287 29.8202 32.9287Z" fill="#FDE021"/>
</svg>
