<svg width="1262" height="837" viewBox="0 0 1262 837" fill="none" xmlns="http://www.w3.org/2000/svg">
<path d="M1262 0C1227.6 0 1197.79 19.5943 1183.13 48.2232C1168.46 19.5943 1138.64 0 1104.25 0C1069.86 0 1040.04 19.5943 1025.38 48.2232C1010.71 19.5943 980.893 0 946.504 0C912.115 0 882.297 19.5943 867.63 48.2232C852.963 19.5943 823.145 0 788.756 0C754.366 0 724.548 19.5943 709.881 48.2232C695.207 19.5943 665.389 0 631 0C596.611 0 566.793 19.5943 552.126 48.2232C537.459 19.5943 507.641 0 473.252 0C438.863 0 409.045 19.5943 394.378 48.2232C379.704 19.5943 349.893 0 315.504 0C281.115 0 251.296 19.5943 236.63 48.2232C221.955 19.5943 192.145 0 157.748 0C123.352 0 93.541 19.5943 78.8741 48.2232C64.2072 19.5943 34.3964 0 0 0C0 0 0 48.0555 0 96.9387L6.86225e-05 837H1262V639.596C1262 590.712 1262 0 1262 0Z" fill="#69CA98"/>
</svg>
