<svg width="41" height="41" viewBox="0 0 41 41" fill="none" xmlns="http://www.w3.org/2000/svg">
<mask id="mask0_41_507" style="mask-type:luminance" maskUnits="userSpaceOnUse" x="0" y="0" width="41" height="41">
<path d="M20.4979 0.470703C15.0682 0.470703 14.3848 0.495706 12.2512 0.591549C10.1219 0.687392 8.66753 1.02493 7.39657 1.52081C6.07976 2.03337 4.96715 2.71677 3.85453 3.82522C2.74192 4.93784 2.05851 6.05462 1.54596 7.36725C1.05007 8.63822 0.712539 10.0925 0.616696 12.2219C0.520852 14.3555 0.49585 15.0389 0.49585 20.4686C0.49585 25.8984 0.520852 26.5818 0.616696 28.7153C0.716706 30.8447 1.05007 32.299 1.54596 33.57C2.05851 34.8868 2.74192 35.9994 3.85453 37.112C4.96715 38.2246 6.07976 38.908 7.39657 39.4206C8.66753 39.9165 10.1219 40.254 12.2512 40.3499C14.3848 40.4457 15.0682 40.4707 20.4979 40.4707C25.9277 40.4707 26.6111 40.4457 28.7446 40.3499C30.874 40.254 32.3283 39.9165 33.6035 39.4206C34.9203 38.908 36.0329 38.2246 37.1455 37.112C38.2581 35.9994 38.9415 34.8826 39.4541 33.57C39.9458 32.299 40.2833 30.8447 40.3833 28.7153C40.4792 26.5818 40.5042 25.9025 40.5042 20.4686C40.5042 15.0347 40.4792 14.3555 40.3833 12.2219C40.2833 10.0925 39.9458 8.63822 39.4541 7.36725C38.9415 6.05045 38.2581 4.93784 37.1455 3.82522C36.0329 2.7126 34.9203 2.0292 33.6035 1.52081C32.3283 1.02493 30.874 0.687392 28.7446 0.591549C26.6111 0.495706 25.9318 0.470703 20.4979 0.470703ZM18.7061 4.07525C19.2395 4.07525 19.8312 4.07525 20.5021 4.07525C25.8443 4.07525 26.4736 4.09608 28.5863 4.19192C30.5365 4.27943 31.5949 4.60863 32.2992 4.8795C33.2326 5.24203 33.8993 5.67541 34.5994 6.37548C35.2995 7.07556 35.7329 7.74229 36.0954 8.67572C36.3704 9.37996 36.6955 10.4384 36.783 12.3886C36.8788 14.4972 36.8996 15.1306 36.8996 20.4686C36.8996 25.8067 36.8788 26.4401 36.783 28.5486C36.6955 30.4988 36.3663 31.5573 36.0954 32.2615C35.7329 33.1949 35.2995 33.8575 34.5994 34.5576C33.8993 35.2577 33.2326 35.691 32.2992 36.0536C31.5949 36.3286 30.5365 36.6536 28.5863 36.7411C26.4777 36.837 25.8443 36.8578 20.5021 36.8578C15.1599 36.8578 14.5265 36.837 12.4179 36.7411C10.4677 36.6495 9.40928 36.3244 8.70504 36.0536C7.77161 35.691 7.10487 35.2577 6.4048 34.5576C5.70473 33.8575 5.27135 33.1908 4.90881 32.2573C4.63378 31.5531 4.30875 30.4947 4.22124 28.5445C4.12539 26.4359 4.10456 25.8025 4.10456 20.4603C4.10456 15.1181 4.12539 14.4888 4.22124 12.3803C4.30875 10.4301 4.63795 9.37163 4.90881 8.66739C5.27135 7.73396 5.70473 7.06722 6.4048 6.36715C7.10487 5.66708 7.77161 5.2337 8.70504 4.87116C9.40928 4.59613 10.4677 4.2711 12.4179 4.17942C14.264 4.09608 14.9765 4.07108 18.7061 4.06691V4.07525ZM31.1782 7.39642C29.8531 7.39642 28.778 8.47154 28.778 9.79667C28.778 11.1218 29.8531 12.1969 31.1782 12.1969C32.5033 12.1969 33.5785 11.1218 33.5785 9.79667C33.5785 8.47154 32.5033 7.39642 31.1782 7.39642ZM20.4979 10.2009C14.8265 10.2009 10.226 14.8014 10.226 20.4728C10.226 26.1442 14.8265 30.7447 20.4979 30.7447C26.1694 30.7447 30.7698 26.1484 30.7698 20.4728C30.7698 14.7972 26.1735 10.2009 20.4979 10.2009ZM20.4979 13.8054C24.1817 13.8054 27.1653 16.7891 27.1653 20.4728C27.1653 24.1565 24.1817 27.1401 20.4979 27.1401C16.8142 27.1401 13.8306 24.1565 13.8306 20.4728C13.8306 16.7891 16.8142 13.8054 20.4979 13.8054Z" fill="white"/>
</mask>
<g mask="url(#mask0_41_507)">
<path d="M20.5105 -6.61328C9.20099 -6.61328 5.89231 -6.60078 5.25058 -6.54661C2.92951 -6.35492 1.48352 -5.98822 -0.0874743 -5.2048C-1.3001 -4.60057 -2.25437 -3.90467 -3.2003 -2.9254C-4.92131 -1.14188 -5.96309 1.05002 -6.33813 3.66279C-6.52148 4.92959 -6.57565 5.18795 -6.58398 11.6595C-6.58398 13.818 -6.58398 16.6558 -6.58398 20.4604C-6.58398 31.7616 -6.57148 35.0661 -6.51731 35.7078C-6.32979 37.9664 -5.97559 39.3873 -5.22551 40.9417C-3.79203 43.917 -1.05424 46.1505 2.17109 46.984C3.28788 47.2715 4.52134 47.4298 6.10484 47.5049C6.77574 47.534 13.614 47.5549 20.4563 47.5549C27.2987 47.5549 34.1411 47.5465 34.7953 47.5132C36.6288 47.4257 37.6956 47.284 38.8708 46.9798C42.1169 46.1422 44.8047 43.942 46.2674 40.925C47.0008 39.4082 47.3758 37.933 47.5467 35.7911C47.5842 35.3244 47.5967 27.882 47.5967 20.452C47.5967 13.0221 47.58 5.59216 47.5425 5.12544C47.3716 2.95022 47.0008 1.48756 46.2382 -0.0584321C45.6131 -1.32523 44.9255 -2.267 43.9171 -3.23376C42.1253 -4.94644 39.9334 -5.98822 37.3206 -6.36326C36.0538 -6.54661 35.8038 -6.60078 29.3281 -6.61328H20.5105Z" fill="url(#paint0_radial_41_507)"/>
<path d="M20.5105 -6.61328C9.20099 -6.61328 5.89231 -6.60078 5.25058 -6.54661C2.92951 -6.35492 1.48352 -5.98822 -0.0874743 -5.2048C-1.3001 -4.60057 -2.25437 -3.90467 -3.2003 -2.9254C-4.92131 -1.14188 -5.96309 1.05002 -6.33813 3.66279C-6.52148 4.92959 -6.57565 5.18795 -6.58398 11.6595C-6.58398 13.818 -6.58398 16.6558 -6.58398 20.4604C-6.58398 31.7616 -6.57148 35.0661 -6.51731 35.7078C-6.32979 37.9664 -5.97559 39.3873 -5.22551 40.9417C-3.79203 43.917 -1.05424 46.1505 2.17109 46.984C3.28788 47.2715 4.52134 47.4298 6.10484 47.5049C6.77574 47.534 13.614 47.5549 20.4563 47.5549C27.2987 47.5549 34.1411 47.5465 34.7953 47.5132C36.6288 47.4257 37.6956 47.284 38.8708 46.9798C42.1169 46.1422 44.8047 43.942 46.2674 40.925C47.0008 39.4082 47.3758 37.933 47.5467 35.7911C47.5842 35.3244 47.5967 27.882 47.5967 20.452C47.5967 13.0221 47.58 5.59216 47.5425 5.12544C47.3716 2.95022 47.0008 1.48756 46.2382 -0.0584321C45.6131 -1.32523 44.9255 -2.267 43.9171 -3.23376C42.1253 -4.94644 39.9334 -5.98822 37.3206 -6.36326C36.0538 -6.54661 35.8038 -6.60078 29.3281 -6.61328H20.5105Z" fill="url(#paint1_radial_41_507)"/>
</g>
<defs>
<radialGradient id="paint0_radial_41_507" cx="0" cy="0" r="1" gradientUnits="userSpaceOnUse" gradientTransform="translate(7.03727 50.9075) rotate(-90) scale(53.6306 49.8385)">
<stop stop-color="#FFDD55"/>
<stop offset="0.1" stop-color="#FFDD55"/>
<stop offset="0.5" stop-color="#FF543E"/>
<stop offset="1" stop-color="#C837AB"/>
</radialGradient>
<radialGradient id="paint1_radial_41_507" cx="0" cy="0" r="1" gradientUnits="userSpaceOnUse" gradientTransform="translate(-16.0616 -2.6798) rotate(78.68) scale(24.1067 98.8645)">
<stop stop-color="#3771C8"/>
<stop offset="0.13" stop-color="#3771C8"/>
<stop offset="1" stop-color="#6600FF" stop-opacity="0"/>
</radialGradient>
</defs>
</svg>
