<svg width="41" height="41" viewBox="0 0 41 41" fill="none" xmlns="http://www.w3.org/2000/svg">
<path d="M26.1734 40.9708C21.8103 40.9708 14.9647 38.3034 8.83897 30.8163C5.82054 27.1264 3.80092 24.1054 2.48442 21.3069C1.13097 18.4293 0.5 15.7585 0.5 12.8993C0.5 10.6518 1.38881 8.42447 3.14267 6.27989C4.17668 5.01531 5.70966 4.32186 7.3456 4.38258C8.99122 4.44155 10.4793 5.24763 11.4271 6.59317L15.4725 12.3379C16.7758 14.1885 16.3983 16.7203 14.6127 18.1011C13.5312 18.9379 13.2373 19.4088 13.1713 19.5381C13.2038 20.2791 13.6773 21.8675 16.2689 24.6316C18.6071 27.1256 19.2081 27.6615 20.2597 27.6615C20.4885 27.6615 21.0086 27.1687 21.3888 26.8096C22.2204 26.0229 23.3591 24.9449 25.0549 24.9449C27.0701 24.9449 29.8184 27.4168 30.9061 28.4799C32.2807 29.8228 34.5863 32.3871 34.5863 34.4763C34.5863 37.6126 31.2062 40.9708 26.1734 40.9708ZM7.15639 7.4591C6.52015 7.4591 5.93054 7.73718 5.5275 8.22999C4.23564 9.80961 3.58003 11.3813 3.58003 12.8993C3.58003 17.6663 5.72286 22.1429 11.2229 28.8653C14.6294 33.0287 20.5889 37.8898 26.1734 37.8898C29.4286 37.8898 31.5063 35.8676 31.5063 34.4754C31.4966 34.1304 30.8111 32.7145 28.8354 30.7626C26.9795 28.9296 25.4571 28.0795 25.0408 28.0249C24.6079 28.0328 24.1714 28.4174 23.507 29.0466C22.7088 29.8017 21.7162 30.7415 20.2606 30.7415C17.7755 30.7415 16.4423 29.3194 14.0231 26.7384C11.3769 23.9153 10.0903 21.5322 10.0903 19.4519C10.0903 18.2612 10.929 17.0582 12.7286 15.6652C13.2082 15.2938 13.3077 14.6118 12.9548 14.1111L8.90937 8.36639C8.52041 7.81462 7.91056 7.48462 7.2356 7.45998C7.2092 7.4591 7.1828 7.45822 7.15639 7.45822V7.4591Z" fill="#FDE021"/>
<path d="M28.0918 24.1889C27.2408 24.1889 26.5518 23.4999 26.5518 22.6489C26.5518 18.387 23.0845 14.9189 18.8218 14.9189C17.9708 14.9189 17.2817 14.2299 17.2817 13.3789C17.2817 12.5279 17.9708 11.8389 18.8218 11.8389C24.7821 11.8389 29.6318 16.6877 29.6318 22.6489C29.6318 23.4999 28.9428 24.1889 28.0918 24.1889Z" fill="#FDE021"/>
<path d="M33.0462 24.1893C32.1953 24.1893 31.5062 23.5002 31.5062 22.6493C31.5062 15.6549 25.8161 9.9648 18.8218 9.9648C17.9708 9.9648 17.2817 9.27575 17.2817 8.42478C17.2817 7.57381 17.9708 6.88477 18.8218 6.88477C27.5145 6.88477 34.5863 13.9565 34.5863 22.6493C34.5863 23.5002 33.8972 24.1893 33.0462 24.1893Z" fill="#FDE021"/>
<path d="M38.9599 24.1889C38.1089 24.1889 37.4199 23.4998 37.4199 22.6489C37.4199 12.3941 29.0765 4.05074 18.8218 4.05074C17.9708 4.05074 17.2817 3.36169 17.2817 2.51072C17.2817 1.65975 17.9708 0.970703 18.8218 0.970703C24.6122 0.970703 30.056 3.22529 34.1507 7.31997C38.2453 11.4147 40.4999 16.8584 40.4999 22.6489C40.4999 23.4998 39.8109 24.1889 38.9599 24.1889Z" fill="#FDE021"/>
</svg>
