<svg width="47" height="51" viewBox="0 0 47 51" fill="none" xmlns="http://www.w3.org/2000/svg">
<g clip-path="url(#clip0_41_685)">
<path d="M35.4069 30.2718C35.493 30.2602 35.5714 30.2121 35.6192 30.1311C36.6693 28.341 38.5457 21.4619 39.0794 17.4385C40.0759 9.92538 39.7622 3.8729 39.7584 3.81124C39.7488 3.64937 39.613 3.52605 39.4524 3.53568C39.2936 3.54532 39.1693 3.68213 39.1788 3.84399C39.1827 3.90373 39.4925 9.90611 38.5036 17.3614C37.9872 21.2499 36.1223 28.1271 35.12 29.8325C35.0377 29.9712 35.0836 30.1504 35.2214 30.2333C35.2787 30.268 35.3457 30.2795 35.4069 30.2718Z" fill="#754725"/>
<path d="M33.8233 9.82931C34.1542 5.74807 37.3026 2.6727 40.8584 2.96559C44.4123 3.26041 47.0232 6.80596 46.6923 10.8891C46.3614 14.9742 43.2111 18.0457 39.6572 17.7528C39.6285 17.7509 39.6017 17.7471 39.573 17.7451L39.8332 18.2211C39.9307 18.4003 39.7777 18.6122 39.5788 18.5737L38.2188 18.3078C38.0161 18.2673 37.9548 18.0053 38.1193 17.88L38.5516 17.5524C35.5773 16.6988 33.5249 13.4789 33.8214 9.83123L33.8233 9.82931Z" fill="#FFEF89"/>
<path d="M39.7068 18.8552C39.6475 18.8648 39.5863 18.8629 39.5251 18.8513L38.1651 18.5854C37.9605 18.545 37.8036 18.3927 37.7558 18.1885C37.708 17.9842 37.7826 17.778 37.949 17.6509L37.9547 17.647C35.0875 16.5352 33.2532 13.3326 33.542 9.80441C33.7084 7.76186 34.5577 5.89467 35.9349 4.5516C37.3216 3.19697 39.0794 2.53218 40.8793 2.68056C44.5805 2.98694 47.3138 6.67893 46.9714 10.9105C46.805 12.9549 45.9557 14.8202 44.5786 16.1652C43.3028 17.4119 41.7133 18.0729 40.0664 18.0555L40.0817 18.0825C40.1812 18.2617 40.1678 18.4775 40.0473 18.6452C39.9631 18.7608 39.8426 18.834 39.7087 18.8552H39.7068ZM38.366 18.0478L39.5423 18.2771L39.3262 17.8821C39.2764 17.7896 39.2803 17.6778 39.3376 17.5892C39.395 17.5006 39.4964 17.4524 39.5997 17.462L39.68 17.4697C41.3173 17.6046 42.9164 16.9976 44.1865 15.7586C45.4661 14.51 46.2561 12.7719 46.411 10.8661C46.7285 6.94677 44.2266 3.53033 40.8353 3.249C39.1999 3.11411 37.599 3.72302 36.3289 4.96204C35.0493 6.21069 34.2593 7.94878 34.1044 9.85451C33.8213 13.323 35.7264 16.4446 38.6299 17.279C38.7332 17.3079 38.8097 17.3946 38.8289 17.5006C38.848 17.6065 38.8078 17.7144 38.7217 17.78L38.366 18.0497V18.0478Z" fill="#754725"/>
<path d="M34.3491 36.0564C34.4294 36.0275 34.4983 35.9639 34.527 35.8753C35.1926 33.9079 35.6364 26.7879 35.3437 22.7394C34.7986 15.1801 33.2646 9.31838 33.2493 9.26057C33.2072 9.10449 33.0484 9.012 32.8935 9.05247C32.7386 9.09486 32.6467 9.25479 32.6869 9.41087C32.7022 9.46868 34.2209 15.2803 34.7642 22.7818C35.0472 26.6935 34.6131 33.8096 33.9761 35.6865C33.9245 35.8387 34.0048 36.0044 34.1578 36.0584C34.2209 36.0796 34.2879 36.0776 34.3472 36.0584L34.3491 36.0564Z" fill="#754725"/>
<path d="M28.4712 15.9733C28.0714 11.8979 30.623 8.30418 34.1731 7.95155C37.7212 7.60085 40.9193 10.6184 41.3191 14.6958C41.7189 18.7751 39.1653 22.365 35.6172 22.7176C35.5885 22.7195 35.5617 22.7215 35.533 22.7253L35.8735 23.1454C36.0017 23.3034 35.8888 23.5404 35.6861 23.5385L34.3012 23.5231C34.0946 23.5211 33.9875 23.2726 34.1291 23.1184L34.4963 22.7176C31.4187 22.4131 28.8269 19.6152 28.4731 15.9733H28.4712Z" fill="#7ED1EB"/>
<path d="M35.6898 23.8222C35.6898 23.8222 35.686 23.8222 35.6841 23.8222L34.2992 23.8068C34.0908 23.8048 33.909 23.6834 33.8268 23.4908C33.7445 23.2981 33.7809 23.0822 33.9224 22.9281L33.9263 22.9242C30.9079 22.3481 28.5361 19.5271 28.1918 16.0046C27.9929 13.964 28.4979 11.9754 29.613 10.405C30.7377 8.82298 32.3482 7.85181 34.1462 7.67453C37.8417 7.30841 41.187 10.4493 41.6002 14.6731C41.7991 16.7137 41.2942 18.7043 40.179 20.2747C39.1442 21.7295 37.6982 22.668 36.0743 22.9474L36.0934 22.9705C36.2235 23.1304 36.2483 23.3443 36.1603 23.5293C36.0724 23.7123 35.8926 23.826 35.6917 23.826L35.6898 23.8222ZM34.4006 23.2402L35.598 23.2537L35.3149 22.905C35.248 22.824 35.2327 22.7123 35.2728 22.614C35.313 22.5157 35.4048 22.4502 35.5081 22.4425L35.5884 22.4367C37.2219 22.2749 38.689 21.3885 39.7181 19.9413C40.7548 18.4827 41.2234 16.6309 41.0379 14.7271C40.6553 10.8135 37.5853 7.90383 34.1998 8.23719C32.5663 8.39905 31.0992 9.28544 30.0702 10.7345C29.0335 12.1932 28.5648 14.045 28.7504 15.9488C29.0889 19.4114 31.5162 22.14 34.5211 22.4386C34.6282 22.4483 34.7181 22.5196 34.7564 22.6198C34.7946 22.72 34.7736 22.8337 34.7009 22.9127L34.3987 23.2422L34.4006 23.2402Z" fill="#754725"/>
<path d="M11.5587 33.9309C11.4784 33.8982 11.4153 33.8307 11.3885 33.7402C10.8185 31.7419 10.721 24.6084 11.2106 20.5792C12.123 13.0565 13.9382 7.27573 13.9573 7.21985C14.0051 7.06569 14.1696 6.98091 14.3227 7.03101C14.4757 7.08111 14.5598 7.2449 14.5101 7.39905C14.4929 7.45686 12.693 13.1875 11.7883 20.6525C11.3158 24.5468 11.4038 31.6745 11.9489 33.5802C11.9929 33.7344 11.9049 33.8982 11.75 33.9425C11.685 33.9618 11.618 33.956 11.5607 33.9328L11.5587 33.9309Z" fill="#754725"/>
<path d="M18.7639 13.5618C19.5749 9.54797 17.402 5.71146 13.9074 4.99464C10.4128 4.27975 6.92398 6.95048 6.11297 10.9662C5.30006 14.9819 7.47485 18.8165 10.9694 19.5333C10.9962 19.5391 11.0249 19.5429 11.0517 19.5487L10.6691 19.9322C10.5257 20.0767 10.6137 20.3234 10.8164 20.3426L12.1955 20.4698C12.4021 20.4891 12.5322 20.2521 12.4078 20.0863L12.0846 19.6489C15.1775 19.6643 18.0389 17.1478 18.762 13.5618H18.7639Z" fill="#6CCA98"/>
<path d="M12.2913 20.7492C12.253 20.755 12.2128 20.755 12.1707 20.7511L10.7917 20.624C10.5889 20.6047 10.4187 20.4736 10.3498 20.279C10.281 20.0844 10.3269 19.8744 10.4722 19.7299L10.4933 19.7087C8.90569 19.2635 7.56294 18.1825 6.68117 16.6275C5.73053 14.9491 5.43023 12.9182 5.83573 10.9084C6.67734 6.74814 10.323 3.97144 13.963 4.71523C15.7342 5.0775 17.2376 6.2086 18.194 7.90045C19.1446 9.5788 19.4449 11.6098 19.0394 13.6176C18.3394 17.0861 15.6883 19.6431 12.6317 19.9091L12.6355 19.9148C12.7599 20.0825 12.7752 20.3022 12.6738 20.4852C12.5916 20.6317 12.4519 20.728 12.2913 20.7492ZM10.9351 20.069L12.1287 20.1788L11.8628 19.8204C11.7978 19.7337 11.7882 19.6181 11.836 19.5237C11.8838 19.4273 11.9833 19.3676 12.0885 19.3676C15.1126 19.3811 17.8019 16.9165 18.4886 13.5078C18.8673 11.6348 18.5899 9.74259 17.7062 8.18563C16.8302 6.63831 15.4607 5.60547 13.8521 5.27597C10.5162 4.59384 7.16892 7.17207 6.39043 11.0259C6.01171 12.9008 6.28905 14.7911 7.17274 16.35C8.04878 17.8954 9.41831 18.9283 11.0269 19.2597L11.1054 19.2751C11.2086 19.2944 11.2928 19.3695 11.3234 19.4697C11.354 19.5699 11.3272 19.6798 11.2526 19.7549L10.9351 20.0728V20.069Z" fill="#754725"/>
<mask id="mask0_41_685" style="mask-type:luminance" maskUnits="userSpaceOnUse" x="8" y="0" width="31" height="51">
<path d="M12.2473 28.2044L11.5989 29.2026L9.16397 47.6626L22.4862 51L38.6891 45.5603L34.1502 33.4707L36.7458 16.614L37.0327 4.06196L25.8718 0L15.1413 1.01549L8.73169 14.5811L12.2473 28.2044Z" fill="white"/>
</mask>
<g mask="url(#mask0_41_685)">
<path d="M36.7345 27.7018C36.6331 27.6979 36.5394 27.6401 36.4897 27.5515C36.4399 27.4628 36.438 27.3549 36.4858 27.2644C36.4973 27.2412 36.7862 26.6824 36.4419 26.3279C35.6691 25.5321 34.3034 26.6054 34.29 26.615C34.2231 26.6689 34.137 26.6901 34.0528 26.6728C33.9687 26.6574 33.896 26.6054 33.8539 26.5302C33.8176 26.4685 33.4694 25.9232 32.7541 26.2026C32.7426 26.2065 32.7311 26.2084 32.7197 26.2123C32.6317 26.3279 32.5188 26.4358 32.3792 26.5302C31.6638 27.01 31.0785 26.8501 30.6902 26.6015C30.6501 26.7634 30.5793 26.9329 30.4569 27.089C30.1814 27.4397 29.7358 27.6228 29.1294 27.6286C28.4963 27.6343 28.0812 27.3819 27.8249 27.089C27.5801 27.4705 27.1536 27.8193 26.4784 27.7923C26.0384 27.775 25.6999 27.6324 25.4723 27.3684C25.4455 27.3376 25.4225 27.3068 25.3996 27.2759C25.0438 27.7307 24.4623 28.1662 23.6532 28.1662C23.5346 28.1662 23.4103 28.1565 23.2802 28.1373C22.4253 28.0043 21.949 27.5245 21.7156 27.0832C21.2967 27.5245 20.5144 28.1199 19.4089 28.0216C18.2057 27.9157 17.586 27.2567 17.3163 26.6882C16.9261 27.0177 16.226 27.4031 15.1912 27.22C14.254 27.0543 13.5979 26.6092 13.2441 25.9213C12.5383 25.6535 12.194 26.193 12.1557 26.2547C12.1117 26.3279 12.039 26.3799 11.9549 26.3953C11.8707 26.4107 11.7846 26.3895 11.7196 26.3375C11.7062 26.3279 10.3405 25.2546 9.56777 26.0504C9.21774 26.4107 9.51995 26.9811 9.52378 26.9869C9.5716 27.0775 9.5716 27.1873 9.51995 27.2759C9.46831 27.3646 9.37459 27.4204 9.27321 27.4243C9.17375 27.4282 8.66878 27.4821 8.65157 28.1238C8.63627 28.6575 9.02073 28.8522 9.06472 28.8714C9.15462 28.91 9.21583 28.989 9.23496 29.0853C9.25408 29.1817 9.22157 29.2799 9.15462 29.3493C9.0915 29.4167 8.90022 29.6788 9.20053 30.0391C9.77435 30.7309 10.9985 30.623 11.5245 30.3667C11.6469 30.307 11.7942 30.3397 11.8803 30.4457C11.8822 30.4496 12.2571 30.8928 12.9725 31.0566C13.1695 31.1009 13.8715 31.2126 14.5868 30.7386C14.6863 30.6731 14.8144 30.6731 14.912 30.7405C15.0095 30.808 15.0593 30.9275 15.0344 31.045C15.0325 31.0585 14.7781 32.3804 15.4609 33.0066C15.5202 33.0606 15.5547 33.1357 15.5566 33.2166C15.5585 33.2976 15.5298 33.3747 15.4743 33.4325C15.4667 33.4421 14.6174 34.3381 14.6538 35.2264C14.6691 35.581 14.8202 35.8816 15.1205 36.1475C15.1874 36.2072 15.2238 36.2939 15.2199 36.3826C15.2161 36.4712 15.1721 36.5541 15.0994 36.608C15.0344 36.6562 13.4832 37.8336 14.1947 39.404C14.2291 39.4792 14.231 39.5678 14.1966 39.6449C14.1641 39.722 14.0991 39.7817 14.0206 39.8067C14.013 39.8087 13.2116 40.0958 12.8653 40.8222C12.6492 41.2751 12.6511 41.8146 12.8692 42.4274C12.8979 42.5064 12.8902 42.5931 12.852 42.6663C12.8118 42.7395 12.7429 42.7935 12.6626 42.8127C12.6435 42.8185 12.0983 42.9785 11.6163 43.8899C11.4002 44.2984 11.36 44.6684 11.4939 44.9902C11.7005 45.4835 12.2839 45.8072 12.72 45.9363C13.3875 46.1328 13.8485 45.865 13.8523 45.8611C13.9594 45.7937 14.0991 45.8053 14.1947 45.8881C14.2444 45.9305 15.4533 46.9325 16.5168 46.05C17.1499 45.5259 17.0294 44.6915 17.0237 44.6568C17.0045 44.5354 17.0619 44.414 17.1671 44.3543C17.2054 44.3331 18.1082 43.7878 17.9284 42.8513C17.9073 42.7434 17.938 42.6297 18.0221 42.5622C18.1044 42.4948 18.2096 42.4736 18.3071 42.5141C18.3607 42.5256 18.7929 42.5931 19.4012 41.8743C19.8239 41.3753 19.69 40.7509 19.6843 40.7259C19.6594 40.618 19.6977 40.5024 19.7837 40.433C19.8698 40.3617 19.9865 40.3444 20.0879 40.3887C20.1261 40.4041 21.0366 40.7837 21.729 40.1651C21.817 40.0861 21.9452 40.0688 22.0504 40.1208C22.0599 40.1266 23.0928 40.616 24.0109 40.4234C24.1046 40.4041 24.2022 40.4311 24.2711 40.4966C24.3399 40.5621 24.3743 40.6584 24.361 40.7548C24.361 40.7644 24.2175 41.8551 24.799 42.7222C25.1968 43.3157 26.2278 43.5797 26.2374 43.5816C26.3904 43.6201 26.486 43.7724 26.4554 43.9265C26.4478 43.9689 26.266 44.996 27.209 45.549C28.0315 46.0326 28.5728 45.6338 28.5958 45.6164C28.6838 45.5471 28.8023 45.5336 28.9037 45.5837C29.0051 45.6338 29.0682 45.7378 29.0682 45.8515C29.0682 45.9613 29.1218 46.9402 30.432 46.9402H30.4416C30.893 46.9402 31.2143 46.8285 31.3922 46.6126C31.6275 46.3275 31.5586 45.9228 31.5567 45.919C31.5414 45.8342 31.5644 45.7436 31.6198 45.6762C31.6753 45.6087 31.7556 45.5683 31.8436 45.5683C31.857 45.5683 33.217 45.5393 33.3126 44.7011C33.4063 43.8899 32.7828 43.7512 32.712 43.7396C32.6106 43.7203 32.5207 43.6567 32.4844 43.5604C32.448 43.464 32.4595 43.3619 32.5226 43.281C32.5437 43.2425 32.735 42.8706 32.5246 42.0901C32.3371 41.3984 31.704 41.3213 31.6772 41.3175C31.5797 41.3059 31.4936 41.2481 31.4496 41.1614C31.4037 41.0747 31.4037 40.9706 31.4496 40.8839C31.4572 40.8665 31.6791 40.4176 31.5357 39.722C31.4266 39.1978 31.0211 39.0726 31.0039 39.0668C30.9025 39.0398 30.8241 38.9608 30.7973 38.8587C30.7706 38.7566 30.8012 38.6487 30.8758 38.5735C30.8777 38.5716 31.2583 38.1785 31.3233 37.585C31.3807 37.0686 31.2641 36.6967 30.9771 36.4789C30.9064 36.425 30.8624 36.3402 30.8605 36.2516C30.8585 36.161 30.8968 36.0743 30.9638 36.0165C30.9829 35.9991 31.4821 35.5559 31.4611 34.8064C31.4419 34.182 31.0881 33.9065 31.0728 33.8949C31.0058 33.8467 30.9638 33.7735 30.9542 33.6907C30.9446 33.6078 30.9714 33.5269 31.025 33.4633C31.7097 32.6598 31.0097 31.4246 31.0039 31.413C30.9351 31.2936 30.9561 31.1433 31.0556 31.0489C31.155 30.9544 31.3042 30.9409 31.419 31.0161C32.1363 31.4901 32.8363 31.3803 33.0333 31.334C33.7487 31.1702 34.1236 30.7271 34.1255 30.7232C34.2116 30.6172 34.3589 30.5845 34.4813 30.6442C35.0054 30.9005 36.2315 31.0084 36.8053 30.3166C37.1056 29.9544 36.9143 29.6942 36.8493 29.6229C36.7804 29.5536 36.7536 29.4553 36.7708 29.3609C36.7881 29.2664 36.855 29.1855 36.9449 29.147C36.9851 29.1277 37.3695 28.935 37.3542 28.4013C37.337 27.7615 36.8301 27.7076 36.7288 27.7018H36.7345Z" fill="white"/>
<path d="M13.2746 23.5491C13.3626 23.5433 13.4486 23.58 13.5079 23.6455C13.5672 23.711 13.5959 23.7996 13.5825 23.8883C13.3492 25.4703 13.9268 26.3952 15.2964 26.6361C16.5779 26.8615 17.1823 25.9925 17.2072 25.9559C17.2761 25.8537 17.4004 25.8056 17.519 25.8345C17.6376 25.8634 17.7275 25.9616 17.7428 26.083C17.7485 26.1312 17.9302 27.2951 19.4661 27.4319C20.7917 27.5494 21.5472 26.374 21.5797 26.3239C21.6352 26.2372 21.7289 26.1871 21.8284 26.1871C21.8494 26.1871 21.8724 26.189 21.8953 26.1948C22.0158 26.2237 22.1076 26.3258 22.121 26.4492C22.1249 26.4838 22.2511 27.3779 23.3777 27.5533C24.6956 27.7595 25.2006 26.4896 25.2216 26.4357C25.2752 26.2969 25.4205 26.2199 25.564 26.2545C25.7074 26.2892 25.8031 26.4241 25.7878 26.5706C25.7878 26.5706 25.7706 26.8114 25.9255 26.9868C26.0422 27.1197 26.2392 27.1929 26.5089 27.2026C27.3161 27.2334 27.492 26.4434 27.5112 26.3528C27.5379 26.2141 27.6584 26.1139 27.7981 26.1139C27.9377 26.1139 28.0563 26.2121 28.085 26.349C28.1003 26.4183 28.2667 27.0388 29.1121 27.0388C29.1179 27.0388 29.1236 27.0388 29.1293 27.0388C29.5463 27.0349 29.839 26.9309 29.9996 26.7286C30.2253 26.4414 30.1393 26.0214 30.1374 26.0175C30.1068 25.8788 30.1794 25.7381 30.3095 25.6822C30.4396 25.6264 30.5888 25.6707 30.6672 25.7882C30.7227 25.8711 31.2448 26.586 32.0578 26.0406C32.1725 25.9636 32.5206 25.7304 32.3848 25.0329C32.3064 24.634 32.1113 24.2987 32.1094 24.2948C32.0482 24.1889 32.0558 24.0578 32.1304 23.9615C32.205 23.8651 32.3313 23.8247 32.448 23.8613C32.4919 23.8748 33.5516 24.1773 34.0795 23.1233C34.2746 22.734 34.3129 22.3814 34.1905 22.077C33.9514 21.4777 33.1786 21.2002 33.171 21.1963C33.0581 21.1559 32.9797 21.0518 32.974 20.9324C32.9682 20.8129 33.0352 20.7011 33.1423 20.6491C33.2092 20.6163 33.8117 20.2926 33.6472 19.4062C33.4904 18.5565 32.1113 18.3137 32.0979 18.3117C31.9717 18.2925 31.8722 18.1923 31.8531 18.0651C31.834 17.9379 31.899 17.8127 32.0138 17.7549C32.1687 17.6778 32.5933 17.3945 32.6985 17.0323C32.7521 16.8511 32.7196 16.6642 32.601 16.4619C32.096 15.6044 31.0287 15.7586 30.9828 15.7643C30.847 15.7855 30.715 15.7085 30.6653 15.5794C30.6155 15.4502 30.6614 15.3038 30.7762 15.2267C31.0708 15.0283 31.241 14.8028 31.2831 14.5562C31.3462 14.1766 31.0956 13.8393 31.0918 13.8355C31.0134 13.7314 30.9962 13.5831 31.0727 13.4771C31.1473 13.373 31.2659 13.3248 31.3845 13.3653C31.4265 13.3672 31.6523 13.3557 31.9258 12.9645C32.2988 12.4308 31.6924 11.8527 31.6676 11.8276C31.5891 11.7544 31.5566 11.6446 31.5815 11.5405C31.6063 11.4365 31.6867 11.3536 31.79 11.3266C31.7976 11.3247 32.6928 11.0665 32.8439 10.3497C32.9032 10.0683 32.8745 9.83518 32.7578 9.65598C32.5608 9.35538 32.1687 9.27445 32.1649 9.27252C32.031 9.24554 31.9315 9.12993 31.9277 8.99119C31.9239 8.85245 32.0138 8.73105 32.1457 8.69637C32.1783 8.68673 32.9854 8.45165 33.2609 7.40918C33.3336 7.13748 33.3163 6.9313 33.2131 6.79449C33.0333 6.55748 32.6163 6.54784 32.6124 6.54784C32.513 6.54784 32.4212 6.49774 32.3657 6.41296C32.3122 6.32817 32.3026 6.22412 32.3428 6.13163C32.3428 6.13163 32.4518 5.86186 32.3332 5.59402C32.2318 5.36856 31.9927 5.18936 31.6236 5.06411C31.2678 4.94271 30.9694 4.94079 30.7399 5.05833C30.4338 5.21634 30.3286 5.54777 30.3267 5.55162C30.2942 5.65375 30.21 5.73275 30.1048 5.75395C29.9996 5.77515 29.8925 5.74046 29.8218 5.6576C29.8198 5.65568 29.6859 5.50923 29.4564 5.4996C29.2288 5.48996 28.961 5.61906 28.6856 5.87342C27.9205 6.5806 28.3719 7.24347 28.3929 7.27237C28.4618 7.37064 28.4714 7.50167 28.4063 7.60187C28.3432 7.704 28.2303 7.75603 28.1118 7.73483C28.0601 7.73098 27.5437 7.70785 27.2587 8.60773C26.9526 9.57505 27.4633 10.0356 27.4863 10.0549C27.5838 10.1358 27.6183 10.2707 27.5705 10.3901C27.5245 10.5096 27.406 10.5828 27.2778 10.5751C26.834 10.5481 26.5357 10.6464 26.3616 10.8777C26.0097 11.3401 26.2124 12.2785 26.3214 12.6003C26.3501 12.6851 26.3386 12.7776 26.2908 12.8528C26.243 12.9279 26.1665 12.978 26.0785 12.9896C25.8432 13.0185 25.7591 13.1167 25.7151 13.1861C25.5391 13.4732 25.6768 14.034 25.738 14.2093C25.7859 14.3403 25.7342 14.4887 25.6156 14.5619C25.497 14.6352 25.344 14.6159 25.2484 14.5138C24.7931 14.0282 23.6952 14.2074 23.3108 14.3172C23.1711 14.3577 23.0239 14.2883 22.9646 14.1554C22.9053 14.0224 22.9493 13.8663 23.0698 13.7854C23.4121 13.558 23.59 13.3171 23.5958 13.0666C23.6072 12.6543 23.1654 12.2361 22.9932 12.109C22.888 12.03 22.846 11.8912 22.8919 11.7679C22.9378 11.6446 23.0583 11.5656 23.1903 11.5752C23.196 11.5752 23.9305 11.6214 24.204 11.1282C24.6 10.4133 23.9075 9.88914 23.8272 9.83133C23.7411 9.76967 23.6933 9.66369 23.7048 9.5577C23.7163 9.45172 23.7832 9.35923 23.8808 9.31684C23.8903 9.31299 24.8926 8.86787 25.0475 7.98533C25.1948 7.14519 24.3054 6.64419 24.2958 6.63841C24.2098 6.59024 24.1524 6.50353 24.1447 6.40525C24.1371 6.30698 24.1772 6.21063 24.2538 6.14897C24.6344 5.84259 24.797 5.46106 24.7128 5.07374C24.6191 4.6344 24.2193 4.2548 23.7182 4.1257C23.2381 4.00237 22.8479 4.02935 22.5571 4.20663C22.1918 4.43015 22.0923 4.83095 22.0904 4.83481C22.056 4.98318 21.9145 5.08145 21.7653 5.06218C21.7366 5.05833 20.9715 4.98703 20.3862 6.0295C19.8028 7.06811 20.5679 7.94872 20.6023 7.98726C20.6884 8.08361 20.7094 8.22813 20.6425 8.33989C20.5755 8.44972 20.455 8.5056 20.3307 8.4767C20.2791 8.47285 19.843 8.45358 19.3743 9.18195C18.8847 9.94502 19.5274 10.7447 19.556 10.7775C19.6383 10.8777 19.6612 11.0222 19.5924 11.1301C19.5235 11.2361 19.4126 11.29 19.2921 11.2592C19.2366 11.2611 18.8885 11.3054 18.3472 11.9201C18.2076 12.0781 18.1483 12.2361 18.1636 12.4038C18.1942 12.7294 18.5079 13.0377 18.6265 13.1302C18.747 13.2227 18.7776 13.3923 18.6972 13.5214C18.6169 13.6505 18.4543 13.6967 18.3185 13.6312C18.286 13.6158 16.3006 12.6543 15.0974 13.4443C14.6326 13.7488 14.3916 14.1534 14.3802 14.6448C14.3725 15.0321 14.5102 15.3366 14.5121 15.3404C14.5523 15.4271 14.5485 15.5293 14.5007 15.6121C14.4528 15.695 14.3687 15.7509 14.275 15.7605C14.2635 15.7605 13.1273 15.8857 12.5305 16.7895C12.2264 17.25 12.1862 17.7202 12.41 18.1865C12.5898 18.5584 12.8748 18.7954 12.8767 18.7973C12.9647 18.8705 13.0049 18.9881 12.9762 19.0999C12.9475 19.2116 12.8595 19.2964 12.7467 19.3176C12.7084 19.3272 11.7157 19.5758 11.71 21.6203C11.71 22.312 11.8802 22.8265 12.2207 23.1522C12.6625 23.5742 13.2631 23.5453 13.2708 23.5453L13.2746 23.5491Z" fill="white"/>
<path d="M37.9471 28.3837C37.9261 27.6668 37.5167 27.3258 37.1399 27.187C37.2298 26.8479 37.2681 26.3315 36.8626 25.9133C35.9598 24.9826 34.6954 25.6359 34.1675 25.9789C33.9227 25.7245 33.5172 25.4817 32.9835 25.5395C33.0256 25.185 32.9567 24.8169 32.8458 24.5009C33.4254 24.497 34.1637 24.2543 34.5998 23.3852C34.8752 22.8341 34.9192 22.3177 34.7299 21.8475C34.5348 21.3658 34.135 21.0459 33.8156 20.8552C33.8462 20.8224 33.8787 20.7858 33.9093 20.7472C34.1235 20.4736 34.353 19.9996 34.2211 19.2963C34.0738 18.5062 33.3527 18.0958 32.8095 17.8973C32.9931 17.722 33.1748 17.4888 33.259 17.2017C33.3603 16.8568 33.3087 16.5061 33.104 16.1592C32.7196 15.506 32.1209 15.2709 31.6427 15.1938C31.7555 15.0243 31.8282 14.8412 31.8607 14.6447C31.9086 14.3479 31.8473 14.0762 31.7689 13.87C31.9602 13.7853 32.1859 13.6195 32.4059 13.3035C32.8037 12.7332 32.6182 12.1358 32.3504 11.7331C32.7349 11.5404 33.2743 11.155 33.4177 10.4709C33.5114 10.0258 33.4541 9.63851 33.2437 9.32249C33.1423 9.17026 33.0179 9.05272 32.8917 8.96408C33.2341 8.71743 33.6339 8.28773 33.827 7.56128C33.9495 7.10267 33.8978 6.72306 33.6778 6.43403C33.4808 6.17582 33.1977 6.05827 32.9701 6.00239C32.9873 5.82319 32.9759 5.59774 32.8726 5.36073C32.7043 4.97341 32.3466 4.68438 31.811 4.50132C31.2946 4.32597 30.8412 4.3356 30.4625 4.53407C30.2139 4.66511 30.0455 4.85587 29.9365 5.02351C29.8198 4.96571 29.6745 4.91946 29.5023 4.9079C29.1026 4.88285 28.6951 5.06013 28.2896 5.43588C27.6144 6.0602 27.5838 6.74041 27.7235 7.20672C27.3887 7.32041 26.9545 7.62679 26.7021 8.4284C26.4764 9.14136 26.5892 9.66934 26.7537 10.0143C26.3865 10.0817 26.0995 10.2513 25.8968 10.5191C25.4511 11.1088 25.5755 12.0125 25.6845 12.4827C25.4435 12.5809 25.3 12.7409 25.2178 12.8757C25.0609 13.132 25.0303 13.4423 25.0475 13.7159C24.7205 13.608 24.3628 13.5868 24.0472 13.6041C24.1352 13.4365 24.1811 13.2611 24.1849 13.0761C24.1944 12.6888 24.0089 12.3458 23.81 12.0915C24.1332 12.0028 24.4986 11.814 24.7205 11.4132C25.1221 10.6887 24.841 10.047 24.4986 9.64814C24.9003 9.38801 25.4932 8.8793 25.6309 8.0854C25.7801 7.23177 25.2637 6.64213 24.9022 6.34346C25.2579 5.93495 25.3976 5.44166 25.2905 4.94644C25.147 4.28357 24.5885 3.73633 23.8655 3.55134C23.2228 3.38755 22.6776 3.43958 22.2454 3.7055C21.8819 3.93095 21.6926 4.2566 21.5989 4.47434C21.2125 4.5071 20.4531 4.71135 19.8774 5.73648C19.3954 6.59589 19.5943 7.43025 19.8831 7.96593C19.5924 8.07577 19.229 8.32049 18.8847 8.85617C18.4084 9.59997 18.6379 10.3361 18.8617 10.7677C18.6131 10.8775 18.2879 11.0953 17.9111 11.525C17.6643 11.8063 17.5515 12.13 17.584 12.4615C17.5936 12.5617 17.6165 12.6561 17.6471 12.7466C16.8438 12.5173 15.6789 12.3555 14.7818 12.947C13.7623 13.6157 13.703 14.6003 13.8637 15.2382C13.3932 15.3557 12.5726 15.6659 12.0485 16.4618C11.3848 17.4676 11.7559 18.3945 12.1977 18.9379C11.752 19.2346 11.1361 19.9456 11.1304 21.6182C11.1285 22.4834 11.3637 23.1463 11.8324 23.5875C12.2149 23.9479 12.6644 24.0731 12.9685 24.1155C12.9322 24.5337 12.9513 24.9152 13.0221 25.2563C12.4942 25.2023 12.0944 25.4432 11.8515 25.6956C11.3255 25.3526 10.0612 24.6994 9.15644 25.6301C8.75094 26.0463 8.78919 26.5627 8.87909 26.9038C8.50228 27.0406 8.09104 27.3836 8.07191 28.1004C8.05661 28.6746 8.32631 29.0273 8.5501 29.218C8.41621 29.5186 8.37986 29.956 8.75667 30.4108C9.451 31.249 10.7708 31.276 11.5895 30.9754C11.7999 31.1681 12.2226 31.4822 12.848 31.6267C13.0546 31.6749 13.6896 31.777 14.4069 31.4918C14.3916 31.9832 14.4605 32.6923 14.8755 33.2241C14.581 33.5921 14.0397 34.388 14.0741 35.2397C14.0894 35.6501 14.2329 36.0181 14.5007 36.338C13.8694 36.9238 13.1292 38.0568 13.5596 39.3614C13.221 39.5348 12.6587 39.9028 12.3488 40.5503C12.0925 41.0821 12.0581 41.6891 12.2417 42.3539C11.9529 42.5138 11.4957 42.8664 11.1074 43.6045C10.8052 44.1787 10.7555 44.7202 10.964 45.2134C11.2509 45.8975 11.9797 46.3253 12.5669 46.4968C13.2076 46.6837 13.7164 46.5546 13.9785 46.4505C14.6059 46.9034 15.8396 47.3793 16.9011 46.5006C17.5897 45.9303 17.6471 45.121 17.6318 44.751C17.934 44.5275 18.5518 43.9648 18.5518 43.0938C18.8713 43.0514 19.3399 42.8664 19.8621 42.2498C20.2064 41.8433 20.2963 41.3846 20.3077 41.0513C20.7305 41.1341 21.3904 41.1573 21.9833 40.7199C22.3027 40.849 23.02 41.0937 23.7717 41.0436C23.7698 41.5099 23.8463 42.325 24.3283 43.0437C24.7147 43.6199 25.4722 43.9397 25.8643 44.0727C25.8413 44.6411 26.0383 45.5295 26.9278 46.0517C27.6297 46.464 28.2093 46.4024 28.5689 46.281C28.6339 46.5006 28.7563 46.7685 28.9878 46.9997C29.334 47.3485 29.8256 47.5238 30.4453 47.5238H30.4587C31.0975 47.5219 31.57 47.3369 31.8626 46.9766C32.0922 46.6933 32.1553 46.3677 32.1668 46.1287C32.7081 46.0613 33.7907 45.7954 33.9093 44.7625C34.0145 43.8569 33.5153 43.4465 33.1614 43.2692C33.2341 42.9956 33.2743 42.5524 33.104 41.928C32.9166 41.2343 32.4365 40.9376 32.1017 40.8123C32.1725 40.5387 32.228 40.1148 32.1209 39.5965C32.0214 39.1186 31.7632 38.8392 31.5413 38.6792C31.6924 38.4461 31.8684 38.0896 31.9181 37.6445C31.9946 36.9489 31.8091 36.5037 31.5757 36.2243C31.79 35.9526 32.0788 35.4574 32.0597 34.783C32.0424 34.2145 31.8187 33.8349 31.6427 33.621C32.0176 33.0218 31.9564 32.3435 31.8167 31.8425C32.4479 32.0371 32.9835 31.9485 33.171 31.9042C33.7983 31.7596 34.2192 31.4455 34.4296 31.2529C35.2463 31.5535 36.5661 31.5265 37.2623 30.6883C37.6391 30.2335 37.6028 29.7961 37.4689 29.4955C37.6927 29.3047 37.9624 28.9521 37.9471 28.3779V28.3837ZM12.2264 23.1559C11.8859 22.8303 11.7138 22.3158 11.7157 21.624C11.7214 19.5795 12.7141 19.329 12.7524 19.3213C12.8653 19.3001 12.9532 19.2153 12.9819 19.1036C13.0106 18.9918 12.9705 18.8743 12.8825 18.801C12.8806 18.7991 12.5936 18.5621 12.4158 18.1902C12.192 17.7239 12.234 17.2557 12.5363 16.7932C13.133 15.8895 14.2692 15.7642 14.2807 15.7642C14.3763 15.7546 14.4605 15.6987 14.5064 15.6158C14.5542 15.533 14.558 15.4309 14.5179 15.3441C14.5179 15.3403 14.3782 15.0358 14.3859 14.6485C14.3974 14.1572 14.6384 13.7525 15.1032 13.448C16.3063 12.658 18.2917 13.6195 18.3242 13.635C18.46 13.7024 18.6226 13.6542 18.703 13.5251C18.7833 13.396 18.7527 13.2264 18.6322 13.134C18.5136 13.0415 18.1999 12.7332 18.1693 12.4075C18.154 12.2399 18.2133 12.0819 18.3529 11.9238C18.8923 11.3092 19.2404 11.2668 19.2978 11.2629C19.4183 11.2937 19.5293 11.2398 19.5981 11.1338C19.667 11.0259 19.644 10.8794 19.5618 10.7812C19.535 10.7484 18.8904 9.94874 19.3801 9.18568C19.8468 8.45537 20.2848 8.47464 20.3364 8.48042C20.4608 8.51125 20.5813 8.45537 20.6482 8.34361C20.7152 8.23185 20.6941 8.08733 20.608 7.99098C20.5755 7.95437 19.8104 7.07377 20.3919 6.03322C20.9772 4.99076 21.7423 5.06398 21.771 5.06591C21.9202 5.0871 22.0617 4.9869 22.0962 4.83853C22.0962 4.83468 22.1956 4.43195 22.5629 4.21035C22.8536 4.03307 23.2438 4.0061 23.7239 4.12942C24.2251 4.25852 24.6248 4.63813 24.7185 5.07747C24.8027 5.46478 24.6382 5.84631 24.2595 6.15269C24.183 6.21436 24.1428 6.3107 24.1505 6.40897C24.1581 6.50725 24.2155 6.59589 24.3016 6.64213C24.3111 6.64791 25.2006 7.14699 25.0533 7.98906C24.9003 8.87159 23.8961 9.31671 23.8865 9.32056C23.7889 9.36296 23.722 9.45545 23.7105 9.56143C23.699 9.66741 23.7469 9.77339 23.8329 9.83505C23.9133 9.89286 24.6057 10.417 24.2098 11.1319C23.9362 11.6252 23.2017 11.5789 23.196 11.5789C23.0659 11.5674 22.9435 11.6464 22.8976 11.7716C22.8517 11.8949 22.8938 12.0356 22.999 12.1127C23.1692 12.2399 23.6111 12.6561 23.6015 13.0704C23.5958 13.3209 23.4179 13.5637 23.0755 13.7891C22.955 13.87 22.9091 14.0261 22.9703 14.1591C23.0315 14.292 23.1788 14.3614 23.3165 14.3209C23.701 14.2111 24.8008 14.0319 25.2541 14.5175C25.3497 14.6196 25.5028 14.6389 25.6214 14.5657C25.7399 14.4924 25.7916 14.346 25.7438 14.213C25.6826 14.0396 25.5448 13.4769 25.7208 13.1898C25.7648 13.1185 25.849 13.0203 26.0842 12.9933C26.1722 12.9817 26.2507 12.9316 26.2966 12.8565C26.3444 12.7813 26.3539 12.6888 26.3272 12.604C26.22 12.2823 26.0173 11.3458 26.3673 10.8814C26.5414 10.6521 26.8417 10.5538 27.2835 10.5788C27.4098 10.5866 27.5284 10.5114 27.5762 10.3939C27.6221 10.2744 27.5896 10.1395 27.492 10.0586C27.471 10.0393 26.9603 9.57877 27.2644 8.61145C27.5494 7.70965 28.0639 7.73277 28.1175 7.73856C28.2342 7.75975 28.347 7.7058 28.4121 7.6056C28.4752 7.50347 28.4675 7.37244 28.3987 7.27609C28.3795 7.24912 27.9262 6.58433 28.6913 5.87714C28.9667 5.62279 29.2345 5.49368 29.4622 5.50332C29.6917 5.51295 29.8256 5.65747 29.8275 5.66133C29.8963 5.74226 30.0054 5.77887 30.1106 5.75767C30.2158 5.73648 30.2999 5.65747 30.3325 5.55535C30.3325 5.55149 30.4396 5.22006 30.7456 5.06205C30.9751 4.94451 31.2716 4.94644 31.6293 5.06783C31.9985 5.19308 32.2375 5.37229 32.3389 5.59774C32.4594 5.86558 32.3485 6.13535 32.3485 6.13535C32.3083 6.22592 32.316 6.3319 32.3714 6.41668C32.425 6.50147 32.5187 6.55157 32.6182 6.55157C32.622 6.55157 33.039 6.5612 33.2188 6.79821C33.3221 6.9331 33.3374 7.14121 33.2666 7.4129C32.9912 8.45345 32.184 8.69046 32.1515 8.70009C32.0195 8.73478 31.9296 8.8581 31.9334 8.99491C31.9372 9.13172 32.0367 9.24927 32.1706 9.27624C32.1744 9.27624 32.5665 9.35717 32.7635 9.6597C32.8802 9.83891 32.9089 10.0721 32.8496 10.3534C32.6966 11.0702 31.8034 11.3284 31.7957 11.3303C31.6924 11.3593 31.614 11.4402 31.5872 11.5442C31.5623 11.6483 31.5949 11.7581 31.6733 11.8313C31.7001 11.8564 32.3064 12.4345 31.9315 12.9682C31.658 13.3594 31.4323 13.371 31.3902 13.369C31.2697 13.3305 31.153 13.3787 31.0784 13.4808C31.0019 13.5868 31.0191 13.7352 31.0975 13.8392C31.0995 13.8431 31.3519 14.1803 31.2888 14.5599C31.2467 14.8065 31.0765 15.0339 30.7819 15.2305C30.6672 15.3075 30.6213 15.454 30.671 15.5831C30.7207 15.7122 30.8527 15.7893 30.9885 15.7681C31.0344 15.7604 32.1017 15.6081 32.6067 16.4656C32.7253 16.6679 32.7578 16.8529 32.7043 17.036C32.5991 17.3982 32.1725 17.6796 32.0195 17.7586C31.9047 17.8164 31.8397 17.9416 31.8588 18.0688C31.8779 18.196 31.9774 18.2962 32.1037 18.3155C32.117 18.3174 33.4961 18.5602 33.653 19.41C33.8175 20.2963 33.215 20.6201 33.148 20.6528C33.039 20.7029 32.974 20.8147 32.9797 20.9361C32.9854 21.0556 33.0639 21.1615 33.1767 21.2001C33.1844 21.202 33.9571 21.4814 34.1962 22.0807C34.3186 22.3851 34.2804 22.7378 34.0853 23.127C33.5554 24.181 32.4958 23.8785 32.4537 23.865C32.337 23.8284 32.2127 23.8689 32.1362 23.9652C32.0597 24.0616 32.052 24.1945 32.1151 24.2986C32.117 24.3024 32.3121 24.6377 32.3906 25.0366C32.5264 25.7341 32.1783 25.9692 32.0635 26.0444C31.2506 26.5897 30.7284 25.8748 30.6729 25.7919C30.5945 25.6744 30.4434 25.6301 30.3152 25.686C30.1852 25.7418 30.1144 25.8825 30.1431 26.0212C30.1431 26.0251 30.2311 26.4452 30.0054 26.7323C29.8447 26.9346 29.5521 27.0387 29.1351 27.0425C29.1293 27.0425 29.1236 27.0425 29.1179 27.0425C28.2724 27.0425 28.1079 26.422 28.0907 26.3527C28.062 26.2159 27.9415 26.1176 27.8038 26.1176C27.6642 26.1176 27.5437 26.2197 27.5169 26.3565C27.4997 26.4471 27.3218 27.2352 26.5146 27.2063C26.2449 27.1947 26.0479 27.1234 25.9312 26.9905C25.7782 26.8171 25.7935 26.5743 25.7935 26.5743C25.8088 26.4278 25.7132 26.2929 25.5697 26.2583C25.4263 26.2236 25.2809 26.3007 25.2273 26.4394C25.2063 26.4933 24.7013 27.7651 23.3834 27.557C22.2568 27.3817 22.1325 26.4895 22.1268 26.4529C22.1134 26.3276 22.0235 26.2255 21.9011 26.1985C21.8781 26.1927 21.8571 26.1908 21.8341 26.1908C21.7347 26.1908 21.6409 26.2409 21.5855 26.3276C21.5549 26.3777 20.7974 27.5532 19.4719 27.4356C17.934 27.2988 17.7542 26.1349 17.7485 26.0868C17.7332 25.9654 17.6433 25.8652 17.5247 25.8382C17.4061 25.8093 17.2818 25.8594 17.2129 25.9596C17.1881 25.9962 16.5836 26.8652 15.3021 26.6398C13.9326 26.397 13.3549 25.474 13.5883 23.892C13.6017 23.8034 13.573 23.7147 13.5137 23.6492C13.4544 23.5837 13.3683 23.549 13.2803 23.5529C13.2746 23.5529 12.674 23.5818 12.2302 23.1598L12.2264 23.1559ZM36.9506 29.1467C36.8607 29.1853 36.7956 29.2643 36.7765 29.3606C36.7574 29.457 36.7861 29.5533 36.8549 29.6227C36.9199 29.694 37.1112 29.9541 36.8109 30.3164C36.2371 31.0101 35.0129 30.9002 34.4869 30.6439C34.3645 30.5842 34.2172 30.617 34.1312 30.7229C34.1273 30.7268 33.7524 31.17 33.039 31.3338C32.842 31.3781 32.14 31.4899 31.4246 31.0158C31.3118 30.9407 31.1607 30.9542 31.0612 31.0486C30.9617 31.143 30.9407 31.2933 31.0096 31.4128C31.0172 31.4244 31.7154 32.6595 31.0306 33.463C30.977 33.5266 30.9503 33.6076 30.9598 33.6904C30.9694 33.7733 31.0115 33.8465 31.0784 33.8947C31.0937 33.9062 31.4495 34.1837 31.4667 34.8061C31.4877 35.5557 30.9885 35.9989 30.9694 36.0162C30.9005 36.074 30.8623 36.1607 30.8661 36.2513C30.868 36.3419 30.912 36.4247 30.9828 36.4787C31.2697 36.6964 31.3864 37.0683 31.329 37.5847C31.264 38.1782 30.8852 38.5694 30.8814 38.5732C30.8068 38.6484 30.7762 38.7563 30.803 38.8584C30.8298 38.9606 30.9082 39.0396 31.0096 39.0665C31.0268 39.0723 31.4323 39.1976 31.5413 39.7217C31.6848 40.4193 31.4648 40.8682 31.4552 40.8836C31.4093 40.9704 31.4112 41.0744 31.4552 41.1611C31.5011 41.2478 31.5872 41.3056 31.6828 41.3172C31.7096 41.3211 32.3447 41.3981 32.5302 42.0899C32.7406 42.8684 32.5493 43.2422 32.5283 43.2807C32.4671 43.3617 32.4556 43.4638 32.49 43.5601C32.5264 43.6565 32.6163 43.722 32.7176 43.7393C32.7884 43.7528 33.4139 43.8896 33.3182 44.7009C33.2207 45.5391 31.8626 45.568 31.8493 45.568C31.7632 45.568 31.6809 45.6085 31.6255 45.6759C31.57 45.7434 31.547 45.832 31.5623 45.9187C31.5623 45.9226 31.6331 46.3272 31.3979 46.6124C31.22 46.8282 30.9005 46.938 30.4472 46.94H30.4377C29.1293 46.94 29.0758 45.9611 29.0739 45.8513C29.0739 45.7376 29.0107 45.6335 28.9094 45.5834C28.808 45.5333 28.6894 45.5468 28.6014 45.6162C28.5785 45.6335 28.0372 46.0305 27.2147 45.5487C26.2717 44.9957 26.4534 43.9687 26.4611 43.9263C26.4917 43.7721 26.396 43.6199 26.243 43.5813C26.2334 43.5794 25.2006 43.3154 24.8046 42.7219C24.2231 41.8548 24.3647 40.7642 24.3666 40.7545C24.38 40.6601 24.3475 40.5638 24.2767 40.4963C24.2078 40.4308 24.1103 40.4019 24.0166 40.4231C23.0984 40.6158 22.0656 40.1244 22.056 40.1206C21.9489 40.0686 21.8226 40.0859 21.7347 40.1649C21.0403 40.7834 20.1299 40.4038 20.0935 40.3884C19.9921 40.3441 19.8755 40.3614 19.7894 40.4327C19.7033 40.504 19.667 40.6177 19.6899 40.7256C19.6957 40.7526 19.8296 41.375 19.4068 41.8741C18.7986 42.5928 18.3663 42.5273 18.3128 42.5138C18.2152 42.4734 18.11 42.4946 18.0278 42.562C17.9436 42.6314 17.913 42.7451 17.934 42.851C18.1138 43.7894 17.211 44.3328 17.1728 44.354C17.0676 44.4157 17.0102 44.5371 17.0293 44.6566C17.035 44.6912 17.1555 45.5256 16.5224 46.0497C15.4589 46.9303 14.2501 45.9303 14.2003 45.8879C14.1028 45.805 13.9651 45.7954 13.858 45.8609C13.8541 45.8628 13.3932 46.1307 12.7256 45.936C12.2895 45.8089 11.7061 45.4832 11.4996 44.9899C11.3637 44.6681 11.4058 44.2982 11.622 43.8896C12.1021 42.9782 12.6491 42.8163 12.6682 42.8125C12.7486 42.7932 12.8174 42.7393 12.8576 42.666C12.8978 42.5928 12.9035 42.5042 12.8748 42.4271C12.6568 41.8143 12.6568 41.2748 12.871 40.822C13.2172 40.0955 14.0186 39.8084 14.0263 39.8065C14.1047 39.7795 14.1678 39.7198 14.2023 39.6446C14.2348 39.5676 14.2348 39.4808 14.2003 39.4038C13.4869 37.8333 15.0381 36.656 15.1051 36.6078C15.1778 36.5558 15.2218 36.4729 15.2256 36.3823C15.2294 36.2937 15.1931 36.207 15.1261 36.1473C14.8258 35.8813 14.6728 35.5807 14.6594 35.2262C14.6231 34.3379 15.4723 33.4399 15.48 33.4322C15.5354 33.3744 15.5641 33.2973 15.5622 33.2164C15.5603 33.1355 15.5259 33.0603 15.4666 33.0064C14.7837 32.3801 15.0381 31.0582 15.04 31.0447C15.063 30.9272 15.0152 30.8077 14.9176 30.7403C14.8201 30.6728 14.6919 30.6728 14.5925 30.7384C13.8752 31.2124 13.1751 31.1026 12.9781 31.0563C12.2627 30.8925 11.8878 30.4493 11.8859 30.4455C11.7999 30.3395 11.6526 30.3067 11.5302 30.3665C11.0061 30.6227 9.77999 30.7307 9.20617 30.0389C8.90587 29.6766 9.09714 29.4165 9.16026 29.3491C9.22912 29.2797 9.25973 29.1814 9.2406 29.0851C9.22147 28.9887 9.15835 28.9097 9.07036 28.8712C9.02637 28.85 8.64191 28.6573 8.65721 28.1235C8.67443 27.4838 9.1813 27.4298 9.27885 27.4241C9.38023 27.4221 9.47395 27.3662 9.5256 27.2757C9.57724 27.187 9.57916 27.0772 9.52942 26.9866C9.5256 26.9809 9.2253 26.4086 9.57342 26.0501C10.3462 25.2543 11.7119 26.3276 11.7253 26.3373C11.7922 26.3912 11.8783 26.4105 11.9605 26.3951C12.0447 26.3797 12.1174 26.3276 12.1614 26.2544C12.1977 26.1908 12.5439 25.6532 13.2497 25.921C13.6017 26.609 14.2596 27.0541 15.1969 27.2198C16.2317 27.4029 16.9318 27.0175 17.322 26.688C17.5916 27.2583 18.2114 27.9154 19.4145 28.0214C20.5201 28.1197 21.3005 27.5243 21.7213 27.083C21.9546 27.5262 22.429 28.0041 23.2859 28.137C23.416 28.1563 23.5384 28.1659 23.6589 28.1659C24.468 28.1659 25.0475 27.7304 25.4052 27.2757C25.4263 27.3065 25.4511 27.3373 25.4779 27.3682C25.7055 27.6322 26.0441 27.7747 26.484 27.7921C27.1592 27.8191 27.5857 27.4703 27.8306 27.0888C28.085 27.3817 28.502 27.636 29.1351 27.6283C29.7414 27.6225 30.1871 27.4414 30.4625 27.0888C30.5849 26.9327 30.6557 26.7631 30.6959 26.6013C31.0842 26.8498 31.6695 27.0098 32.3848 26.53C32.5245 26.4355 32.6373 26.3276 32.7253 26.212C32.7368 26.2101 32.7482 26.2062 32.7597 26.2024C33.4732 25.923 33.8232 26.4683 33.8596 26.53C33.9016 26.6051 33.9743 26.6571 34.0585 26.6725C34.1426 26.688 34.2287 26.6668 34.2957 26.6147C34.3091 26.6032 35.6748 25.5318 36.4475 26.3276C36.7918 26.6822 36.5049 27.2429 36.4915 27.2641C36.4437 27.3528 36.4456 27.4626 36.4953 27.5512C36.5451 27.6399 36.6388 27.6957 36.7402 27.7015C36.8415 27.7054 37.3465 27.7613 37.3656 28.401C37.3809 28.9348 36.9965 29.1294 36.9563 29.1467H36.9506Z" fill="#754725"/>
</g>
<path d="M11.6544 30.8287C11.5683 30.8191 11.4879 30.7728 11.4382 30.6938C10.3403 28.9326 8.28792 22.1055 7.64906 18.0975C6.45742 10.6133 6.61427 4.55507 6.61618 4.49341C6.62001 4.33155 6.7539 4.20437 6.91457 4.21015C7.07524 4.21593 7.20148 4.34889 7.19574 4.51075C7.19574 4.57049 7.0389 10.5786 8.22097 18.005C8.83688 21.8782 10.8816 28.7033 11.9279 30.3836C12.0139 30.5204 11.9719 30.7016 11.8361 30.7863C11.7787 30.823 11.7136 30.8364 11.6524 30.8287H11.6544Z" fill="#754725"/>
<path d="M13.1826 9.92711C12.911 5.8401 9.80856 2.71848 6.25085 2.95934C2.69315 3.20021 0.0286919 6.70529 0.300302 10.7942C0.571912 14.8832 3.6763 18.0029 7.23209 17.762C7.26079 17.762 7.28756 17.7581 7.31626 17.7543L7.04847 18.2264C6.94709 18.4037 7.0982 18.6195 7.29713 18.5829L8.66092 18.3382C8.86558 18.3015 8.9287 18.0395 8.76612 17.9104L8.33957 17.5751C11.3254 16.7658 13.4256 13.5767 13.1826 9.92519V9.92711Z" fill="#F6C3C9"/>
<path d="M7.24732 18.8722C7.08282 18.8703 6.9298 18.7894 6.83225 18.6487C6.71557 18.4811 6.7041 18.2652 6.80547 18.086L6.82078 18.0591C6.79974 18.0591 6.77678 18.0591 6.75574 18.0591C5.12991 18.034 3.57676 17.3519 2.33539 16.1032C0.977336 14.737 0.154855 12.8602 0.0190498 10.8138C-0.262124 6.57842 2.52475 2.92689 6.23165 2.67639C8.03537 2.55692 9.78171 3.24484 11.1493 4.62066C12.5074 5.98493 13.3299 7.86368 13.4657 9.91008C13.7009 13.4421 11.8207 16.6177 8.93627 17.6852L8.94201 17.6891C9.10651 17.8182 9.17728 18.0244 9.12755 18.2286C9.07782 18.4329 8.91906 18.5832 8.71248 18.6198L7.34869 18.8645C7.31426 18.8703 7.27983 18.8741 7.24732 18.8722ZM7.32191 17.4713C7.41564 17.4713 7.50363 17.5214 7.55527 17.6024C7.61074 17.691 7.61456 17.8047 7.56292 17.8953L7.34104 18.2864L8.52121 18.0745L8.16926 17.7989C8.0851 17.7334 8.04493 17.6236 8.06597 17.5195C8.08701 17.4135 8.16544 17.3307 8.26872 17.3018C11.1857 16.5117 13.1347 13.4171 12.9033 9.94477C12.7771 8.03711 12.012 6.28746 10.7515 5.01954C9.50053 3.76125 7.90721 3.12922 6.2699 3.24098C2.87287 3.47221 0.321264 6.85205 0.581397 10.7753C0.707638 12.6849 1.47274 14.4345 2.73324 15.7005C3.98417 16.9588 5.57749 17.5927 7.2148 17.4791L7.29514 17.4733C7.29514 17.4733 7.31426 17.4733 7.32191 17.4733V17.4713Z" fill="#754725"/>
<path d="M9.55432 30.2394C9.55432 30.2394 10.9334 31.4611 11.84 30.4456C12.3125 29.9177 11.9644 29.1662 11.9644 29.1662C11.9644 29.1662 12.7601 29.1257 12.8136 28.1641C12.8576 27.4049 12.3163 27.1564 12.3163 27.1564C12.3163 27.1564 12.7563 26.6669 12.324 26.0754C11.7501 25.293 10.5203 25.4009 9.92348 25.7324C9.92348 25.7324 8.69549 26.3066 8.55586 27.6015C8.35885 29.4186 9.55432 30.2414 9.55432 30.2414V30.2394Z" fill="white"/>
<path d="M10.9678 31.1413C10.3404 31.1413 9.72067 30.7751 9.37255 30.4707C9.21379 30.3551 8.06232 29.4417 8.26507 27.5687C8.41618 26.1756 9.65564 25.5358 9.78953 25.4703C10.1644 25.2661 10.6713 25.162 11.1495 25.1928C11.7501 25.2314 12.2512 25.4838 12.5554 25.9C12.8824 26.3471 12.8327 26.7845 12.7026 27.0793C12.9016 27.2681 13.1349 27.615 13.1024 28.1796C13.0622 28.8829 12.6797 29.2278 12.3316 29.3723C12.4043 29.7018 12.431 30.2183 12.0542 30.6403C11.7291 31.0045 11.3465 31.1393 10.9659 31.1393L10.9678 31.1413ZM9.74554 30.0179C9.79336 30.0603 10.92 31.0353 11.6239 30.2472C11.9586 29.8714 11.7023 29.2914 11.7004 29.2856C11.6602 29.197 11.6659 29.0949 11.7157 29.012C11.7654 28.9291 11.8534 28.8752 11.949 28.8713C11.949 28.8713 12.0906 28.8598 12.2302 28.7634C12.4081 28.642 12.5056 28.4339 12.5228 28.1449C12.5535 27.6169 12.2283 27.4377 12.19 27.4184C12.1059 27.3799 12.0466 27.3028 12.0274 27.2123C12.0083 27.1198 12.037 27.0273 12.0982 26.9579C12.1422 26.9059 12.3583 26.6188 12.0867 26.2488C11.6066 25.5936 10.5298 25.7285 10.0592 25.9887C10.0535 25.9925 10.0478 25.9944 10.042 25.9983C10.0325 26.0021 8.96131 26.5243 8.84081 27.6323C8.66675 29.2394 9.67285 29.9697 9.71685 30.0005C9.7245 30.0063 9.73406 30.014 9.74363 30.0217L9.74554 30.0179Z" fill="#754725"/>
<path d="M36.0227 30.7961C36.0227 30.7961 34.3892 31.64 33.7561 30.4299C33.4271 29.8018 33.9473 29.1582 33.9473 29.1582C33.9473 29.1582 33.1861 28.9211 33.3659 27.977C33.5093 27.2312 34.0927 27.1214 34.0927 27.1214C34.0927 27.1214 33.7848 26.5375 34.349 26.0712C35.095 25.4546 36.2618 25.8631 36.761 26.3314C36.761 26.3314 37.8111 27.1908 37.6332 28.4799C37.3807 30.2893 36.0227 30.7941 36.0227 30.7941V30.7961Z" fill="white"/>
<path d="M33.4998 30.5666C33.2378 30.0637 33.387 29.5704 33.5381 29.2679C33.2378 29.0424 32.949 28.6127 33.0809 27.9209C33.188 27.3641 33.4979 27.0866 33.737 26.9517C33.6815 26.6318 33.7389 26.1963 34.1655 25.8437C34.5633 25.5142 35.1084 25.3947 35.7014 25.5046C36.1738 25.5932 36.6406 25.8187 36.9542 26.1096C37.0671 26.206 38.1153 27.1309 37.9221 28.5202C37.662 30.3855 36.325 30.9867 36.1413 31.0618C35.7301 31.2699 35.0396 31.4723 34.4313 31.3181C34.0622 31.2237 33.7255 31.0002 33.4979 30.5647L33.4998 30.5666ZM35.8908 30.5339C35.8908 30.5339 35.9118 30.5242 35.9214 30.5204C35.9711 30.5011 37.1226 30.0425 37.3464 28.4412C37.4994 27.3371 36.5889 26.5663 36.5793 26.5605C36.5736 26.5567 36.5698 26.5528 36.564 26.547C36.1719 26.1809 35.1601 25.784 34.5365 26.3004C34.1827 26.5914 34.3223 26.9247 34.3529 26.9864C34.3969 27.0692 34.4007 27.1675 34.3606 27.2504C34.3204 27.3352 34.2439 27.393 34.154 27.4103C34.1138 27.4199 33.7542 27.5124 33.6548 28.0327C33.6012 28.316 33.6452 28.5433 33.7886 28.7033C33.9015 28.8304 34.0373 28.8767 34.0354 28.8767C34.1272 28.9056 34.1999 28.9788 34.2267 29.0713C34.2554 29.1638 34.2362 29.2659 34.175 29.3411C34.1712 29.3469 33.781 29.8459 34.0144 30.293C34.504 31.2295 35.8334 30.5628 35.8908 30.5339Z" fill="#754725"/>
<path d="M22.8075 21.1119C22.907 21.1428 23.0007 21.0965 23.0466 21.0657C23.1461 21.0002 23.2264 20.8865 23.2685 20.7555C23.3106 20.6244 23.3087 20.4838 23.2647 20.3739C23.2436 20.3219 23.1939 20.2275 23.0964 20.1966C23.0715 20.1889 23.0447 20.1851 23.0179 20.187C22.8649 20.1928 22.7023 20.3431 22.6354 20.5551C22.5933 20.6861 22.5952 20.8268 22.6392 20.9366C22.6602 20.9886 22.71 21.083 22.8075 21.1139V21.1119Z" fill="#FFD433"/>
<path d="M19.8946 19.8125C20.0246 19.8549 20.1681 19.8376 20.3096 19.774C20.1184 19.5062 20.0648 18.9897 20.2006 18.4367C20.3517 17.8297 20.6845 17.3692 21.0078 17.2729C20.937 17.1842 20.851 17.1187 20.7515 17.0879C20.696 17.0705 20.6386 17.0628 20.5793 17.0647C20.1758 17.0802 19.7205 17.5484 19.5178 18.192C19.2844 18.93 19.4585 19.6719 19.8946 19.8125Z" fill="white"/>
<path d="M25.3133 20.1211C25.5218 20.1886 25.7609 20.1057 25.979 19.9207C25.6021 19.8205 25.4453 19.1442 25.6289 18.4042C25.738 17.963 25.9445 17.5988 26.1741 17.3965C26.1741 17.3965 26.1741 17.3965 26.1721 17.3965C26.1167 17.3791 26.0593 17.3714 26 17.3733C25.5964 17.3888 25.1412 17.857 24.9384 18.5006C24.7051 19.2386 24.8791 19.9805 25.3152 20.1211H25.3133Z" fill="white"/>
<path d="M19.709 20.3987C19.8333 20.4392 19.9615 20.4546 20.0896 20.4507C20.7553 20.4237 21.4209 19.811 21.7097 18.8938C22.054 17.8012 21.7136 16.751 20.9351 16.5024C20.1566 16.2539 19.2786 16.9148 18.9343 18.0074C18.59 19.0999 18.9305 20.1501 19.709 20.3987ZM19.5177 18.1943C19.7205 17.5507 20.1776 17.0824 20.5793 17.067C20.6386 17.0651 20.696 17.0728 20.7514 17.0902C20.8509 17.1229 20.937 17.1865 21.0078 17.2751C20.6826 17.3715 20.3498 17.832 20.2006 18.439C20.0629 18.9901 20.1164 19.5084 20.3096 19.7763C20.1681 19.8399 20.0265 19.8572 19.8945 19.8148C19.4584 19.6761 19.2844 18.9342 19.5177 18.1943Z" fill="#754725"/>
<path d="M25.1297 20.7069C25.254 20.7474 25.3821 20.7628 25.5103 20.7589C26.1759 20.732 26.8416 20.1192 27.1304 19.202C27.4747 18.1094 27.1342 17.0592 26.3557 16.8107C25.5772 16.5602 24.6993 17.223 24.355 18.3156C24.0107 19.4082 24.3512 20.4583 25.1297 20.7069ZM24.9365 18.5006C25.1392 17.857 25.5964 17.3887 25.998 17.3733C26.0573 17.3714 26.1147 17.3791 26.1702 17.3964C26.1702 17.3964 26.1702 17.3964 26.1721 17.3964C25.9426 17.5988 25.736 17.963 25.627 18.4042C25.4433 19.1442 25.6002 19.8205 25.977 19.9207C25.7589 20.1057 25.5199 20.1886 25.3114 20.1211C24.8753 19.9824 24.7012 19.2405 24.9346 18.5006H24.9365Z" fill="#754725"/>
<path d="M22.6221 21.6979C22.6374 21.7017 22.6527 21.7037 22.668 21.7075L22.6068 23.7539C22.5723 23.7539 22.5417 23.7539 22.5073 23.7539C20.8241 23.7038 20.4741 22.9986 20.4607 22.9716C20.3995 22.8174 20.2254 22.7403 20.0705 22.8001C19.9136 22.8598 19.8333 23.0371 19.8926 23.1951C19.9347 23.3088 20.3689 24.305 22.4882 24.3686C22.6431 24.3725 22.7942 24.3725 22.9434 24.3667C24.4832 24.305 25.7092 23.7154 25.9005 23.3666C25.933 23.3069 25.9483 23.2452 25.9464 23.1835C25.9885 22.9523 26.0669 22.2894 25.7245 21.9137C25.604 21.7807 25.3803 21.6324 25.0073 21.6786C24.6725 21.721 24.399 21.8829 24.2211 22.143C23.9074 22.6016 23.9457 23.2568 23.9973 23.6094C23.7621 23.6633 23.4981 23.7057 23.2169 23.7308L23.2801 21.6497C23.2801 21.6497 23.2801 21.6401 23.2801 21.6362C23.3145 21.6189 23.3489 21.5996 23.3814 21.5784C23.5995 21.4339 23.7659 21.2084 23.8501 20.9406C23.9342 20.6728 23.9285 20.3914 23.8328 20.1467C23.7296 19.8846 23.5287 19.6881 23.282 19.6091C22.7866 19.4511 22.2357 19.7902 22.0559 20.3664C21.9717 20.6342 21.9775 20.9155 22.0731 21.1603C22.1764 21.4223 22.3772 21.6189 22.624 21.6979H22.6221ZM24.7242 22.4918C24.8064 22.3723 24.9212 22.3087 25.0857 22.2875C25.1029 22.2856 25.1163 22.2837 25.1297 22.2837C25.233 22.2798 25.2636 22.3145 25.277 22.328C25.3956 22.4571 25.3898 22.8386 25.3458 23.0776C25.2425 23.1566 24.9786 23.303 24.5903 23.4398C24.5578 23.1489 24.5578 22.7346 24.7223 22.4918H24.7242ZM22.6335 20.5533C22.7005 20.3413 22.8631 20.191 23.0161 20.1852C23.0429 20.1852 23.0697 20.1872 23.0945 20.1949C23.194 20.2257 23.2418 20.3201 23.2628 20.3722C23.3068 20.4839 23.3087 20.6227 23.2667 20.7537C23.2246 20.8847 23.1443 20.9984 23.0448 21.0639C22.997 21.0948 22.9032 21.1429 22.8057 21.1102C22.7062 21.0793 22.6584 20.9849 22.6374 20.9329C22.5934 20.8211 22.5915 20.6824 22.6335 20.5514V20.5533Z" fill="#754725"/>
<path d="M25.3458 23.0774C25.3878 22.8385 25.3955 22.4569 25.2769 22.3278C25.2635 22.3143 25.2329 22.2796 25.1296 22.2835C25.1162 22.2835 25.1009 22.2835 25.0856 22.2874C24.9211 22.3086 24.8064 22.3741 24.7241 22.4916C24.5596 22.7325 24.5596 23.1468 24.5921 23.4397C24.9804 23.3028 25.2463 23.1564 25.3477 23.0774H25.3458Z" fill="#FF76B6"/>
</g>
<defs>
<clipPath id="clip0_41_685">
<rect width="47" height="51" fill="white"/>
</clipPath>
</defs>
</svg>
