<svg width="40" height="41" viewBox="0 0 40 41" fill="none" xmlns="http://www.w3.org/2000/svg">
<path d="M39.9566 19.6432C39.9382 19.3645 39.9136 19.0857 39.8838 18.8088C39.8803 18.7772 39.8768 18.7448 39.8733 18.7132C39.6954 17.1276 39.3298 15.5753 38.7785 14.0747C37.3813 10.2697 34.8885 7.01256 31.57 4.65559C28.177 2.24516 24.1757 0.970703 19.9999 0.970703C15.8242 0.970703 11.8229 2.24516 8.42901 4.65559C5.1105 7.01256 2.61768 10.2697 1.2205 14.0747C0.4106 16.2809 -0.000488281 18.601 -0.000488281 20.9711C-0.000488281 21.4155 0.013536 21.8582 0.0424612 22.2982C0.0626212 22.6094 0.0906698 22.9196 0.125731 23.2291C0.303664 24.8147 0.669173 26.367 1.2205 27.8676C2.61768 31.6726 5.1105 34.9297 8.42901 37.2867C11.8229 39.6971 15.8233 40.9716 19.9999 40.9716C24.1766 40.9716 28.177 39.6971 31.5709 37.2867C34.8894 34.9297 37.3813 31.6726 38.7794 27.8676C39.5902 25.6614 40.0004 23.3413 40.0004 20.9711C40.0004 20.5267 39.9864 20.0841 39.9574 19.6441L39.9566 19.6432ZM36.9282 21.3174C36.9282 21.3542 36.9264 21.391 36.9256 21.4269C36.9238 21.5067 36.9212 21.5856 36.9177 21.6653C36.9159 21.7074 36.9142 21.7495 36.9124 21.7916C36.9089 21.8669 36.9045 21.9432 36.9001 22.0186C36.8975 22.0598 36.8949 22.1001 36.8922 22.1413C36.887 22.2254 36.88 22.3087 36.873 22.3929C36.8703 22.4235 36.8686 22.4551 36.8651 22.4858C36.8554 22.5997 36.844 22.7137 36.8318 22.8267C36.8291 22.8513 36.8256 22.8767 36.823 22.9012C36.8134 22.9906 36.802 23.0792 36.7906 23.1686C36.7853 23.2089 36.7801 23.2483 36.7748 23.2878C36.7643 23.3623 36.7538 23.4377 36.7424 23.5122C36.7362 23.5542 36.7292 23.5963 36.7231 23.6384C36.7108 23.7138 36.6985 23.7892 36.6854 23.8637C36.6784 23.9022 36.6722 23.9408 36.6652 23.9794C36.6486 24.0731 36.631 24.1661 36.6126 24.2598C36.6091 24.2783 36.6056 24.2975 36.6021 24.3159C36.5802 24.4273 36.5565 24.5386 36.532 24.6499C36.525 24.6832 36.5171 24.7156 36.5092 24.7489C36.4917 24.8278 36.4733 24.9067 36.454 24.9847C36.4443 25.025 36.4338 25.0654 36.4242 25.1057C36.4058 25.1784 36.3874 25.2503 36.3681 25.3231C36.3576 25.3634 36.347 25.4037 36.3357 25.444C36.3146 25.5212 36.2927 25.5983 36.2708 25.6745C36.2612 25.7079 36.2515 25.7412 36.2419 25.7753C36.2392 25.7859 36.2357 25.7955 36.2322 25.806H28.1498C28.3006 24.2441 28.3795 22.6234 28.3795 20.972C28.3795 19.3207 28.3015 17.7 28.1498 16.138H36.2322C36.2349 16.1476 36.2384 16.1573 36.241 16.1678C36.2515 16.2029 36.2612 16.2371 36.2708 16.2721C36.2927 16.3475 36.3137 16.4229 36.3348 16.4983C36.3462 16.5395 36.3567 16.5807 36.3681 16.6218C36.3874 16.6928 36.4058 16.7647 36.4233 16.8366C36.4338 16.8778 36.4435 16.9181 36.454 16.9593C36.4733 17.0373 36.4908 17.1145 36.5083 17.1925C36.5162 17.2266 36.5241 17.26 36.5311 17.2933C36.5557 17.4037 36.5793 17.515 36.6012 17.6263C36.6047 17.6456 36.6083 17.6658 36.6126 17.6851C36.631 17.778 36.6486 17.87 36.6652 17.9629C36.6722 18.0015 36.6784 18.0409 36.6854 18.0795C36.6985 18.154 36.7108 18.2294 36.7222 18.3048C36.7292 18.3468 36.7353 18.3889 36.7415 18.431C36.7529 18.5055 36.7634 18.5809 36.7739 18.6554C36.7792 18.6948 36.7853 18.7351 36.7897 18.7746C36.8011 18.8631 36.8116 18.9525 36.8221 19.041C36.8248 19.0665 36.8283 19.091 36.8309 19.1164C36.8432 19.2295 36.8546 19.3434 36.8642 19.4565C36.8668 19.4881 36.8695 19.5196 36.8721 19.5503C36.8791 19.6336 36.8852 19.7177 36.8914 19.801C36.894 19.8422 36.8966 19.8825 36.8993 19.9237C36.9036 19.9991 36.908 20.0753 36.9115 20.1507C36.9133 20.1928 36.915 20.2349 36.9168 20.2769C36.9203 20.3558 36.922 20.4356 36.9247 20.5154C36.9256 20.5522 36.9273 20.589 36.9273 20.6249C36.9299 20.7406 36.9308 20.8554 36.9308 20.972C36.9308 21.0886 36.9291 21.2034 36.9273 21.3191L36.9282 21.3174ZM19.9999 37.9029C18.9262 37.9029 17.5904 36.1726 16.5982 33.4949C16.0907 32.1266 15.6778 30.5655 15.3667 28.8721H24.6332C24.3221 30.5664 23.9092 32.1266 23.4017 33.4949C22.4095 36.1726 21.0737 37.9029 19.9999 37.9029ZM14.931 25.8043C14.7706 24.2537 14.6882 22.6313 14.6882 20.9703C14.6882 19.3093 14.7715 17.6868 14.931 16.1363H25.068C25.2284 17.6868 25.3108 19.3093 25.3108 20.9703C25.3108 22.6313 25.2275 24.2537 25.068 25.8043H14.931ZM3.76767 25.8043C3.76504 25.7946 3.76154 25.785 3.75891 25.7753C3.74839 25.7403 3.73875 25.7052 3.72823 25.6702C3.70632 25.5948 3.68528 25.5194 3.66424 25.444C3.65285 25.4028 3.64233 25.3616 3.63093 25.3204C3.61253 25.2494 3.59412 25.1784 3.57571 25.1066C3.5652 25.0654 3.55468 25.0242 3.54504 24.983C3.52663 24.9058 3.50822 24.8287 3.49069 24.7516C3.4828 24.7174 3.47491 24.6832 3.46703 24.649C3.44248 24.5386 3.41882 24.4281 3.3969 24.3168C3.39252 24.2967 3.38902 24.2765 3.38551 24.2563C3.3671 24.1643 3.35045 24.0723 3.33379 23.9802C3.32678 23.9408 3.32065 23.9022 3.31363 23.8628C3.30049 23.7883 3.28822 23.7138 3.27682 23.6384C3.26981 23.5963 3.26367 23.5542 3.25754 23.5122C3.24614 23.4377 3.23562 23.3632 3.22511 23.2887C3.21985 23.2492 3.21371 23.2089 3.20933 23.1695C3.19793 23.0809 3.18742 22.9924 3.1769 22.9039C3.17427 22.8784 3.17076 22.853 3.16813 22.8285C3.15586 22.7154 3.14447 22.6015 3.13482 22.4875C3.13219 22.4568 3.12957 22.4253 3.12694 22.3946C3.11992 22.3105 3.11379 22.2272 3.10765 22.143C3.10502 22.1019 3.10239 22.0615 3.09976 22.0203C3.09538 21.945 3.091 21.8687 3.08749 21.7933C3.08574 21.7512 3.08399 21.7092 3.08223 21.6671C3.07873 21.5882 3.07697 21.5084 3.07434 21.4287C3.07347 21.3919 3.07171 21.3551 3.07171 21.3191C3.06909 21.2034 3.06821 21.0886 3.06821 20.972C3.06821 20.8554 3.06996 20.7406 3.07171 20.6249C3.07171 20.5881 3.07347 20.5513 3.07434 20.5154C3.0761 20.4356 3.07873 20.3567 3.08223 20.2769C3.08399 20.2349 3.08574 20.1928 3.08749 20.1507C3.091 20.0745 3.09538 19.9991 3.09976 19.9237C3.10239 19.8825 3.10502 19.8422 3.10765 19.801C3.11379 19.7168 3.11992 19.6327 3.12694 19.5494C3.12957 19.5187 3.13132 19.4872 3.13482 19.4565C3.14447 19.3426 3.15586 19.2286 3.16813 19.1155C3.17076 19.091 3.17427 19.0665 3.1769 19.0419C3.18742 18.9525 3.19793 18.8631 3.20933 18.7746C3.21459 18.7351 3.21985 18.6948 3.22511 18.6554C3.23562 18.58 3.24614 18.5055 3.25754 18.431C3.26367 18.3889 3.26981 18.3477 3.27682 18.3056C3.28909 18.2303 3.30136 18.1549 3.31451 18.0795C3.32152 18.0409 3.32766 18.0024 3.33467 17.9647C3.35132 17.8709 3.36973 17.7762 3.38814 17.6824C3.39164 17.664 3.39515 17.6465 3.39866 17.6281C3.42145 17.5168 3.44424 17.4055 3.46966 17.2941C3.47667 17.2617 3.48456 17.2293 3.49244 17.1968C3.51085 17.118 3.52926 17.0382 3.54854 16.9593C3.55818 16.919 3.5687 16.8795 3.57834 16.8392C3.59675 16.7665 3.61516 16.6937 3.63444 16.621C3.64496 16.5807 3.65548 16.5412 3.66687 16.5009C3.68791 16.4238 3.70982 16.3457 3.73261 16.2686C3.74225 16.2353 3.75102 16.202 3.76154 16.1696C3.76417 16.159 3.76767 16.1494 3.77118 16.1389H11.8536C11.7028 17.7008 11.6239 19.3215 11.6239 20.9729C11.6239 22.6243 11.7019 24.2449 11.8536 25.8069H3.76767V25.8043ZM19.9999 4.03852C21.0737 4.03852 22.4095 5.76877 23.4017 8.44654C23.9092 9.81479 24.3221 11.3759 24.6332 13.0693H15.3667C15.6778 11.375 16.0907 9.81479 16.5982 8.44654C17.5904 5.76877 18.9262 4.03852 19.9999 4.03852ZM34.9823 13.0693H27.7458C27.3934 10.9832 26.9008 9.05748 26.2785 7.37982C25.9252 6.42792 25.5378 5.57419 25.118 4.82389C26.7755 5.34804 28.3497 6.13078 29.7942 7.15631C31.9846 8.71213 33.7499 10.7299 34.9823 13.0693ZM10.2057 7.15631C11.6493 6.13078 13.2236 5.34892 14.8819 4.82389C14.463 5.57419 14.0747 6.42792 13.7214 7.37982C13.0991 9.05748 12.6065 10.9832 12.2541 13.0693H5.01759C6.24998 10.7299 8.01529 8.71213 10.2057 7.15631ZM5.01759 28.8721H12.2541C12.6065 30.9582 13.0991 32.8839 13.7214 34.5616C14.0747 35.5135 14.4621 36.3672 14.8819 37.1175C13.2244 36.5934 11.6502 35.8106 10.2057 34.7851C8.01529 33.2293 6.24998 31.2115 5.01759 28.8721ZM29.7942 34.7851C28.3506 35.8106 26.7763 36.5925 25.118 37.1175C25.5369 36.3672 25.9252 35.5135 26.2785 34.5616C26.9008 32.8839 27.3934 30.9582 27.7458 28.8721H34.9823C33.7499 31.2115 31.9846 33.2293 29.7942 34.7851Z" fill="#FDE021"/>
</svg>
