<svg width="58" height="41" viewBox="0 0 58 41" fill="none" xmlns="http://www.w3.org/2000/svg">
<path d="M56.3137 6.71742C55.6574 4.25723 53.727 2.32547 51.2728 1.66405C46.8289 0.470703 29.0042 0.470703 29.0042 0.470703C29.0042 0.470703 11.1794 0.470703 6.73547 1.66405C4.28134 2.32197 2.35435 4.25723 1.69456 6.71742C0.50415 11.1724 0.50415 20.4707 0.50415 20.4707C0.50415 20.4707 0.50415 29.769 1.69456 34.224C2.35086 36.6842 4.28134 38.6159 6.73547 39.2774C11.1794 40.4707 29.0042 40.4707 29.0042 40.4707C29.0042 40.4707 46.8289 40.4707 51.2728 39.2774C53.727 38.6194 55.654 36.6842 56.3137 34.224C57.5042 29.769 57.5042 20.4707 57.5042 20.4707C57.5042 20.4707 57.5007 11.1724 56.3137 6.71742Z" fill="#FF0000"/>
<path d="M23.3 29.0412L38.1086 20.4708L23.3 11.9004V29.0412Z" fill="white"/>
</svg>
