<svg width="129" height="132" viewBox="0 0 129 132" fill="none" xmlns="http://www.w3.org/2000/svg">
<path d="M64.5 0.368652L74.3953 9.74938L86.9023 4.31879L92.9925 16.5182L106.603 15.6927L108.153 29.2394L121.225 33.1187L118.048 46.3786L129.005 54.4947L121.485 65.8687L129.005 77.2426L118.048 85.3587L121.225 98.6187L108.153 102.498L106.603 116.045L92.9925 115.219L86.9023 127.419L74.3953 121.988L64.5 131.369L54.6047 121.988L42.0977 127.419L36.0075 115.219L22.3974 116.045L20.847 102.498L7.77534 98.6187L10.9516 85.3587L-0.0049057 77.2426L7.515 65.8687L-0.0049057 54.4947L10.9516 46.3786L7.77534 33.1187L20.847 29.2394L22.3974 15.6927L36.0075 16.5182L42.0977 4.31879L54.6047 9.74938L64.5 0.368652Z" fill="#74C290"/>
</svg>
